<svg width="299" height="68" viewBox="0 0 299 68" fill="none" xmlns="http://www.w3.org/2000/svg">
<path d="M27.9141 49.0039C28.625 49.1224 29.1582 49.1816 29.5137 49.1816C29.8691 49.1816 30.2161 49.1478 30.5547 49.0801C30.9102 48.9954 31.2233 48.8685 31.4941 48.6992C32.1035 48.3268 32.4082 47.7428 32.4082 46.9473C32.4082 46.2871 32.2051 45.5508 31.7988 44.7383L29.4121 38.8223H13.3398L10.4961 46.0332C10.2253 46.6934 10.0898 47.1758 10.0898 47.4805C10.0898 47.7682 10.1322 47.9883 10.2168 48.1406C10.3184 48.276 10.4622 48.3945 10.6484 48.4961C10.8516 48.5977 11.097 48.6823 11.3848 48.75L12.4258 49.0293C13.543 49.2155 14.2624 49.3848 14.584 49.5371C15.2441 49.8587 15.5742 50.3327 15.5742 50.959C15.5742 51.416 15.4473 51.8053 15.1934 52.127C14.8717 52.0423 14.5755 52 14.3047 52H3.9707C1.7194 52 0.59375 51.3822 0.59375 50.1465C0.59375 49.571 0.720703 49.1055 0.974609 48.75C1.60091 48.9193 2.12565 49.0039 2.54883 49.0039C2.98893 49.0039 3.35286 48.9362 3.64062 48.8008C3.94531 48.6654 4.23307 48.4368 4.50391 48.1152C4.96094 47.5566 5.49414 46.4395 6.10352 44.7637L18.6465 14.3965C19.002 13.584 20.0091 13.0254 21.668 12.7207C22.125 12.6361 22.6074 12.5938 23.1152 12.5938C24.1478 12.5938 24.7826 12.873 25.0195 13.4316L27.5586 19.7793C32.4505 31.3236 35.2773 38.0605 36.0391 39.9902L38.3242 45.9824C38.7812 47.2858 39.1621 48.0898 39.4668 48.3945C39.7715 48.6992 40.1016 48.9108 40.457 49.0293C40.8125 49.1478 41.1764 49.2493 41.5488 49.334C41.9382 49.4017 42.2767 49.4948 42.5645 49.6133C43.2077 49.901 43.5293 50.3411 43.5293 50.9336C43.5293 51.3906 43.4023 51.7799 43.1484 52.1016C42.8268 52.0169 42.5391 51.9746 42.2852 51.9746H30.1738C29.3105 51.9746 28.6335 51.873 28.1426 51.6699C27.6686 51.4499 27.4316 51.1198 27.4316 50.6797C27.4316 49.918 27.5924 49.3594 27.9141 49.0039ZM27.9395 35.2168L21.2871 18.7637L14.7617 35.2168H27.9395ZM15.168 7.18555C14.6771 7.01628 14.4316 6.6862 14.4316 6.19531C14.4316 5.6875 14.5163 5.20508 14.6855 4.74805C14.8717 4.29102 15.1172 3.85938 15.4219 3.45312C16.1328 2.53906 16.8861 2.08203 17.6816 2.08203C18.071 2.08203 18.4518 2.21745 18.8242 2.48828L27.6348 7.89648C27.7363 8.01497 27.7871 8.15885 27.7871 8.32812C27.7871 8.48047 27.7448 8.64974 27.6602 8.83594C27.5924 9.02214 27.4993 9.20833 27.3809 9.39453C27.0931 9.81771 26.7799 10.0293 26.4414 10.0293L15.168 7.18555ZM82.5801 52.2031C82.1908 52.0677 81.3529 52 80.0664 52H67.0156C66.1354 52 65.4329 51.8646 64.9082 51.5938C64.3835 51.306 64.1211 50.7897 64.1211 50.0449C64.1211 49.5033 64.248 49.0716 64.502 48.75C65.1452 48.9193 65.763 49.0039 66.3555 49.0039C66.9479 49.0039 67.4134 48.9447 67.752 48.8262C68.0905 48.6908 68.3867 48.4622 68.6406 48.1406C69.1484 47.4635 69.4023 46.3379 69.4023 44.7637V19.2715C69.4023 17.6973 68.4714 16.7155 66.6094 16.3262C65.4414 16.0892 64.6797 15.8184 64.3242 15.5137C63.9688 15.209 63.791 14.8789 63.791 14.5234C63.791 13.7448 63.9264 13.2201 64.1973 12.9492C64.502 13.0339 64.7812 13.0762 65.0352 13.0762H71.332L80.3711 12.8223C88.293 12.8223 93.3034 14.9805 95.4023 19.2969C96.1641 20.8542 96.5449 22.4115 96.5449 23.9688C96.5449 25.526 96.4349 26.8548 96.2148 27.9551C95.9948 29.0553 95.6139 30.1302 95.0723 31.1797C94.5475 32.2122 93.8451 33.194 92.9648 34.125C92.0846 35.0391 90.9844 35.8431 89.6641 36.5371C86.8034 38.0267 83.1471 38.7715 78.6953 38.7715H77.7305C77.2565 38.7715 77.0195 38.4668 77.0195 37.8574C77.0195 36.5202 77.3835 35.7669 78.1113 35.5977C84.4759 35.7331 88.3268 33.8372 89.6641 29.9102C90.0703 28.6745 90.2734 27.3542 90.2734 25.9492C90.2734 24.5443 90.1211 23.2578 89.8164 22.0898C89.5117 20.9049 88.9616 19.8555 88.166 18.9414C86.4056 16.944 83.4941 15.9453 79.4316 15.9453C77.7897 15.9453 76.6979 16.3008 76.1562 17.0117C75.6484 17.638 75.3945 18.9076 75.3945 20.8203V46.1855C75.4792 47.5059 76.5286 48.3099 78.543 48.5977C80.3542 48.8516 81.4798 49.0885 81.9199 49.3086C82.36 49.5286 82.6478 49.7487 82.7832 49.9688C82.9186 50.1719 82.9863 50.4258 82.9863 50.7305C82.9863 51.3737 82.8509 51.8646 82.5801 52.2031ZM116.273 52.2031C115.884 52.0677 115.055 52 113.785 52H103.426C102.546 52 101.843 51.8646 101.318 51.5938C100.794 51.306 100.531 50.7897 100.531 50.0449C100.531 49.5033 100.658 49.0716 100.912 48.75C101.555 48.9193 102.173 49.0039 102.766 49.0039C103.358 49.0039 103.824 48.9447 104.162 48.8262C104.501 48.6908 104.797 48.4622 105.051 48.1406C105.559 47.4635 105.812 46.3379 105.812 44.7637V18.7891C105.762 17.6042 105.372 16.8509 104.645 16.5293C104.424 16.4277 104.12 16.3346 103.73 16.25C103.358 16.1654 102.986 16.0807 102.613 15.9961C102.258 15.8945 101.953 15.776 101.699 15.6406C101.191 15.3698 100.938 15.0143 100.938 14.5742C100.938 13.7786 101.073 13.2116 101.344 12.873C101.733 13.0085 102.571 13.0762 103.857 13.0762H107.158L116.07 12.8223L117.162 12.7969C122.376 12.7969 126.277 13.7279 128.867 15.5898C131.457 17.4349 132.752 20.0417 132.752 23.4102C132.752 25.9323 131.931 28.2513 130.289 30.3672C128.461 32.7201 125.939 34.3112 122.723 35.1406C123.603 35.75 124.602 36.8672 125.719 38.4922L128.41 42.4277C130.932 46.1009 133.023 47.9375 134.682 47.9375C135.308 47.9375 135.782 47.8783 136.104 47.7598L136.738 47.5059C136.874 47.4551 137.026 47.4297 137.195 47.4297C137.365 47.4297 137.542 47.5651 137.729 47.8359C137.915 48.0898 138.008 48.3861 138.008 48.7246C138.008 49.0632 137.864 49.4694 137.576 49.9434C137.288 50.4004 136.882 50.8151 136.357 51.1875C135.173 52.0508 133.878 52.4824 132.473 52.4824C131.068 52.4824 129.908 52.2454 128.994 51.7715C128.097 51.2975 127.268 50.6797 126.506 49.918C125.761 49.1393 125.076 48.2591 124.449 47.2773C123.84 46.2956 123.264 45.2884 122.723 44.2559L121.225 41.2344C120.158 39.0339 119.303 37.6204 118.66 36.9941C118.034 36.3509 117.458 36.0293 116.934 36.0293H114.369C113.946 36.0293 113.734 35.7246 113.734 35.1152C113.734 34.2689 114.056 33.6087 114.699 33.1348C114.919 32.9824 115.579 32.8978 116.68 32.8809C117.78 32.847 119.016 32.61 120.387 32.1699C121.775 31.7298 122.917 31.1289 123.814 30.3672C125.558 28.8607 126.43 26.7448 126.43 24.0195C126.43 21.7344 125.668 19.8639 124.145 18.4082C122.418 16.7663 120.014 15.9284 116.934 15.8945C114.902 15.8945 113.548 16.1992 112.871 16.8086C112.194 17.3841 111.839 18.4759 111.805 20.084V46.0078C111.805 47.3451 112.177 48.1914 112.922 48.5469C113.159 48.6484 113.472 48.7415 113.861 48.8262C114.251 48.9108 114.623 49.0039 114.979 49.1055C115.351 49.1901 115.664 49.3001 115.918 49.4355C116.426 49.7064 116.68 50.0703 116.68 50.5273C116.68 51.306 116.544 51.8646 116.273 52.2031ZM145.955 47.4805C144.347 45.8724 143.086 43.9342 142.172 41.666C141.275 39.3809 140.826 36.9688 140.826 34.4297C140.826 31.8737 141.08 29.6224 141.588 27.6758C142.096 25.7292 142.798 23.9688 143.695 22.3945C144.592 20.8034 145.659 19.3984 146.895 18.1797C148.13 16.9609 149.476 15.9368 150.932 15.1074C153.877 13.4316 157.068 12.5938 160.504 12.5938C165.717 12.5938 169.966 14.2526 173.25 17.5703C176.686 21.0234 178.404 25.5684 178.404 31.2051C178.404 35.4538 177.448 39.2708 175.535 42.6562C173.792 45.737 171.388 48.1576 168.324 49.918C165.379 51.6276 162.408 52.4824 159.412 52.4824C156.433 52.4824 153.843 52.0508 151.643 51.1875C149.459 50.3073 147.563 49.0716 145.955 47.4805ZM150.221 20.9219C149.222 22.3268 148.486 24.028 148.012 26.0254C147.538 28.0228 147.301 30.1725 147.301 32.4746C147.301 34.7598 147.521 36.8587 147.961 38.7715C148.401 40.6673 149.104 42.3346 150.068 43.7734C152.167 46.9049 155.282 48.4707 159.412 48.4707C163.576 48.4707 166.733 47.1081 168.883 44.3828C170.948 41.7253 171.98 37.9421 171.98 33.0332C171.98 25.5007 169.746 20.4479 165.277 17.875C163.686 16.9779 161.799 16.5293 159.615 16.5293C157.432 16.5293 155.57 16.9102 154.029 17.6719C152.489 18.4336 151.219 19.5169 150.221 20.9219ZM202.373 52.2031C201.984 52.0677 201.146 52 199.859 52H186.809C185.928 52 185.226 51.8646 184.701 51.5938C184.176 51.306 183.914 50.7897 183.914 50.0449C183.914 49.5033 184.041 49.0716 184.295 48.75C184.938 48.9193 185.556 49.0039 186.148 49.0039C186.741 49.0039 187.206 48.9447 187.545 48.8262C187.883 48.6908 188.18 48.4622 188.434 48.1406C188.941 47.4635 189.195 46.3379 189.195 44.7637V19.2715C189.195 17.6973 188.264 16.7155 186.402 16.3262C185.234 16.0892 184.473 15.8184 184.117 15.5137C183.762 15.209 183.584 14.8789 183.584 14.5234C183.584 13.7448 183.719 13.2201 183.99 12.9492C184.295 13.0339 184.574 13.0762 184.828 13.0762H191.125L200.164 12.8223C208.086 12.8223 213.096 14.9805 215.195 19.2969C215.957 20.8542 216.338 22.4115 216.338 23.9688C216.338 25.526 216.228 26.8548 216.008 27.9551C215.788 29.0553 215.407 30.1302 214.865 31.1797C214.34 32.2122 213.638 33.194 212.758 34.125C211.878 35.0391 210.777 35.8431 209.457 36.5371C206.596 38.0267 202.94 38.7715 198.488 38.7715H197.523C197.049 38.7715 196.812 38.4668 196.812 37.8574C196.812 36.5202 197.176 35.7669 197.904 35.5977C204.269 35.7331 208.12 33.8372 209.457 29.9102C209.863 28.6745 210.066 27.3542 210.066 25.9492C210.066 24.5443 209.914 23.2578 209.609 22.0898C209.305 20.9049 208.755 19.8555 207.959 18.9414C206.199 16.944 203.287 15.9453 199.225 15.9453C197.583 15.9453 196.491 16.3008 195.949 17.0117C195.441 17.638 195.188 18.9076 195.188 20.8203V46.1855C195.272 47.5059 196.322 48.3099 198.336 48.5977C200.147 48.8516 201.273 49.0885 201.713 49.3086C202.153 49.5286 202.441 49.7487 202.576 49.9688C202.712 50.1719 202.779 50.4258 202.779 50.7305C202.779 51.3737 202.644 51.8646 202.373 52.2031ZM225.479 47.4805C223.87 45.8724 222.609 43.9342 221.695 41.666C220.798 39.3809 220.35 36.9688 220.35 34.4297C220.35 31.8737 220.604 29.6224 221.111 27.6758C221.619 25.7292 222.322 23.9688 223.219 22.3945C224.116 20.8034 225.182 19.3984 226.418 18.1797C227.654 16.9609 228.999 15.9368 230.455 15.1074C233.4 13.4316 236.591 12.5938 240.027 12.5938C245.241 12.5938 249.49 14.2526 252.773 17.5703C256.21 21.0234 257.928 25.5684 257.928 31.2051C257.928 35.4538 256.971 39.2708 255.059 42.6562C253.315 45.737 250.911 48.1576 247.848 49.918C244.902 51.6276 241.932 52.4824 238.936 52.4824C235.956 52.4824 233.367 52.0508 231.166 51.1875C228.982 50.3073 227.087 49.0716 225.479 47.4805ZM229.744 20.9219C228.745 22.3268 228.009 24.028 227.535 26.0254C227.061 28.0228 226.824 30.1725 226.824 32.4746C226.824 34.7598 227.044 36.8587 227.484 38.7715C227.924 40.6673 228.627 42.3346 229.592 43.7734C231.691 46.9049 234.805 48.4707 238.936 48.4707C243.1 48.4707 246.257 47.1081 248.406 44.3828C250.471 41.7253 251.504 37.9421 251.504 33.0332C251.504 25.5007 249.27 20.4479 244.801 17.875C243.21 16.9779 241.322 16.5293 239.139 16.5293C236.955 16.5293 235.093 16.9102 233.553 17.6719C232.012 18.4336 230.743 19.5169 229.744 20.9219ZM285.35 23.791C285.35 19.9147 283.97 17.4857 281.211 16.5039C280.263 16.1654 279.154 15.9961 277.885 15.9961C276.615 15.9961 275.523 16.14 274.609 16.4277C273.695 16.7155 272.934 17.1048 272.324 17.5957C271.089 18.5944 270.471 19.9147 270.471 21.5566C270.471 24.0449 272.299 26.1693 275.955 27.9297L279.129 29.4277C280.669 30.1387 282.15 30.8665 283.572 31.6113C285.011 32.3392 286.281 33.1771 287.381 34.125C289.801 36.1901 291.012 38.7461 291.012 41.793C291.012 45.0599 289.59 47.6921 286.746 49.6895C284.089 51.5514 280.754 52.4824 276.742 52.4824C273.56 52.4824 270.75 51.9831 268.312 50.9844C266.518 50.2734 265.24 49.2663 264.479 47.9629C264.089 47.3027 263.895 46.4987 263.895 45.5508C263.895 43.6549 264.368 41.8861 265.316 40.2441C265.638 39.8548 266.078 39.6602 266.637 39.6602C267.72 39.6602 268.346 39.9818 268.516 40.625C268.736 43.5534 269.633 45.6862 271.207 47.0234C272.798 48.3607 275.016 49.0293 277.859 49.0293C281.126 49.0293 283.318 47.9629 284.436 45.8301C284.825 45.0853 285.02 44.2135 285.02 43.2148C285.02 42.1992 284.749 41.2936 284.207 40.498C283.665 39.7025 282.946 38.9661 282.049 38.2891C280.678 37.2734 278.858 36.2917 276.59 35.3438C274.339 34.3958 272.578 33.5664 271.309 32.8555C270.056 32.1445 268.947 31.3151 267.982 30.3672C265.883 28.3021 264.834 25.7546 264.834 22.7246C264.834 19.627 266.163 17.1471 268.82 15.2852C271.376 13.4909 274.677 12.5938 278.723 12.5938C283.852 12.5938 287.203 13.6517 288.777 15.7676C289.353 16.5293 289.641 17.528 289.641 18.7637C289.641 19.9993 289.522 21.0742 289.285 21.9883C289.065 22.9023 288.845 23.4948 288.625 23.7656C288.253 24.2227 287.609 24.4512 286.695 24.4512C285.798 24.4512 285.35 24.2311 285.35 23.791Z" fill="#0A2463"/>
<mask id="path-2-outside-1_114_79" maskUnits="userSpaceOnUse" x="3" y="4" width="294" height="53" fill="black">
<rect fill="white" x="3" y="4" width="294" height="53"/>
<path d="M31.9141 52.0039C32.625 52.1224 33.1582 52.1816 33.5137 52.1816C33.8691 52.1816 34.2161 52.1478 34.5547 52.0801C34.9102 51.9954 35.2233 51.8685 35.4941 51.6992C36.1035 51.3268 36.4082 50.7428 36.4082 49.9473C36.4082 49.2871 36.2051 48.5508 35.7988 47.7383L33.4121 41.8223H17.3398L14.4961 49.0332C14.2253 49.6934 14.0898 50.1758 14.0898 50.4805C14.0898 50.7682 14.1322 50.9883 14.2168 51.1406C14.3184 51.276 14.4622 51.3945 14.6484 51.4961C14.8516 51.5977 15.097 51.6823 15.3848 51.75L16.4258 52.0293C17.543 52.2155 18.2624 52.3848 18.584 52.5371C19.2441 52.8587 19.5742 53.3327 19.5742 53.959C19.5742 54.416 19.4473 54.8053 19.1934 55.127C18.8717 55.0423 18.5755 55 18.3047 55H7.9707C5.7194 55 4.59375 54.3822 4.59375 53.1465C4.59375 52.571 4.7207 52.1055 4.97461 51.75C5.60091 51.9193 6.12565 52.0039 6.54883 52.0039C6.98893 52.0039 7.35286 51.9362 7.64062 51.8008C7.94531 51.6654 8.23307 51.4368 8.50391 51.1152C8.96094 50.5566 9.49414 49.4395 10.1035 47.7637L22.6465 17.3965C23.002 16.584 24.0091 16.0254 25.668 15.7207C26.125 15.6361 26.6074 15.5938 27.1152 15.5938C28.1478 15.5938 28.7826 15.873 29.0195 16.4316L31.5586 22.7793C36.4505 34.3236 39.2773 41.0605 40.0391 42.9902L42.3242 48.9824C42.7812 50.2858 43.1621 51.0898 43.4668 51.3945C43.7715 51.6992 44.1016 51.9108 44.457 52.0293C44.8125 52.1478 45.1764 52.2493 45.5488 52.334C45.9382 52.4017 46.2767 52.4948 46.5645 52.6133C47.2077 52.901 47.5293 53.3411 47.5293 53.9336C47.5293 54.3906 47.4023 54.7799 47.1484 55.1016C46.8268 55.0169 46.5391 54.9746 46.2852 54.9746H34.1738C33.3105 54.9746 32.6335 54.873 32.1426 54.6699C31.6686 54.4499 31.4316 54.1198 31.4316 53.6797C31.4316 52.918 31.5924 52.3594 31.9141 52.0039ZM31.9395 38.2168L25.2871 21.7637L18.7617 38.2168H31.9395ZM19.168 10.1855C18.6771 10.0163 18.4316 9.6862 18.4316 9.19531C18.4316 8.6875 18.5163 8.20508 18.6855 7.74805C18.8717 7.29102 19.1172 6.85938 19.4219 6.45312C20.1328 5.53906 20.8861 5.08203 21.6816 5.08203C22.071 5.08203 22.4518 5.21745 22.8242 5.48828L31.6348 10.8965C31.7363 11.015 31.7871 11.1589 31.7871 11.3281C31.7871 11.4805 31.7448 11.6497 31.6602 11.8359C31.5924 12.0221 31.4993 12.2083 31.3809 12.3945C31.0931 12.8177 30.7799 13.0293 30.4414 13.0293L19.168 10.1855ZM86.5801 55.2031C86.1908 55.0677 85.3529 55 84.0664 55H71.0156C70.1354 55 69.4329 54.8646 68.9082 54.5938C68.3835 54.306 68.1211 53.7897 68.1211 53.0449C68.1211 52.5033 68.248 52.0716 68.502 51.75C69.1452 51.9193 69.763 52.0039 70.3555 52.0039C70.9479 52.0039 71.4134 51.9447 71.752 51.8262C72.0905 51.6908 72.3867 51.4622 72.6406 51.1406C73.1484 50.4635 73.4023 49.3379 73.4023 47.7637V22.2715C73.4023 20.6973 72.4714 19.7155 70.6094 19.3262C69.4414 19.0892 68.6797 18.8184 68.3242 18.5137C67.9688 18.209 67.791 17.8789 67.791 17.5234C67.791 16.7448 67.9264 16.2201 68.1973 15.9492C68.502 16.0339 68.7812 16.0762 69.0352 16.0762H75.332L84.3711 15.8223C92.293 15.8223 97.3034 17.9805 99.4023 22.2969C100.164 23.8542 100.545 25.4115 100.545 26.9688C100.545 28.526 100.435 29.8548 100.215 30.9551C99.9948 32.0553 99.6139 33.1302 99.0723 34.1797C98.5475 35.2122 97.8451 36.194 96.9648 37.125C96.0846 38.0391 94.9844 38.8431 93.6641 39.5371C90.8034 41.0267 87.1471 41.7715 82.6953 41.7715H81.7305C81.2565 41.7715 81.0195 41.4668 81.0195 40.8574C81.0195 39.5202 81.3835 38.7669 82.1113 38.5977C88.4759 38.7331 92.3268 36.8372 93.6641 32.9102C94.0703 31.6745 94.2734 30.3542 94.2734 28.9492C94.2734 27.5443 94.1211 26.2578 93.8164 25.0898C93.5117 23.9049 92.9616 22.8555 92.166 21.9414C90.4056 19.944 87.4941 18.9453 83.4316 18.9453C81.7897 18.9453 80.6979 19.3008 80.1562 20.0117C79.6484 20.638 79.3945 21.9076 79.3945 23.8203V49.1855C79.4792 50.5059 80.5286 51.3099 82.543 51.5977C84.3542 51.8516 85.4798 52.0885 85.9199 52.3086C86.36 52.5286 86.6478 52.7487 86.7832 52.9688C86.9186 53.1719 86.9863 53.4258 86.9863 53.7305C86.9863 54.3737 86.8509 54.8646 86.5801 55.2031ZM120.273 55.2031C119.884 55.0677 119.055 55 117.785 55H107.426C106.546 55 105.843 54.8646 105.318 54.5938C104.794 54.306 104.531 53.7897 104.531 53.0449C104.531 52.5033 104.658 52.0716 104.912 51.75C105.555 51.9193 106.173 52.0039 106.766 52.0039C107.358 52.0039 107.824 51.9447 108.162 51.8262C108.501 51.6908 108.797 51.4622 109.051 51.1406C109.559 50.4635 109.812 49.3379 109.812 47.7637V21.7891C109.762 20.6042 109.372 19.8509 108.645 19.5293C108.424 19.4277 108.12 19.3346 107.73 19.25C107.358 19.1654 106.986 19.0807 106.613 18.9961C106.258 18.8945 105.953 18.776 105.699 18.6406C105.191 18.3698 104.938 18.0143 104.938 17.5742C104.938 16.7786 105.073 16.2116 105.344 15.873C105.733 16.0085 106.571 16.0762 107.857 16.0762H111.158L120.07 15.8223L121.162 15.7969C126.376 15.7969 130.277 16.7279 132.867 18.5898C135.457 20.4349 136.752 23.0417 136.752 26.4102C136.752 28.9323 135.931 31.2513 134.289 33.3672C132.461 35.7201 129.939 37.3112 126.723 38.1406C127.603 38.75 128.602 39.8672 129.719 41.4922L132.41 45.4277C134.932 49.1009 137.023 50.9375 138.682 50.9375C139.308 50.9375 139.782 50.8783 140.104 50.7598L140.738 50.5059C140.874 50.4551 141.026 50.4297 141.195 50.4297C141.365 50.4297 141.542 50.5651 141.729 50.8359C141.915 51.0898 142.008 51.3861 142.008 51.7246C142.008 52.0632 141.864 52.4694 141.576 52.9434C141.288 53.4004 140.882 53.8151 140.357 54.1875C139.173 55.0508 137.878 55.4824 136.473 55.4824C135.068 55.4824 133.908 55.2454 132.994 54.7715C132.097 54.2975 131.268 53.6797 130.506 52.918C129.761 52.1393 129.076 51.2591 128.449 50.2773C127.84 49.2956 127.264 48.2884 126.723 47.2559L125.225 44.2344C124.158 42.0339 123.303 40.6204 122.66 39.9941C122.034 39.3509 121.458 39.0293 120.934 39.0293H118.369C117.946 39.0293 117.734 38.7246 117.734 38.1152C117.734 37.2689 118.056 36.6087 118.699 36.1348C118.919 35.9824 119.579 35.8978 120.68 35.8809C121.78 35.847 123.016 35.61 124.387 35.1699C125.775 34.7298 126.917 34.1289 127.814 33.3672C129.558 31.8607 130.43 29.7448 130.43 27.0195C130.43 24.7344 129.668 22.8639 128.145 21.4082C126.418 19.7663 124.014 18.9284 120.934 18.8945C118.902 18.8945 117.548 19.1992 116.871 19.8086C116.194 20.3841 115.839 21.4759 115.805 23.084V49.0078C115.805 50.3451 116.177 51.1914 116.922 51.5469C117.159 51.6484 117.472 51.7415 117.861 51.8262C118.251 51.9108 118.623 52.0039 118.979 52.1055C119.351 52.1901 119.664 52.3001 119.918 52.4355C120.426 52.7064 120.68 53.0703 120.68 53.5273C120.68 54.306 120.544 54.8646 120.273 55.2031ZM149.955 50.4805C148.347 48.8724 147.086 46.9342 146.172 44.666C145.275 42.3809 144.826 39.9688 144.826 37.4297C144.826 34.8737 145.08 32.6224 145.588 30.6758C146.096 28.7292 146.798 26.9688 147.695 25.3945C148.592 23.8034 149.659 22.3984 150.895 21.1797C152.13 19.9609 153.476 18.9368 154.932 18.1074C157.877 16.4316 161.068 15.5938 164.504 15.5938C169.717 15.5938 173.966 17.2526 177.25 20.5703C180.686 24.0234 182.404 28.5684 182.404 34.2051C182.404 38.4538 181.448 42.2708 179.535 45.6562C177.792 48.737 175.388 51.1576 172.324 52.918C169.379 54.6276 166.408 55.4824 163.412 55.4824C160.433 55.4824 157.843 55.0508 155.643 54.1875C153.459 53.3073 151.563 52.0716 149.955 50.4805ZM154.221 23.9219C153.222 25.3268 152.486 27.028 152.012 29.0254C151.538 31.0228 151.301 33.1725 151.301 35.4746C151.301 37.7598 151.521 39.8587 151.961 41.7715C152.401 43.6673 153.104 45.3346 154.068 46.7734C156.167 49.9049 159.282 51.4707 163.412 51.4707C167.576 51.4707 170.733 50.1081 172.883 47.3828C174.948 44.7253 175.98 40.9421 175.98 36.0332C175.98 28.5007 173.746 23.4479 169.277 20.875C167.686 19.9779 165.799 19.5293 163.615 19.5293C161.432 19.5293 159.57 19.9102 158.029 20.6719C156.489 21.4336 155.219 22.5169 154.221 23.9219ZM206.373 55.2031C205.984 55.0677 205.146 55 203.859 55H190.809C189.928 55 189.226 54.8646 188.701 54.5938C188.176 54.306 187.914 53.7897 187.914 53.0449C187.914 52.5033 188.041 52.0716 188.295 51.75C188.938 51.9193 189.556 52.0039 190.148 52.0039C190.741 52.0039 191.206 51.9447 191.545 51.8262C191.883 51.6908 192.18 51.4622 192.434 51.1406C192.941 50.4635 193.195 49.3379 193.195 47.7637V22.2715C193.195 20.6973 192.264 19.7155 190.402 19.3262C189.234 19.0892 188.473 18.8184 188.117 18.5137C187.762 18.209 187.584 17.8789 187.584 17.5234C187.584 16.7448 187.719 16.2201 187.99 15.9492C188.295 16.0339 188.574 16.0762 188.828 16.0762H195.125L204.164 15.8223C212.086 15.8223 217.096 17.9805 219.195 22.2969C219.957 23.8542 220.338 25.4115 220.338 26.9688C220.338 28.526 220.228 29.8548 220.008 30.9551C219.788 32.0553 219.407 33.1302 218.865 34.1797C218.34 35.2122 217.638 36.194 216.758 37.125C215.878 38.0391 214.777 38.8431 213.457 39.5371C210.596 41.0267 206.94 41.7715 202.488 41.7715H201.523C201.049 41.7715 200.812 41.4668 200.812 40.8574C200.812 39.5202 201.176 38.7669 201.904 38.5977C208.269 38.7331 212.12 36.8372 213.457 32.9102C213.863 31.6745 214.066 30.3542 214.066 28.9492C214.066 27.5443 213.914 26.2578 213.609 25.0898C213.305 23.9049 212.755 22.8555 211.959 21.9414C210.199 19.944 207.287 18.9453 203.225 18.9453C201.583 18.9453 200.491 19.3008 199.949 20.0117C199.441 20.638 199.188 21.9076 199.188 23.8203V49.1855C199.272 50.5059 200.322 51.3099 202.336 51.5977C204.147 51.8516 205.273 52.0885 205.713 52.3086C206.153 52.5286 206.441 52.7487 206.576 52.9688C206.712 53.1719 206.779 53.4258 206.779 53.7305C206.779 54.3737 206.644 54.8646 206.373 55.2031ZM229.479 50.4805C227.87 48.8724 226.609 46.9342 225.695 44.666C224.798 42.3809 224.35 39.9688 224.35 37.4297C224.35 34.8737 224.604 32.6224 225.111 30.6758C225.619 28.7292 226.322 26.9688 227.219 25.3945C228.116 23.8034 229.182 22.3984 230.418 21.1797C231.654 19.9609 232.999 18.9368 234.455 18.1074C237.4 16.4316 240.591 15.5938 244.027 15.5938C249.241 15.5938 253.49 17.2526 256.773 20.5703C260.21 24.0234 261.928 28.5684 261.928 34.2051C261.928 38.4538 260.971 42.2708 259.059 45.6562C257.315 48.737 254.911 51.1576 251.848 52.918C248.902 54.6276 245.932 55.4824 242.936 55.4824C239.956 55.4824 237.367 55.0508 235.166 54.1875C232.982 53.3073 231.087 52.0716 229.479 50.4805ZM233.744 23.9219C232.745 25.3268 232.009 27.028 231.535 29.0254C231.061 31.0228 230.824 33.1725 230.824 35.4746C230.824 37.7598 231.044 39.8587 231.484 41.7715C231.924 43.6673 232.627 45.3346 233.592 46.7734C235.691 49.9049 238.805 51.4707 242.936 51.4707C247.1 51.4707 250.257 50.1081 252.406 47.3828C254.471 44.7253 255.504 40.9421 255.504 36.0332C255.504 28.5007 253.27 23.4479 248.801 20.875C247.21 19.9779 245.322 19.5293 243.139 19.5293C240.955 19.5293 239.093 19.9102 237.553 20.6719C236.012 21.4336 234.743 22.5169 233.744 23.9219ZM289.35 26.791C289.35 22.9147 287.97 20.4857 285.211 19.5039C284.263 19.1654 283.154 18.9961 281.885 18.9961C280.615 18.9961 279.523 19.14 278.609 19.4277C277.695 19.7155 276.934 20.1048 276.324 20.5957C275.089 21.5944 274.471 22.9147 274.471 24.5566C274.471 27.0449 276.299 29.1693 279.955 30.9297L283.129 32.4277C284.669 33.1387 286.15 33.8665 287.572 34.6113C289.011 35.3392 290.281 36.1771 291.381 37.125C293.801 39.1901 295.012 41.7461 295.012 44.793C295.012 48.0599 293.59 50.6921 290.746 52.6895C288.089 54.5514 284.754 55.4824 280.742 55.4824C277.56 55.4824 274.75 54.9831 272.312 53.9844C270.518 53.2734 269.24 52.2663 268.479 50.9629C268.089 50.3027 267.895 49.4987 267.895 48.5508C267.895 46.6549 268.368 44.8861 269.316 43.2441C269.638 42.8548 270.078 42.6602 270.637 42.6602C271.72 42.6602 272.346 42.9818 272.516 43.625C272.736 46.5534 273.633 48.6862 275.207 50.0234C276.798 51.3607 279.016 52.0293 281.859 52.0293C285.126 52.0293 287.318 50.9629 288.436 48.8301C288.825 48.0853 289.02 47.2135 289.02 46.2148C289.02 45.1992 288.749 44.2936 288.207 43.498C287.665 42.7025 286.946 41.9661 286.049 41.2891C284.678 40.2734 282.858 39.2917 280.59 38.3438C278.339 37.3958 276.578 36.5664 275.309 35.8555C274.056 35.1445 272.947 34.3151 271.982 33.3672C269.883 31.3021 268.834 28.7546 268.834 25.7246C268.834 22.627 270.163 20.1471 272.82 18.2852C275.376 16.4909 278.677 15.5938 282.723 15.5938C287.852 15.5938 291.203 16.6517 292.777 18.7676C293.353 19.5293 293.641 20.528 293.641 21.7637C293.641 22.9993 293.522 24.0742 293.285 24.9883C293.065 25.9023 292.845 26.4948 292.625 26.7656C292.253 27.2227 291.609 27.4512 290.695 27.4512C289.798 27.4512 289.35 27.2311 289.35 26.791Z"/>
</mask>
<path d="M31.9141 52.0039L32.0785 51.0175L31.5393 50.9276L31.1725 51.333L31.9141 52.0039ZM34.5547 52.0801L34.7508 53.0607L34.7686 53.0571L34.7863 53.0529L34.5547 52.0801ZM35.4941 51.6992L34.9727 50.8459L34.9641 50.8512L35.4941 51.6992ZM35.7988 47.7383L34.8715 48.1124L34.8865 48.1496L34.9044 48.1855L35.7988 47.7383ZM33.4121 41.8223L34.3395 41.4481L34.087 40.8223H33.4121V41.8223ZM17.3398 41.8223V40.8223H16.6593L16.4096 41.4554L17.3398 41.8223ZM14.4961 49.0332L15.4213 49.4128L15.4264 49.4001L14.4961 49.0332ZM14.2168 51.1406L13.3426 51.6263L13.3758 51.686L13.4168 51.7406L14.2168 51.1406ZM14.6484 51.4961L14.1696 52.374L14.1853 52.3825L14.2012 52.3905L14.6484 51.4961ZM15.3848 51.75L15.6439 50.7842L15.6289 50.7801L15.6138 50.7766L15.3848 51.75ZM16.4258 52.0293L16.1667 52.9951L16.2135 53.0077L16.2614 53.0157L16.4258 52.0293ZM18.584 52.5371L19.022 51.6381L19.0121 51.6334L18.584 52.5371ZM19.1934 55.127L18.9389 56.094L19.5723 56.2607L19.9782 55.7466L19.1934 55.127ZM4.97461 51.75L5.23552 50.7846L4.56474 50.6033L4.16088 51.1688L4.97461 51.75ZM7.64062 51.8008L7.23449 50.887L7.22461 50.8914L7.21483 50.896L7.64062 51.8008ZM8.50391 51.1152L9.26882 51.7594L9.27338 51.754L9.27786 51.7485L8.50391 51.1152ZM10.1035 47.7637L9.17925 47.3819L9.17106 47.4018L9.16372 47.4219L10.1035 47.7637ZM22.6465 17.3965L21.7303 16.9957L21.7262 17.0052L21.7222 17.0147L22.6465 17.3965ZM25.668 15.7207L25.8486 16.7043L25.8501 16.704L25.668 15.7207ZM29.0195 16.4316L29.948 16.0602L29.9442 16.0506L29.9401 16.0411L29.0195 16.4316ZM31.5586 22.7793L30.6301 23.1507L30.6339 23.1601L30.6379 23.1695L31.5586 22.7793ZM40.0391 42.9902L40.9735 42.6339L40.9692 42.6231L40.0391 42.9902ZM42.3242 48.9824L43.2679 48.6515L43.2634 48.6387L43.2586 48.6261L42.3242 48.9824ZM45.5488 52.334L45.3272 53.3091L45.3522 53.3148L45.3775 53.3192L45.5488 52.334ZM46.5645 52.6133L46.9728 51.7005L46.9591 51.6943L46.9452 51.6886L46.5645 52.6133ZM47.1484 55.1016L46.8939 56.0686L47.5274 56.2353L47.9333 55.7212L47.1484 55.1016ZM32.1426 54.6699L31.7215 55.5769L31.7407 55.5858L31.7602 55.5939L32.1426 54.6699ZM31.9395 38.2168V39.2168H33.4224L32.8665 37.842L31.9395 38.2168ZM25.2871 21.7637L26.2142 21.3888L25.2782 19.0738L24.3575 21.395L25.2871 21.7637ZM18.7617 38.2168L17.8322 37.8481L17.2893 39.2168H18.7617V38.2168ZM19.168 10.1855L18.842 11.1309L18.8822 11.1448L18.9234 11.1552L19.168 10.1855ZM18.6855 7.74805L17.7595 7.37075L17.7534 7.38565L17.7478 7.40073L18.6855 7.74805ZM19.4219 6.45312L18.6325 5.83918L18.6271 5.84611L18.6219 5.85312L19.4219 6.45312ZM22.8242 5.48828L22.236 6.29702L22.2677 6.32005L22.3011 6.34053L22.8242 5.48828ZM31.6348 10.8965L32.394 10.2457L32.2918 10.1264L32.1579 10.0442L31.6348 10.8965ZM31.6602 11.8359L30.7498 11.4221L30.7337 11.4576L30.7204 11.4942L31.6602 11.8359ZM31.3809 12.3945L32.2078 12.9568L32.2163 12.9443L32.2245 12.9314L31.3809 12.3945ZM30.4414 13.0293L30.1968 13.9989L30.3172 14.0293H30.4414V13.0293ZM31.7497 52.9903C32.4716 53.1106 33.0719 53.1816 33.5137 53.1816V51.1816C33.2445 51.1816 32.7784 51.1342 32.0785 51.0175L31.7497 52.9903ZM33.5137 53.1816C33.933 53.1816 34.3458 53.1417 34.7508 53.0607L34.3586 51.0995C34.0865 51.1539 33.8052 51.1816 33.5137 51.1816V53.1816ZM34.7863 53.0529C35.2324 52.9467 35.6491 52.7816 36.0241 52.5472L34.9641 50.8512C34.7975 50.9554 34.5879 51.0442 34.3231 51.1073L34.7863 53.0529ZM36.0156 52.5525C36.9606 51.975 37.4082 51.0437 37.4082 49.9473H35.4082C35.4082 50.4419 35.2464 50.6786 34.9727 50.8459L36.0156 52.5525ZM37.4082 49.9473C37.4082 49.0848 37.1442 48.1931 36.6933 47.2911L34.9044 48.1855C35.2659 48.9085 35.4082 49.4895 35.4082 49.9473H37.4082ZM36.7262 47.3641L34.3395 41.4481L32.4847 42.1964L34.8715 48.1124L36.7262 47.3641ZM33.4121 40.8223H17.3398V42.8223H33.4121V40.8223ZM16.4096 41.4554L13.5658 48.6663L15.4264 49.4001L18.2701 42.1891L16.4096 41.4554ZM13.5709 48.6536C13.2995 49.3151 13.0898 49.9598 13.0898 50.4805H15.0898C15.0898 50.3917 15.151 50.0716 15.4213 49.4128L13.5709 48.6536ZM13.0898 50.4805C13.0898 50.84 13.1382 51.2583 13.3426 51.6263L15.091 50.655C15.1124 50.6935 15.1102 50.7066 15.1036 50.6725C15.0972 50.6393 15.0898 50.5778 15.0898 50.4805H13.0898ZM13.4168 51.7406C13.6231 52.0157 13.8885 52.2207 14.1696 52.374L15.1273 50.6182C15.0359 50.5684 15.0136 50.5364 15.0168 50.5406L13.4168 51.7406ZM14.2012 52.3905C14.4909 52.5354 14.8137 52.6429 15.1557 52.7234L15.6138 50.7766C15.3803 50.7216 15.2122 50.6599 15.0957 50.6017L14.2012 52.3905ZM15.1256 52.7158L16.1667 52.9951L16.6849 51.0635L15.6439 50.7842L15.1256 52.7158ZM16.2614 53.0157C16.8084 53.1069 17.2439 53.1916 17.5742 53.2693C17.9221 53.3512 18.0959 53.4124 18.1559 53.4408L19.0121 51.6334C18.7505 51.5095 18.4037 51.4099 18.0323 51.3225C17.6431 51.2309 17.1604 51.1379 16.5902 51.0429L16.2614 53.0157ZM18.146 53.4361C18.3635 53.542 18.4615 53.6414 18.5061 53.7053C18.5444 53.7603 18.5742 53.8321 18.5742 53.959H20.5742C20.5742 53.4596 20.439 52.9812 20.1473 52.5623C19.8617 52.1523 19.4646 51.8538 19.022 51.6381L18.146 53.4361ZM18.5742 53.959C18.5742 54.2186 18.5069 54.3826 18.4085 54.5073L19.9782 55.7466C20.3876 55.2281 20.5742 54.6134 20.5742 53.959H18.5742ZM19.4479 54.1599C19.0613 54.0581 18.6783 54 18.3047 54V56C18.4727 56 18.6822 56.0265 18.9389 56.094L19.4479 54.1599ZM18.3047 54H7.9707V56H18.3047V54ZM7.9707 54C6.90378 54 6.26162 53.848 5.91915 53.66C5.76299 53.5743 5.69373 53.4946 5.65954 53.4383C5.62655 53.384 5.59375 53.2985 5.59375 53.1465H3.59375C3.59375 53.6124 3.70166 54.0674 3.95008 54.4765C4.1973 54.8835 4.55016 55.19 4.95683 55.4133C5.74001 55.8431 6.78632 56 7.9707 56V54ZM5.59375 53.1465C5.59375 52.7138 5.68883 52.4706 5.78834 52.3312L4.16088 51.1688C3.75258 51.7404 3.59375 52.4282 3.59375 53.1465H5.59375ZM4.7137 52.7154C5.38499 52.8968 6.00392 53.0039 6.54883 53.0039V51.0039C6.24738 51.0039 5.81683 50.9417 5.23552 50.7846L4.7137 52.7154ZM6.54883 53.0039C7.08304 53.0039 7.60458 52.9229 8.06642 52.7056L7.21483 50.896C7.10115 50.9495 6.89482 51.0039 6.54883 51.0039V53.0039ZM8.04676 52.7146C8.52124 52.5037 8.92515 52.1675 9.26882 51.7594L7.739 50.4711C7.541 50.7062 7.36938 50.827 7.23449 50.887L8.04676 52.7146ZM9.27786 51.7485C9.85473 51.0434 10.4357 49.7763 11.0433 48.1054L9.16372 47.4219C8.55257 49.1026 8.06715 50.0699 7.72995 50.482L9.27786 51.7485ZM11.0278 48.1454L23.5707 17.7782L21.7222 17.0147L9.17925 47.3819L11.0278 48.1454ZM23.5626 17.7973C23.7016 17.4797 24.2373 17.0002 25.8486 16.7043L25.4873 14.7372C23.781 15.0506 22.3023 15.6883 21.7303 16.9957L23.5626 17.7973ZM25.8501 16.704C26.2418 16.6314 26.6629 16.5938 27.1152 16.5938V14.5938C26.5519 14.5938 26.0082 14.6407 25.4859 14.7374L25.8501 16.704ZM27.1152 16.5938C27.5546 16.5938 27.8189 16.6552 27.963 16.7185C28.0831 16.7714 28.0943 16.8111 28.0989 16.8222L29.9401 16.0411C29.4542 14.8957 28.2432 14.5938 27.1152 14.5938V16.5938ZM28.0911 16.803L30.6301 23.1507L32.4871 22.4079L29.948 16.0602L28.0911 16.803ZM30.6379 23.1695C35.5328 34.7209 38.353 41.4425 39.1089 43.3574L40.9692 42.6231C40.2017 40.6786 37.3682 33.9262 32.4793 22.3891L30.6379 23.1695ZM39.1047 43.3466L41.3899 49.3387L43.2586 48.6261L40.9734 42.6339L39.1047 43.3466ZM41.3806 49.3133C41.6151 49.9822 41.8377 50.5451 42.0489 50.9911C42.2476 51.4105 42.4788 51.8207 42.7597 52.1016L44.1739 50.6874C44.1756 50.6891 44.1666 50.6802 44.1476 50.655C44.1289 50.6303 44.1045 50.5949 44.0745 50.5465C44.014 50.4485 43.941 50.3135 43.8564 50.1349C43.6868 49.7768 43.4904 49.286 43.2679 48.6515L41.3806 49.3133ZM42.7597 52.1016C43.1576 52.4996 43.6174 52.8035 44.1408 52.978L44.7733 51.0806C44.5857 51.0181 44.3853 50.8988 44.1739 50.6874L42.7597 52.1016ZM44.1408 52.978C44.5279 53.107 44.9235 53.2174 45.3272 53.3091L45.7704 51.3589C45.4294 51.2813 45.0971 51.1885 44.7733 51.0806L44.1408 52.978ZM45.3775 53.3192C45.7133 53.3776 45.9785 53.4535 46.1837 53.538L46.9452 51.6886C46.5749 51.5361 46.163 51.4258 45.7202 51.3488L45.3775 53.3192ZM46.1561 53.5261C46.3643 53.6192 46.4484 53.705 46.4807 53.7492C46.5053 53.7829 46.5293 53.83 46.5293 53.9336H48.5293C48.5293 53.4447 48.3925 52.9755 48.0955 52.5692C47.8062 52.1733 47.4079 51.8951 46.9728 51.7005L46.1561 53.5261ZM46.5293 53.9336C46.5293 54.1932 46.462 54.3572 46.3636 54.4819L47.9333 55.7212C48.3427 55.2027 48.5293 54.588 48.5293 53.9336H46.5293ZM47.4029 54.1345C47.0223 54.0343 46.6467 53.9746 46.2852 53.9746V55.9746C46.4314 55.9746 46.6313 55.9995 46.8939 56.0686L47.4029 54.1345ZM46.2852 53.9746H34.1738V55.9746H46.2852V53.9746ZM34.1738 53.9746C33.3699 53.9746 32.8423 53.8772 32.5249 53.7459L31.7602 55.5939C32.4246 55.8689 33.2512 55.9746 34.1738 55.9746V53.9746ZM32.5637 53.7629C32.4392 53.7051 32.4151 53.6649 32.4217 53.6741C32.4251 53.6788 32.4294 53.6869 32.4319 53.695C32.4341 53.7024 32.4316 53.6992 32.4316 53.6797H30.4316C30.4316 54.0907 30.5462 54.4912 30.7971 54.8405C31.0406 55.1798 31.372 55.4147 31.7215 55.5769L32.5637 53.7629ZM32.4316 53.6797C32.4316 53.027 32.5745 52.7644 32.6556 52.6748L31.1725 51.333C30.6104 51.9543 30.4316 52.8089 30.4316 53.6797H32.4316ZM32.8665 37.842L26.2142 21.3888L24.36 22.1385L31.0124 38.5916L32.8665 37.842ZM24.3575 21.395L17.8322 37.8481L19.6913 38.5855L26.2167 22.1323L24.3575 21.395ZM18.7617 39.2168H31.9395V37.2168H18.7617V39.2168ZM19.494 9.24017C19.441 9.22191 19.4153 9.20636 19.4071 9.20081C19.4003 9.19618 19.4074 9.19985 19.4182 9.21433C19.4293 9.22923 19.4344 9.2425 19.4358 9.24688C19.4366 9.2496 19.4316 9.23487 19.4316 9.19531H17.4316C17.4316 9.61293 17.5389 10.0388 17.8133 10.4077C18.0842 10.7721 18.4562 10.9979 18.842 11.1309L19.494 9.24017ZM19.4316 9.19531C19.4316 8.80101 19.4969 8.4366 19.6233 8.09536L17.7478 7.40073C17.5356 7.97356 17.4316 8.57399 17.4316 9.19531H19.4316ZM19.6116 8.12534C19.7646 7.74992 19.9671 7.39284 20.2219 7.05313L18.6219 5.85312C18.2673 6.32591 17.9789 6.83211 17.7595 7.37075L19.6116 8.12534ZM20.2112 7.06707C20.8227 6.28092 21.3164 6.08203 21.6816 6.08203V4.08203C20.4558 4.08203 19.443 4.7972 18.6325 5.83918L20.2112 7.06707ZM21.6816 6.08203C21.8231 6.08203 22.0024 6.12711 22.236 6.29702L23.4124 4.67955C22.9012 4.30779 22.3189 4.08203 21.6816 4.08203V6.08203ZM22.3011 6.34053L31.1116 11.7487L32.1579 10.0442L23.3474 4.63603L22.3011 6.34053ZM30.8755 11.5473C30.8478 11.515 30.8227 11.4732 30.806 11.4261C30.7898 11.3801 30.7871 11.3445 30.7871 11.3281H32.7871C32.7871 10.9419 32.6646 10.5613 32.394 10.2457L30.8755 11.5473ZM30.7871 11.3281C30.7871 11.3117 30.7894 11.3103 30.7852 11.3268C30.781 11.3436 30.7712 11.375 30.7498 11.4221L32.5705 12.2497C32.695 11.9758 32.7871 11.6633 32.7871 11.3281H30.7871ZM30.7204 11.4942C30.6801 11.6048 30.621 11.726 30.5372 11.8577L32.2245 12.9314C32.3777 12.6907 32.5048 12.4395 32.5999 12.1777L30.7204 11.4942ZM30.5539 11.8322C30.4577 11.9738 30.3918 12.0275 30.3703 12.042C30.3617 12.0479 30.3656 12.0438 30.3817 12.0385C30.3988 12.033 30.4199 12.0293 30.4414 12.0293V14.0293C31.2563 14.0293 31.834 13.5065 32.2078 12.9568L30.5539 11.8322ZM30.686 12.0597L19.4126 9.21592L18.9234 11.1552L30.1968 13.9989L30.686 12.0597ZM86.5801 55.2031L86.2516 56.1476L86.9193 56.3799L87.3609 55.8278L86.5801 55.2031ZM68.9082 54.5938L68.4274 55.4706L68.4384 55.4766L68.4496 55.4824L68.9082 54.5938ZM68.502 51.75L68.7564 50.7829L68.123 50.6162L67.7171 51.1304L68.502 51.75ZM71.752 51.8262L72.0823 52.77L72.103 52.7628L72.1233 52.7546L71.752 51.8262ZM72.6406 51.1406L73.4255 51.7603L73.4332 51.7505L73.4406 51.7406L72.6406 51.1406ZM70.6094 19.3262L70.814 18.3473L70.8082 18.3461L70.6094 19.3262ZM68.1973 15.9492L68.4649 14.9857L67.9027 14.8295L67.4902 15.2421L68.1973 15.9492ZM75.332 16.0762V17.0762H75.3461L75.3601 17.0758L75.332 16.0762ZM84.3711 15.8223V14.8223H84.3571L84.343 14.8227L84.3711 15.8223ZM99.4023 22.2969L98.503 22.7342L98.504 22.7363L99.4023 22.2969ZM99.0723 34.1797L98.1836 33.721L98.1808 33.7266L99.0723 34.1797ZM96.9648 37.125L97.6852 37.8187L97.6915 37.812L96.9648 37.125ZM93.6641 39.5371L94.1259 40.4241L94.1293 40.4223L93.6641 39.5371ZM82.1113 38.5977L82.1326 37.5979L82.0071 37.5952L81.8848 37.6236L82.1113 38.5977ZM93.6641 32.9102L94.6107 33.2325L94.614 33.2225L93.6641 32.9102ZM93.8164 25.0898L92.8479 25.3389L92.8488 25.3423L93.8164 25.0898ZM92.166 21.9414L92.9203 21.2849L92.9162 21.2802L92.166 21.9414ZM80.1562 20.0117L80.933 20.6415L80.9425 20.6298L80.9517 20.6178L80.1562 20.0117ZM79.3945 49.1855H78.3945V49.2176L78.3966 49.2495L79.3945 49.1855ZM82.543 51.5977L82.4015 52.5876L82.4041 52.588L82.543 51.5977ZM86.7832 52.9688L85.9315 53.4928L85.9411 53.5083L85.9512 53.5235L86.7832 52.9688ZM86.9086 54.2586C86.5879 54.1471 86.1752 54.0892 85.7402 54.054C85.2844 54.0172 84.7241 54 84.0664 54V56C84.6952 56 85.197 56.0167 85.5791 56.0475C85.982 56.0801 86.1829 56.1238 86.2516 56.1476L86.9086 54.2586ZM84.0664 54H71.0156V56H84.0664V54ZM71.0156 54C70.223 54 69.6973 53.8757 69.3668 53.7051L68.4496 55.4824C69.1686 55.8535 70.0479 56 71.0156 56V54ZM69.389 53.7169C69.2671 53.6501 69.1211 53.5297 69.1211 53.0449H67.1211C67.1211 54.0497 67.4998 54.9619 68.4274 55.4706L69.389 53.7169ZM69.1211 53.0449C69.1211 52.6556 69.2114 52.4652 69.2868 52.3696L67.7171 51.1304C67.2847 51.678 67.1211 52.3509 67.1211 53.0449H69.1211ZM68.2475 52.7171C68.9638 52.9056 69.6674 53.0039 70.3555 53.0039V51.0039C69.8587 51.0039 69.3266 50.933 68.7564 50.7829L68.2475 52.7171ZM70.3555 53.0039C70.997 53.0039 71.5909 52.942 72.0823 52.77L71.4216 50.8823C71.236 50.9473 70.8988 51.0039 70.3555 51.0039V53.0039ZM72.1233 52.7546C72.6437 52.5465 73.0769 52.2019 73.4255 51.7603L71.8557 50.521C71.6966 50.7226 71.5373 50.835 71.3806 50.8977L72.1233 52.7546ZM73.4406 51.7406C74.1497 50.7951 74.4023 49.3931 74.4023 47.7637H72.4023C72.4023 49.2827 72.1471 50.132 71.8406 50.5406L73.4406 51.7406ZM74.4023 47.7637V22.2715H72.4023V47.7637H74.4023ZM74.4023 22.2715C74.4023 21.2732 74.1 20.3733 73.4297 19.6664C72.7779 18.979 71.8661 18.5673 70.814 18.3473L70.4047 20.305C71.2146 20.4743 71.6994 20.7482 71.9785 21.0426C72.2392 21.3175 72.4023 21.6955 72.4023 22.2715H74.4023ZM70.8082 18.3461C70.251 18.2331 69.8181 18.1172 69.4971 18.0031C69.1603 17.8833 69.0155 17.7891 68.975 17.7544L67.6734 19.2729C67.9884 19.5429 68.4022 19.7364 68.8271 19.8875C69.2679 20.0442 69.7998 20.1823 70.4105 20.3062L70.8082 18.3461ZM68.975 17.7544C68.8683 17.663 68.8228 17.5969 68.8048 17.5635C68.79 17.5359 68.791 17.5266 68.791 17.5234H66.791C66.791 18.2567 67.1711 18.8424 67.6734 19.2729L68.975 17.7544ZM68.791 17.5234C68.791 17.1851 68.8212 16.9496 68.8609 16.7958C68.9015 16.6384 68.9371 16.6236 68.9044 16.6563L67.4902 15.2421C66.9134 15.8189 66.791 16.7153 66.791 17.5234H68.791ZM67.9296 16.9127C68.3011 17.0159 68.6718 17.0762 69.0352 17.0762V15.0762C68.8907 15.0762 68.7028 15.0518 68.4649 14.9857L67.9296 16.9127ZM69.0352 17.0762H75.332V15.0762H69.0352V17.0762ZM75.3601 17.0758L84.3992 16.8219L84.343 14.8227L75.304 15.0766L75.3601 17.0758ZM84.3711 16.8223C92.1781 16.8223 96.6631 18.9505 98.503 22.7342L100.302 21.8596C97.9437 17.0104 92.4079 14.8223 84.3711 14.8223V16.8223ZM98.504 22.7363C99.2065 24.1724 99.5449 25.5803 99.5449 26.9688H101.545C101.545 25.2426 101.122 23.5359 100.301 21.8575L98.504 22.7363ZM99.5449 26.9688C99.5449 28.4835 99.4375 29.7427 99.2343 30.759L101.195 31.1512C101.432 29.9669 101.545 28.5686 101.545 26.9688H99.5449ZM99.2343 30.759C99.0334 31.7632 98.6848 32.75 98.1836 33.721L99.9609 34.6383C100.543 33.5104 100.956 32.3475 101.195 31.1512L99.2343 30.759ZM98.1808 33.7266C97.7038 34.6652 97.0594 35.5694 96.2382 36.438L97.6915 37.812C98.6307 36.8187 99.3912 35.7593 99.9638 34.6327L98.1808 33.7266ZM96.2445 36.4314C95.4502 37.2562 94.4406 37.9992 93.1988 38.6519L94.1293 40.4223C95.5282 39.687 96.719 38.8219 97.6852 37.8186L96.2445 36.4314ZM93.2022 38.6502C90.5279 40.0427 87.0443 40.7715 82.6953 40.7715V42.7715C87.25 42.7715 91.0788 42.0107 94.1259 40.4241L93.2022 38.6502ZM82.6953 40.7715H81.7305V42.7715H82.6953V40.7715ZM81.7305 40.7715C81.7177 40.7715 81.753 40.7694 81.8134 40.7952C81.8797 40.8236 81.9418 40.8714 81.9866 40.929C82.0275 40.9816 82.0348 41.0174 82.032 41.0064C82.0287 40.9938 82.0195 40.9482 82.0195 40.8574H80.0195C80.0195 41.2641 80.0939 41.7532 80.4079 42.1569C80.7591 42.6084 81.2628 42.7715 81.7305 42.7715V40.7715ZM82.0195 40.8574C82.0195 40.2592 82.1042 39.9082 82.1929 39.7246C82.2611 39.5834 82.3062 39.579 82.3378 39.5717L81.8848 37.6236C81.1886 37.7856 80.6878 38.2424 80.3921 38.8545C80.1168 39.4242 80.0195 40.1184 80.0195 40.8574H82.0195ZM82.0901 39.5974C85.3613 39.667 88.0926 39.2192 90.2146 38.1745C92.3687 37.114 93.8534 35.4566 94.6107 33.2325L92.7174 32.5878C92.1375 34.2908 91.0281 35.5448 89.3313 36.3802C87.6024 37.2313 85.226 37.6637 82.1326 37.5979L82.0901 39.5974ZM94.614 33.2225C95.056 31.8782 95.2734 30.4518 95.2734 28.9492H93.2734C93.2734 30.2566 93.0846 31.4707 92.7141 32.5978L94.614 33.2225ZM95.2734 28.9492C95.2734 27.4727 95.1134 26.1 94.784 24.8374L92.8488 25.3423C93.1288 26.4157 93.2734 27.6159 93.2734 28.9492H95.2734ZM94.7849 24.8408C94.4419 23.5068 93.819 22.3174 92.9203 21.2849L91.4117 22.5979C92.1042 23.3935 92.5816 24.3031 92.8479 25.3389L94.7849 24.8408ZM92.9162 21.2802C90.8848 18.9754 87.6301 17.9453 83.4316 17.9453V19.9453C87.3582 19.9453 89.9264 20.9127 91.4158 22.6026L92.9162 21.2802ZM83.4316 17.9453C81.7243 17.9453 80.2029 18.3005 79.3608 19.4057L80.9517 20.6178C81.193 20.3011 81.8551 19.9453 83.4316 19.9453V17.9453ZM79.3795 19.3819C78.9797 19.875 78.7459 20.5298 78.6044 21.2375C78.46 21.9595 78.3945 22.8261 78.3945 23.8203H80.3945C80.3945 22.9018 80.456 22.1773 80.5655 21.6297C80.6779 21.0678 80.825 20.7748 80.933 20.6415L79.3795 19.3819ZM78.3945 23.8203V49.1855H80.3945V23.8203H78.3945ZM78.3966 49.2495C78.4574 50.1976 78.8828 50.9949 79.637 51.5726C80.3521 52.1205 81.3083 52.4314 82.4015 52.5876L82.6844 50.6077C81.7634 50.4761 81.1876 50.2411 80.8533 49.985C80.5579 49.7587 80.4163 49.4938 80.3925 49.1216L78.3966 49.2495ZM82.4041 52.588C83.2987 52.7134 84.008 52.8325 84.5396 52.9444C85.1001 53.0624 85.3787 53.156 85.4727 53.203L86.3671 51.4142C86.021 51.2411 85.5167 51.1062 84.9516 50.9873C84.3575 50.8622 83.5985 50.7358 82.6818 50.6073L82.4041 52.588ZM85.4727 53.203C85.6549 53.2941 85.7788 53.3722 85.8584 53.433C85.9412 53.4963 85.9482 53.5199 85.9315 53.4928L87.6349 52.4447C87.3475 51.9777 86.8472 51.6542 86.3671 51.4142L85.4727 53.203ZM85.9512 53.5235C85.9527 53.5257 85.9863 53.5741 85.9863 53.7305H87.9863C87.9863 53.2774 87.8846 52.818 87.6153 52.414L85.9512 53.5235ZM85.9863 53.7305C85.9863 54.2523 85.8739 54.4851 85.7992 54.5784L87.3609 55.8278C87.8279 55.2441 87.9863 54.4951 87.9863 53.7305H85.9863ZM120.273 55.2031L119.945 56.1476L120.613 56.3799L121.054 55.8278L120.273 55.2031ZM105.318 54.5938L104.838 55.4706L104.849 55.4766L104.86 55.4824L105.318 54.5938ZM104.912 51.75L105.167 50.7829L104.533 50.6162L104.127 51.1304L104.912 51.75ZM108.162 51.8262L108.492 52.77L108.513 52.7628L108.534 52.7546L108.162 51.8262ZM109.051 51.1406L109.836 51.7603L109.843 51.7505L109.851 51.7406L109.051 51.1406ZM109.812 21.7891H110.812V21.7676L110.812 21.7462L109.812 21.7891ZM108.645 19.5293L108.225 20.4373L108.233 20.4407L108.24 20.444L108.645 19.5293ZM107.73 19.25L107.509 20.2252L107.518 20.2272L107.73 19.25ZM106.613 18.9961L106.339 19.9576L106.365 19.9652L106.392 19.9712L106.613 18.9961ZM105.699 18.6406L105.229 19.523L105.699 18.6406ZM105.344 15.873L105.672 14.9286L105.005 14.6963L104.563 15.2484L105.344 15.873ZM111.158 16.0762V17.0762H111.172L111.187 17.0758L111.158 16.0762ZM120.07 15.8223L120.047 14.8225L120.042 14.8227L120.07 15.8223ZM121.162 15.7969V14.7969H121.15L121.139 14.7971L121.162 15.7969ZM132.867 18.5898L132.283 19.4018L132.287 19.4043L132.867 18.5898ZM134.289 33.3672L135.079 33.9807L135.079 33.9803L134.289 33.3672ZM126.723 38.1406L126.473 37.1723L124.356 37.7183L126.153 38.9628L126.723 38.1406ZM129.719 41.4922L130.544 40.9277L130.543 40.9257L129.719 41.4922ZM132.41 45.4277L131.585 45.9922L131.586 45.9938L132.41 45.4277ZM140.104 50.7598L140.449 51.6981L140.462 51.6934L140.475 51.6882L140.104 50.7598ZM140.738 50.5059L140.387 49.5695L140.377 49.5733L140.367 49.5774L140.738 50.5059ZM141.729 50.8359L140.904 51.4025L140.913 51.415L140.922 51.4273L141.729 50.8359ZM141.576 52.9434L142.422 53.4762L142.427 53.4693L142.431 53.4623L141.576 52.9434ZM140.357 54.1875L139.779 53.3719L139.769 53.3793L140.357 54.1875ZM132.994 54.7715L132.527 55.6557L132.534 55.6592L132.994 54.7715ZM130.506 52.918L129.783 53.6092L129.791 53.6172L129.799 53.6251L130.506 52.918ZM128.449 50.2773L127.6 50.8047L127.606 50.8152L128.449 50.2773ZM126.723 47.2559L125.827 47.7001L125.832 47.7103L125.837 47.7204L126.723 47.2559ZM125.225 44.2344L124.325 44.6705L124.329 44.6786L125.225 44.2344ZM122.66 39.9941L121.944 40.6918L121.953 40.7013L121.963 40.7106L122.66 39.9941ZM118.699 36.1348L118.13 35.3126L118.118 35.321L118.106 35.3297L118.699 36.1348ZM120.68 35.8809L120.695 36.8807L120.703 36.8806L120.71 36.8804L120.68 35.8809ZM124.387 35.1699L124.084 34.2167L124.081 34.2178L124.387 35.1699ZM127.814 33.3672L128.462 34.1295L128.468 34.1238L127.814 33.3672ZM128.145 21.4082L128.835 20.6852L128.834 20.6836L128.145 21.4082ZM120.934 18.8945L120.945 17.8945H120.934V18.8945ZM116.871 19.8086L117.519 20.5705L117.53 20.5614L117.54 20.5519L116.871 19.8086ZM115.805 23.084L114.805 23.0629L114.805 23.0735V23.084H115.805ZM116.922 51.5469L116.491 52.4494L116.509 52.4581L116.528 52.466L116.922 51.5469ZM117.861 51.8262L117.649 52.8033L117.861 51.8262ZM118.979 52.1055L118.704 53.067L118.73 53.0745L118.757 53.0806L118.979 52.1055ZM120.602 54.2586C120.282 54.1474 119.872 54.0893 119.441 54.0541C118.989 54.0172 118.435 54 117.785 54V56C118.405 56 118.9 56.0166 119.278 56.0475C119.676 56.0799 119.875 56.1234 119.945 56.1476L120.602 54.2586ZM117.785 54H107.426V56H117.785V54ZM107.426 54C106.633 54 106.107 53.8757 105.777 53.7051L104.86 55.4824C105.579 55.8535 106.458 56 107.426 56V54ZM105.799 53.7169C105.677 53.6501 105.531 53.5297 105.531 53.0449H103.531C103.531 54.0497 103.91 54.9619 104.838 55.4706L105.799 53.7169ZM105.531 53.0449C105.531 52.6556 105.622 52.4652 105.697 52.3696L104.127 51.1304C103.695 51.678 103.531 52.3509 103.531 53.0449H105.531ZM104.658 52.7171C105.374 52.9056 106.078 53.0039 106.766 53.0039V51.0039C106.269 51.0039 105.737 50.933 105.167 50.7829L104.658 52.7171ZM106.766 53.0039C107.407 53.0039 108.001 52.942 108.492 52.77L107.832 50.8823C107.646 50.9473 107.309 51.0039 106.766 51.0039V53.0039ZM108.534 52.7546C109.054 52.5465 109.487 52.2019 109.836 51.7603L108.266 50.521C108.107 50.7226 107.947 50.835 107.791 50.8977L108.534 52.7546ZM109.851 51.7406C110.56 50.7951 110.812 49.3931 110.812 47.7637H108.812C108.812 49.2827 108.557 50.132 108.251 50.5406L109.851 51.7406ZM110.812 47.7637V21.7891H108.812V47.7637H110.812ZM110.812 21.7462C110.753 20.3904 110.282 19.1595 109.049 18.6146L108.24 20.444C108.463 20.5423 108.77 20.818 108.813 21.8319L110.812 21.7462ZM109.064 18.6213C108.749 18.4761 108.364 18.3644 107.943 18.2728L107.518 20.2272C107.875 20.3049 108.1 20.3794 108.225 20.4373L109.064 18.6213ZM107.952 18.2749C107.835 18.2482 107.511 18.1746 107.393 18.1479C107.38 18.1448 107.268 18.1193 107.254 18.1162C107.24 18.113 107.128 18.0876 107.114 18.0844C107.1 18.0813 106.988 18.0558 106.975 18.0527C106.961 18.0496 106.849 18.0241 106.835 18.021L106.392 19.9712C106.509 19.9979 106.833 20.0715 106.95 20.0982C106.964 20.1013 107.076 20.1268 107.09 20.1299C107.104 20.1331 107.216 20.1585 107.23 20.1617C107.243 20.1648 107.355 20.1903 107.369 20.1934C107.383 20.1965 107.495 20.222 107.509 20.2251L107.952 18.2749ZM106.888 18.0346C106.582 17.9472 106.347 17.8526 106.17 17.7583L105.229 19.523C105.56 19.6995 105.933 19.8418 106.339 19.9576L106.888 18.0346ZM106.17 17.7583C106.011 17.6733 105.955 17.6086 105.942 17.5897C105.936 17.5815 105.936 17.5803 105.938 17.5844C105.939 17.5884 105.938 17.5867 105.938 17.5742H103.938C103.938 18.4994 104.512 19.1406 105.229 19.523L106.17 17.7583ZM105.938 17.5742C105.938 16.8392 106.073 16.5622 106.125 16.4977L104.563 15.2484C104.073 15.8609 103.938 16.7181 103.938 17.5742H105.938ZM105.015 16.8175C105.336 16.9291 105.749 16.987 106.184 17.0221C106.639 17.059 107.2 17.0762 107.857 17.0762V15.0762C107.229 15.0762 106.727 15.0595 106.345 15.0286C105.942 14.9961 105.741 14.9524 105.672 14.9286L105.015 16.8175ZM107.857 17.0762H111.158V15.0762H107.857V17.0762ZM111.187 17.0758L120.099 16.8219L120.042 14.8227L111.13 15.0766L111.187 17.0758ZM120.094 16.822L121.185 16.7966L121.139 14.7971L120.047 14.8225L120.094 16.822ZM121.162 16.7969C126.288 16.7969 129.941 17.7177 132.283 19.4018L133.451 17.7779C130.614 15.738 126.464 14.7969 121.162 14.7969V16.7969ZM132.287 19.4043C134.596 21.049 135.752 23.3425 135.752 26.4102H137.752C137.752 22.7409 136.319 19.8208 133.447 17.7754L132.287 19.4043ZM135.752 26.4102C135.752 28.696 135.014 30.802 133.499 32.7541L135.079 33.9803C136.848 31.7006 137.752 29.1686 137.752 26.4102H135.752ZM133.499 32.7536C131.823 34.9117 129.501 36.3915 126.473 37.1723L126.972 39.1089C130.377 38.2309 133.099 36.5284 135.079 33.9807L133.499 32.7536ZM126.153 38.9628C126.882 39.4674 127.798 40.4641 128.895 42.0587L130.543 40.9257C129.405 39.2703 128.323 38.0326 127.292 37.3184L126.153 38.9628ZM128.893 42.0567L131.585 45.9922L133.236 44.8632L130.544 40.9277L128.893 42.0567ZM131.586 45.9938C132.869 47.8631 134.076 49.3157 135.21 50.3113C136.323 51.2894 137.491 51.9375 138.682 51.9375V49.9375C138.213 49.9375 137.507 49.6673 136.53 48.8088C135.572 47.9678 134.473 46.6656 133.235 44.8617L131.586 45.9938ZM138.682 51.9375C139.345 51.9375 139.96 51.8782 140.449 51.6981L139.758 49.8214C139.603 49.8783 139.271 49.9375 138.682 49.9375V51.9375ZM140.475 51.6882L141.11 51.4343L140.367 49.5774L139.732 49.8313L140.475 51.6882ZM141.089 51.4422C141.095 51.44 141.126 51.4297 141.195 51.4297V49.4297C140.926 49.4297 140.652 49.4701 140.387 49.5695L141.089 51.4422ZM141.195 51.4297C141 51.4297 140.879 51.3493 140.85 51.3267C140.824 51.3076 140.846 51.3173 140.904 51.4025L142.553 50.2694C142.344 49.9661 141.904 49.4297 141.195 49.4297V51.4297ZM140.922 51.4273C140.973 51.4965 141.008 51.5818 141.008 51.7246H143.008C143.008 51.1903 142.857 50.6832 142.535 50.2446L140.922 51.4273ZM141.008 51.7246C141.008 51.798 140.969 52.0173 140.721 52.4244L142.431 53.4623C142.759 52.9215 143.008 52.3283 143.008 51.7246H141.008ZM140.73 52.4105C140.524 52.7377 140.217 53.0612 139.779 53.372L140.936 55.003C141.548 54.569 142.053 54.0631 142.422 53.4762L140.73 52.4105ZM139.769 53.3793C138.747 54.1237 137.656 54.4824 136.473 54.4824V56.4824C138.099 56.4824 139.598 55.9779 140.946 54.9957L139.769 53.3793ZM136.473 54.4824C135.172 54.4824 134.184 54.262 133.454 53.8837L132.534 55.6592C133.632 56.2288 134.963 56.4824 136.473 56.4824V54.4824ZM133.461 53.8873C132.658 53.4628 131.908 52.9063 131.213 52.2109L129.799 53.6251C130.627 54.4531 131.536 55.1322 132.527 55.6557L133.461 53.8873ZM131.229 52.2267C130.532 51.4988 129.886 50.6707 129.292 49.7395L127.606 50.8152C128.265 51.8475 128.99 52.7798 129.783 53.6092L131.229 52.2267ZM129.299 49.75C128.702 48.7889 128.139 47.8027 127.608 46.7913L125.837 47.7204C126.39 48.7741 126.977 49.8023 127.6 50.8047L129.299 49.75ZM127.619 46.8117L126.121 43.7902L124.329 44.6786L125.827 47.7001L127.619 46.8117ZM126.125 43.7983C125.066 41.6147 124.145 40.0438 123.358 39.2777L121.963 40.7106C122.462 41.1971 123.25 42.453 124.325 44.6705L126.125 43.7983ZM123.377 39.2965C122.688 38.5889 121.867 38.0293 120.934 38.0293V40.0293C121.05 40.0293 121.38 40.1129 121.944 40.6918L123.377 39.2965ZM120.934 38.0293H118.369V40.0293H120.934V38.0293ZM118.369 38.0293C118.383 38.0293 118.444 38.0321 118.524 38.0706C118.609 38.1115 118.674 38.1723 118.714 38.2304C118.75 38.282 118.753 38.3117 118.748 38.2896C118.743 38.2675 118.734 38.2129 118.734 38.1152H116.734C116.734 38.5048 116.796 38.9748 117.072 39.3712C117.393 39.8337 117.883 40.0293 118.369 40.0293V38.0293ZM118.734 38.1152C118.734 37.5646 118.922 37.2126 119.292 36.9398L118.106 35.3297C117.19 36.0049 116.734 36.9732 116.734 38.1152H118.734ZM119.268 36.957C119.186 37.0141 119.141 37.0165 119.207 36.9988C119.258 36.9849 119.348 36.9667 119.487 36.9489C119.763 36.9134 120.162 36.8889 120.695 36.8807L120.664 34.881C120.098 34.8897 119.615 34.916 119.232 34.9651C119.041 34.9897 118.855 35.0222 118.687 35.0676C118.533 35.1091 118.323 35.1792 118.13 35.3126L119.268 36.957ZM120.71 36.8804C121.928 36.8429 123.258 36.5825 124.692 36.1221L124.081 34.2178C122.773 34.6376 121.632 34.8511 120.649 34.8813L120.71 36.8804ZM124.689 36.1232C126.174 35.6522 127.442 34.9949 128.462 34.1295L127.167 32.6049C126.392 33.2629 125.375 33.8075 124.084 34.2167L124.689 36.1232ZM128.468 34.1238C130.472 32.3922 131.43 29.9769 131.43 27.0195H129.43C129.43 29.5127 128.644 31.3291 127.161 32.6105L128.468 34.1238ZM131.43 27.0195C131.43 24.4869 130.574 22.3466 128.835 20.6852L127.454 22.1312C128.762 23.3812 129.43 24.9818 129.43 27.0195H131.43ZM128.834 20.6836C126.875 18.8211 124.202 17.9304 120.945 17.8946L120.923 19.8945C123.827 19.9264 125.961 20.7115 127.455 22.1328L128.834 20.6836ZM120.934 17.8945C119.875 17.8945 118.949 17.9733 118.175 18.1474C117.411 18.3193 116.718 18.6012 116.202 19.0653L117.54 20.5519C117.701 20.4067 118.024 20.2315 118.614 20.0987C119.194 19.9681 119.961 19.8945 120.934 19.8945V17.8945ZM116.223 19.0467C115.206 19.9117 114.84 21.3838 114.805 23.0629L116.804 23.105C116.837 21.568 117.182 20.8566 117.519 20.5705L116.223 19.0467ZM114.805 23.084V49.0078H116.805V23.084H114.805ZM114.805 49.0078C114.805 50.4702 115.213 51.8394 116.491 52.4494L117.353 50.6444C117.141 50.5434 116.805 50.2199 116.805 49.0078H114.805ZM116.528 52.466C116.846 52.6023 117.227 52.7116 117.649 52.8033L118.074 50.849C117.717 50.7714 117.472 50.6946 117.316 50.6277L116.528 52.466ZM117.649 52.8033C118.019 52.8838 118.37 52.9717 118.704 53.067L119.253 51.1439C118.876 51.0361 118.482 50.9378 118.074 50.849L117.649 52.8033ZM118.757 53.0806C119.069 53.1515 119.293 53.2354 119.447 53.3179L120.389 51.5532C120.035 51.3648 119.633 51.2287 119.2 51.1303L118.757 53.0806ZM119.447 53.3179C119.602 53.4003 119.655 53.464 119.669 53.4838C119.675 53.4929 119.676 53.4968 119.677 53.4975C119.677 53.4985 119.68 53.5069 119.68 53.5273H121.68C121.68 52.6003 121.123 51.9447 120.389 51.5532L119.447 53.3179ZM119.68 53.5273C119.68 54.2393 119.546 54.5113 119.493 54.5784L121.054 55.8278C121.542 55.2179 121.68 54.3727 121.68 53.5273H119.68ZM149.955 50.4805L149.248 51.1876L149.252 51.1913L149.955 50.4805ZM146.172 44.666L145.241 45.0315L145.244 45.0398L146.172 44.666ZM147.695 25.3945L148.564 25.8897L148.566 25.8857L147.695 25.3945ZM154.932 18.1074L154.437 17.2383L154.437 17.2386L154.932 18.1074ZM177.25 20.5703L176.539 21.2738L176.541 21.2757L177.25 20.5703ZM179.535 45.6562L180.405 46.1488L180.406 46.1482L179.535 45.6562ZM172.324 52.918L171.826 52.0509L171.822 52.0531L172.324 52.918ZM155.643 54.1875L155.269 55.115L155.277 55.1184L155.643 54.1875ZM154.221 23.9219L153.406 23.3425L154.221 23.9219ZM151.961 41.7715L150.986 41.9957L150.987 41.9976L151.961 41.7715ZM154.068 46.7734L154.899 46.2167L154.899 46.2165L154.068 46.7734ZM172.883 47.3828L173.668 48.0022L173.672 47.9964L172.883 47.3828ZM169.277 20.875L169.776 20.0083L169.768 20.0039L169.277 20.875ZM150.662 49.7734C149.156 48.2674 147.967 46.4452 147.099 44.2922L145.244 45.0398C146.205 47.4233 147.538 49.4774 149.248 51.1876L150.662 49.7734ZM147.103 44.3006C146.253 42.1358 145.826 39.848 145.826 37.4297H143.826C143.826 40.0895 144.297 42.6259 145.241 45.0315L147.103 44.3006ZM145.826 37.4297C145.826 34.9371 146.074 32.7737 146.556 30.9282L144.62 30.4234C144.086 32.4711 143.826 34.8103 143.826 37.4297H145.826ZM146.556 30.9282C147.044 29.0573 147.715 27.3798 148.564 25.8897L146.826 24.8994C145.881 26.5577 145.148 28.4011 144.62 30.4234L146.556 30.9282ZM148.566 25.8857C149.42 24.3714 150.431 23.0417 151.597 21.8917L150.192 20.4677C148.887 21.7552 147.765 23.2354 146.824 24.9034L148.566 25.8857ZM151.597 21.8917C152.773 20.7318 154.049 19.7611 155.427 18.9763L154.437 17.2386C152.903 18.1126 151.488 19.1901 150.192 20.4677L151.597 21.8917ZM155.426 18.9766C158.219 17.3878 161.239 16.5938 164.504 16.5938V14.5938C160.897 14.5938 157.535 15.4755 154.437 17.2383L155.426 18.9766ZM164.504 16.5938C169.485 16.5938 173.466 18.1688 176.539 21.2738L177.961 19.8668C174.466 16.3364 169.95 14.5938 164.504 14.5938V16.5938ZM176.541 21.2757C179.761 24.5118 181.404 28.7878 181.404 34.2051H183.404C183.404 28.3489 181.611 23.5351 177.959 19.8649L176.541 21.2757ZM181.404 34.2051C181.404 38.2978 180.485 41.9427 178.665 45.1643L180.406 46.1482C182.411 42.599 183.404 38.6097 183.404 34.2051H181.404ZM178.665 45.1637C177.009 48.0888 174.734 50.3799 171.826 52.0509L172.822 53.785C176.042 51.9352 178.574 49.3851 180.405 46.1488L178.665 45.1637ZM171.822 52.0531C169.008 53.6865 166.209 54.4824 163.412 54.4824V56.4824C166.608 56.4824 169.75 55.5687 172.826 53.7828L171.822 52.0531ZM163.412 54.4824C160.527 54.4824 158.066 54.064 156.008 53.2566L155.277 55.1184C157.62 56.0375 160.339 56.4824 163.412 56.4824V54.4824ZM156.016 53.26C153.951 52.4274 152.168 51.2636 150.658 49.7696L149.252 51.1913C150.958 52.8796 152.967 54.1872 155.269 55.115L156.016 53.26ZM153.406 23.3425C152.32 24.8703 151.537 26.6953 151.039 28.7945L152.985 29.2563C153.434 27.3607 154.124 25.7833 155.036 24.5013L153.406 23.3425ZM151.039 28.7945C150.545 30.8761 150.301 33.104 150.301 35.4746H152.301C152.301 33.241 152.531 31.1695 152.985 29.2563L151.039 28.7945ZM150.301 35.4746C150.301 37.8232 150.527 39.9986 150.986 41.9957L152.935 41.5473C152.515 39.7189 152.301 37.6963 152.301 35.4746H150.301ZM150.987 41.9976C151.451 43.997 152.198 45.7793 153.238 47.3304L154.899 46.2165C154.009 44.89 153.351 43.3376 152.935 41.5454L150.987 41.9976ZM153.238 47.3302C155.542 50.7686 158.986 52.4707 163.412 52.4707V50.4707C159.578 50.4707 156.792 49.0413 154.899 46.2167L153.238 47.3302ZM163.412 52.4707C167.814 52.4707 171.29 51.0166 173.668 48.0021L172.098 46.7635C170.176 49.1995 167.338 50.4707 163.412 50.4707V52.4707ZM173.672 47.9964C175.924 45.099 176.98 41.066 176.98 36.0332H174.98C174.98 40.8182 173.972 44.3516 172.093 46.7692L173.672 47.9964ZM176.98 36.0332C176.98 28.3242 174.685 22.8348 169.776 20.0084L168.778 21.7416C172.807 24.0611 174.98 28.6771 174.98 36.0332H176.98ZM169.768 20.0039C168.001 19.0072 165.937 18.5293 163.615 18.5293V20.5293C165.66 20.5293 167.372 20.9486 168.786 21.7461L169.768 20.0039ZM163.615 18.5293C161.318 18.5293 159.296 18.9297 157.586 19.7755L158.473 21.5683C159.843 20.8906 161.545 20.5293 163.615 20.5293V18.5293ZM157.586 19.7755C155.897 20.6107 154.5 21.8032 153.406 23.3425L155.036 24.5013C155.939 23.2307 157.081 22.2564 158.473 21.5683L157.586 19.7755ZM206.373 55.2031L206.045 56.1476L206.712 56.3799L207.154 55.8278L206.373 55.2031ZM188.701 54.5938L188.22 55.4706L188.231 55.4766L188.243 55.4824L188.701 54.5938ZM188.295 51.75L188.549 50.7829L187.916 50.6162L187.51 51.1304L188.295 51.75ZM191.545 51.8262L191.875 52.77L191.896 52.7628L191.916 52.7546L191.545 51.8262ZM192.434 51.1406L193.218 51.7603L193.226 51.7505L193.234 51.7406L192.434 51.1406ZM190.402 19.3262L190.607 18.3473L190.601 18.3461L190.402 19.3262ZM187.99 15.9492L188.258 14.9857L187.696 14.8295L187.283 15.2421L187.99 15.9492ZM195.125 16.0762V17.0762H195.139L195.153 17.0758L195.125 16.0762ZM204.164 15.8223V14.8223H204.15L204.136 14.8227L204.164 15.8223ZM219.195 22.2969L218.296 22.7342L218.297 22.7363L219.195 22.2969ZM218.865 34.1797L217.977 33.721L217.974 33.7266L218.865 34.1797ZM216.758 37.125L217.478 37.8187L217.484 37.812L216.758 37.125ZM213.457 39.5371L213.919 40.4241L213.922 40.4223L213.457 39.5371ZM201.904 38.5977L201.926 37.5979L201.8 37.5952L201.678 37.6236L201.904 38.5977ZM213.457 32.9102L214.404 33.2325L214.407 33.2225L213.457 32.9102ZM213.609 25.0898L212.641 25.3389L212.642 25.3423L213.609 25.0898ZM211.959 21.9414L212.713 21.2849L212.709 21.2802L211.959 21.9414ZM199.949 20.0117L200.726 20.6415L200.735 20.6298L200.745 20.6178L199.949 20.0117ZM199.188 49.1855H198.188V49.2176L198.19 49.2495L199.188 49.1855ZM202.336 51.5977L202.195 52.5876L202.197 52.588L202.336 51.5977ZM206.576 52.9688L205.725 53.4928L205.734 53.5083L205.744 53.5235L206.576 52.9688ZM206.702 54.2586C206.381 54.1471 205.968 54.0892 205.533 54.054C205.077 54.0172 204.517 54 203.859 54V56C204.488 56 204.99 56.0167 205.372 56.0475C205.775 56.0801 205.976 56.1238 206.045 56.1476L206.702 54.2586ZM203.859 54H190.809V56H203.859V54ZM190.809 54C190.016 54 189.49 53.8757 189.16 53.7051L188.243 55.4824C188.962 55.8535 189.841 56 190.809 56V54ZM189.182 53.7169C189.06 53.6501 188.914 53.5297 188.914 53.0449H186.914C186.914 54.0497 187.293 54.9619 188.22 55.4706L189.182 53.7169ZM188.914 53.0449C188.914 52.6556 189.004 52.4652 189.08 52.3696L187.51 51.1304C187.078 51.678 186.914 52.3509 186.914 53.0449H188.914ZM188.04 52.7171C188.757 52.9056 189.46 53.0039 190.148 53.0039V51.0039C189.652 51.0039 189.12 50.933 188.549 50.7829L188.04 52.7171ZM190.148 53.0039C190.79 53.0039 191.384 52.942 191.875 52.77L191.215 50.8823C191.029 50.9473 190.692 51.0039 190.148 51.0039V53.0039ZM191.916 52.7546C192.437 52.5465 192.87 52.2019 193.218 51.7603L191.649 50.521C191.49 50.7226 191.33 50.835 191.174 50.8977L191.916 52.7546ZM193.234 51.7406C193.943 50.7951 194.195 49.3931 194.195 47.7637H192.195C192.195 49.2827 191.94 50.132 191.634 50.5406L193.234 51.7406ZM194.195 47.7637V22.2715H192.195V47.7637H194.195ZM194.195 22.2715C194.195 21.2732 193.893 20.3733 193.223 19.6664C192.571 18.979 191.659 18.5673 190.607 18.3473L190.198 20.305C191.008 20.4743 191.492 20.7482 191.771 21.0426C192.032 21.3175 192.195 21.6955 192.195 22.2715H194.195ZM190.601 18.3461C190.044 18.2331 189.611 18.1172 189.29 18.0031C188.953 17.8833 188.808 17.7891 188.768 17.7544L187.466 19.2729C187.781 19.5429 188.195 19.7364 188.62 19.8875C189.061 20.0442 189.593 20.1823 190.203 20.3062L190.601 18.3461ZM188.768 17.7544C188.661 17.663 188.616 17.5969 188.598 17.5635C188.583 17.5359 188.584 17.5266 188.584 17.5234H186.584C186.584 18.2567 186.964 18.8424 187.466 19.2729L188.768 17.7544ZM188.584 17.5234C188.584 17.1851 188.614 16.9496 188.654 16.7958C188.694 16.6384 188.73 16.6236 188.697 16.6563L187.283 15.2421C186.706 15.8189 186.584 16.7153 186.584 17.5234H188.584ZM187.723 16.9127C188.094 17.0159 188.465 17.0762 188.828 17.0762V15.0762C188.684 15.0762 188.496 15.0518 188.258 14.9857L187.723 16.9127ZM188.828 17.0762H195.125V15.0762H188.828V17.0762ZM195.153 17.0758L204.192 16.8219L204.136 14.8227L195.097 15.0766L195.153 17.0758ZM204.164 16.8223C211.971 16.8223 216.456 18.9505 218.296 22.7342L220.095 21.8596C217.737 17.0104 212.201 14.8223 204.164 14.8223V16.8223ZM218.297 22.7363C218.999 24.1724 219.338 25.5803 219.338 26.9688H221.338C221.338 25.2426 220.915 23.5359 220.094 21.8575L218.297 22.7363ZM219.338 26.9688C219.338 28.4835 219.23 29.7427 219.027 30.759L220.988 31.1512C221.225 29.9669 221.338 28.5686 221.338 26.9688H219.338ZM219.027 30.759C218.826 31.7632 218.478 32.75 217.977 33.721L219.754 34.6383C220.336 33.5104 220.749 32.3475 220.988 31.1512L219.027 30.759ZM217.974 33.7266C217.497 34.6652 216.852 35.5694 216.031 36.438L217.484 37.812C218.424 36.8187 219.184 35.7593 219.757 34.6327L217.974 33.7266ZM216.037 36.4314C215.243 37.2562 214.234 37.9992 212.992 38.6519L213.922 40.4223C215.321 39.687 216.512 38.8219 217.478 37.8186L216.037 36.4314ZM212.995 38.6502C210.321 40.0427 206.837 40.7715 202.488 40.7715V42.7715C207.043 42.7715 210.872 42.0107 213.919 40.4241L212.995 38.6502ZM202.488 40.7715H201.523V42.7715H202.488V40.7715ZM201.523 40.7715C201.511 40.7715 201.546 40.7694 201.606 40.7952C201.673 40.8236 201.735 40.8714 201.78 40.929C201.82 40.9816 201.828 41.0174 201.825 41.0064C201.822 40.9938 201.812 40.9482 201.812 40.8574H199.812C199.812 41.2641 199.887 41.7532 200.201 42.1569C200.552 42.6084 201.056 42.7715 201.523 42.7715V40.7715ZM201.812 40.8574C201.812 40.2592 201.897 39.9082 201.986 39.7246C202.054 39.5834 202.099 39.579 202.131 39.5717L201.678 37.6236C200.982 37.7856 200.481 38.2424 200.185 38.8545C199.91 39.4242 199.812 40.1184 199.812 40.8574H201.812ZM201.883 39.5974C205.154 39.667 207.886 39.2192 210.008 38.1745C212.162 37.114 213.646 35.4566 214.404 33.2325L212.51 32.5878C211.93 34.2908 210.821 35.5448 209.124 36.3802C207.395 37.2313 205.019 37.6637 201.926 37.5979L201.883 39.5974ZM214.407 33.2225C214.849 31.8782 215.066 30.4518 215.066 28.9492H213.066C213.066 30.2566 212.878 31.4707 212.507 32.5978L214.407 33.2225ZM215.066 28.9492C215.066 27.4727 214.906 26.1 214.577 24.8374L212.642 25.3423C212.922 26.4157 213.066 27.6159 213.066 28.9492H215.066ZM214.578 24.8408C214.235 23.5068 213.612 22.3174 212.713 21.2849L211.205 22.5979C211.897 23.3935 212.375 24.3031 212.641 25.3389L214.578 24.8408ZM212.709 21.2802C210.678 18.9754 207.423 17.9453 203.225 17.9453V19.9453C207.151 19.9453 209.719 20.9127 211.209 22.6026L212.709 21.2802ZM203.225 17.9453C201.517 17.9453 199.996 18.3005 199.154 19.4057L200.745 20.6178C200.986 20.3011 201.648 19.9453 203.225 19.9453V17.9453ZM199.172 19.3819C198.773 19.875 198.539 20.5298 198.397 21.2375C198.253 21.9595 198.188 22.8261 198.188 23.8203H200.188C200.188 22.9018 200.249 22.1773 200.359 21.6297C200.471 21.0678 200.618 20.7748 200.726 20.6415L199.172 19.3819ZM198.188 23.8203V49.1855H200.188V23.8203H198.188ZM198.19 49.2495C198.25 50.1976 198.676 50.9949 199.43 51.5726C200.145 52.1205 201.101 52.4314 202.195 52.5876L202.477 50.6077C201.556 50.4761 200.981 50.2411 200.646 49.985C200.351 49.7587 200.209 49.4938 200.185 49.1216L198.19 49.2495ZM202.197 52.588C203.092 52.7134 203.801 52.8325 204.333 52.9444C204.893 53.0624 205.172 53.156 205.266 53.203L206.16 51.4142C205.814 51.2411 205.31 51.1062 204.745 50.9873C204.151 50.8622 203.391 50.7358 202.475 50.6073L202.197 52.588ZM205.266 53.203C205.448 53.2941 205.572 53.3722 205.651 53.433C205.734 53.4963 205.741 53.5199 205.725 53.4928L207.428 52.4447C207.14 51.9777 206.64 51.6542 206.16 51.4142L205.266 53.203ZM205.744 53.5235C205.746 53.5257 205.779 53.5741 205.779 53.7305H207.779C207.779 53.2774 207.678 52.818 207.408 52.414L205.744 53.5235ZM205.779 53.7305C205.779 54.2523 205.667 54.4851 205.592 54.5784L207.154 55.8278C207.621 55.2441 207.779 54.4951 207.779 53.7305H205.779ZM229.479 50.4805L228.771 51.1876L228.775 51.1913L229.479 50.4805ZM225.695 44.666L224.764 45.0315L224.768 45.0398L225.695 44.666ZM227.219 25.3945L228.088 25.8897L228.09 25.8857L227.219 25.3945ZM234.455 18.1074L233.961 17.2383L233.96 17.2386L234.455 18.1074ZM256.773 20.5703L256.063 21.2738L256.065 21.2757L256.773 20.5703ZM259.059 45.6562L259.929 46.1488L259.929 46.1482L259.059 45.6562ZM251.848 52.918L251.349 52.0509L251.346 52.0531L251.848 52.918ZM235.166 54.1875L234.792 55.115L234.801 55.1184L235.166 54.1875ZM233.744 23.9219L232.929 23.3425L233.744 23.9219ZM231.484 41.7715L230.51 41.9957L230.51 41.9976L231.484 41.7715ZM233.592 46.7734L234.422 46.2167L234.422 46.2165L233.592 46.7734ZM252.406 47.3828L253.191 48.0022L253.196 47.9964L252.406 47.3828ZM248.801 20.875L249.3 20.0083L249.292 20.0039L248.801 20.875ZM230.186 49.7734C228.68 48.2674 227.49 46.4452 226.623 44.2922L224.768 45.0398C225.728 47.4233 227.061 49.4774 228.771 51.1876L230.186 49.7734ZM226.626 44.3006C225.776 42.1358 225.35 39.848 225.35 37.4297H223.35C223.35 40.0895 223.82 42.6259 224.764 45.0315L226.626 44.3006ZM225.35 37.4297C225.35 34.9371 225.598 32.7737 226.079 30.9282L224.144 30.4234C223.61 32.4711 223.35 34.8103 223.35 37.4297H225.35ZM226.079 30.9282C226.567 29.0573 227.238 27.3798 228.088 25.8897L226.35 24.8994C225.405 26.5577 224.671 28.4011 224.144 30.4234L226.079 30.9282ZM228.09 25.8857C228.944 24.3714 229.954 23.0417 231.12 21.8917L229.716 20.4677C228.41 21.7552 227.288 23.2354 226.348 24.9034L228.09 25.8857ZM231.12 21.8917C232.296 20.7318 233.573 19.7611 234.95 18.9763L233.96 17.2386C232.426 18.1126 231.011 19.1901 229.716 20.4677L231.12 21.8917ZM234.95 18.9766C237.742 17.3878 240.762 16.5938 244.027 16.5938V14.5938C240.42 14.5938 237.059 15.4755 233.961 17.2383L234.95 18.9766ZM244.027 16.5938C249.008 16.5938 252.989 18.1688 256.063 21.2738L257.484 19.8668C253.99 16.3364 249.474 14.5938 244.027 14.5938V16.5938ZM256.065 21.2757C259.285 24.5118 260.928 28.7878 260.928 34.2051H262.928C262.928 28.3489 261.134 23.5351 257.482 19.8649L256.065 21.2757ZM260.928 34.2051C260.928 38.2978 260.008 41.9427 258.188 45.1643L259.929 46.1482C261.935 42.599 262.928 38.6097 262.928 34.2051H260.928ZM258.188 45.1637C256.533 48.0888 254.258 50.3799 251.349 52.0509L252.346 53.785C255.565 51.9352 258.097 49.3851 259.929 46.1488L258.188 45.1637ZM251.346 52.0531C248.532 53.6865 245.732 54.4824 242.936 54.4824V56.4824C246.131 56.4824 249.273 55.5687 252.35 53.7828L251.346 52.0531ZM242.936 54.4824C240.05 54.4824 237.589 54.064 235.531 53.2566L234.801 55.1184C237.144 56.0375 239.863 56.4824 242.936 56.4824V54.4824ZM235.54 53.26C233.474 52.4274 231.692 51.2636 230.182 49.7696L228.775 51.1913C230.481 52.8796 232.491 54.1872 234.792 55.115L235.54 53.26ZM232.929 23.3425C231.843 24.8703 231.06 26.6953 230.562 28.7945L232.508 29.2563C232.958 27.3607 233.648 25.7833 234.559 24.5013L232.929 23.3425ZM230.562 28.7945C230.068 30.8761 229.824 33.104 229.824 35.4746H231.824C231.824 33.241 232.054 31.1695 232.508 29.2563L230.562 28.7945ZM229.824 35.4746C229.824 37.8232 230.05 39.9986 230.51 41.9957L232.459 41.5473C232.038 39.7189 231.824 37.6963 231.824 35.4746H229.824ZM230.51 41.9976C230.974 43.997 231.721 45.7793 232.761 47.3304L234.422 46.2165C233.533 44.89 232.875 43.3376 232.458 41.5454L230.51 41.9976ZM232.761 47.3302C235.066 50.7686 238.509 52.4707 242.936 52.4707V50.4707C239.101 50.4707 236.316 49.0413 234.422 46.2167L232.761 47.3302ZM242.936 52.4707C247.338 52.4707 250.813 51.0166 253.191 48.0021L251.621 46.7635C249.7 49.1995 246.862 50.4707 242.936 50.4707V52.4707ZM253.196 47.9964C255.447 45.099 256.504 41.066 256.504 36.0332H254.504C254.504 40.8182 253.495 44.3516 251.617 46.7692L253.196 47.9964ZM256.504 36.0332C256.504 28.3242 254.209 22.8348 249.3 20.0084L248.302 21.7416C252.33 24.0611 254.504 28.6771 254.504 36.0332H256.504ZM249.292 20.0039C247.524 19.0072 245.461 18.5293 243.139 18.5293V20.5293C245.184 20.5293 246.895 20.9486 248.31 21.7461L249.292 20.0039ZM243.139 18.5293C240.842 18.5293 238.82 18.9297 237.109 19.7755L237.996 21.5683C239.366 20.8906 241.068 20.5293 243.139 20.5293V18.5293ZM237.109 19.7755C235.42 20.6107 234.023 21.8032 232.929 23.3425L234.559 24.5013C235.462 23.2307 236.604 22.2564 237.996 21.5683L237.109 19.7755ZM285.211 19.5039L284.875 20.4456L284.876 20.446L285.211 19.5039ZM276.324 20.5957L275.697 19.8169L275.696 19.818L276.324 20.5957ZM279.955 30.9297L279.521 31.8307L279.528 31.834L279.955 30.9297ZM283.129 32.4277L282.702 33.3321L282.71 33.3357L283.129 32.4277ZM287.572 34.6113L287.108 35.4972L287.115 35.5004L287.121 35.5036L287.572 34.6113ZM291.381 37.125L290.728 37.8826L290.732 37.8858L291.381 37.125ZM290.746 52.6895L291.32 53.5084L291.321 53.5078L290.746 52.6895ZM272.312 53.9844L272.692 53.059L272.681 53.0547L272.312 53.9844ZM268.479 50.9629L269.342 50.4583L269.34 50.4549L268.479 50.9629ZM269.316 43.2441L268.545 42.6073L268.492 42.6717L268.45 42.7442L269.316 43.2441ZM272.516 43.625L273.513 43.5501L273.506 43.4589L273.483 43.3705L272.516 43.625ZM275.207 50.0234L274.56 50.7856L274.564 50.789L275.207 50.0234ZM288.436 48.8301L289.321 49.2941L289.322 49.2933L288.436 48.8301ZM286.049 41.2891L286.651 40.4908L286.644 40.4855L286.049 41.2891ZM280.59 38.3438L280.202 39.2654L280.204 39.2664L280.59 38.3438ZM275.309 35.8555L274.815 36.7252L274.82 36.728L275.309 35.8555ZM271.982 33.3672L271.281 34.08L271.282 34.0805L271.982 33.3672ZM272.82 18.2852L273.394 19.1041L273.395 19.1036L272.82 18.2852ZM292.777 18.7676L291.975 19.3645L291.979 19.3704L292.777 18.7676ZM293.285 24.9883L292.317 24.7373L292.315 24.7458L292.313 24.7542L293.285 24.9883ZM292.625 26.7656L293.4 27.3973L293.401 27.3962L292.625 26.7656ZM290.35 26.791C290.35 24.7436 289.987 22.9804 289.184 21.5682C288.37 20.1342 287.14 19.1289 285.546 18.5618L284.876 20.446C286.041 20.8607 286.88 21.5608 287.445 22.5559C288.023 23.5726 288.35 24.9621 288.35 26.791H290.35ZM285.547 18.5622C284.467 18.1765 283.24 17.9961 281.885 17.9961V19.9961C283.068 19.9961 284.059 20.1542 284.875 20.4456L285.547 18.5622ZM281.885 17.9961C280.544 17.9961 279.346 18.1474 278.309 18.4739L278.91 20.3816C279.701 20.1325 280.686 19.9961 281.885 19.9961V17.9961ZM278.309 18.4739C277.302 18.7909 276.423 19.2324 275.697 19.8169L276.952 21.3745C277.445 20.9772 278.089 20.64 278.91 20.3816L278.309 18.4739ZM275.696 19.818C274.216 21.0137 273.471 22.6244 273.471 24.5566H275.471C275.471 23.205 275.961 22.1751 276.953 21.3734L275.696 19.818ZM273.471 24.5566C273.471 27.6357 275.755 30.0175 279.521 31.8307L280.389 30.0287C276.842 28.321 275.471 26.4541 275.471 24.5566H273.471ZM279.528 31.834L282.702 33.3321L283.556 31.5234L280.382 30.0254L279.528 31.834ZM282.71 33.3357C284.236 34.04 285.702 34.7605 287.108 35.4972L288.036 33.7255C286.599 32.9725 285.103 32.2373 283.548 31.5198L282.71 33.3357ZM287.121 35.5036C288.495 36.1989 289.696 36.993 290.728 37.8826L292.034 36.3674C290.866 35.3611 289.527 34.4795 288.024 33.719L287.121 35.5036ZM290.732 37.8858C292.941 39.7705 294.012 42.0533 294.012 44.793H296.012C296.012 41.4388 294.662 38.6097 292.03 36.3642L290.732 37.8858ZM294.012 44.793C294.012 47.7104 292.769 50.0469 290.171 51.8711L291.321 53.5078C294.411 51.3372 296.012 48.4094 296.012 44.793H294.012ZM290.172 51.8705C287.719 53.5893 284.598 54.4824 280.742 54.4824V56.4824C284.91 56.4824 288.458 55.5135 291.32 53.5084L290.172 51.8705ZM280.742 54.4824C277.664 54.4824 274.987 53.9993 272.692 53.059L271.933 54.9097C274.513 55.9668 277.456 56.4824 280.742 56.4824V54.4824ZM272.681 53.0547C271.036 52.4029 269.963 51.5205 269.342 50.4583L267.615 51.4675C268.518 53.0121 270.001 54.144 271.944 54.9141L272.681 53.0547ZM269.34 50.4549C269.061 49.9812 268.895 49.3621 268.895 48.5508H266.895C266.895 49.6353 267.118 50.6243 267.617 51.4709L269.34 50.4549ZM268.895 48.5508C268.895 46.8305 269.322 45.234 270.182 43.7441L268.45 42.7442C267.415 44.5381 266.895 46.4794 266.895 48.5508H268.895ZM270.087 43.881C270.197 43.748 270.341 43.6602 270.637 43.6602V41.6602C269.816 41.6602 269.079 41.9617 268.545 42.6073L270.087 43.881ZM270.637 43.6602C271.097 43.6602 271.346 43.7314 271.462 43.7909C271.513 43.817 271.529 43.8359 271.531 43.8391C271.533 43.841 271.541 43.8495 271.549 43.8795L273.483 43.3705C273.321 42.7567 272.925 42.2937 272.376 42.0118C271.865 41.7497 271.26 41.6602 270.637 41.6602V43.6602ZM271.518 43.6999C271.75 46.7813 272.709 49.2132 274.56 50.7856L275.854 49.2613C274.557 48.1591 273.721 46.3255 273.513 43.5501L271.518 43.6999ZM274.564 50.789C276.392 52.3253 278.867 53.0293 281.859 53.0293V51.0293C279.164 51.0293 277.205 50.3961 275.85 49.2579L274.564 50.789ZM281.859 53.0293C285.345 53.0293 287.971 51.8728 289.321 49.2941L287.55 48.3661C286.666 50.0529 284.907 51.0293 281.859 51.0293V53.0293ZM289.322 49.2933C289.799 48.381 290.02 47.3446 290.02 46.2148H288.02C288.02 47.0825 287.851 47.7896 287.549 48.3668L289.322 49.2933ZM290.02 46.2148C290.02 45.0102 289.695 43.9062 289.034 42.9353L287.38 44.0608C287.803 44.6811 288.02 45.3883 288.02 46.2148H290.02ZM289.034 42.9353C288.421 42.0358 287.621 41.2229 286.651 40.4909L285.446 42.0873C286.271 42.7094 286.909 43.3691 287.38 44.0608L289.034 42.9353ZM286.644 40.4855C285.187 39.4059 283.288 38.3877 280.975 37.4211L280.204 39.2664C282.428 40.1956 284.169 41.141 285.454 42.0926L286.644 40.4855ZM280.978 37.4221C278.741 36.4804 277.02 35.6676 275.797 34.983L274.82 36.728C276.137 37.4652 277.936 38.3113 280.202 39.2654L280.978 37.4221ZM275.802 34.9858C274.62 34.315 273.582 33.5371 272.683 32.6539L271.282 34.0805C272.312 35.0932 273.492 35.9741 274.815 36.7252L275.802 34.9858ZM272.684 32.6544C270.782 30.7833 269.834 28.4952 269.834 25.7246H267.834C267.834 29.0139 268.985 31.8209 271.281 34.08L272.684 32.6544ZM269.834 25.7246C269.834 22.9711 270.989 20.7895 273.394 19.1041L272.247 17.4662C269.337 19.5048 267.834 22.2828 267.834 25.7246H269.834ZM273.395 19.1036C275.739 17.458 278.822 16.5938 282.723 16.5938V14.5938C278.532 14.5938 275.014 15.5237 272.246 17.4667L273.395 19.1036ZM282.723 16.5938C287.811 16.5938 290.709 17.6624 291.975 19.3645L293.58 18.1707C291.698 15.641 287.892 14.5938 282.723 14.5938V16.5938ZM291.979 19.3704C292.39 19.9134 292.641 20.6813 292.641 21.7637H294.641C294.641 20.3747 294.316 19.1452 293.575 18.1647L291.979 19.3704ZM292.641 21.7637C292.641 22.9391 292.528 23.9259 292.317 24.7373L294.253 25.2392C294.517 24.2225 294.641 23.0596 294.641 21.7637H292.641ZM292.313 24.7542C292.208 25.1893 292.109 25.5243 292.018 25.77C291.972 25.8921 291.932 25.983 291.899 26.048C291.865 26.1155 291.846 26.1384 291.849 26.135L293.401 27.3962C293.615 27.1335 293.77 26.796 293.893 26.4664C294.021 26.1196 294.142 25.7014 294.257 25.2223L292.313 24.7542ZM291.85 26.134C291.752 26.2537 291.476 26.4512 290.695 26.4512V28.4512C291.743 28.4512 292.753 28.1916 293.4 27.3973L291.85 26.134ZM290.695 26.4512C290.509 26.4512 290.369 26.4396 290.268 26.423C290.164 26.406 290.125 26.3876 290.126 26.3883C290.131 26.3908 290.198 26.4248 290.261 26.5178C290.329 26.618 290.35 26.7221 290.35 26.791H288.35C288.35 27.08 288.426 27.3766 288.607 27.6419C288.782 27.8999 289.016 28.0715 289.246 28.1839C289.676 28.3953 290.197 28.4512 290.695 28.4512V26.4512Z" fill="#0A2463" mask="url(#path-2-outside-1_114_79)"/>
</svg>
