<svg width="259" height="137" viewBox="0 0 259 137" fill="none" xmlns="http://www.w3.org/2000/svg">
<path d="M47.535 88.6352V116.841H31.6383L29.3895 111.432C29.3895 111.432 25.6674 118 16.8272 118C7.98713 118 0 113.363 0 101.386C0 89.408 8.37485 84.7714 16.8272 84.7714C24.1165 84.7714 28.459 87.9398 28.459 87.9398V85.1578C28.459 81.0622 25.3572 79.4394 19.6964 79.4394C14.5784 79.4394 9.30539 80.5213 5.50569 82.3759V67.3844C9.38293 65.6071 16.362 64.6025 24.2716 64.6025C38.2296 64.6025 47.535 74.262 47.535 88.6352ZM19.6964 100.999C19.6964 103.781 21.4799 105.636 24.0389 105.636C27.2183 105.636 29.0793 103.395 29.0793 99.6084V98.7583C29.0793 98.7583 26.9081 96.131 24.0389 96.3628C21.4024 96.3628 19.6964 98.2174 19.6964 100.999Z" fill="#203C89"/>
<path d="M70.876 56.334C70.876 56.334 75.0635 49.0701 87.7033 49.0701V65.7616C79.3284 65.7616 74.0554 66.8435 71.4189 72.5619V116.764H52.3428V50.3065H67.6967L70.876 56.334Z" fill="#203C89"/>
<path d="M126.631 24.8055H109.261V116.764H90.1847V24.8055H82.1201V11.6686H90.1847V3.1683L109.261 0V11.6686H126.631V24.8055Z" fill="#203C89"/>
<path d="M161.836 73.1028C161.836 73.1028 156.718 69.9345 150.825 69.9345C143.303 69.9345 138.185 75.0347 138.185 84.1532C138.185 93.2718 143.303 98.372 150.825 98.372C156.641 98.372 161.836 95.2037 161.836 95.2037V114.677C161.836 114.677 154.469 117.691 145.319 117.691C126.941 117.691 113.603 105.404 113.603 84.076C113.603 62.7479 126.941 50.461 145.319 50.461C154.469 50.461 161.836 53.3975 161.836 53.3975V73.1028Z" fill="#203C89"/>
<path d="M165.326 117.15V47.7564L155.478 49.4565V34.1559L172.227 31.2967H184.402V117.15H165.326Z" fill="#203C89"/>
<path d="M197.74 117.15V47.7564L187.891 49.4565V34.1559L204.641 31.2967H216.816V117.15H197.74Z" fill="#203C89"/>
<path d="M239.381 80.0576L245.43 92.3445L259 94.2764L249.229 103.859L251.556 117.305L239.381 110.968L227.207 117.305L229.533 103.859L219.762 94.2764L233.333 92.3445L239.381 80.0576Z" fill="#FAB710"/>
<path d="M45.9323 128.16H48.0923V135H45.9323V128.16Z" fill="#203C89"/>
<path d="M51.311 132.24V135H49.307V128.16H51.335L53.147 130.92C53.419 131.328 53.627 131.672 53.771 131.952H53.807V128.16H55.799V135H53.759L51.899 132.12L51.359 131.304H51.323L51.311 132.24Z" fill="#203C89"/>
<path d="M56.9588 128.16H61.8668V129.648H59.1188V131.004H61.3868V132.312H59.1188V135H56.9588V128.16Z" fill="#203C89"/>
<path d="M65.9321 135.156C64.7401 135.156 63.8441 134.876 63.2441 134.316C62.6521 133.748 62.3561 132.84 62.3561 131.592C62.3561 130.368 62.6841 129.476 63.3401 128.916C63.9961 128.356 64.8641 128.076 65.9441 128.076C68.2161 128.076 69.3521 129.208 69.3521 131.472C69.3521 132.616 69.0721 133.516 68.5121 134.172C67.9601 134.828 67.1001 135.156 65.9321 135.156ZM65.8841 133.74C66.1081 133.74 66.2961 133.704 66.4481 133.632C66.6001 133.552 66.7201 133.416 66.8081 133.224C66.9761 132.896 67.0601 132.36 67.0601 131.616C67.0601 130.888 66.9761 130.36 66.8081 130.032C66.6401 129.696 66.3321 129.52 65.8841 129.504C65.7161 129.504 65.5401 129.524 65.3561 129.564C65.1801 129.596 65.0681 129.644 65.0201 129.708C64.9241 129.82 64.8481 130.06 64.7921 130.428C64.7441 130.788 64.7201 131.184 64.7201 131.616C64.7201 132.288 64.7841 132.78 64.9121 133.092C65.0001 133.324 65.1241 133.492 65.2841 133.596C65.4441 133.692 65.6441 133.74 65.8841 133.74Z" fill="#203C89"/>
<path d="M76.535 135H74.267L73.859 133.272C73.843 133.208 73.815 133.1 73.775 132.948C73.743 132.788 73.703 132.672 73.655 132.6C73.607 132.52 73.539 132.468 73.451 132.444C73.227 132.452 72.899 132.456 72.467 132.456V135H70.307V128.22C71.275 128.148 72.179 128.112 73.019 128.112C73.779 128.112 74.395 128.176 74.867 128.304C75.339 128.424 75.691 128.636 75.923 128.94C76.163 129.236 76.283 129.644 76.283 130.164C76.283 130.652 76.171 131.036 75.947 131.316C75.723 131.588 75.363 131.752 74.867 131.808V131.88C75.147 131.904 75.379 131.996 75.563 132.156C75.755 132.308 75.883 132.504 75.947 132.744L76.535 135ZM72.467 131.1C72.539 131.108 72.679 131.112 72.887 131.112C73.503 131.112 73.863 131.06 73.967 130.956C74.063 130.86 74.111 130.636 74.111 130.284C74.111 129.956 74.023 129.732 73.847 129.612C73.679 129.492 73.399 129.432 73.007 129.432C72.919 129.432 72.739 129.44 72.467 129.456V131.1Z" fill="#203C89"/>
<path d="M86.088 135H84.072L83.916 131.232C83.892 130.488 83.864 129.924 83.832 129.54H83.796C83.7 129.844 83.588 130.316 83.46 130.956L83.4 131.256L82.572 135H80.556L79.86 131.628L79.74 131.028C79.572 130.284 79.456 129.788 79.392 129.54H79.356C79.324 129.94 79.296 130.592 79.272 131.496C79.264 131.552 79.26 131.64 79.26 131.76L79.152 135H77.124L77.412 128.16H80.844L81.432 131.112L81.576 131.904C81.64 131.656 81.7 131.38 81.756 131.076L82.308 128.16H85.812L86.088 135Z" fill="#203C89"/>
<path d="M87.0869 128.16H92.0669V129.6H89.2469V130.848H91.6229V132.144H89.2469V133.536H92.0549V135H87.0869V128.16Z" fill="#203C89"/>
<path d="M99.2108 135H96.9428L96.5348 133.272C96.5188 133.208 96.4908 133.1 96.4508 132.948C96.4188 132.788 96.3788 132.672 96.3308 132.6C96.2828 132.52 96.2148 132.468 96.1268 132.444C95.9028 132.452 95.5748 132.456 95.1428 132.456V135H92.9828V128.22C93.9508 128.148 94.8548 128.112 95.6948 128.112C96.4548 128.112 97.0708 128.176 97.5428 128.304C98.0148 128.424 98.3668 128.636 98.5988 128.94C98.8388 129.236 98.9588 129.644 98.9588 130.164C98.9588 130.652 98.8468 131.036 98.6228 131.316C98.3988 131.588 98.0388 131.752 97.5428 131.808V131.88C97.8228 131.904 98.0548 131.996 98.2388 132.156C98.4308 132.308 98.5588 132.504 98.6228 132.744L99.2108 135ZM95.1428 131.1C95.2148 131.108 95.3548 131.112 95.5628 131.112C96.1788 131.112 96.5388 131.06 96.6428 130.956C96.7388 130.86 96.7868 130.636 96.7868 130.284C96.7868 129.956 96.6988 129.732 96.5228 129.612C96.3548 129.492 96.0748 129.432 95.6828 129.432C95.5948 129.432 95.4148 129.44 95.1428 129.456V131.1Z" fill="#203C89"/>
<path d="M101.204 132.648C101.548 132.648 101.848 132.776 102.104 133.032C102.368 133.28 102.5 133.624 102.5 134.064C102.5 134.488 102.356 134.928 102.068 135.384C101.78 135.848 101.436 136.28 101.036 136.68L100.22 135.984C100.516 135.568 100.772 135.168 100.988 134.784C100.508 134.648 100.16 134.504 99.9437 134.352C99.9197 134.232 99.9078 134.12 99.9078 134.016C99.9078 133.624 100.02 133.3 100.244 133.044C100.476 132.78 100.796 132.648 101.204 132.648Z" fill="#203C89"/>
<path d="M110.663 134.772C110.367 134.9 110.023 134.992 109.631 135.048C109.239 135.104 108.875 135.132 108.539 135.132C107.451 135.132 106.599 134.848 105.983 134.28C105.367 133.712 105.059 132.84 105.059 131.664C105.059 130.464 105.383 129.568 106.031 128.976C106.679 128.376 107.591 128.076 108.767 128.076C109.327 128.076 109.911 128.152 110.519 128.304C110.519 128.464 110.503 128.704 110.471 129.024C110.439 129.336 110.407 129.556 110.375 129.684H109.619C109.067 129.684 108.631 129.696 108.311 129.72C107.999 129.736 107.811 129.772 107.747 129.828C107.627 129.94 107.535 130.168 107.471 130.512C107.407 130.848 107.375 131.172 107.375 131.484C107.375 132.028 107.443 132.448 107.579 132.744C107.715 133.032 107.887 133.224 108.095 133.32C108.295 133.416 108.627 133.464 109.091 133.464C109.459 133.464 109.939 133.432 110.531 133.368L110.663 134.772Z" fill="#203C89"/>
<path d="M114.788 135.156C113.596 135.156 112.7 134.876 112.1 134.316C111.508 133.748 111.212 132.84 111.212 131.592C111.212 130.368 111.54 129.476 112.196 128.916C112.852 128.356 113.72 128.076 114.8 128.076C117.072 128.076 118.208 129.208 118.208 131.472C118.208 132.616 117.928 133.516 117.368 134.172C116.816 134.828 115.956 135.156 114.788 135.156ZM114.74 133.74C114.964 133.74 115.152 133.704 115.304 133.632C115.456 133.552 115.576 133.416 115.664 133.224C115.832 132.896 115.916 132.36 115.916 131.616C115.916 130.888 115.832 130.36 115.664 130.032C115.496 129.696 115.188 129.52 114.74 129.504C114.572 129.504 114.396 129.524 114.212 129.564C114.036 129.596 113.924 129.644 113.876 129.708C113.78 129.82 113.704 130.06 113.648 130.428C113.6 130.788 113.576 131.184 113.576 131.616C113.576 132.288 113.64 132.78 113.768 133.092C113.856 133.324 113.98 133.492 114.14 133.596C114.3 133.692 114.5 133.74 114.74 133.74Z" fill="#203C89"/>
<path d="M127.982 135H125.966L125.811 131.232C125.787 130.488 125.759 129.924 125.727 129.54H125.69C125.594 129.844 125.482 130.316 125.354 130.956L125.295 131.256L124.466 135H122.451L121.755 131.628L121.634 131.028C121.466 130.284 121.35 129.788 121.286 129.54H121.251C121.219 129.94 121.191 130.592 121.167 131.496C121.159 131.552 121.155 131.64 121.155 131.76L121.047 135H119.019L119.307 128.16H122.739L123.326 131.112L123.47 131.904C123.534 131.656 123.594 131.38 123.65 131.076L124.202 128.16H127.706L127.982 135Z" fill="#203C89"/>
<path d="M137.861 135H135.845L135.689 131.232C135.665 130.488 135.637 129.924 135.605 129.54H135.569C135.473 129.844 135.361 130.316 135.233 130.956L135.173 131.256L134.345 135H132.329L131.633 131.628L131.513 131.028C131.345 130.284 131.229 129.788 131.165 129.54H131.129C131.097 129.94 131.069 130.592 131.045 131.496C131.037 131.552 131.033 131.64 131.033 131.76L130.925 135H128.897L129.185 128.16H132.617L133.205 131.112L133.349 131.904C133.413 131.656 133.473 131.38 133.529 131.076L134.081 128.16H137.585L137.861 135Z" fill="#203C89"/>
<path d="M145.316 128.16V131.988C145.316 132.78 145.228 133.4 145.052 133.848C144.884 134.288 144.564 134.612 144.092 134.82C143.62 135.028 142.932 135.132 142.028 135.132C141.364 135.132 140.804 135.064 140.348 134.928C139.892 134.784 139.528 134.516 139.256 134.124C138.992 133.732 138.86 133.18 138.86 132.468V128.16H141.02V132.012C141.02 132.436 141.04 132.76 141.08 132.984C141.128 133.2 141.232 133.368 141.392 133.488C141.552 133.6 141.796 133.656 142.124 133.656C142.324 133.656 142.512 133.636 142.688 133.596C142.864 133.556 142.984 133.496 143.048 133.416C143.12 133.32 143.156 132.972 143.156 132.372V128.16H145.316Z" fill="#203C89"/>
<path d="M148.459 132.24V135H146.455V128.16H148.483L150.295 130.92C150.567 131.328 150.775 131.672 150.919 131.952H150.955V128.16H152.947V135H150.907L149.047 132.12L148.507 131.304H148.471L148.459 132.24Z" fill="#203C89"/>
<path d="M154.143 128.16H156.303V135H154.143V128.16Z" fill="#203C89"/>
<path d="M163.626 136.656L161.802 135.072C161.466 135.128 161.15 135.156 160.854 135.156C159.662 135.156 158.766 134.876 158.166 134.316C157.574 133.748 157.278 132.84 157.278 131.592C157.278 130.368 157.606 129.476 158.262 128.916C158.918 128.356 159.786 128.076 160.866 128.076C163.138 128.076 164.274 129.208 164.274 131.472C164.274 132.712 163.962 133.648 163.338 134.28L164.67 135.204L163.626 136.656ZM160.806 133.74C161.03 133.74 161.218 133.704 161.37 133.632C161.522 133.552 161.642 133.416 161.73 133.224C161.898 132.896 161.982 132.36 161.982 131.616C161.982 130.888 161.898 130.36 161.73 130.032C161.562 129.696 161.254 129.52 160.806 129.504C160.638 129.504 160.462 129.524 160.278 129.564C160.102 129.596 159.99 129.644 159.942 129.708C159.846 129.82 159.77 130.06 159.714 130.428C159.666 130.788 159.642 131.184 159.642 131.616C159.642 132.288 159.706 132.78 159.834 133.092C159.922 133.324 160.046 133.492 160.206 133.596C160.366 133.692 160.566 133.74 160.806 133.74Z" fill="#203C89"/>
<path d="M171.684 128.16V131.988C171.684 132.78 171.595 133.4 171.419 133.848C171.251 134.288 170.932 134.612 170.46 134.82C169.988 135.028 169.3 135.132 168.396 135.132C167.732 135.132 167.171 135.064 166.715 134.928C166.259 134.784 165.896 134.516 165.624 134.124C165.36 133.732 165.227 133.18 165.227 132.468V128.16H167.387V132.012C167.387 132.436 167.407 132.76 167.447 132.984C167.495 133.2 167.6 133.368 167.76 133.488C167.92 133.6 168.164 133.656 168.492 133.656C168.692 133.656 168.879 133.636 169.055 133.596C169.231 133.556 169.351 133.496 169.415 133.416C169.487 133.32 169.523 132.972 169.523 132.372V128.16H171.684Z" fill="#203C89"/>
<path d="M172.763 128.16H177.743V129.6H174.923V130.848H177.299V132.144H174.923V133.536H177.731V135H172.763V128.16Z" fill="#203C89"/>
<path d="M184.887 135H182.619L182.211 133.272C182.195 133.208 182.167 133.1 182.127 132.948C182.095 132.788 182.055 132.672 182.007 132.6C181.959 132.52 181.891 132.468 181.803 132.444C181.579 132.452 181.251 132.456 180.819 132.456V135H178.659V128.22C179.627 128.148 180.531 128.112 181.371 128.112C182.131 128.112 182.747 128.176 183.219 128.304C183.691 128.424 184.043 128.636 184.275 128.94C184.515 129.236 184.635 129.644 184.635 130.164C184.635 130.652 184.523 131.036 184.299 131.316C184.075 131.588 183.715 131.752 183.219 131.808V131.88C183.499 131.904 183.731 131.996 183.915 132.156C184.107 132.308 184.235 132.504 184.299 132.744L184.887 135ZM180.819 131.1C180.891 131.108 181.031 131.112 181.239 131.112C181.855 131.112 182.215 131.06 182.319 130.956C182.415 130.86 182.463 130.636 182.463 130.284C182.463 129.956 182.375 129.732 182.199 129.612C182.031 129.492 181.751 129.432 181.359 129.432C181.271 129.432 181.091 129.44 180.819 129.456V131.1Z" fill="#203C89"/>
<path d="M186.88 132.648C187.224 132.648 187.524 132.776 187.78 133.032C188.044 133.28 188.176 133.624 188.176 134.064C188.176 134.488 188.032 134.928 187.744 135.384C187.456 135.848 187.112 136.28 186.712 136.68L185.896 135.984C186.192 135.568 186.448 135.168 186.664 134.784C186.184 134.648 185.836 134.504 185.62 134.352C185.596 134.232 185.584 134.12 185.584 134.016C185.584 133.624 185.696 133.3 185.92 133.044C186.152 132.78 186.472 132.648 186.88 132.648Z" fill="#203C89"/>
<path d="M194.935 133.5H192.943L192.583 135H190.375L192.583 128.16H195.403L197.515 135H195.295L194.935 133.5ZM193.927 129.636L193.219 132.168H194.647L193.975 129.636H193.927Z" fill="#203C89"/>
<path d="M203.912 131.208V134.628C203.376 134.804 202.868 134.932 202.388 135.012C201.908 135.092 201.504 135.132 201.176 135.132C200.088 135.132 199.236 134.848 198.62 134.28C198.004 133.712 197.696 132.84 197.696 131.664C197.696 130.464 198.02 129.568 198.668 128.976C199.316 128.376 200.228 128.076 201.404 128.076C202.02 128.076 202.76 128.168 203.624 128.352C203.624 128.512 203.608 128.752 203.576 129.072C203.544 129.384 203.512 129.604 203.48 129.732L203.048 129.72C202.52 129.704 202.108 129.696 201.812 129.696C200.924 129.696 200.44 129.748 200.36 129.852C200.232 130.004 200.14 130.24 200.084 130.56C200.036 130.88 200.012 131.188 200.012 131.484C200.012 132.02 200.072 132.436 200.192 132.732C200.312 133.028 200.496 133.236 200.744 133.356C200.992 133.476 201.328 133.536 201.752 133.536H201.8V131.208H203.912Z" fill="#203C89"/>
<path d="M204.944 128.16H207.104V135H204.944V128.16Z" fill="#203C89"/>
<path d="M214.547 135H212.279L211.871 133.272C211.855 133.208 211.827 133.1 211.787 132.948C211.755 132.788 211.715 132.672 211.667 132.6C211.619 132.52 211.551 132.468 211.463 132.444C211.239 132.452 210.911 132.456 210.479 132.456V135H208.319V128.22C209.287 128.148 210.191 128.112 211.031 128.112C211.791 128.112 212.407 128.176 212.879 128.304C213.351 128.424 213.703 128.636 213.935 128.94C214.175 129.236 214.295 129.644 214.295 130.164C214.295 130.652 214.183 131.036 213.959 131.316C213.735 131.588 213.375 131.752 212.879 131.808V131.88C213.159 131.904 213.391 131.996 213.575 132.156C213.767 132.308 213.895 132.504 213.959 132.744L214.547 135ZM210.479 131.1C210.551 131.108 210.691 131.112 210.899 131.112C211.515 131.112 211.875 131.06 211.979 130.956C212.075 130.86 212.123 130.636 212.123 130.284C212.123 129.956 212.035 129.732 211.859 129.612C211.691 129.492 211.411 129.432 211.019 129.432C210.931 129.432 210.751 129.44 210.479 129.456V131.1Z" fill="#203C89"/>
</svg>
