<svg width="287" height="68" viewBox="0 0 287 68" fill="none" xmlns="http://www.w3.org/2000/svg">
<path d="M28.8945 24.0703C28.9622 23.5964 28.9961 22.9023 28.9961 21.9883C28.9961 21.0742 28.8184 20.2448 28.4629 19.5C28.1074 18.7383 27.625 18.1458 27.0156 17.7227C25.9492 16.9948 24.3411 16.6309 22.1914 16.6309C20.0586 16.6309 18.1712 17.0202 16.5293 17.7988C14.9043 18.5605 13.5417 19.6354 12.4414 21.0234C10.224 23.8164 9.11523 27.6165 9.11523 32.4238C9.11523 36.9772 10.2409 40.6081 12.4922 43.3164C14.8281 46.1432 17.985 47.5566 21.9629 47.5566C25.873 47.5566 28.9199 46.7018 31.1035 44.9922C31.7637 44.4844 32.3646 43.9342 32.9062 43.3418C33.4141 43.4941 33.8288 43.9427 34.1504 44.6875C34.252 44.9414 34.3027 45.2799 34.3027 45.7031C34.3027 46.1094 33.998 46.7188 33.3887 47.5312C32.7962 48.3268 31.9245 49.097 30.7734 49.8418C28.0312 51.6361 24.7474 52.5332 20.9219 52.5332C15.4375 52.5332 11.0703 50.8659 7.82031 47.5312C4.60417 44.2643 2.99609 39.8887 2.99609 34.4043C2.99609 31.0527 3.5293 28.0312 4.5957 25.3398C5.66211 22.6484 7.11784 20.3633 8.96289 18.4844C10.8079 16.5885 12.9577 15.1328 15.4121 14.1172C17.8835 13.1016 20.2786 12.5938 22.5977 12.5938C24.9336 12.5938 26.804 12.7884 28.209 13.1777C29.6139 13.5671 30.7819 14.1003 31.7129 14.7773C33.5749 16.1654 34.5059 18.0104 34.5059 20.3125C34.5059 22.0729 33.8542 23.3171 32.5508 24.0449C32.1107 24.2988 31.6367 24.4258 31.1289 24.4258C30.0794 24.4258 29.3346 24.3073 28.8945 24.0703ZM44.916 47.4805C43.3079 45.8724 42.0469 43.9342 41.1328 41.666C40.2357 39.3809 39.7871 36.9688 39.7871 34.4297C39.7871 31.8737 40.041 29.6224 40.5488 27.6758C41.0566 25.7292 41.7591 23.9688 42.6562 22.3945C43.5534 20.8034 44.6198 19.3984 45.8555 18.1797C47.0911 16.9609 48.4368 15.9368 49.8926 15.1074C52.8379 13.4316 56.0286 12.5938 59.4648 12.5938C64.6784 12.5938 68.9271 14.2526 72.2109 17.5703C75.6471 21.0234 77.3652 25.5684 77.3652 31.2051C77.3652 35.4538 76.4089 39.2708 74.4961 42.6562C72.7526 45.737 70.349 48.1576 67.2852 49.918C64.3398 51.6276 61.3691 52.4824 58.373 52.4824C55.3939 52.4824 52.804 52.0508 50.6035 51.1875C48.4199 50.3073 46.5241 49.0716 44.916 47.4805ZM49.1816 20.9219C48.1829 22.3268 47.4466 24.028 46.9727 26.0254C46.4987 28.0228 46.2617 30.1725 46.2617 32.4746C46.2617 34.7598 46.4818 36.8587 46.9219 38.7715C47.362 40.6673 48.0645 42.3346 49.0293 43.7734C51.1283 46.9049 54.2428 48.4707 58.373 48.4707C62.5371 48.4707 65.694 47.1081 67.8438 44.3828C69.9089 41.7253 70.9414 37.9421 70.9414 33.0332C70.9414 25.5007 68.707 20.4479 64.2383 17.875C62.6471 16.9779 60.7598 16.5293 58.5762 16.5293C56.3926 16.5293 54.5306 16.9102 52.9902 17.6719C51.4499 18.4336 50.1803 19.5169 49.1816 20.9219ZM85.5918 52C83.3236 52 82.1895 51.3483 82.1895 50.0449C82.1895 49.4525 82.3249 49.0378 82.5957 48.8008C83.0866 48.9362 83.5944 49.0039 84.1191 49.0039C84.6608 49.0039 85.1263 48.9362 85.5156 48.8008C85.9219 48.6654 86.2773 48.4707 86.582 48.2168C87.1914 47.6921 87.4961 46.9557 87.4961 46.0078V18.3574C87.4622 17.6803 87.3184 17.1725 87.0645 16.834C86.8105 16.4954 86.4297 16.2585 85.9219 16.123C85.4141 15.9707 84.9909 15.8607 84.6523 15.793C84.3307 15.7253 84.0345 15.6406 83.7637 15.5391C83.1712 15.2852 82.875 14.972 82.875 14.5996C82.875 13.821 83.002 13.2708 83.2559 12.9492C83.6113 13.0339 84.153 13.0762 84.8809 13.0762H89.832C91.3216 13.0762 92.6589 13.8294 93.8438 15.3359L115.197 42.4023V18.7129C115.18 18.0358 115.036 17.4688 114.766 17.0117C114.512 16.5547 114.072 16.25 113.445 16.0977C112.836 15.9453 112.294 15.8353 111.82 15.7676C111.346 15.6829 110.923 15.5729 110.551 15.4375C109.755 15.1667 109.357 14.7266 109.357 14.1172C109.357 13.6094 109.493 13.2201 109.764 12.9492C110.119 13.0339 110.661 13.0762 111.389 13.0762H121.621C123.889 13.0762 125.023 13.5586 125.023 14.5234C125.023 15.3359 124.896 15.8861 124.643 16.1738C124.219 16.0553 123.729 15.9961 123.17 15.9961C122.628 15.9961 122.154 16.013 121.748 16.0469C121.342 16.0638 120.978 16.1654 120.656 16.3516C119.945 16.7409 119.573 17.5365 119.539 18.7383V51.2891C119.539 51.7799 119.404 52.0762 119.133 52.1777C118.862 52.2962 118.371 52.3555 117.66 52.3555C116.458 52.3555 115.172 51.4668 113.801 49.6895L91.8379 22.0645V46.3633C91.9225 47.819 92.6081 48.7161 93.8945 49.0547C94.3854 49.1562 94.8678 49.2409 95.3418 49.3086C95.8327 49.3763 96.2643 49.4609 96.6367 49.5625C97.5 49.7826 97.9316 50.1719 97.9316 50.7305C97.9316 51.3398 97.8047 51.8053 97.5508 52.127C97.1953 52.0423 96.6536 52 95.9258 52H85.5918ZM155.264 52.2031C154.874 52.0677 154.036 52 152.75 52H138.227C137.346 52 136.635 51.8646 136.094 51.5938C135.569 51.306 135.307 50.7897 135.307 50.0449C135.307 49.5202 135.442 49.0885 135.713 48.75C136.356 48.9193 136.965 49.0039 137.541 49.0039C138.117 49.0039 138.658 48.9447 139.166 48.8262C139.674 48.7077 140.156 48.4961 140.613 48.1914C141.697 47.4974 142.272 46.4395 142.34 45.0176V16.7832H139.039C136.585 16.7832 134.977 16.9017 134.215 17.1387C133.47 17.3587 132.903 17.6465 132.514 18.002C132.141 18.3574 131.837 18.8398 131.6 19.4492C131.176 20.4987 130.846 22.3099 130.609 24.8828C130.237 24.9674 129.898 25.0098 129.594 25.0098C128.917 25.0098 128.485 24.832 128.299 24.4766C128.113 24.1211 127.986 23.7572 127.918 23.3848C127.85 22.9954 127.799 22.5723 127.766 22.1152C127.698 21.2012 127.664 20.2279 127.664 19.1953C127.664 16.3685 127.884 14.5742 128.324 13.8125C128.764 13 129.645 12.5938 130.965 12.5938C131.219 12.5938 131.591 12.6191 132.082 12.6699C132.573 12.7207 133.284 12.7799 134.215 12.8477C136.737 13 139.758 13.0762 143.279 13.0762H147.57C152.479 13.0762 155.763 13 157.422 12.8477C159.081 12.6784 160.113 12.5938 160.52 12.5938C160.926 12.5938 161.298 12.653 161.637 12.7715C161.975 12.89 162.246 13.0592 162.449 13.2793C162.771 13.6517 162.932 14.1172 162.932 14.6758C162.932 15.5221 162.906 16.1992 162.855 16.707C162.805 17.2148 162.745 17.8158 162.678 18.5098C162.627 19.2038 162.551 19.9232 162.449 20.668C162.212 22.4284 161.916 23.6387 161.561 24.2988C161.222 24.7728 160.807 25.0098 160.316 25.0098C159.842 25.0098 159.419 24.9674 159.047 24.8828L159.072 23.2832C159.072 21.7767 158.988 20.5918 158.818 19.7285C158.649 18.8483 158.294 18.1966 157.752 17.7734C157.21 17.3333 156.432 17.0625 155.416 16.9609C154.4 16.8424 153.046 16.7832 151.354 16.7832H148.307V46.0078C148.307 47.2266 149.28 48.0729 151.227 48.5469C151.701 48.6484 152.149 48.7415 152.572 48.8262C153.012 48.9108 153.436 49.0039 153.842 49.1055C154.248 49.1901 154.587 49.3001 154.857 49.4355C155.399 49.7064 155.67 50.1634 155.67 50.8066C155.67 51.3991 155.535 51.8646 155.264 52.2031ZM191.344 49.0039C192.055 49.1224 192.588 49.1816 192.943 49.1816C193.299 49.1816 193.646 49.1478 193.984 49.0801C194.34 48.9954 194.653 48.8685 194.924 48.6992C195.533 48.3268 195.838 47.7428 195.838 46.9473C195.838 46.2871 195.635 45.5508 195.229 44.7383L192.842 38.8223H176.77L173.926 46.0332C173.655 46.6934 173.52 47.1758 173.52 47.4805C173.52 47.7682 173.562 47.9883 173.646 48.1406C173.748 48.276 173.892 48.3945 174.078 48.4961C174.281 48.5977 174.527 48.6823 174.814 48.75L175.855 49.0293C176.973 49.2155 177.692 49.3848 178.014 49.5371C178.674 49.8587 179.004 50.3327 179.004 50.959C179.004 51.416 178.877 51.8053 178.623 52.127C178.301 52.0423 178.005 52 177.734 52H167.4C165.149 52 164.023 51.3822 164.023 50.1465C164.023 49.571 164.15 49.1055 164.404 48.75C165.031 48.9193 165.555 49.0039 165.979 49.0039C166.419 49.0039 166.783 48.9362 167.07 48.8008C167.375 48.6654 167.663 48.4368 167.934 48.1152C168.391 47.5566 168.924 46.4395 169.533 44.7637L182.076 14.3965C182.432 13.584 183.439 13.0254 185.098 12.7207C185.555 12.6361 186.037 12.5938 186.545 12.5938C187.577 12.5938 188.212 12.873 188.449 13.4316L190.988 19.7793C195.88 31.3236 198.707 38.0605 199.469 39.9902L201.754 45.9824C202.211 47.2858 202.592 48.0898 202.896 48.3945C203.201 48.6992 203.531 48.9108 203.887 49.0293C204.242 49.1478 204.606 49.2493 204.979 49.334C205.368 49.4017 205.706 49.4948 205.994 49.6133C206.637 49.901 206.959 50.3411 206.959 50.9336C206.959 51.3906 206.832 51.7799 206.578 52.1016C206.257 52.0169 205.969 51.9746 205.715 51.9746H193.604C192.74 51.9746 192.063 51.873 191.572 51.6699C191.098 51.4499 190.861 51.1198 190.861 50.6797C190.861 49.918 191.022 49.3594 191.344 49.0039ZM191.369 35.2168L184.717 18.7637L178.191 35.2168H191.369ZM235.422 24.0703C235.49 23.5964 235.523 22.9023 235.523 21.9883C235.523 21.0742 235.346 20.2448 234.99 19.5C234.635 18.7383 234.152 18.1458 233.543 17.7227C232.477 16.9948 230.868 16.6309 228.719 16.6309C226.586 16.6309 224.699 17.0202 223.057 17.7988C221.432 18.5605 220.069 19.6354 218.969 21.0234C216.751 23.8164 215.643 27.6165 215.643 32.4238C215.643 36.9772 216.768 40.6081 219.02 43.3164C221.355 46.1432 224.512 47.5566 228.49 47.5566C232.4 47.5566 235.447 46.7018 237.631 44.9922C238.291 44.4844 238.892 43.9342 239.434 43.3418C239.941 43.4941 240.356 43.9427 240.678 44.6875C240.779 44.9414 240.83 45.2799 240.83 45.7031C240.83 46.1094 240.525 46.7188 239.916 47.5312C239.324 48.3268 238.452 49.097 237.301 49.8418C234.559 51.6361 231.275 52.5332 227.449 52.5332C221.965 52.5332 217.598 50.8659 214.348 47.5312C211.132 44.2643 209.523 39.8887 209.523 34.4043C209.523 31.0527 210.057 28.0312 211.123 25.3398C212.189 22.6484 213.645 20.3633 215.49 18.4844C217.335 16.5885 219.485 15.1328 221.939 14.1172C224.411 13.1016 226.806 12.5938 229.125 12.5938C231.461 12.5938 233.331 12.7884 234.736 13.1777C236.141 13.5671 237.309 14.1003 238.24 14.7773C240.102 16.1654 241.033 18.0104 241.033 20.3125C241.033 22.0729 240.382 23.3171 239.078 24.0449C238.638 24.2988 238.164 24.4258 237.656 24.4258C236.607 24.4258 235.862 24.3073 235.422 24.0703ZM273.076 52.2031C272.687 52.0677 271.849 52 270.562 52H256.039C255.159 52 254.448 51.8646 253.906 51.5938C253.382 51.306 253.119 50.7897 253.119 50.0449C253.119 49.5202 253.255 49.0885 253.525 48.75C254.169 48.9193 254.778 49.0039 255.354 49.0039C255.929 49.0039 256.471 48.9447 256.979 48.8262C257.486 48.7077 257.969 48.4961 258.426 48.1914C259.509 47.4974 260.085 46.4395 260.152 45.0176V16.7832H256.852C254.397 16.7832 252.789 16.9017 252.027 17.1387C251.283 17.3587 250.715 17.6465 250.326 18.002C249.954 18.3574 249.649 18.8398 249.412 19.4492C248.989 20.4987 248.659 22.3099 248.422 24.8828C248.049 24.9674 247.711 25.0098 247.406 25.0098C246.729 25.0098 246.298 24.832 246.111 24.4766C245.925 24.1211 245.798 23.7572 245.73 23.3848C245.663 22.9954 245.612 22.5723 245.578 22.1152C245.51 21.2012 245.477 20.2279 245.477 19.1953C245.477 16.3685 245.697 14.5742 246.137 13.8125C246.577 13 247.457 12.5938 248.777 12.5938C249.031 12.5938 249.404 12.6191 249.895 12.6699C250.385 12.7207 251.096 12.7799 252.027 12.8477C254.549 13 257.571 13.0762 261.092 13.0762H265.383C270.292 13.0762 273.576 13 275.234 12.8477C276.893 12.6784 277.926 12.5938 278.332 12.5938C278.738 12.5938 279.111 12.653 279.449 12.7715C279.788 12.89 280.059 13.0592 280.262 13.2793C280.583 13.6517 280.744 14.1172 280.744 14.6758C280.744 15.5221 280.719 16.1992 280.668 16.707C280.617 17.2148 280.558 17.8158 280.49 18.5098C280.439 19.2038 280.363 19.9232 280.262 20.668C280.025 22.4284 279.729 23.6387 279.373 24.2988C279.035 24.7728 278.62 25.0098 278.129 25.0098C277.655 25.0098 277.232 24.9674 276.859 24.8828L276.885 23.2832C276.885 21.7767 276.8 20.5918 276.631 19.7285C276.462 18.8483 276.106 18.1966 275.564 17.7734C275.023 17.3333 274.244 17.0625 273.229 16.9609C272.213 16.8424 270.859 16.7832 269.166 16.7832H266.119V46.0078C266.119 47.2266 267.092 48.0729 269.039 48.5469C269.513 48.6484 269.962 48.7415 270.385 48.8262C270.825 48.9108 271.248 49.0039 271.654 49.1055C272.061 49.1901 272.399 49.3001 272.67 49.4355C273.212 49.7064 273.482 50.1634 273.482 50.8066C273.482 51.3991 273.347 51.8646 273.076 52.2031Z" fill="#0A2463"/>
<mask id="path-2-outside-1_187_138" maskUnits="userSpaceOnUse" x="5" y="14" width="281" height="43" fill="black">
<rect fill="white" x="5" y="14" width="281" height="43"/>
<path d="M32.8945 27.0703C32.9622 26.5964 32.9961 25.9023 32.9961 24.9883C32.9961 24.0742 32.8184 23.2448 32.4629 22.5C32.1074 21.7383 31.625 21.1458 31.0156 20.7227C29.9492 19.9948 28.3411 19.6309 26.1914 19.6309C24.0586 19.6309 22.1712 20.0202 20.5293 20.7988C18.9043 21.5605 17.5417 22.6354 16.4414 24.0234C14.224 26.8164 13.1152 30.6165 13.1152 35.4238C13.1152 39.9772 14.2409 43.6081 16.4922 46.3164C18.8281 49.1432 21.985 50.5566 25.9629 50.5566C29.873 50.5566 32.9199 49.7018 35.1035 47.9922C35.7637 47.4844 36.3646 46.9342 36.9062 46.3418C37.4141 46.4941 37.8288 46.9427 38.1504 47.6875C38.252 47.9414 38.3027 48.2799 38.3027 48.7031C38.3027 49.1094 37.998 49.7188 37.3887 50.5312C36.7962 51.3268 35.9245 52.097 34.7734 52.8418C32.0312 54.6361 28.7474 55.5332 24.9219 55.5332C19.4375 55.5332 15.0703 53.8659 11.8203 50.5312C8.60417 47.2643 6.99609 42.8887 6.99609 37.4043C6.99609 34.0527 7.5293 31.0312 8.5957 28.3398C9.66211 25.6484 11.1178 23.3633 12.9629 21.4844C14.8079 19.5885 16.9577 18.1328 19.4121 17.1172C21.8835 16.1016 24.2786 15.5938 26.5977 15.5938C28.9336 15.5938 30.804 15.7884 32.209 16.1777C33.6139 16.5671 34.7819 17.1003 35.7129 17.7773C37.5749 19.1654 38.5059 21.0104 38.5059 23.3125C38.5059 25.0729 37.8542 26.3171 36.5508 27.0449C36.1107 27.2988 35.6367 27.4258 35.1289 27.4258C34.0794 27.4258 33.3346 27.3073 32.8945 27.0703ZM48.916 50.4805C47.3079 48.8724 46.0469 46.9342 45.1328 44.666C44.2357 42.3809 43.7871 39.9688 43.7871 37.4297C43.7871 34.8737 44.041 32.6224 44.5488 30.6758C45.0566 28.7292 45.7591 26.9688 46.6562 25.3945C47.5534 23.8034 48.6198 22.3984 49.8555 21.1797C51.0911 19.9609 52.4368 18.9368 53.8926 18.1074C56.8379 16.4316 60.0286 15.5938 63.4648 15.5938C68.6784 15.5938 72.9271 17.2526 76.2109 20.5703C79.6471 24.0234 81.3652 28.5684 81.3652 34.2051C81.3652 38.4538 80.4089 42.2708 78.4961 45.6562C76.7526 48.737 74.349 51.1576 71.2852 52.918C68.3398 54.6276 65.3691 55.4824 62.373 55.4824C59.3939 55.4824 56.804 55.0508 54.6035 54.1875C52.4199 53.3073 50.5241 52.0716 48.916 50.4805ZM53.1816 23.9219C52.1829 25.3268 51.4466 27.028 50.9727 29.0254C50.4987 31.0228 50.2617 33.1725 50.2617 35.4746C50.2617 37.7598 50.4818 39.8587 50.9219 41.7715C51.362 43.6673 52.0645 45.3346 53.0293 46.7734C55.1283 49.9049 58.2428 51.4707 62.373 51.4707C66.5371 51.4707 69.694 50.1081 71.8438 47.3828C73.9089 44.7253 74.9414 40.9421 74.9414 36.0332C74.9414 28.5007 72.707 23.4479 68.2383 20.875C66.6471 19.9779 64.7598 19.5293 62.5762 19.5293C60.3926 19.5293 58.5306 19.9102 56.9902 20.6719C55.4499 21.4336 54.1803 22.5169 53.1816 23.9219ZM89.5918 55C87.3236 55 86.1895 54.3483 86.1895 53.0449C86.1895 52.4525 86.3249 52.0378 86.5957 51.8008C87.0866 51.9362 87.5944 52.0039 88.1191 52.0039C88.6608 52.0039 89.1263 51.9362 89.5156 51.8008C89.9219 51.6654 90.2773 51.4707 90.582 51.2168C91.1914 50.6921 91.4961 49.9557 91.4961 49.0078V21.3574C91.4622 20.6803 91.3184 20.1725 91.0645 19.834C90.8105 19.4954 90.4297 19.2585 89.9219 19.123C89.4141 18.9707 88.9909 18.8607 88.6523 18.793C88.3307 18.7253 88.0345 18.6406 87.7637 18.5391C87.1712 18.2852 86.875 17.972 86.875 17.5996C86.875 16.821 87.002 16.2708 87.2559 15.9492C87.6113 16.0339 88.153 16.0762 88.8809 16.0762H93.832C95.3216 16.0762 96.6589 16.8294 97.8438 18.3359L119.197 45.4023V21.7129C119.18 21.0358 119.036 20.4688 118.766 20.0117C118.512 19.5547 118.072 19.25 117.445 19.0977C116.836 18.9453 116.294 18.8353 115.82 18.7676C115.346 18.6829 114.923 18.5729 114.551 18.4375C113.755 18.1667 113.357 17.7266 113.357 17.1172C113.357 16.6094 113.493 16.2201 113.764 15.9492C114.119 16.0339 114.661 16.0762 115.389 16.0762H125.621C127.889 16.0762 129.023 16.5586 129.023 17.5234C129.023 18.3359 128.896 18.8861 128.643 19.1738C128.219 19.0553 127.729 18.9961 127.17 18.9961C126.628 18.9961 126.154 19.013 125.748 19.0469C125.342 19.0638 124.978 19.1654 124.656 19.3516C123.945 19.7409 123.573 20.5365 123.539 21.7383V54.2891C123.539 54.7799 123.404 55.0762 123.133 55.1777C122.862 55.2962 122.371 55.3555 121.66 55.3555C120.458 55.3555 119.172 54.4668 117.801 52.6895L95.8379 25.0645V49.3633C95.9225 50.819 96.6081 51.7161 97.8945 52.0547C98.3854 52.1562 98.8678 52.2409 99.3418 52.3086C99.8327 52.3763 100.264 52.4609 100.637 52.5625C101.5 52.7826 101.932 53.1719 101.932 53.7305C101.932 54.3398 101.805 54.8053 101.551 55.127C101.195 55.0423 100.654 55 99.9258 55H89.5918ZM159.264 55.2031C158.874 55.0677 158.036 55 156.75 55H142.227C141.346 55 140.635 54.8646 140.094 54.5938C139.569 54.306 139.307 53.7897 139.307 53.0449C139.307 52.5202 139.442 52.0885 139.713 51.75C140.356 51.9193 140.965 52.0039 141.541 52.0039C142.117 52.0039 142.658 51.9447 143.166 51.8262C143.674 51.7077 144.156 51.4961 144.613 51.1914C145.697 50.4974 146.272 49.4395 146.34 48.0176V19.7832H143.039C140.585 19.7832 138.977 19.9017 138.215 20.1387C137.47 20.3587 136.903 20.6465 136.514 21.002C136.141 21.3574 135.837 21.8398 135.6 22.4492C135.176 23.4987 134.846 25.3099 134.609 27.8828C134.237 27.9674 133.898 28.0098 133.594 28.0098C132.917 28.0098 132.485 27.832 132.299 27.4766C132.113 27.1211 131.986 26.7572 131.918 26.3848C131.85 25.9954 131.799 25.5723 131.766 25.1152C131.698 24.2012 131.664 23.2279 131.664 22.1953C131.664 19.3685 131.884 17.5742 132.324 16.8125C132.764 16 133.645 15.5938 134.965 15.5938C135.219 15.5938 135.591 15.6191 136.082 15.6699C136.573 15.7207 137.284 15.7799 138.215 15.8477C140.737 16 143.758 16.0762 147.279 16.0762H151.57C156.479 16.0762 159.763 16 161.422 15.8477C163.081 15.6784 164.113 15.5938 164.52 15.5938C164.926 15.5938 165.298 15.653 165.637 15.7715C165.975 15.89 166.246 16.0592 166.449 16.2793C166.771 16.6517 166.932 17.1172 166.932 17.6758C166.932 18.5221 166.906 19.1992 166.855 19.707C166.805 20.2148 166.745 20.8158 166.678 21.5098C166.627 22.2038 166.551 22.9232 166.449 23.668C166.212 25.4284 165.916 26.6387 165.561 27.2988C165.222 27.7728 164.807 28.0098 164.316 28.0098C163.842 28.0098 163.419 27.9674 163.047 27.8828L163.072 26.2832C163.072 24.7767 162.988 23.5918 162.818 22.7285C162.649 21.8483 162.294 21.1966 161.752 20.7734C161.21 20.3333 160.432 20.0625 159.416 19.9609C158.4 19.8424 157.046 19.7832 155.354 19.7832H152.307V49.0078C152.307 50.2266 153.28 51.0729 155.227 51.5469C155.701 51.6484 156.149 51.7415 156.572 51.8262C157.012 51.9108 157.436 52.0039 157.842 52.1055C158.248 52.1901 158.587 52.3001 158.857 52.4355C159.399 52.7064 159.67 53.1634 159.67 53.8066C159.67 54.3991 159.535 54.8646 159.264 55.2031ZM195.344 52.0039C196.055 52.1224 196.588 52.1816 196.943 52.1816C197.299 52.1816 197.646 52.1478 197.984 52.0801C198.34 51.9954 198.653 51.8685 198.924 51.6992C199.533 51.3268 199.838 50.7428 199.838 49.9473C199.838 49.2871 199.635 48.5508 199.229 47.7383L196.842 41.8223H180.77L177.926 49.0332C177.655 49.6934 177.52 50.1758 177.52 50.4805C177.52 50.7682 177.562 50.9883 177.646 51.1406C177.748 51.276 177.892 51.3945 178.078 51.4961C178.281 51.5977 178.527 51.6823 178.814 51.75L179.855 52.0293C180.973 52.2155 181.692 52.3848 182.014 52.5371C182.674 52.8587 183.004 53.3327 183.004 53.959C183.004 54.416 182.877 54.8053 182.623 55.127C182.301 55.0423 182.005 55 181.734 55H171.4C169.149 55 168.023 54.3822 168.023 53.1465C168.023 52.571 168.15 52.1055 168.404 51.75C169.031 51.9193 169.555 52.0039 169.979 52.0039C170.419 52.0039 170.783 51.9362 171.07 51.8008C171.375 51.6654 171.663 51.4368 171.934 51.1152C172.391 50.5566 172.924 49.4395 173.533 47.7637L186.076 17.3965C186.432 16.584 187.439 16.0254 189.098 15.7207C189.555 15.6361 190.037 15.5938 190.545 15.5938C191.577 15.5938 192.212 15.873 192.449 16.4316L194.988 22.7793C199.88 34.3236 202.707 41.0605 203.469 42.9902L205.754 48.9824C206.211 50.2858 206.592 51.0898 206.896 51.3945C207.201 51.6992 207.531 51.9108 207.887 52.0293C208.242 52.1478 208.606 52.2493 208.979 52.334C209.368 52.4017 209.706 52.4948 209.994 52.6133C210.637 52.901 210.959 53.3411 210.959 53.9336C210.959 54.3906 210.832 54.7799 210.578 55.1016C210.257 55.0169 209.969 54.9746 209.715 54.9746H197.604C196.74 54.9746 196.063 54.873 195.572 54.6699C195.098 54.4499 194.861 54.1198 194.861 53.6797C194.861 52.918 195.022 52.3594 195.344 52.0039ZM195.369 38.2168L188.717 21.7637L182.191 38.2168H195.369ZM239.422 27.0703C239.49 26.5964 239.523 25.9023 239.523 24.9883C239.523 24.0742 239.346 23.2448 238.99 22.5C238.635 21.7383 238.152 21.1458 237.543 20.7227C236.477 19.9948 234.868 19.6309 232.719 19.6309C230.586 19.6309 228.699 20.0202 227.057 20.7988C225.432 21.5605 224.069 22.6354 222.969 24.0234C220.751 26.8164 219.643 30.6165 219.643 35.4238C219.643 39.9772 220.768 43.6081 223.02 46.3164C225.355 49.1432 228.512 50.5566 232.49 50.5566C236.4 50.5566 239.447 49.7018 241.631 47.9922C242.291 47.4844 242.892 46.9342 243.434 46.3418C243.941 46.4941 244.356 46.9427 244.678 47.6875C244.779 47.9414 244.83 48.2799 244.83 48.7031C244.83 49.1094 244.525 49.7188 243.916 50.5312C243.324 51.3268 242.452 52.097 241.301 52.8418C238.559 54.6361 235.275 55.5332 231.449 55.5332C225.965 55.5332 221.598 53.8659 218.348 50.5312C215.132 47.2643 213.523 42.8887 213.523 37.4043C213.523 34.0527 214.057 31.0312 215.123 28.3398C216.189 25.6484 217.645 23.3633 219.49 21.4844C221.335 19.5885 223.485 18.1328 225.939 17.1172C228.411 16.1016 230.806 15.5938 233.125 15.5938C235.461 15.5938 237.331 15.7884 238.736 16.1777C240.141 16.5671 241.309 17.1003 242.24 17.7773C244.102 19.1654 245.033 21.0104 245.033 23.3125C245.033 25.0729 244.382 26.3171 243.078 27.0449C242.638 27.2988 242.164 27.4258 241.656 27.4258C240.607 27.4258 239.862 27.3073 239.422 27.0703ZM277.076 55.2031C276.687 55.0677 275.849 55 274.562 55H260.039C259.159 55 258.448 54.8646 257.906 54.5938C257.382 54.306 257.119 53.7897 257.119 53.0449C257.119 52.5202 257.255 52.0885 257.525 51.75C258.169 51.9193 258.778 52.0039 259.354 52.0039C259.929 52.0039 260.471 51.9447 260.979 51.8262C261.486 51.7077 261.969 51.4961 262.426 51.1914C263.509 50.4974 264.085 49.4395 264.152 48.0176V19.7832H260.852C258.397 19.7832 256.789 19.9017 256.027 20.1387C255.283 20.3587 254.715 20.6465 254.326 21.002C253.954 21.3574 253.649 21.8398 253.412 22.4492C252.989 23.4987 252.659 25.3099 252.422 27.8828C252.049 27.9674 251.711 28.0098 251.406 28.0098C250.729 28.0098 250.298 27.832 250.111 27.4766C249.925 27.1211 249.798 26.7572 249.73 26.3848C249.663 25.9954 249.612 25.5723 249.578 25.1152C249.51 24.2012 249.477 23.2279 249.477 22.1953C249.477 19.3685 249.697 17.5742 250.137 16.8125C250.577 16 251.457 15.5938 252.777 15.5938C253.031 15.5938 253.404 15.6191 253.895 15.6699C254.385 15.7207 255.096 15.7799 256.027 15.8477C258.549 16 261.571 16.0762 265.092 16.0762H269.383C274.292 16.0762 277.576 16 279.234 15.8477C280.893 15.6784 281.926 15.5938 282.332 15.5938C282.738 15.5938 283.111 15.653 283.449 15.7715C283.788 15.89 284.059 16.0592 284.262 16.2793C284.583 16.6517 284.744 17.1172 284.744 17.6758C284.744 18.5221 284.719 19.1992 284.668 19.707C284.617 20.2148 284.558 20.8158 284.49 21.5098C284.439 22.2038 284.363 22.9232 284.262 23.668C284.025 25.4284 283.729 26.6387 283.373 27.2988C283.035 27.7728 282.62 28.0098 282.129 28.0098C281.655 28.0098 281.232 27.9674 280.859 27.8828L280.885 26.2832C280.885 24.7767 280.8 23.5918 280.631 22.7285C280.462 21.8483 280.106 21.1966 279.564 20.7734C279.023 20.3333 278.244 20.0625 277.229 19.9609C276.213 19.8424 274.859 19.7832 273.166 19.7832H270.119V49.0078C270.119 50.2266 271.092 51.0729 273.039 51.5469C273.513 51.6484 273.962 51.7415 274.385 51.8262C274.825 51.9108 275.248 52.0039 275.654 52.1055C276.061 52.1901 276.399 52.3001 276.67 52.4355C277.212 52.7064 277.482 53.1634 277.482 53.8066C277.482 54.3991 277.347 54.8646 277.076 55.2031Z"/>
</mask>
<path d="M32.8945 27.0703L31.9046 26.9289L31.8059 27.6199L32.4204 27.9508L32.8945 27.0703ZM32.4629 22.5L31.5567 22.9229L31.5604 22.9307L32.4629 22.5ZM31.0156 20.7227L31.586 19.9013L31.5794 19.8967L31.0156 20.7227ZM20.5293 20.7988L20.9537 21.7043L20.9578 21.7024L20.5293 20.7988ZM16.4414 24.0234L17.2246 24.6452L17.2251 24.6446L16.4414 24.0234ZM16.4922 46.3164L17.2631 45.6794L17.2612 45.6772L16.4922 46.3164ZM35.1035 47.9922L34.4938 47.1995L34.487 47.2048L35.1035 47.9922ZM36.9062 46.3418L37.1936 45.384L36.592 45.2035L36.1682 45.667L36.9062 46.3418ZM38.1504 47.6875L39.0789 47.3161L39.0738 47.3035L39.0685 47.2911L38.1504 47.6875ZM37.3887 50.5312L36.5887 49.9312L36.5866 49.934L37.3887 50.5312ZM34.7734 52.8418L34.2302 52.0022L34.2259 52.005L34.7734 52.8418ZM11.8203 50.5312L12.5365 49.8333L12.5329 49.8297L11.8203 50.5312ZM12.9629 21.4844L13.6764 22.185L13.6795 22.1818L12.9629 21.4844ZM19.4121 17.1172L19.032 16.1922L19.0298 16.1932L19.4121 17.1172ZM35.7129 17.7773L36.3106 16.9755L36.3011 16.9686L35.7129 17.7773ZM36.5508 27.0449L36.0632 26.1718L36.0511 26.1787L36.5508 27.0449ZM33.8845 27.2117C33.9624 26.6661 33.9961 25.9153 33.9961 24.9883H31.9961C31.9961 25.8893 31.9621 26.5266 31.9046 26.9289L33.8845 27.2117ZM33.9961 24.9883C33.9961 23.9414 33.7917 22.9625 33.3654 22.0693L31.5604 22.9307C31.845 23.5271 31.9961 24.2071 31.9961 24.9883H33.9961ZM33.3691 22.0771C32.949 21.1769 32.3591 20.4381 31.586 19.9013L30.4452 21.544C30.8909 21.8535 31.2659 22.2996 31.5567 22.9229L33.3691 22.0771ZM31.5794 19.8967C30.2693 19.0026 28.4217 18.6309 26.1914 18.6309V20.6309C28.2605 20.6309 29.6291 20.987 30.4519 21.5486L31.5794 19.8967ZM26.1914 18.6309C23.9359 18.6309 21.898 19.043 20.1008 19.8953L20.9578 21.7024C22.4445 20.9973 24.1812 20.6309 26.1914 20.6309V18.6309ZM20.1049 19.8934C18.3417 20.7199 16.8555 21.8913 15.6577 23.4022L17.2251 24.6446C18.2279 23.3795 19.4669 22.4012 20.9537 21.7043L20.1049 19.8934ZM15.6582 23.4016C13.2584 26.4243 12.1152 30.469 12.1152 35.4238H14.1152C14.1152 30.7641 15.1895 27.2085 17.2246 24.6452L15.6582 23.4016ZM12.1152 35.4238C12.1152 40.1412 13.2835 44.0207 15.7232 46.9556L17.2612 45.6772C15.1983 43.1955 14.1152 39.8132 14.1152 35.4238H12.1152ZM15.7213 46.9534C18.2648 50.0314 21.7156 51.5566 25.9629 51.5566V49.5566C22.2545 49.5566 19.3914 48.255 17.2631 45.6794L15.7213 46.9534ZM25.9629 51.5566C30.0069 51.5566 33.3009 50.6736 35.72 48.7796L34.487 47.2048C32.5389 48.7301 29.7392 49.5566 25.9629 49.5566V51.5566ZM35.7132 48.7848C36.4178 48.2428 37.0619 47.6535 37.6443 47.0166L36.1682 45.667C35.6673 46.215 35.1096 46.7259 34.4938 47.1996L35.7132 48.7848ZM36.6189 47.2996C36.7214 47.3304 36.9652 47.4653 37.2323 48.0839L39.0685 47.2911C38.6923 46.4201 38.1068 45.6579 37.1936 45.384L36.6189 47.2996ZM37.2219 48.0589C37.2576 48.1481 37.3027 48.345 37.3027 48.7031H39.3027C39.3027 48.2149 39.2463 47.7347 39.0789 47.3161L37.2219 48.0589ZM37.3027 48.7031C37.3027 48.6797 37.3038 48.7695 37.1798 49.0176C37.0639 49.2495 36.873 49.5521 36.5887 49.9313L38.1887 51.1312C38.5137 50.6979 38.7799 50.2896 38.9686 49.9121C39.1493 49.5508 39.3027 49.1328 39.3027 48.7031H37.3027ZM36.5866 49.934C36.0868 50.6052 35.3167 51.2992 34.2302 52.0022L35.3167 53.6814C36.5323 52.8948 37.5056 52.0485 38.1907 51.1285L36.5866 49.934ZM34.2259 52.005C31.6722 53.6759 28.5862 54.5332 24.9219 54.5332V56.5332C28.9086 56.5332 32.3903 55.5962 35.321 53.6786L34.2259 52.005ZM24.9219 54.5332C19.6553 54.5332 15.5649 52.9406 12.5364 49.8333L11.1042 51.2292C14.5757 54.7912 19.2197 56.5332 24.9219 56.5332V54.5332ZM12.5329 49.8297C9.53628 46.7857 7.99609 42.6812 7.99609 37.4043H5.99609C5.99609 43.0961 7.67205 47.7429 11.1077 51.2328L12.5329 49.8297ZM7.99609 37.4043C7.99609 34.1592 8.51216 31.2654 9.52538 28.7082L7.66602 27.9715C6.54643 30.7971 5.99609 33.9462 5.99609 37.4043H7.99609ZM9.52538 28.7082C10.5475 26.1285 11.9338 23.9596 13.6764 22.185L12.2494 20.7837C10.3019 22.7669 8.77668 25.1684 7.66602 27.9715L9.52538 28.7082ZM13.6795 22.1818C15.4293 20.3839 17.4652 19.005 19.7945 18.0412L19.0298 16.1932C16.4502 17.2606 14.1866 18.7932 12.2463 20.7869L13.6795 22.1818ZM19.7922 18.0421C22.1611 17.0686 24.4273 16.5938 26.5977 16.5938V14.5938C24.13 14.5938 21.6058 15.1345 19.032 16.1922L19.7922 18.0421ZM26.5977 16.5938C28.8906 16.5938 30.66 16.7862 31.9419 17.1414L32.476 15.2141C30.948 14.7906 28.9766 14.5938 26.5977 14.5938V16.5938ZM31.9419 17.1414C33.2609 17.5069 34.3126 17.9954 35.1247 18.5861L36.3011 16.9686C35.2512 16.2051 33.967 15.6272 32.476 15.2141L31.9419 17.1414ZM35.1152 18.5791C36.7267 19.7803 37.5059 21.3295 37.5059 23.3125H39.5059C39.5059 20.6914 38.4231 18.5504 36.3106 16.9756L35.1152 18.5791ZM37.5059 23.3125C37.5059 24.7881 36.9878 25.6555 36.0632 26.1718L37.0383 27.918C38.7205 26.9786 39.5059 25.3577 39.5059 23.3125H37.5059ZM36.0511 26.1787C35.7628 26.345 35.4612 26.4258 35.1289 26.4258V28.4258C35.8123 28.4258 36.4585 28.2526 37.0505 27.9111L36.0511 26.1787ZM35.1289 26.4258C34.1007 26.4258 33.5743 26.3006 33.3686 26.1898L32.4204 27.9508C33.095 28.314 34.0581 28.4258 35.1289 28.4258V26.4258ZM48.916 50.4805L48.2089 51.1876L48.2127 51.1913L48.916 50.4805ZM45.1328 44.666L44.2019 45.0315L44.2053 45.0398L45.1328 44.666ZM46.6562 25.3945L47.5251 25.8897L47.5273 25.8857L46.6562 25.3945ZM53.8926 18.1074L53.3981 17.2383L53.3975 17.2386L53.8926 18.1074ZM76.2109 20.5703L75.5002 21.2738L75.5021 21.2757L76.2109 20.5703ZM78.4961 45.6562L79.3664 46.1488L79.3667 46.1482L78.4961 45.6562ZM71.2852 52.918L70.7869 52.0509L70.7831 52.0531L71.2852 52.918ZM54.6035 54.1875L54.2296 55.115L54.2383 55.1184L54.6035 54.1875ZM53.1816 23.9219L52.3666 23.3425L53.1816 23.9219ZM50.9219 41.7715L49.9473 41.9957L49.9478 41.9976L50.9219 41.7715ZM53.0293 46.7734L53.86 46.2167L53.8598 46.2165L53.0293 46.7734ZM71.8438 47.3828L72.6289 48.0022L72.6334 47.9964L71.8438 47.3828ZM68.2383 20.875L68.7373 20.0083L68.7294 20.0039L68.2383 20.875ZM49.6231 49.7734C48.1172 48.2674 46.9279 46.4452 46.0603 44.2922L44.2053 45.0398C45.1658 47.4233 46.4987 49.4774 48.2089 51.1876L49.6231 49.7734ZM46.0636 44.3006C45.2138 42.1358 44.7871 39.848 44.7871 37.4297H42.7871C42.7871 40.0895 43.2576 42.6259 44.202 45.0315L46.0636 44.3006ZM44.7871 37.4297C44.7871 34.9371 45.035 32.7737 45.5164 30.9282L43.5812 30.4234C43.047 32.4711 42.7871 34.8103 42.7871 37.4297H44.7871ZM45.5164 30.9282C46.0045 29.0573 46.6758 27.3798 47.5251 25.8897L45.7874 24.8994C44.8424 26.5577 44.1088 28.4011 43.5812 30.4234L45.5164 30.9282ZM47.5273 25.8857C48.3811 24.3714 49.3917 23.0417 50.5577 21.8917L49.1533 20.4677C47.8479 21.7552 46.7256 23.2354 45.7852 24.9034L47.5273 25.8857ZM50.5577 21.8917C51.7337 20.7318 53.0102 19.7611 54.3876 18.9763L53.3975 17.2386C51.8635 18.1126 50.4486 19.1901 49.1533 20.4677L50.5577 21.8917ZM54.3871 18.9766C57.1795 17.3878 60.1995 16.5938 63.4648 16.5938V14.5938C59.8578 14.5938 56.4963 15.4755 53.3981 17.2383L54.3871 18.9766ZM63.4648 16.5938C68.4456 16.5938 72.4269 18.1688 75.5002 21.2738L76.9217 19.8668C73.4272 16.3364 68.9112 14.5938 63.4648 14.5938V16.5938ZM75.5021 21.2757C78.7224 24.5118 80.3652 28.7878 80.3652 34.2051H82.3652C82.3652 28.3489 80.5719 23.5351 76.9198 19.8649L75.5021 21.2757ZM80.3652 34.2051C80.3652 38.2978 79.4457 41.9427 77.6255 45.1643L79.3667 46.1482C81.372 42.599 82.3652 38.6097 82.3652 34.2051H80.3652ZM77.6258 45.1637C75.9704 48.0888 73.6951 50.3799 70.787 52.0509L71.7834 53.785C75.0028 51.9352 77.5348 49.3851 79.3664 46.1488L77.6258 45.1637ZM70.7831 52.0531C67.9691 53.6865 65.1698 54.4824 62.373 54.4824V56.4824C65.5685 56.4824 68.7106 55.5687 71.7872 53.7828L70.7831 52.0531ZM62.373 54.4824C59.4876 54.4824 57.027 54.064 54.9687 53.2566L54.2383 55.1184C56.5811 56.0375 59.3002 56.4824 62.373 56.4824V54.4824ZM54.9774 53.26C52.9118 52.4274 51.1292 51.2636 49.6194 49.7696L48.2127 51.1913C49.9189 52.8796 51.928 54.1872 54.2296 55.115L54.9774 53.26ZM52.3666 23.3425C51.2805 24.8703 50.4978 26.6953 49.9997 28.7945L51.9456 29.2563C52.3954 27.3607 53.0854 25.7833 53.9967 24.5013L52.3666 23.3425ZM49.9997 28.7945C49.5057 30.8761 49.2617 33.104 49.2617 35.4746H51.2617C51.2617 33.241 51.4916 31.1695 51.9456 29.2563L49.9997 28.7945ZM49.2617 35.4746C49.2617 37.8232 49.4878 39.9986 49.9473 41.9957L51.8964 41.5473C51.4757 39.7189 51.2617 37.6963 51.2617 35.4746H49.2617ZM49.9478 41.9976C50.4119 43.997 51.1586 45.7793 52.1988 47.3304L53.8598 46.2165C52.9703 44.89 52.312 43.3376 51.896 41.5454L49.9478 41.9976ZM52.1986 47.3302C54.5033 50.7686 57.947 52.4707 62.373 52.4707V50.4707C58.5387 50.4707 55.7533 49.0413 53.86 46.2167L52.1986 47.3302ZM62.373 52.4707C66.7752 52.4707 70.251 51.0166 72.6289 48.0021L71.0586 46.7635C69.137 49.1995 66.299 50.4707 62.373 50.4707V52.4707ZM72.6334 47.9964C74.8849 45.099 75.9414 41.066 75.9414 36.0332H73.9414C73.9414 40.8182 72.9328 44.3516 71.0541 46.7692L72.6334 47.9964ZM75.9414 36.0332C75.9414 28.3242 73.6462 22.8348 68.7372 20.0084L67.7393 21.7416C71.7678 24.0611 73.9414 28.6771 73.9414 36.0332H75.9414ZM68.7294 20.0039C66.9616 19.0072 64.8982 18.5293 62.5762 18.5293V20.5293C64.6213 20.5293 66.3327 20.9486 67.7471 21.7461L68.7294 20.0039ZM62.5762 18.5293C60.2792 18.5293 58.2573 18.9297 56.547 19.7755L57.4335 21.5683C58.8039 20.8906 60.5059 20.5293 62.5762 20.5293V18.5293ZM56.547 19.7755C54.8579 20.6107 53.4608 21.8032 52.3666 23.3425L53.9967 24.5013C54.8999 23.2307 56.0419 22.2564 57.4335 21.5683L56.547 19.7755ZM86.5957 51.8008L86.8616 50.8368L86.3425 50.6936L85.9372 51.0482L86.5957 51.8008ZM89.5156 51.8008L89.1994 50.852L89.1871 50.8563L89.5156 51.8008ZM90.582 51.2168L91.2222 51.985L91.2284 51.9798L91.2346 51.9746L90.582 51.2168ZM91.4961 21.3574H92.4961V21.3324L92.4948 21.3075L91.4961 21.3574ZM89.9219 19.123L89.6345 20.0809L89.6493 20.0853L89.6642 20.0893L89.9219 19.123ZM88.6523 18.793L88.4463 19.7716L88.4562 19.7736L88.6523 18.793ZM87.7637 18.5391L87.3698 19.4582L87.391 19.4673L87.4126 19.4754L87.7637 18.5391ZM87.2559 15.9492L87.4875 14.9764L86.8665 14.8286L86.471 15.3296L87.2559 15.9492ZM97.8438 18.3359L97.0577 18.9541L97.0587 18.9553L97.8438 18.3359ZM119.197 45.4023L118.412 46.0217L120.197 48.2844V45.4023H119.197ZM119.197 21.7129H120.197V21.7004L120.197 21.6879L119.197 21.7129ZM118.766 20.0117L117.891 20.4974L117.898 20.5095L117.905 20.5215L118.766 20.0117ZM117.445 19.0977L117.203 20.0678L117.209 20.0693L117.445 19.0977ZM115.82 18.7676L115.645 19.752L115.662 19.7551L115.679 19.7575L115.82 18.7676ZM114.551 18.4375L114.893 17.4977L114.883 17.4942L114.873 17.4909L114.551 18.4375ZM113.764 15.9492L113.995 14.9764L113.452 14.847L113.057 15.2421L113.764 15.9492ZM128.643 19.1738L128.373 20.1368L128.977 20.306L129.392 19.8354L128.643 19.1738ZM125.748 19.0469L125.79 20.046L125.81 20.0451L125.831 20.0434L125.748 19.0469ZM124.656 19.3516L125.137 20.2287L125.147 20.2229L125.157 20.217L124.656 19.3516ZM123.539 21.7383L122.539 21.7101L122.539 21.7242V21.7383H123.539ZM123.133 55.1777L122.782 54.2414L122.757 54.2508L122.732 54.2616L123.133 55.1777ZM117.801 52.6895L118.593 52.0787L118.588 52.0729L118.584 52.0671L117.801 52.6895ZM95.8379 25.0645L96.6207 24.4421L94.8379 22.1998V25.0645H95.8379ZM95.8379 49.3633H94.8379V49.3923L94.8396 49.4213L95.8379 49.3633ZM97.8945 52.0547L97.64 53.0218L97.6658 53.0285L97.6919 53.0339L97.8945 52.0547ZM99.3418 52.3086L99.2004 53.2986L99.2052 53.2992L99.3418 52.3086ZM100.637 52.5625L100.374 53.5273L100.382 53.5295L100.39 53.5315L100.637 52.5625ZM101.551 55.127L101.319 56.0998L101.94 56.2476L102.336 55.7466L101.551 55.127ZM89.5918 54C88.5207 54 87.8797 53.8404 87.5383 53.6442C87.2802 53.4959 87.1895 53.337 87.1895 53.0449H85.1895C85.1895 54.0562 85.6657 54.8749 86.5418 55.3783C87.3345 55.8338 88.3947 56 89.5918 56V54ZM87.1895 53.0449C87.1895 52.819 87.216 52.6784 87.2416 52.6C87.2654 52.5273 87.2803 52.5306 87.2542 52.5534L85.9372 51.0482C85.3428 51.5683 85.1895 52.345 85.1895 53.0449H87.1895ZM86.3298 52.7648C86.9099 52.9248 87.5073 53.0039 88.1191 53.0039V51.0039C87.6815 51.0039 87.2633 50.9476 86.8616 50.8368L86.3298 52.7648ZM88.1191 53.0039C88.7395 53.0039 89.3219 52.9269 89.8441 52.7453L89.1871 50.8563C88.9307 50.9455 88.5821 51.0039 88.1191 51.0039V53.0039ZM89.8319 52.7495C90.3469 52.5778 90.8143 52.3249 91.2222 51.985L89.9418 50.4486C89.7403 50.6165 89.4968 50.7529 89.1994 50.8521L89.8319 52.7495ZM91.2346 51.9746C92.1046 51.2253 92.4961 50.1894 92.4961 49.0078H90.4961C90.4961 49.722 90.2782 50.1588 89.9295 50.459L91.2346 51.9746ZM92.4961 49.0078V21.3574H90.4961V49.0078H92.4961ZM92.4948 21.3075C92.4565 20.541 92.2902 19.8016 91.8645 19.234L90.2645 20.434C90.3465 20.5435 90.468 20.8197 90.4973 21.4074L92.4948 21.3075ZM91.8645 19.234C91.4461 18.6761 90.8504 18.3357 90.1795 18.1568L89.6642 20.0893C90.0089 20.1812 90.175 20.3148 90.2645 20.434L91.8645 19.234ZM90.2092 18.1652C89.6854 18.0081 89.2294 17.8886 88.8485 17.8124L88.4562 19.7736C88.7524 19.8328 89.1427 19.9333 89.6345 20.0809L90.2092 18.1652ZM88.8584 17.8144C88.5796 17.7557 88.3325 17.6844 88.1148 17.6027L87.4126 19.4754C87.7365 19.5969 88.0819 19.6948 88.4463 19.7715L88.8584 17.8144ZM88.1576 17.6199C88.0489 17.5733 87.9693 17.5306 87.9128 17.4945C87.856 17.4583 87.8306 17.434 87.8236 17.4266C87.8177 17.4203 87.8326 17.4344 87.8485 17.4711C87.8654 17.5103 87.875 17.5559 87.875 17.5996H85.875C85.875 18.6127 86.6986 19.1706 87.3698 19.4582L88.1576 17.6199ZM87.875 17.5996C87.875 16.8712 88.0054 16.6137 88.0407 16.5689L86.471 15.3296C85.9985 15.928 85.875 16.7707 85.875 17.5996H87.875ZM87.0242 16.922C87.498 17.0348 88.1359 17.0762 88.8809 17.0762V15.0762C88.1701 15.0762 87.7247 15.0329 87.4875 14.9764L87.0242 16.922ZM88.8809 17.0762H93.832V15.0762H88.8809V17.0762ZM93.832 17.0762C94.9305 17.0762 96.0033 17.6134 97.0577 18.9541L98.6298 17.7177C97.3145 16.0454 95.7128 15.0762 93.832 15.0762V17.0762ZM97.0587 18.9553L118.412 46.0217L119.982 44.783L98.6288 17.7166L97.0587 18.9553ZM120.197 45.4023V21.7129H118.197V45.4023H120.197ZM120.197 21.6879C120.177 20.8859 120.005 20.141 119.626 19.5019L117.905 20.5215C118.068 20.7965 118.184 21.1857 118.198 21.7379L120.197 21.6879ZM119.64 19.5261C119.22 18.7702 118.511 18.3278 117.682 18.126L117.209 20.0693C117.632 20.1722 117.804 20.3392 117.891 20.4974L119.64 19.5261ZM117.688 18.1275C117.055 17.9692 116.478 17.8514 115.962 17.7776L115.679 19.7575C116.11 19.8192 116.617 19.9214 117.203 20.0678L117.688 18.1275ZM115.996 17.7832C115.567 17.7065 115.201 17.6099 114.893 17.4977L114.209 19.3773C114.645 19.536 115.126 19.6593 115.645 19.752L115.996 17.7832ZM114.873 17.4909C114.573 17.3887 114.445 17.2858 114.398 17.2338C114.377 17.2108 114.37 17.1962 114.367 17.1881C114.364 17.1795 114.357 17.1589 114.357 17.1172H112.357C112.357 17.6622 112.544 18.1655 112.914 18.5748C113.265 18.9629 113.733 19.2154 114.229 19.3841L114.873 17.4909ZM114.357 17.1172C114.357 16.7851 114.442 16.6846 114.471 16.6563L113.057 15.2421C112.543 15.7555 112.357 16.4336 112.357 17.1172H114.357ZM113.532 16.922C114.006 17.0348 114.644 17.0762 115.389 17.0762V15.0762C114.678 15.0762 114.232 15.0329 113.995 14.9764L113.532 16.922ZM115.389 17.0762H125.621V15.0762H115.389V17.0762ZM125.621 17.0762C126.715 17.0762 127.402 17.197 127.781 17.3582C127.96 17.4343 128.016 17.4967 128.024 17.5071C128.027 17.5109 128.024 17.5085 128.022 17.5026C128.021 17.4973 128.023 17.5021 128.023 17.5234H130.023C130.023 17.0705 129.885 16.6395 129.598 16.2735C129.323 15.922 128.952 15.6828 128.564 15.5178C127.809 15.1966 126.796 15.0762 125.621 15.0762V17.0762ZM128.023 17.5234C128.023 17.884 127.995 18.1436 127.954 18.3206C127.911 18.5044 127.87 18.538 127.893 18.5122L129.392 19.8354C129.669 19.5219 129.818 19.1365 129.903 18.7703C129.989 18.3971 130.023 17.9754 130.023 17.5234H128.023ZM128.912 18.2109C128.381 18.0622 127.796 17.9961 127.17 17.9961V19.9961C127.661 19.9961 128.058 20.0485 128.373 20.1368L128.912 18.2109ZM127.17 17.9961C126.609 17.9961 126.106 18.0136 125.665 18.0503L125.831 20.0434C126.202 20.0125 126.648 19.9961 127.17 19.9961V17.9961ZM125.706 18.0477C125.154 18.0708 124.63 18.2114 124.155 18.4861L125.157 20.217C125.326 20.1193 125.53 20.0568 125.79 20.046L125.706 18.0477ZM124.176 18.4745C123.018 19.1084 122.578 20.3402 122.539 21.7101L124.539 21.7664C124.568 20.7327 124.872 20.3734 125.137 20.2287L124.176 18.4745ZM122.539 21.7383V54.2891H124.539V21.7383H122.539ZM122.539 54.2891C122.539 54.3673 122.534 54.4198 122.528 54.4512C122.523 54.4829 122.519 54.4833 122.528 54.4636C122.538 54.4422 122.562 54.3982 122.611 54.3506C122.661 54.3012 122.721 54.264 122.782 54.2414L123.484 56.1141C124.379 55.7786 124.539 54.8741 124.539 54.2891H122.539ZM122.732 54.2616C122.735 54.2603 122.715 54.2692 122.661 54.2817C122.609 54.2938 122.537 54.3067 122.442 54.3182C122.249 54.3415 121.991 54.3555 121.66 54.3555V56.3555C122.368 56.3555 123.051 56.305 123.534 56.0939L122.732 54.2616ZM121.66 54.3555C120.954 54.3555 119.928 53.8097 118.593 52.0787L117.009 53.3003C118.416 55.1239 119.963 56.3555 121.66 56.3555V54.3555ZM118.584 52.0671L96.6207 24.4421L95.0551 25.6868L117.018 53.3118L118.584 52.0671ZM94.8379 25.0645V49.3633H96.8379V25.0645H94.8379ZM94.8396 49.4213C94.8901 50.2908 95.1261 51.0875 95.621 51.7351C96.1218 52.3905 96.8216 52.8064 97.64 53.0218L98.149 51.0876C97.681 50.9645 97.3948 50.7625 97.2101 50.5208C97.0194 50.2712 96.8703 49.8915 96.8362 49.3052L94.8396 49.4213ZM97.6919 53.0339C98.2021 53.1395 98.705 53.2278 99.2004 53.2985L99.4832 51.3186C99.0307 51.254 98.5687 51.173 98.0971 51.0754L97.6919 53.0339ZM99.2052 53.2992C99.6647 53.3626 100.052 53.4397 100.374 53.5273L100.9 51.5977C100.476 51.4822 100.001 51.39 99.4784 51.318L99.2052 53.2992ZM100.39 53.5315C100.74 53.6209 100.89 53.7188 100.938 53.7621C100.956 53.7784 100.95 53.7776 100.941 53.7577C100.931 53.7368 100.932 53.7232 100.932 53.7305H102.932C102.932 53.1553 102.694 52.6525 102.278 52.277C101.894 51.9309 101.396 51.7241 100.884 51.5935L100.39 53.5315ZM100.932 53.7305C100.932 54.2201 100.827 54.43 100.766 54.5073L102.336 55.7466C102.782 55.1807 102.932 54.4596 102.932 53.7305H100.932ZM101.782 54.1541C101.309 54.0414 100.671 54 99.9258 54V56C100.637 56 101.082 56.0433 101.319 56.0998L101.782 54.1541ZM99.9258 54H89.5918V56H99.9258V54ZM159.264 55.2031L158.935 56.1476L159.603 56.3799L160.045 55.8278L159.264 55.2031ZM140.094 54.5938L139.613 55.4706L139.63 55.4797L139.647 55.4882L140.094 54.5938ZM139.713 51.75L139.967 50.7829L139.338 50.6174L138.932 51.1253L139.713 51.75ZM143.166 51.8262L142.939 50.8523L143.166 51.8262ZM144.613 51.1914L144.074 50.3494L144.066 50.3543L144.059 50.3594L144.613 51.1914ZM146.34 48.0176L147.339 48.0651L147.34 48.0414V48.0176H146.34ZM146.34 19.7832H147.34V18.7832H146.34V19.7832ZM138.215 20.1387L138.498 21.0977L138.505 21.0957L138.512 21.0935L138.215 20.1387ZM136.514 21.002L135.839 20.2635L135.831 20.2709L135.823 20.2786L136.514 21.002ZM135.6 22.4492L136.527 22.8232L136.532 22.8117L135.6 22.4492ZM134.609 27.8828L134.831 28.8579L135.539 28.6971L135.605 27.9745L134.609 27.8828ZM131.918 26.3848L130.933 26.5561L130.934 26.5637L131.918 26.3848ZM132.324 16.8125L133.19 17.3128L133.197 17.3009L133.204 17.2888L132.324 16.8125ZM138.215 15.8477L138.142 16.8451L138.155 16.8458L138.215 15.8477ZM161.422 15.8477L161.513 16.8435L161.523 16.8425L161.422 15.8477ZM166.449 16.2793L167.206 15.6257L167.195 15.6132L167.184 15.601L166.449 16.2793ZM166.678 21.5098L165.682 21.4127L165.681 21.4247L165.68 21.4368L166.678 21.5098ZM166.449 23.668L165.458 23.5329L165.458 23.5346L166.449 23.668ZM165.561 27.2988L166.374 27.8801L166.411 27.8286L166.441 27.7729L165.561 27.2988ZM163.047 27.8828L162.047 27.8669L162.034 28.6781L162.825 28.8579L163.047 27.8828ZM163.072 26.2832L164.072 26.2991L164.072 26.2911V26.2832H163.072ZM162.818 22.7285L161.836 22.9174L161.837 22.9209L162.818 22.7285ZM161.752 20.7734L161.121 21.5496L161.129 21.5556L161.136 21.5615L161.752 20.7734ZM159.416 19.9609L159.3 20.9542L159.308 20.9552L159.317 20.956L159.416 19.9609ZM152.307 19.7832V18.7832H151.307V19.7832H152.307ZM155.227 51.5469L154.99 52.5185L155.003 52.5218L155.017 52.5247L155.227 51.5469ZM156.572 51.8262L156.376 52.8068L156.383 52.8082L156.572 51.8262ZM157.842 52.1055L157.599 53.0756L157.618 53.0804L157.638 53.0844L157.842 52.1055ZM158.857 52.4355L159.305 51.5411L158.857 52.4355ZM159.592 54.2586C159.271 54.1471 158.859 54.0892 158.424 54.054C157.968 54.0172 157.408 54 156.75 54V56C157.379 56 157.881 56.0167 158.263 56.0475C158.666 56.0801 158.867 56.1238 158.935 56.1476L159.592 54.2586ZM156.75 54H142.227V56H156.75V54ZM142.227 54C141.436 54 140.895 53.8765 140.541 53.6993L139.647 55.4882C140.376 55.8527 141.256 56 142.227 56V54ZM140.575 53.7169C140.453 53.6501 140.307 53.5297 140.307 53.0449H138.307C138.307 54.0497 138.685 54.9619 139.613 55.4706L140.575 53.7169ZM140.307 53.0449C140.307 52.6979 140.393 52.5009 140.494 52.3747L138.932 51.1253C138.491 51.6762 138.307 52.3425 138.307 53.0449H140.307ZM139.458 52.7171C140.172 52.9049 140.867 53.0039 141.541 53.0039V51.0039C141.063 51.0039 140.54 50.9337 139.967 50.7829L139.458 52.7171ZM141.541 53.0039C142.185 53.0039 142.804 52.9376 143.393 52.8L142.939 50.8523C142.513 50.9518 142.048 51.0039 141.541 51.0039V53.0039ZM143.393 52.8C144.024 52.6528 144.617 52.3911 145.168 52.0235L144.059 50.3594C143.696 50.6011 143.324 50.7625 142.939 50.8523L143.393 52.8ZM145.153 52.0334C146.541 51.1441 147.258 49.7705 147.339 48.0651L145.341 47.97C145.287 49.1084 144.852 49.8507 144.074 50.3494L145.153 52.0334ZM147.34 48.0176V19.7832H145.34V48.0176H147.34ZM146.34 18.7832H143.039V20.7832H146.34V18.7832ZM143.039 18.7832C141.799 18.7832 140.756 18.8131 139.919 18.8748C139.099 18.9352 138.413 19.0299 137.918 19.1838L138.512 21.0935C138.779 21.0105 139.277 20.9275 140.066 20.8694C140.836 20.8126 141.825 20.7832 143.039 20.7832V18.7832ZM137.932 19.1797C137.105 19.424 136.381 19.7691 135.839 20.2635L137.188 21.7404C137.425 21.5239 137.835 21.2935 138.498 21.0977L137.932 19.1797ZM135.823 20.2786C135.32 20.7587 134.944 21.3765 134.668 22.0868L136.532 22.8117C136.729 22.3032 136.962 21.9562 137.204 21.7253L135.823 20.2786ZM134.672 22.0753C134.189 23.2726 133.851 25.2131 133.614 27.7911L135.605 27.9745C135.842 25.4067 136.163 23.7248 136.527 22.8232L134.672 22.0753ZM134.388 26.9077C134.071 26.9798 133.808 27.0098 133.594 27.0098V29.0098C133.989 29.0098 134.403 28.9551 134.831 28.8579L134.388 26.9077ZM133.594 27.0098C133.332 27.0098 133.197 26.9738 133.143 26.9518C133.12 26.9424 133.123 26.94 133.138 26.9528C133.154 26.9669 133.172 26.9881 133.185 27.0126L131.413 27.9406C131.868 28.8098 132.813 29.0098 133.594 29.0098V27.0098ZM133.185 27.0126C133.043 26.7412 132.95 26.473 132.902 26.2059L130.934 26.5637C131.021 27.0413 131.183 27.501 131.413 27.9406L133.185 27.0126ZM132.903 26.2134C132.842 25.861 132.795 25.4707 132.763 25.0414L130.768 25.1891C130.804 25.6738 130.859 26.1299 130.933 26.5561L132.903 26.2134ZM132.763 25.0414C132.697 24.1547 132.664 23.2062 132.664 22.1953H130.664C130.664 23.2495 130.699 24.2476 130.768 25.1891L132.763 25.0414ZM132.664 22.1953C132.664 20.8027 132.719 19.6921 132.822 18.8512C132.929 17.9764 133.077 17.5088 133.19 17.3128L131.458 16.3122C131.132 16.8779 130.949 17.6883 130.837 18.6078C130.72 19.5611 130.664 20.7611 130.664 22.1953H132.664ZM133.204 17.2888C133.398 16.9291 133.835 16.5938 134.965 16.5938V14.5938C133.454 14.5938 132.13 15.0709 131.445 16.3362L133.204 17.2888ZM134.965 16.5938C135.166 16.5938 135.497 16.6147 135.979 16.6646L136.185 14.6752C135.685 14.6235 135.272 14.5938 134.965 14.5938V16.5938ZM135.979 16.6646C136.485 16.717 137.208 16.7771 138.142 16.845L138.287 14.8503C137.359 14.7828 136.66 14.7244 136.185 14.6752L135.979 16.6646ZM138.155 16.8458C140.703 16.9998 143.746 17.0762 147.279 17.0762V15.0762C143.771 15.0762 140.771 15.0002 138.275 14.8495L138.155 16.8458ZM147.279 17.0762H151.57V15.0762H147.279V17.0762ZM151.57 17.0762C156.472 17.0762 159.801 17.0007 161.513 16.8435L161.33 14.8518C159.725 14.9993 156.486 15.0762 151.57 15.0762V17.0762ZM161.523 16.8425C163.202 16.6712 164.176 16.5938 164.52 16.5938V14.5938C164.051 14.5938 162.959 14.6856 161.32 14.8528L161.523 16.8425ZM164.52 16.5938C164.828 16.5938 165.087 16.6386 165.306 16.7153L165.967 14.8276C165.509 14.6674 165.024 14.5938 164.52 14.5938V16.5938ZM165.306 16.7153C165.521 16.7904 165.642 16.8794 165.714 16.9576L167.184 15.601C166.85 15.239 166.43 14.9896 165.967 14.8276L165.306 16.7153ZM165.692 16.9329C165.836 17.0991 165.932 17.3226 165.932 17.6758H167.932C167.932 16.9118 167.706 16.2043 167.206 15.6257L165.692 16.9329ZM165.932 17.6758C165.932 18.5074 165.906 19.1472 165.86 19.6075L167.851 19.8065C167.906 19.2513 167.932 18.5368 167.932 17.6758H165.932ZM165.86 19.6075C165.81 20.1164 165.75 20.7181 165.682 21.4127L167.673 21.6069C167.741 20.9134 167.8 20.3133 167.851 19.8065L165.86 19.6075ZM165.68 21.4368C165.631 22.1085 165.557 22.8071 165.458 23.5329L167.44 23.8031C167.544 23.0393 167.623 22.2991 167.675 21.5827L165.68 21.4368ZM165.458 23.5346C165.221 25.2949 164.941 26.3407 164.68 26.8247L166.441 27.7729C166.891 26.9366 167.203 25.5619 167.44 23.8014L165.458 23.5346ZM164.747 26.7176C164.556 26.9846 164.421 27.0098 164.316 27.0098V29.0098C165.193 29.0098 165.888 28.561 166.374 27.8801L164.747 26.7176ZM164.316 27.0098C163.9 27.0098 163.553 26.9724 163.268 26.9077L162.825 28.8579C163.285 28.9625 163.785 29.0098 164.316 29.0098V27.0098ZM164.047 27.8987L164.072 26.2991L162.072 26.2673L162.047 27.8669L164.047 27.8987ZM164.072 26.2832C164.072 24.7507 163.987 23.4919 163.8 22.5361L161.837 22.9209C161.988 23.6917 162.072 24.8026 162.072 26.2832H164.072ZM163.8 22.5397C163.6 21.4957 163.152 20.5979 162.368 19.9854L161.136 21.5615C161.436 21.7953 161.699 22.2009 161.836 22.9174L163.8 22.5397ZM162.383 19.9973C161.634 19.3892 160.641 19.0784 159.516 18.9659L159.317 20.956C160.223 21.0466 160.787 21.2775 161.121 21.5496L162.383 19.9973ZM159.532 18.9677C158.461 18.8428 157.063 18.7832 155.354 18.7832V20.7832C157.029 20.7832 158.34 20.8421 159.3 20.9542L159.532 18.9677ZM155.354 18.7832H152.307V20.7832H155.354V18.7832ZM151.307 19.7832V49.0078H153.307V19.7832H151.307ZM151.307 49.0078C151.307 49.9253 151.69 50.7107 152.38 51.3112C153.036 51.8815 153.939 52.2626 154.99 52.5185L155.463 50.5753C154.567 50.3571 154.01 50.0782 153.693 49.802C153.41 49.5562 153.307 49.3091 153.307 49.0078H151.307ZM155.017 52.5247C155.495 52.6271 155.948 52.7211 156.376 52.8068L156.768 50.8456C156.35 50.762 155.906 50.6698 155.436 50.5691L155.017 52.5247ZM156.383 52.8082C156.807 52.8896 157.212 52.9788 157.599 53.0756L158.084 51.1353C157.659 51.029 157.218 50.932 156.761 50.8442L156.383 52.8082ZM157.638 53.0844C157.988 53.1575 158.239 53.2444 158.41 53.33L159.305 51.5411C158.934 51.3559 158.508 51.2227 158.046 51.1265L157.638 53.0844ZM158.41 53.33C158.534 53.3919 158.582 53.4502 158.607 53.4912C158.633 53.5359 158.67 53.6266 158.67 53.8066H160.67C160.67 53.3435 160.571 52.8841 160.327 52.4716C160.081 52.0557 159.723 51.7501 159.305 51.5411L158.41 53.33ZM158.67 53.8066C158.67 54.2546 158.568 54.4724 158.483 54.5784L160.045 55.8278C160.501 55.2567 160.67 54.5436 160.67 53.8066H158.67ZM195.344 52.0039L195.508 51.0175L194.969 50.9276L194.602 51.333L195.344 52.0039ZM197.984 52.0801L198.18 53.0607L198.198 53.0571L198.216 53.0529L197.984 52.0801ZM198.924 51.6992L198.402 50.8459L198.394 50.8512L198.924 51.6992ZM199.229 47.7383L198.301 48.1124L198.316 48.1496L198.334 48.1855L199.229 47.7383ZM196.842 41.8223L197.769 41.4481L197.517 40.8223H196.842V41.8223ZM180.77 41.8223V40.8223H180.089L179.839 41.4554L180.77 41.8223ZM177.926 49.0332L178.851 49.4128L178.856 49.4001L177.926 49.0332ZM177.646 51.1406L176.772 51.6263L176.805 51.686L176.846 51.7406L177.646 51.1406ZM178.078 51.4961L177.599 52.374L177.615 52.3825L177.631 52.3905L178.078 51.4961ZM178.814 51.75L179.074 50.7842L179.059 50.7801L179.043 50.7766L178.814 51.75ZM179.855 52.0293L179.596 52.9951L179.643 53.0077L179.691 53.0157L179.855 52.0293ZM182.014 52.5371L182.452 51.6381L182.442 51.6334L182.014 52.5371ZM182.623 55.127L182.369 56.094L183.002 56.2607L183.408 55.7466L182.623 55.127ZM168.404 51.75L168.665 50.7846L167.994 50.6033L167.591 51.1688L168.404 51.75ZM171.07 51.8008L170.664 50.887L170.654 50.8914L170.645 50.896L171.07 51.8008ZM171.934 51.1152L172.699 51.7594L172.703 51.754L172.708 51.7485L171.934 51.1152ZM173.533 47.7637L172.609 47.3819L172.601 47.4018L172.593 47.4219L173.533 47.7637ZM186.076 17.3965L185.16 16.9957L185.156 17.0052L185.152 17.0147L186.076 17.3965ZM189.098 15.7207L189.278 16.7043L189.28 16.704L189.098 15.7207ZM192.449 16.4316L193.378 16.0603L193.374 16.0506L193.37 16.0411L192.449 16.4316ZM194.988 22.7793L194.06 23.1507L194.064 23.1601L194.068 23.1695L194.988 22.7793ZM203.469 42.9902L204.403 42.6339L204.399 42.6231L203.469 42.9902ZM205.754 48.9824L206.698 48.6515L206.693 48.6387L206.688 48.6261L205.754 48.9824ZM208.979 52.334L208.757 53.3091L208.782 53.3148L208.807 53.3192L208.979 52.334ZM209.994 52.6133L210.403 51.7005L210.389 51.6943L210.375 51.6886L209.994 52.6133ZM210.578 55.1016L210.324 56.0686L210.957 56.2353L211.363 55.7212L210.578 55.1016ZM195.572 54.6699L195.151 55.5769L195.17 55.5858L195.19 55.5939L195.572 54.6699ZM195.369 38.2168V39.2168H196.852L196.296 37.842L195.369 38.2168ZM188.717 21.7637L189.644 21.3888L188.708 19.0738L187.787 21.395L188.717 21.7637ZM182.191 38.2168L181.262 37.8481L180.719 39.2168H182.191V38.2168ZM195.179 52.9903C195.901 53.1106 196.502 53.1816 196.943 53.1816V51.1816C196.674 51.1816 196.208 51.1342 195.508 51.0175L195.179 52.9903ZM196.943 53.1816C197.363 53.1816 197.775 53.1417 198.18 53.0607L197.788 51.0995C197.516 51.1539 197.235 51.1816 196.943 51.1816V53.1816ZM198.216 53.0529C198.662 52.9467 199.079 52.7816 199.454 52.5472L198.394 50.8512C198.227 50.9554 198.018 51.0442 197.753 51.1073L198.216 53.0529ZM199.445 52.5525C200.39 51.975 200.838 51.0437 200.838 49.9473H198.838C198.838 50.4419 198.676 50.6786 198.402 50.8459L199.445 52.5525ZM200.838 49.9473C200.838 49.0848 200.574 48.1931 200.123 47.2911L198.334 48.1855C198.696 48.9085 198.838 49.4895 198.838 49.9473H200.838ZM200.156 47.3641L197.769 41.4481L195.914 42.1964L198.301 48.1124L200.156 47.3641ZM196.842 40.8223H180.77V42.8223H196.842V40.8223ZM179.839 41.4554L176.996 48.6663L178.856 49.4001L181.7 42.1891L179.839 41.4554ZM177.001 48.6536C176.729 49.3151 176.52 49.9598 176.52 50.4805H178.52C178.52 50.3917 178.581 50.0716 178.851 49.4128L177.001 48.6536ZM176.52 50.4805C176.52 50.84 176.568 51.2583 176.772 51.6263L178.521 50.655C178.542 50.6935 178.54 50.7066 178.533 50.6725C178.527 50.6393 178.52 50.5778 178.52 50.4805H176.52ZM176.846 51.7406C177.053 52.0157 177.318 52.2207 177.599 52.374L178.557 50.6182C178.466 50.5684 178.443 50.5364 178.446 50.5406L176.846 51.7406ZM177.631 52.3905C177.921 52.5354 178.243 52.6429 178.585 52.7234L179.043 50.7766C178.81 50.7216 178.642 50.6599 178.525 50.6017L177.631 52.3905ZM178.555 52.7158L179.596 52.9951L180.115 51.0635L179.074 50.7842L178.555 52.7158ZM179.691 53.0157C180.238 53.1069 180.674 53.1916 181.004 53.2693C181.352 53.3512 181.526 53.4124 181.586 53.4408L182.442 51.6334C182.18 51.5095 181.833 51.4099 181.462 51.3225C181.073 51.2309 180.59 51.1379 180.02 51.0429L179.691 53.0157ZM181.576 53.4361C181.793 53.542 181.891 53.6414 181.936 53.7053C181.974 53.7603 182.004 53.8321 182.004 53.959H184.004C184.004 53.4596 183.869 52.9812 183.577 52.5623C183.291 52.1523 182.894 51.8538 182.452 51.6381L181.576 53.4361ZM182.004 53.959C182.004 54.2186 181.937 54.3826 181.838 54.5073L183.408 55.7466C183.817 55.2281 184.004 54.6134 184.004 53.959H182.004ZM182.878 54.1599C182.491 54.0581 182.108 54 181.734 54V56C181.902 56 182.112 56.0265 182.369 56.094L182.878 54.1599ZM181.734 54H171.4V56H181.734V54ZM171.4 54C170.333 54 169.691 53.848 169.349 53.66C169.193 53.5743 169.123 53.4946 169.089 53.4383C169.056 53.384 169.023 53.2985 169.023 53.1465H167.023C167.023 53.6124 167.131 54.0674 167.38 54.4765C167.627 54.8835 167.98 55.19 168.387 55.4133C169.17 55.8431 170.216 56 171.4 56V54ZM169.023 53.1465C169.023 52.7138 169.119 52.4706 169.218 52.3312L167.591 51.1688C167.182 51.7404 167.023 52.4282 167.023 53.1465H169.023ZM168.143 52.7154C168.815 52.8968 169.434 53.0039 169.979 53.0039V51.0039C169.677 51.0039 169.247 50.9417 168.665 50.7846L168.143 52.7154ZM169.979 53.0039C170.513 53.0039 171.034 52.9229 171.496 52.7056L170.645 50.896C170.531 50.9495 170.325 51.0039 169.979 51.0039V53.0039ZM171.476 52.7146C171.951 52.5037 172.355 52.1675 172.699 51.7594L171.169 50.4711C170.971 50.7062 170.799 50.827 170.664 50.887L171.476 52.7146ZM172.708 51.7485C173.284 51.0434 173.865 49.7763 174.473 48.1054L172.593 47.4219C171.982 49.1026 171.497 50.0699 171.16 50.482L172.708 51.7485ZM174.457 48.1454L187 17.7782L185.152 17.0147L172.609 47.3819L174.457 48.1454ZM186.992 17.7973C187.131 17.4797 187.667 17.0002 189.278 16.7043L188.917 14.7372C187.211 15.0506 185.732 15.6883 185.16 16.9957L186.992 17.7973ZM189.28 16.704C189.671 16.6314 190.093 16.5938 190.545 16.5938V14.5938C189.982 14.5938 189.438 14.6407 188.916 14.7374L189.28 16.704ZM190.545 16.5938C190.984 16.5938 191.249 16.6552 191.393 16.7185C191.513 16.7714 191.524 16.8111 191.529 16.8222L193.37 16.0411C192.884 14.8957 191.673 14.5938 190.545 14.5938V16.5938ZM191.521 16.803L194.06 23.1507L195.917 22.4079L193.378 16.0603L191.521 16.803ZM194.068 23.1695C198.963 34.7209 201.783 41.4425 202.539 43.3574L204.399 42.6231C203.631 40.6786 200.798 33.9262 195.909 22.3891L194.068 23.1695ZM202.534 43.3466L204.82 49.3387L206.688 48.6261L204.403 42.6339L202.534 43.3466ZM204.81 49.3133C205.045 49.9822 205.267 50.5451 205.479 50.9911C205.677 51.4105 205.908 51.8207 206.189 52.1016L207.604 50.6874C207.605 50.6891 207.596 50.6802 207.577 50.655C207.559 50.6303 207.534 50.5949 207.504 50.5465C207.444 50.4485 207.371 50.3135 207.286 50.1349C207.116 49.7768 206.92 49.286 206.698 48.6515L204.81 49.3133ZM206.189 52.1016C206.587 52.4996 207.047 52.8035 207.57 52.978L208.203 51.0806C208.015 51.0181 207.815 50.8988 207.604 50.6874L206.189 52.1016ZM207.57 52.978C207.958 53.107 208.353 53.2174 208.757 53.3091L209.2 51.3589C208.859 51.2813 208.527 51.1885 208.203 51.0806L207.57 52.978ZM208.807 53.3192C209.143 53.3776 209.408 53.4535 209.613 53.538L210.375 51.6886C210.005 51.5361 209.593 51.4258 209.15 51.3488L208.807 53.3192ZM209.586 53.5261C209.794 53.6192 209.878 53.705 209.91 53.7492C209.935 53.7829 209.959 53.83 209.959 53.9336H211.959C211.959 53.4447 211.822 52.9755 211.525 52.5692C211.236 52.1733 210.838 51.8951 210.403 51.7005L209.586 53.5261ZM209.959 53.9336C209.959 54.1932 209.892 54.3572 209.793 54.4819L211.363 55.7212C211.772 55.2027 211.959 54.588 211.959 53.9336H209.959ZM210.833 54.1345C210.452 54.0343 210.076 53.9746 209.715 53.9746V55.9746C209.861 55.9746 210.061 55.9995 210.324 56.0686L210.833 54.1345ZM209.715 53.9746H197.604V55.9746H209.715V53.9746ZM197.604 53.9746C196.8 53.9746 196.272 53.8772 195.955 53.7459L195.19 55.5939C195.854 55.8689 196.681 55.9746 197.604 55.9746V53.9746ZM195.993 53.7629C195.869 53.7051 195.845 53.6649 195.851 53.6741C195.855 53.6788 195.859 53.6869 195.862 53.695C195.864 53.7024 195.861 53.6992 195.861 53.6797H193.861C193.861 54.0907 193.976 54.4912 194.227 54.8405C194.47 55.1798 194.802 55.4147 195.151 55.5769L195.993 53.7629ZM195.861 53.6797C195.861 53.027 196.004 52.7644 196.085 52.6748L194.602 51.333C194.04 51.9543 193.861 52.8089 193.861 53.6797H195.861ZM196.296 37.842L189.644 21.3888L187.79 22.1385L194.442 38.5916L196.296 37.842ZM187.787 21.395L181.262 37.8481L183.121 38.5855L189.646 22.1323L187.787 21.395ZM182.191 39.2168H195.369V37.2168H182.191V39.2168ZM239.422 27.0703L238.432 26.9289L238.333 27.6199L238.948 27.9508L239.422 27.0703ZM238.99 22.5L238.084 22.9229L238.088 22.9307L238.99 22.5ZM237.543 20.7227L238.113 19.9013L238.107 19.8967L237.543 20.7227ZM227.057 20.7988L227.481 21.7043L227.485 21.7024L227.057 20.7988ZM222.969 24.0234L223.752 24.6452L223.752 24.6446L222.969 24.0234ZM223.02 46.3164L223.79 45.6794L223.789 45.6772L223.02 46.3164ZM241.631 47.9922L241.021 47.1995L241.014 47.2048L241.631 47.9922ZM243.434 46.3418L243.721 45.384L243.119 45.2035L242.696 45.667L243.434 46.3418ZM244.678 47.6875L245.606 47.3161L245.601 47.3035L245.596 47.2911L244.678 47.6875ZM243.916 50.5312L243.116 49.9312L243.114 49.934L243.916 50.5312ZM241.301 52.8418L240.758 52.0022L240.753 52.005L241.301 52.8418ZM218.348 50.5312L219.064 49.8333L219.06 49.8297L218.348 50.5312ZM219.49 21.4844L220.204 22.185L220.207 22.1818L219.49 21.4844ZM225.939 17.1172L225.559 16.1922L225.557 16.1932L225.939 17.1172ZM242.24 17.7773L242.838 16.9755L242.828 16.9686L242.24 17.7773ZM243.078 27.0449L242.591 26.1718L242.578 26.1787L243.078 27.0449ZM240.412 27.2117C240.49 26.6661 240.523 25.9153 240.523 24.9883H238.523C238.523 25.8893 238.489 26.5266 238.432 26.9289L240.412 27.2117ZM240.523 24.9883C240.523 23.9414 240.319 22.9625 239.893 22.0693L238.088 22.9307C238.372 23.5271 238.523 24.2071 238.523 24.9883H240.523ZM239.896 22.0771C239.476 21.1769 238.886 20.4381 238.113 19.9013L236.973 21.544C237.418 21.8535 237.793 22.2996 238.084 22.9229L239.896 22.0771ZM238.107 19.8967C236.797 19.0026 234.949 18.6309 232.719 18.6309V20.6309C234.788 20.6309 236.156 20.987 236.979 21.5486L238.107 19.8967ZM232.719 18.6309C230.463 18.6309 228.425 19.043 226.628 19.8953L227.485 21.7024C228.972 20.9973 230.709 20.6309 232.719 20.6309V18.6309ZM226.632 19.8934C224.869 20.7199 223.383 21.8913 222.185 23.4022L223.752 24.6446C224.755 23.3795 225.994 22.4012 227.481 21.7043L226.632 19.8934ZM222.186 23.4016C219.786 26.4243 218.643 30.469 218.643 35.4238H220.643C220.643 30.7641 221.717 27.2085 223.752 24.6452L222.186 23.4016ZM218.643 35.4238C218.643 40.1412 219.811 44.0207 222.251 46.9556L223.789 45.6772C221.726 43.1955 220.643 39.8132 220.643 35.4238H218.643ZM222.249 46.9534C224.792 50.0314 228.243 51.5566 232.49 51.5566V49.5566C228.782 49.5566 225.919 48.255 223.79 45.6794L222.249 46.9534ZM232.49 51.5566C236.534 51.5566 239.828 50.6736 242.247 48.7796L241.014 47.2048C239.066 48.7301 236.267 49.5566 232.49 49.5566V51.5566ZM242.241 48.7848C242.945 48.2428 243.589 47.6535 244.172 47.0166L242.696 45.667C242.195 46.215 241.637 46.7259 241.021 47.1996L242.241 48.7848ZM243.146 47.2996C243.249 47.3304 243.493 47.4653 243.76 48.0839L245.596 47.2911C245.22 46.4201 244.634 45.6579 243.721 45.384L243.146 47.2996ZM243.749 48.0589C243.785 48.1481 243.83 48.345 243.83 48.7031H245.83C245.83 48.2149 245.774 47.7347 245.606 47.3161L243.749 48.0589ZM243.83 48.7031C243.83 48.6797 243.831 48.7695 243.707 49.0176C243.591 49.2495 243.4 49.5521 243.116 49.9313L244.716 51.1312C245.041 50.6979 245.307 50.2896 245.496 49.9121C245.677 49.5508 245.83 49.1328 245.83 48.7031H243.83ZM243.114 49.934C242.614 50.6052 241.844 51.2992 240.758 52.0022L241.844 53.6814C243.06 52.8948 244.033 52.0485 244.718 51.1285L243.114 49.934ZM240.753 52.005C238.2 53.6759 235.113 54.5332 231.449 54.5332V56.5332C235.436 56.5332 238.918 55.5962 241.848 53.6786L240.753 52.005ZM231.449 54.5332C226.183 54.5332 222.092 52.9406 219.064 49.8333L217.632 51.2292C221.103 54.7912 225.747 56.5332 231.449 56.5332V54.5332ZM219.06 49.8297C216.064 46.7857 214.523 42.6812 214.523 37.4043H212.523C212.523 43.0961 214.199 47.7429 217.635 51.2328L219.06 49.8297ZM214.523 37.4043C214.523 34.1592 215.04 31.2654 216.053 28.7082L214.193 27.9715C213.074 30.7971 212.523 33.9462 212.523 37.4043H214.523ZM216.053 28.7082C217.075 26.1285 218.461 23.9596 220.204 22.185L218.777 20.7837C216.829 22.7669 215.304 25.1684 214.193 27.9715L216.053 28.7082ZM220.207 22.1818C221.957 20.3839 223.993 19.005 226.322 18.0412L225.557 16.1932C222.978 17.2606 220.714 18.7932 218.774 20.7869L220.207 22.1818ZM226.32 18.0421C228.688 17.0686 230.955 16.5938 233.125 16.5938V14.5938C230.657 14.5938 228.133 15.1345 225.559 16.1922L226.32 18.0421ZM233.125 16.5938C235.418 16.5938 237.187 16.7862 238.469 17.1414L239.003 15.2141C237.475 14.7906 235.504 14.5938 233.125 14.5938V16.5938ZM238.469 17.1414C239.788 17.5069 240.84 17.9954 241.652 18.5861L242.828 16.9686C241.779 16.2051 240.494 15.6272 239.003 15.2141L238.469 17.1414ZM241.643 18.5791C243.254 19.7803 244.033 21.3295 244.033 23.3125H246.033C246.033 20.6914 244.95 18.5504 242.838 16.9756L241.643 18.5791ZM244.033 23.3125C244.033 24.7881 243.515 25.6555 242.591 26.1718L243.566 27.918C245.248 26.9786 246.033 25.3577 246.033 23.3125H244.033ZM242.578 26.1787C242.29 26.345 241.989 26.4258 241.656 26.4258V28.4258C242.34 28.4258 242.986 28.2526 243.578 27.9111L242.578 26.1787ZM241.656 26.4258C240.628 26.4258 240.102 26.3006 239.896 26.1898L238.948 27.9508C239.622 28.314 240.585 28.4258 241.656 28.4258V26.4258ZM277.076 55.2031L276.748 56.1476L277.415 56.3799L277.857 55.8278L277.076 55.2031ZM257.906 54.5938L257.425 55.4706L257.442 55.4797L257.459 55.4882L257.906 54.5938ZM257.525 51.75L257.78 50.7829L257.151 50.6174L256.745 51.1253L257.525 51.75ZM260.979 51.8262L260.751 50.8523L260.979 51.8262ZM262.426 51.1914L261.886 50.3494L261.879 50.3543L261.871 50.3594L262.426 51.1914ZM264.152 48.0176L265.151 48.0651L265.152 48.0414V48.0176H264.152ZM264.152 19.7832H265.152V18.7832H264.152V19.7832ZM256.027 20.1387L256.311 21.0977L256.318 21.0957L256.324 21.0935L256.027 20.1387ZM254.326 21.002L253.652 20.2635L253.644 20.2709L253.636 20.2786L254.326 21.002ZM253.412 22.4492L254.34 22.8232L254.344 22.8117L253.412 22.4492ZM252.422 27.8828L252.643 28.8579L253.351 28.6971L253.418 27.9745L252.422 27.8828ZM249.73 26.3848L248.745 26.5561L248.747 26.5637L249.73 26.3848ZM250.137 16.8125L251.003 17.3128L251.009 17.3009L251.016 17.2888L250.137 16.8125ZM256.027 15.8477L255.955 16.8451L255.967 16.8458L256.027 15.8477ZM279.234 15.8477L279.326 16.8435L279.336 16.8425L279.234 15.8477ZM284.262 16.2793L285.019 15.6257L285.008 15.6132L284.997 15.601L284.262 16.2793ZM284.49 21.5098L283.495 21.4127L283.494 21.4247L283.493 21.4368L284.49 21.5098ZM284.262 23.668L283.271 23.5329L283.271 23.5346L284.262 23.668ZM283.373 27.2988L284.187 27.8801L284.224 27.8286L284.254 27.7729L283.373 27.2988ZM280.859 27.8828L279.859 27.8669L279.847 28.6781L280.638 28.8579L280.859 27.8828ZM280.885 26.2832L281.885 26.2991L281.885 26.2911V26.2832H280.885ZM280.631 22.7285L279.649 22.9174L279.65 22.9209L280.631 22.7285ZM279.564 20.7734L278.934 21.5496L278.941 21.5556L278.949 21.5615L279.564 20.7734ZM277.229 19.9609L277.113 20.9542L277.121 20.9552L277.129 20.956L277.229 19.9609ZM270.119 19.7832V18.7832H269.119V19.7832H270.119ZM273.039 51.5469L272.802 52.5185L272.816 52.5218L272.83 52.5247L273.039 51.5469ZM274.385 51.8262L274.189 52.8068L274.196 52.8082L274.385 51.8262ZM275.654 52.1055L275.412 53.0756L275.431 53.0804L275.45 53.0844L275.654 52.1055ZM276.67 52.4355L277.117 51.5411L276.67 52.4355ZM277.405 54.2586C277.084 54.1471 276.671 54.0892 276.236 54.054C275.78 54.0172 275.22 54 274.562 54V56C275.191 56 275.693 56.0167 276.075 56.0475C276.478 56.0801 276.679 56.1238 276.748 56.1476L277.405 54.2586ZM274.562 54H260.039V56H274.562V54ZM260.039 54C259.249 54 258.708 53.8765 258.353 53.6993L257.459 55.4882C258.188 55.8527 259.069 56 260.039 56V54ZM258.387 53.7169C258.265 53.6501 258.119 53.5297 258.119 53.0449H256.119C256.119 54.0497 256.498 54.9619 257.425 55.4706L258.387 53.7169ZM258.119 53.0449C258.119 52.6979 258.205 52.5009 258.306 52.3747L256.745 51.1253C256.304 51.6762 256.119 52.3425 256.119 53.0449H258.119ZM257.271 52.7171C257.985 52.9049 258.68 53.0039 259.354 53.0039V51.0039C258.876 51.0039 258.353 50.9337 257.78 50.7829L257.271 52.7171ZM259.354 53.0039C259.998 53.0039 260.616 52.9376 261.206 52.8L260.751 50.8523C260.325 50.9518 259.86 51.0039 259.354 51.0039V53.0039ZM261.206 52.8C261.836 52.6528 262.429 52.3911 262.98 52.0235L261.871 50.3594C261.508 50.6011 261.136 50.7625 260.751 50.8523L261.206 52.8ZM262.965 52.0334C264.353 51.1441 265.07 49.7705 265.151 48.0651L263.153 47.97C263.099 49.1084 262.665 49.8507 261.886 50.3494L262.965 52.0334ZM265.152 48.0176V19.7832H263.152V48.0176H265.152ZM264.152 18.7832H260.852V20.7832H264.152V18.7832ZM260.852 18.7832C259.611 18.7832 258.569 18.8131 257.731 18.8748C256.912 18.9352 256.225 19.0299 255.73 19.1838L256.324 21.0935C256.591 21.0105 257.09 20.9275 257.878 20.8694C258.649 20.8126 259.638 20.7832 260.852 20.7832V18.7832ZM255.744 19.1797C254.917 19.424 254.193 19.7691 253.652 20.2635L255 21.7404C255.238 21.5239 255.648 21.2935 256.311 21.0977L255.744 19.1797ZM253.636 20.2786C253.133 20.7587 252.756 21.3765 252.48 22.0868L254.344 22.8117C254.542 22.3032 254.775 21.9562 255.017 21.7253L253.636 20.2786ZM252.485 22.0753C252.002 23.2726 251.664 25.2131 251.426 27.7911L253.418 27.9745C253.654 25.4067 253.976 23.7248 254.34 22.8232L252.485 22.0753ZM252.2 26.9077C251.883 26.9798 251.62 27.0098 251.406 27.0098V29.0098C251.801 29.0098 252.216 28.9551 252.643 28.8579L252.2 26.9077ZM251.406 27.0098C251.144 27.0098 251.009 26.9738 250.955 26.9518C250.933 26.9424 250.936 26.94 250.95 26.9528C250.967 26.9669 250.984 26.9881 250.997 27.0126L249.225 27.9406C249.681 28.8098 250.626 29.0098 251.406 29.0098V27.0098ZM250.997 27.0126C250.855 26.7412 250.763 26.473 250.714 26.2059L248.747 26.5637C248.833 27.0413 248.995 27.501 249.225 27.9406L250.997 27.0126ZM250.716 26.2134C250.654 25.861 250.607 25.4707 250.575 25.0414L248.581 25.1891C248.617 25.6738 248.671 26.1299 248.745 26.5561L250.716 26.2134ZM250.575 25.0414C250.51 24.1547 250.477 23.2062 250.477 22.1953H248.477C248.477 23.2495 248.511 24.2476 248.581 25.1891L250.575 25.0414ZM250.477 22.1953C250.477 20.8027 250.531 19.6921 250.634 18.8512C250.741 17.9764 250.889 17.5088 251.003 17.3128L249.271 16.3122C248.944 16.8779 248.762 17.6883 248.649 18.6078C248.532 19.5611 248.477 20.7611 248.477 22.1953H250.477ZM251.016 17.2888C251.211 16.9291 251.647 16.5938 252.777 16.5938V14.5938C251.267 14.5938 249.943 15.0709 249.257 16.3362L251.016 17.2888ZM252.777 16.5938C252.978 16.5938 253.309 16.6147 253.792 16.6646L253.997 14.6752C253.498 14.6235 253.084 14.5938 252.777 14.5938V16.5938ZM253.792 16.6646C254.298 16.717 255.021 16.7771 255.955 16.845L256.1 14.8503C255.172 14.7828 254.473 14.7244 253.997 14.6752L253.792 16.6646ZM255.967 16.8458C258.515 16.9998 261.558 17.0762 265.092 17.0762V15.0762C261.584 15.0762 258.584 15.0002 256.088 14.8495L255.967 16.8458ZM265.092 17.0762H269.383V15.0762H265.092V17.0762ZM269.383 17.0762C274.285 17.0762 277.614 17.0007 279.326 16.8435L279.143 14.8518C277.537 14.9993 274.299 15.0762 269.383 15.0762V17.0762ZM279.336 16.8425C281.015 16.6712 281.988 16.5938 282.332 16.5938V14.5938C281.863 14.5938 280.772 14.6856 279.133 14.8528L279.336 16.8425ZM282.332 16.5938C282.641 16.5938 282.9 16.6386 283.119 16.7153L283.78 14.8276C283.322 14.6674 282.836 14.5938 282.332 14.5938V16.5938ZM283.119 16.7153C283.333 16.7904 283.455 16.8794 283.527 16.9576L284.997 15.601C284.662 15.239 284.242 14.9896 283.78 14.8276L283.119 16.7153ZM283.505 16.9329C283.648 17.0991 283.744 17.3226 283.744 17.6758H285.744C285.744 16.9118 285.518 16.2043 285.019 15.6257L283.505 16.9329ZM283.744 17.6758C283.744 18.5074 283.719 19.1472 283.673 19.6075L285.663 19.8065C285.719 19.2513 285.744 18.5368 285.744 17.6758H283.744ZM283.673 19.6075C283.622 20.1164 283.563 20.7181 283.495 21.4127L285.486 21.6069C285.553 20.9134 285.612 20.3133 285.663 19.8065L283.673 19.6075ZM283.493 21.4368C283.444 22.1085 283.37 22.8071 283.271 23.5329L285.253 23.8031C285.357 23.0393 285.435 22.2991 285.488 21.5827L283.493 21.4368ZM283.271 23.5346C283.034 25.2949 282.753 26.3407 282.493 26.8247L284.254 27.7729C284.704 26.9366 285.016 25.5619 285.253 23.8014L283.271 23.5346ZM282.559 26.7176C282.369 26.9846 282.234 27.0098 282.129 27.0098V29.0098C283.006 29.0098 283.7 28.561 284.187 27.8801L282.559 26.7176ZM282.129 27.0098C281.712 27.0098 281.366 26.9724 281.081 26.9077L280.638 28.8579C281.098 28.9625 281.597 29.0098 282.129 29.0098V27.0098ZM281.859 27.8987L281.885 26.2991L279.885 26.2673L279.859 27.8669L281.859 27.8987ZM281.885 26.2832C281.885 24.7507 281.8 23.4919 281.612 22.5361L279.65 22.9209C279.801 23.6917 279.885 24.8026 279.885 26.2832H281.885ZM281.613 22.5397C281.412 21.4957 280.964 20.5979 280.18 19.9854L278.949 21.5615C279.248 21.7953 279.511 22.2009 279.649 22.9174L281.613 22.5397ZM280.195 19.9973C279.447 19.3892 278.453 19.0784 277.328 18.9659L277.129 20.956C278.035 21.0466 278.599 21.2775 278.934 21.5496L280.195 19.9973ZM277.344 18.9677C276.274 18.8428 274.876 18.7832 273.166 18.7832V20.7832C274.842 20.7832 276.152 20.8421 277.113 20.9542L277.344 18.9677ZM273.166 18.7832H270.119V20.7832H273.166V18.7832ZM269.119 19.7832V49.0078H271.119V19.7832H269.119ZM269.119 49.0078C269.119 49.9253 269.502 50.7107 270.193 51.3112C270.849 51.8815 271.752 52.2626 272.802 52.5185L273.276 50.5753C272.38 50.3571 271.823 50.0782 271.505 49.802C271.223 49.5562 271.119 49.3091 271.119 49.0078H269.119ZM272.83 52.5247C273.307 52.6271 273.76 52.7211 274.189 52.8068L274.581 50.8456C274.163 50.762 273.719 50.6698 273.249 50.5691L272.83 52.5247ZM274.196 52.8082C274.619 52.8896 275.024 52.9788 275.412 53.0756L275.897 51.1353C275.472 51.029 275.03 50.932 274.574 50.8442L274.196 52.8082ZM275.45 53.0844C275.801 53.1575 276.051 53.2444 276.223 53.33L277.117 51.5411C276.747 51.3559 276.32 51.2227 275.858 51.1265L275.45 53.0844ZM276.223 53.33C276.346 53.3919 276.395 53.4502 276.419 53.4912C276.445 53.5359 276.482 53.6266 276.482 53.8066H278.482C278.482 53.3435 278.384 52.8841 278.14 52.4716C277.893 52.0557 277.535 51.7501 277.117 51.5411L276.223 53.33ZM276.482 53.8066C276.482 54.2546 276.38 54.4724 276.295 54.5784L277.857 55.8278C278.314 55.2567 278.482 54.5436 278.482 53.8066H276.482Z" fill="#0A2463" mask="url(#path-2-outside-1_187_138)"/>
</svg>
