<svg width="102" height="30" viewBox="0 0 102 30" fill="none" xmlns="http://www.w3.org/2000/svg">
<g clip-path="url(#clip0_303_35)">
<path d="M26.857 0.361328H29.623V8.13241H26.857V0.361328Z" fill="black"/>
<path d="M15.9713 11.2051H18.7373V18.9762H15.9713V11.2051Z" fill="black"/>
<path d="M5.26425 22.2285H8.03026V29.9996H5.26425V22.2285Z" fill="black"/>
<path d="M21.9492 0.361328H24.626V8.13241H21.9492V0.361328Z" fill="black"/>
<path d="M11.0644 11.2051H13.7412V18.9762H11.0644V11.2051Z" fill="black"/>
<path d="M0.356415 22.2285H3.0332V29.9996H0.356415V22.2285Z" fill="black"/>
<path fill-rule="evenodd" clip-rule="evenodd" d="M25.8407 19.2676C28.1376 19.2676 29.9997 17.3819 29.9997 15.0557C29.9997 12.7295 28.1376 10.8438 25.8407 10.8438C23.5437 10.8438 21.6816 12.7295 21.6816 15.0557C21.6816 17.3819 23.5437 19.2676 25.8407 19.2676ZM25.8407 16.8749C26.8326 16.8749 27.6367 16.0606 27.6367 15.0561C27.6367 14.0516 26.8326 13.2373 25.8407 13.2373C24.8489 13.2373 24.0448 14.0516 24.0448 15.0561C24.0448 16.0606 24.8489 16.8749 25.8407 16.8749Z" fill="black"/>
<path fill-rule="evenodd" clip-rule="evenodd" d="M4.15901 8.42385C6.45597 8.42385 8.31802 6.5381 8.31802 4.21192C8.31802 1.88574 6.45597 0 4.15901 0C1.86205 0 0 1.88574 0 4.21192C0 6.5381 1.86205 8.42385 4.15901 8.42385ZM4.15998 6.03112C5.15185 6.03112 5.95591 5.21683 5.95591 4.21234C5.95591 3.20785 5.15185 2.39355 4.15998 2.39355C3.16811 2.39355 2.36404 3.20785 2.36404 4.21234C2.36404 5.21683 3.16811 6.03112 4.15998 6.03112Z" fill="black"/>
<path d="M21.9502 25.0297V22.2285H29.6237V25.0297H21.9502Z" fill="black"/>
<path d="M0.356445 14.0063V11.2051H8.02991V14.0063H0.356445Z" fill="black"/>
<path d="M21.9502 29.9999V27.2891H29.6237V29.9999H21.9502Z" fill="black"/>
<path d="M0.356445 18.9755V16.2646H8.02991V18.9755H0.356445Z" fill="black"/>
<path d="M97.5557 14.8561L101.972 19.5001H99.9197L95.7557 14.9281H95.7317V19.5001H94.1357V10.6201H95.7317V14.8201H95.7557L99.5597 10.6201H101.48L97.5557 14.8561Z" fill="black"/>
<path d="M88.5264 19.62C85.9344 19.62 84.3984 17.928 84.3984 15.06C84.3984 12.192 85.9344 10.5 88.5264 10.5C91.0944 10.5 92.6304 12.192 92.6304 15.06C92.6304 17.928 91.0944 19.62 88.5264 19.62ZM88.5264 18.3C90.0264 18.3 90.9144 17.088 90.9144 15.06C90.9144 13.032 90.0264 11.82 88.5264 11.82C87.0024 11.82 86.1144 13.032 86.1144 15.06C86.1144 17.088 87.0024 18.3 88.5264 18.3Z" fill="black"/>
<path d="M79.2569 19.62C76.6649 19.62 75.1289 17.928 75.1289 15.06C75.1289 12.192 76.6649 10.5 79.2569 10.5C81.8249 10.5 83.3609 12.192 83.3609 15.06C83.3609 17.928 81.8249 19.62 79.2569 19.62ZM79.2569 18.3C80.7569 18.3 81.6449 17.088 81.6449 15.06C81.6449 13.032 80.7569 11.82 79.2569 11.82C77.7329 11.82 76.8449 13.032 76.8449 15.06C76.8449 17.088 77.7329 18.3 79.2569 18.3Z" fill="black"/>
<path d="M71.1066 14.4001C73.0386 14.4001 74.1786 15.3121 74.1786 16.8721C74.1786 18.5281 72.9786 19.5001 70.9386 19.5001H67.1826V10.6201H71.0346C72.6066 10.6201 73.5306 11.3401 73.5306 12.5641C73.5306 13.6921 72.5586 14.3761 70.9266 14.3761V14.4001H71.1066ZM71.8146 13.1401C71.8146 12.3721 71.3226 11.9041 70.4946 11.9041H68.8386V14.3761H70.4946C71.3226 14.3761 71.8146 13.9081 71.8146 13.1401ZM71.0226 18.2161C71.9226 18.2161 72.4626 17.7121 72.4626 16.8721C72.4626 16.0321 71.9226 15.5281 71.0226 15.5281H68.8386V18.2161H71.0226Z" fill="black"/>
<path d="M64.5989 17.1481L65.9309 19.5001H64.0829L62.1509 15.9001H60.4949V19.5001H58.8389V10.6201H62.2829C64.3709 10.6201 65.6189 11.5681 65.6189 13.1521C65.6189 14.8681 64.3949 15.8761 62.3189 15.8761V15.9001C63.2909 15.9001 64.1549 16.3561 64.5989 17.1481ZM60.4949 14.6881H62.3669C63.3389 14.6881 63.9029 14.1601 63.9029 13.2721C63.9029 12.4201 63.3389 11.9041 62.3669 11.9041H60.4949V14.6881Z" fill="black"/>
<path d="M55.9982 19.5001L55.3862 17.3521H51.5942L50.9822 19.5001H49.3262L52.0862 10.6201H55.0142L57.7622 19.5001H55.9982ZM51.9662 16.0681H55.0262L53.5142 10.7641H53.4902L51.9662 16.0681Z" fill="black"/>
<path d="M44.0769 18.2161H48.7569V19.5001H42.4209V10.6201H48.6249V11.9041H44.0769V14.3041H48.2049V15.5881H44.0769V18.2161Z" fill="black"/>
<path d="M39.7314 10.6201H41.5314L37.3314 19.5001H35.5434L37.1754 15.9721H35.6274L33.1074 10.6201H35.0154L37.3674 15.8281H37.3914L39.7314 10.6201Z" fill="black"/>
</g>
<defs>
<clipPath id="clip0_303_35">
<rect width="102" height="30" fill="white"/>
</clipPath>
</defs>
</svg>
