<svg width="30" height="30" viewBox="0 0 30 30" fill="none" xmlns="http://www.w3.org/2000/svg">
<path fill-rule="evenodd" clip-rule="evenodd" d="M3.33333 30H26.6667C28.5076 30 30 28.5076 30 26.6667V3.33333C30 1.49238 28.5076 0 26.6667 0H3.33333C1.49238 0 0 1.49238 0 3.33333V26.6667C0 28.5076 1.49238 30 3.33333 30Z" fill="#007EBB"/>
<path fill-rule="evenodd" clip-rule="evenodd" d="M25.8333 25.8333H21.3815V18.2509C21.3815 16.172 20.5916 15.0102 18.9461 15.0102C17.1561 15.0102 16.2209 16.2192 16.2209 18.2509V25.8333H11.9306V11.3889H16.2209V13.3346C16.2209 13.3346 17.5109 10.9476 20.5761 10.9476C23.6399 10.9476 25.8333 12.8185 25.8333 16.688V25.8333ZM6.81223 9.49751C5.35086 9.49751 4.16667 8.30402 4.16667 6.83209C4.16667 5.36015 5.35086 4.16667 6.81223 4.16667C8.2736 4.16667 9.45709 5.36015 9.45709 6.83209C9.45709 8.30402 8.2736 9.49751 6.81223 9.49751ZM4.5969 25.8333H9.07058V11.3889H4.5969V25.8333Z" fill="white"/>
</svg>
