<svg width="504" height="72" viewBox="0 0 504 72" fill="none" xmlns="http://www.w3.org/2000/svg">
<path d="M25.8477 50.0234L4.31641 40.4004V36.6934L25.8477 27.0957V32.0723L10.3086 38.166L8.96289 38.5977L10.3086 39.0547L25.8477 45.0469V50.0234ZM40.3457 31.6152C40.7181 31.0566 41.1328 30.5488 41.5898 30.0918C42.0469 29.6178 42.5293 29.2031 43.0371 28.8477C43.8496 28.2552 44.7383 27.8066 45.7031 27.502C46.6849 27.1973 47.7259 27.0365 48.8262 27.0195C50.265 27.0195 51.5684 27.2311 52.7363 27.6543C53.9212 28.0605 54.9284 28.7038 55.7578 29.584C56.5872 30.4642 57.222 31.5814 57.6621 32.9355C58.1191 34.2728 58.3477 35.8639 58.3477 37.709V55H53.6504V37.6582C53.6504 36.5749 53.5234 35.627 53.2695 34.8145C53.0156 33.985 52.6432 33.2995 52.1523 32.7578C51.6276 32.1654 50.9674 31.7253 50.1719 31.4375C49.3763 31.1328 48.4622 30.9889 47.4297 31.0059C46.5833 31.0059 45.7793 31.1243 45.0176 31.3613C44.2559 31.5983 43.5534 31.9368 42.9102 32.377C42.4023 32.7155 41.9284 33.1133 41.4883 33.5703C41.0651 34.0104 40.6842 34.5013 40.3457 35.043V55H35.6484V16H40.3457V31.6152ZM82.1133 55H77.416V24.0234L67.7422 27.7051V23.4141L81.7324 18.0312H82.1133V55ZM98.2109 49.998V45.123L114.639 38.9277L116.162 38.4961L114.639 38.0137L98.2109 31.9199V27.0703L120.631 36.668V40.375L98.2109 49.998ZM134.469 40.1719V55H129.771V18.0312H141.756C143.415 18.0651 144.98 18.3275 146.453 18.8184C147.943 19.3092 149.246 20.0202 150.363 20.9512C151.48 21.8822 152.361 23.0332 153.004 24.4043C153.664 25.7754 153.994 27.3496 153.994 29.127C153.994 30.9043 153.664 32.4785 153.004 33.8496C152.361 35.2038 151.48 36.3464 150.363 37.2773C149.246 38.2083 147.943 38.9193 146.453 39.4102C144.98 39.901 143.415 40.1549 141.756 40.1719H134.469ZM134.469 36.3125H141.756C142.839 36.2956 143.838 36.1263 144.752 35.8047C145.666 35.4661 146.462 34.9922 147.139 34.3828C147.816 33.7734 148.34 33.0371 148.713 32.1738C149.102 31.2936 149.297 30.2949 149.297 29.1777C149.297 28.0605 149.102 27.0534 148.713 26.1562C148.34 25.2591 147.824 24.4974 147.164 23.8711C146.487 23.2448 145.683 22.7624 144.752 22.4238C143.838 22.0853 142.839 21.9076 141.756 21.8906H134.469V36.3125ZM172.809 39.918H165.42V55H160.748V18.0312H171.59C173.316 18.0651 174.941 18.3105 176.465 18.7676C177.988 19.2246 179.326 19.9102 180.477 20.8242C181.611 21.7383 182.499 22.8893 183.143 24.2773C183.803 25.6484 184.133 27.265 184.133 29.127C184.133 30.3288 183.955 31.429 183.6 32.4277C183.261 33.4264 182.787 34.332 182.178 35.1445C181.568 35.957 180.84 36.6764 179.994 37.3027C179.148 37.929 178.217 38.4622 177.201 38.9023L185.047 54.6953L185.021 55H180.07L172.809 39.918ZM165.42 36.0586H171.717C172.766 36.0417 173.757 35.8809 174.688 35.5762C175.618 35.2546 176.439 34.7975 177.15 34.2051C177.844 33.6126 178.395 32.8932 178.801 32.0469C179.207 31.1836 179.41 30.1934 179.41 29.0762C179.41 27.8913 179.215 26.8587 178.826 25.9785C178.437 25.0814 177.895 24.3281 177.201 23.7188C176.507 23.1263 175.678 22.6777 174.713 22.373C173.765 22.0684 172.724 21.9076 171.59 21.8906H165.42V36.0586ZM215.846 38.6484C215.829 39.9688 215.71 41.306 215.49 42.6602C215.287 43.9974 214.965 45.2923 214.525 46.5449C214.085 47.7975 213.518 48.9655 212.824 50.0488C212.147 51.1322 211.335 52.0801 210.387 52.8926C209.439 53.7051 208.347 54.3483 207.111 54.8223C205.893 55.2793 204.521 55.5078 202.998 55.5078C201.475 55.5078 200.095 55.2793 198.859 54.8223C197.641 54.3483 196.557 53.7051 195.609 52.8926C194.661 52.0801 193.84 51.1322 193.146 50.0488C192.452 48.9486 191.885 47.7721 191.445 46.5195C190.988 45.2669 190.65 43.972 190.43 42.6348C190.21 41.2975 190.091 39.9688 190.074 38.6484V34.4336C190.091 33.1133 190.201 31.7845 190.404 30.4473C190.624 29.0931 190.963 27.7897 191.42 26.5371C191.86 25.2845 192.419 24.1165 193.096 23.0332C193.79 21.9329 194.611 20.9681 195.559 20.1387C196.507 19.3262 197.59 18.6914 198.809 18.2344C200.044 17.7604 201.424 17.5234 202.947 17.5234C204.471 17.5234 205.85 17.7604 207.086 18.2344C208.322 18.6914 209.413 19.3262 210.361 20.1387C211.309 20.9512 212.122 21.9076 212.799 23.0078C213.493 24.0911 214.068 25.2591 214.525 26.5117C214.965 27.7643 215.287 29.0677 215.49 30.4219C215.71 31.776 215.829 33.1133 215.846 34.4336V38.6484ZM211.199 34.3828C211.182 33.5026 211.123 32.5885 211.021 31.6406C210.92 30.6758 210.751 29.7194 210.514 28.7715C210.26 27.8405 209.93 26.9518 209.523 26.1055C209.117 25.2422 208.609 24.4805 208 23.8203C207.391 23.1771 206.671 22.6693 205.842 22.2969C205.012 21.9076 204.048 21.7129 202.947 21.7129C201.864 21.7129 200.908 21.9076 200.078 22.2969C199.249 22.6862 198.529 23.2025 197.92 23.8457C197.311 24.5059 196.803 25.2676 196.396 26.1309C195.99 26.9772 195.669 27.8659 195.432 28.7969C195.178 29.7448 194.992 30.7012 194.873 31.666C194.771 32.6139 194.712 33.5195 194.695 34.3828V38.6484C194.712 39.5117 194.771 40.4258 194.873 41.3906C194.992 42.3555 195.178 43.3034 195.432 44.2344C195.686 45.1823 196.016 46.0879 196.422 46.9512C196.828 47.8145 197.336 48.5677 197.945 49.2109C198.555 49.8711 199.274 50.3958 200.104 50.7852C200.933 51.1745 201.898 51.3691 202.998 51.3691C204.098 51.3691 205.063 51.1745 205.893 50.7852C206.739 50.3958 207.467 49.8711 208.076 49.2109C208.669 48.5677 209.16 47.8229 209.549 46.9766C209.955 46.1133 210.285 45.2077 210.539 44.2598C210.776 43.3288 210.937 42.3809 211.021 41.416C211.123 40.4512 211.182 39.5286 211.199 38.6484V34.3828ZM240.373 18.0312H245.172V43.752C245.138 45.4616 244.808 47.0358 244.182 48.4746C243.572 49.9134 242.734 51.1491 241.668 52.1816C240.602 53.2311 239.34 54.0521 237.885 54.6445C236.446 55.2201 234.872 55.5078 233.162 55.5078C231.436 55.5078 229.861 55.2454 228.439 54.7207C227.035 54.196 225.816 53.4427 224.783 52.4609C223.734 51.4961 222.896 50.3281 222.27 48.957C221.643 47.569 221.254 46.0202 221.102 44.3105H225.875C225.926 45.3431 226.129 46.2995 226.484 47.1797C226.857 48.0599 227.356 48.8216 227.982 49.4648C228.609 50.125 229.354 50.6328 230.217 50.9883C231.097 51.3438 232.079 51.5215 233.162 51.5215C234.279 51.5215 235.278 51.3184 236.158 50.9121C237.038 50.4889 237.792 49.9219 238.418 49.2109C239.027 48.5 239.493 47.679 239.814 46.748C240.153 45.8001 240.339 44.8014 240.373 43.752V18.0312ZM274.6 37.9121H259.162V51.0137H277.164V55H254.465V18.0312H276.936V22.043H259.162V33.9258H274.6V37.9121ZM310.426 22.043H299V55H294.43V22.043H283.004V18.0312H310.426V22.043ZM336.07 45.6562C336.07 44.5221 335.808 43.5658 335.283 42.7871C334.775 42.0085 334.115 41.3483 333.303 40.8066C332.49 40.2819 331.593 39.8418 330.611 39.4863C329.646 39.1309 328.715 38.8092 327.818 38.5215C326.515 38.0983 325.186 37.5905 323.832 36.998C322.495 36.3887 321.276 35.6608 320.176 34.8145C319.059 33.9512 318.145 32.9355 317.434 31.7676C316.74 30.5827 316.393 29.1947 316.393 27.6035C316.393 26.0124 316.74 24.5905 317.434 23.3379C318.145 22.0853 319.067 21.0273 320.201 20.1641C321.335 19.3008 322.622 18.6491 324.061 18.209C325.499 17.752 326.947 17.5234 328.402 17.5234C330.01 17.5234 331.559 17.7943 333.049 18.3359C334.538 18.8607 335.859 19.6055 337.01 20.5703C338.161 21.5352 339.083 22.7031 339.777 24.0742C340.471 25.4453 340.835 26.9772 340.869 28.6699H336.045C335.91 27.6035 335.647 26.6387 335.258 25.7754C334.868 24.8952 334.352 24.1419 333.709 23.5156C333.066 22.8893 332.296 22.4069 331.398 22.0684C330.518 21.7129 329.52 21.5352 328.402 21.5352C327.505 21.5352 326.625 21.6621 325.762 21.916C324.915 22.1699 324.162 22.5508 323.502 23.0586C322.825 23.5664 322.283 24.1927 321.877 24.9375C321.488 25.6823 321.293 26.5456 321.293 27.5273C321.31 28.5938 321.581 29.4993 322.105 30.2441C322.63 30.972 323.299 31.5898 324.111 32.0977C324.907 32.6055 325.77 33.0286 326.701 33.3672C327.649 33.7057 328.538 34.002 329.367 34.2559C330.738 34.679 332.109 35.1953 333.48 35.8047C334.852 36.3971 336.104 37.1589 337.238 38.0898C338.355 38.9531 339.253 40.0111 339.93 41.2637C340.624 42.5163 340.971 43.9635 340.971 45.6055C340.971 47.2643 340.598 48.7116 339.854 49.9473C339.126 51.1829 338.178 52.207 337.01 53.0195C335.842 53.849 334.521 54.4753 333.049 54.8984C331.576 55.3047 330.104 55.5078 328.631 55.5078C326.87 55.5078 325.135 55.2116 323.426 54.6191C321.733 54.0267 320.26 53.1719 319.008 52.0547C317.891 51.0898 317.002 49.9642 316.342 48.6777C315.699 47.3743 315.352 45.9271 315.301 44.3359H320.1C320.252 45.487 320.565 46.5111 321.039 47.4082C321.513 48.2884 322.122 49.0332 322.867 49.6426C323.612 50.2689 324.467 50.7428 325.432 51.0645C326.413 51.3691 327.48 51.5215 328.631 51.5215C329.545 51.5215 330.442 51.4115 331.322 51.1914C332.219 50.9544 333.015 50.5905 333.709 50.0996C334.403 49.6257 334.97 49.0247 335.41 48.2969C335.85 47.5521 336.07 46.6719 336.07 45.6562ZM369.383 50.0234L347.852 40.4004V36.6934L369.383 27.0957V32.0723L353.844 38.166L352.498 38.5977L353.844 39.0547L369.383 45.0469V50.0234ZM385.379 58.1738H381.164L396.602 18.0312H400.791L385.379 58.1738ZM415.111 31.6152C415.484 31.0566 415.898 30.5488 416.355 30.0918C416.812 29.6178 417.295 29.2031 417.803 28.8477C418.615 28.2552 419.504 27.8066 420.469 27.502C421.451 27.1973 422.492 27.0365 423.592 27.0195C425.031 27.0195 426.334 27.2311 427.502 27.6543C428.687 28.0605 429.694 28.7038 430.523 29.584C431.353 30.4642 431.988 31.5814 432.428 32.9355C432.885 34.2728 433.113 35.8639 433.113 37.709V55H428.416V37.6582C428.416 36.5749 428.289 35.627 428.035 34.8145C427.781 33.985 427.409 33.2995 426.918 32.7578C426.393 32.1654 425.733 31.7253 424.938 31.4375C424.142 31.1328 423.228 30.9889 422.195 31.0059C421.349 31.0059 420.545 31.1243 419.783 31.3613C419.021 31.5983 418.319 31.9368 417.676 32.377C417.168 32.7155 416.694 33.1133 416.254 33.5703C415.831 34.0104 415.45 34.5013 415.111 35.043V55H410.414V16H415.111V31.6152ZM456.879 55H452.182V24.0234L442.508 27.7051V23.4141L456.498 18.0312H456.879V55ZM472.977 49.998V45.123L489.404 38.9277L490.928 38.4961L489.404 38.0137L472.977 31.9199V27.0703L495.396 36.668V40.375L472.977 49.998Z" fill="#0CF25D"/>
<mask id="path-2-outside-1_187_103" maskUnits="userSpaceOnUse" x="7" y="18" width="494" height="45" fill="black">
<rect fill="white" x="7" y="18" width="494" height="45"/>
<path d="M29.8477 53.0234L8.31641 43.4004V39.6934L29.8477 30.0957V35.0723L14.3086 41.166L12.9629 41.5977L14.3086 42.0547L29.8477 48.0469V53.0234ZM44.3457 34.6152C44.7181 34.0566 45.1328 33.5488 45.5898 33.0918C46.0469 32.6178 46.5293 32.2031 47.0371 31.8477C47.8496 31.2552 48.7383 30.8066 49.7031 30.502C50.6849 30.1973 51.7259 30.0365 52.8262 30.0195C54.265 30.0195 55.5684 30.2311 56.7363 30.6543C57.9212 31.0605 58.9284 31.7038 59.7578 32.584C60.5872 33.4642 61.222 34.5814 61.6621 35.9355C62.1191 37.2728 62.3477 38.8639 62.3477 40.709V58H57.6504V40.6582C57.6504 39.5749 57.5234 38.627 57.2695 37.8145C57.0156 36.985 56.6432 36.2995 56.1523 35.7578C55.6276 35.1654 54.9674 34.7253 54.1719 34.4375C53.3763 34.1328 52.4622 33.9889 51.4297 34.0059C50.5833 34.0059 49.7793 34.1243 49.0176 34.3613C48.2559 34.5983 47.5534 34.9368 46.9102 35.377C46.4023 35.7155 45.9284 36.1133 45.4883 36.5703C45.0651 37.0104 44.6842 37.5013 44.3457 38.043V58H39.6484V19H44.3457V34.6152ZM86.1133 58H81.416V27.0234L71.7422 30.7051V26.4141L85.7324 21.0312H86.1133V58ZM102.211 52.998V48.123L118.639 41.9277L120.162 41.4961L118.639 41.0137L102.211 34.9199V30.0703L124.631 39.668V43.375L102.211 52.998ZM138.469 43.1719V58H133.771V21.0312H145.756C147.415 21.0651 148.98 21.3275 150.453 21.8184C151.943 22.3092 153.246 23.0202 154.363 23.9512C155.48 24.8822 156.361 26.0332 157.004 27.4043C157.664 28.7754 157.994 30.3496 157.994 32.127C157.994 33.9043 157.664 35.4785 157.004 36.8496C156.361 38.2038 155.48 39.3464 154.363 40.2773C153.246 41.2083 151.943 41.9193 150.453 42.4102C148.98 42.901 147.415 43.1549 145.756 43.1719H138.469ZM138.469 39.3125H145.756C146.839 39.2956 147.838 39.1263 148.752 38.8047C149.666 38.4661 150.462 37.9922 151.139 37.3828C151.816 36.7734 152.34 36.0371 152.713 35.1738C153.102 34.2936 153.297 33.2949 153.297 32.1777C153.297 31.0605 153.102 30.0534 152.713 29.1562C152.34 28.2591 151.824 27.4974 151.164 26.8711C150.487 26.2448 149.683 25.7624 148.752 25.4238C147.838 25.0853 146.839 24.9076 145.756 24.8906H138.469V39.3125ZM176.809 42.918H169.42V58H164.748V21.0312H175.59C177.316 21.0651 178.941 21.3105 180.465 21.7676C181.988 22.2246 183.326 22.9102 184.477 23.8242C185.611 24.7383 186.499 25.8893 187.143 27.2773C187.803 28.6484 188.133 30.265 188.133 32.127C188.133 33.3288 187.955 34.429 187.6 35.4277C187.261 36.4264 186.787 37.332 186.178 38.1445C185.568 38.957 184.84 39.6764 183.994 40.3027C183.148 40.929 182.217 41.4622 181.201 41.9023L189.047 57.6953L189.021 58H184.07L176.809 42.918ZM169.42 39.0586H175.717C176.766 39.0417 177.757 38.8809 178.688 38.5762C179.618 38.2546 180.439 37.7975 181.15 37.2051C181.844 36.6126 182.395 35.8932 182.801 35.0469C183.207 34.1836 183.41 33.1934 183.41 32.0762C183.41 30.8913 183.215 29.8587 182.826 28.9785C182.437 28.0814 181.895 27.3281 181.201 26.7188C180.507 26.1263 179.678 25.6777 178.713 25.373C177.765 25.0684 176.724 24.9076 175.59 24.8906H169.42V39.0586ZM219.846 41.6484C219.829 42.9688 219.71 44.306 219.49 45.6602C219.287 46.9974 218.965 48.2923 218.525 49.5449C218.085 50.7975 217.518 51.9655 216.824 53.0488C216.147 54.1322 215.335 55.0801 214.387 55.8926C213.439 56.7051 212.347 57.3483 211.111 57.8223C209.893 58.2793 208.521 58.5078 206.998 58.5078C205.475 58.5078 204.095 58.2793 202.859 57.8223C201.641 57.3483 200.557 56.7051 199.609 55.8926C198.661 55.0801 197.84 54.1322 197.146 53.0488C196.452 51.9486 195.885 50.7721 195.445 49.5195C194.988 48.2669 194.65 46.972 194.43 45.6348C194.21 44.2975 194.091 42.9688 194.074 41.6484V37.4336C194.091 36.1133 194.201 34.7845 194.404 33.4473C194.624 32.0931 194.963 30.7897 195.42 29.5371C195.86 28.2845 196.419 27.1165 197.096 26.0332C197.79 24.9329 198.611 23.9681 199.559 23.1387C200.507 22.3262 201.59 21.6914 202.809 21.2344C204.044 20.7604 205.424 20.5234 206.947 20.5234C208.471 20.5234 209.85 20.7604 211.086 21.2344C212.322 21.6914 213.413 22.3262 214.361 23.1387C215.309 23.9512 216.122 24.9076 216.799 26.0078C217.493 27.0911 218.068 28.2591 218.525 29.5117C218.965 30.7643 219.287 32.0677 219.49 33.4219C219.71 34.776 219.829 36.1133 219.846 37.4336V41.6484ZM215.199 37.3828C215.182 36.5026 215.123 35.5885 215.021 34.6406C214.92 33.6758 214.751 32.7194 214.514 31.7715C214.26 30.8405 213.93 29.9518 213.523 29.1055C213.117 28.2422 212.609 27.4805 212 26.8203C211.391 26.1771 210.671 25.6693 209.842 25.2969C209.012 24.9076 208.048 24.7129 206.947 24.7129C205.864 24.7129 204.908 24.9076 204.078 25.2969C203.249 25.6862 202.529 26.2025 201.92 26.8457C201.311 27.5059 200.803 28.2676 200.396 29.1309C199.99 29.9772 199.669 30.8659 199.432 31.7969C199.178 32.7448 198.992 33.7012 198.873 34.666C198.771 35.6139 198.712 36.5195 198.695 37.3828V41.6484C198.712 42.5117 198.771 43.4258 198.873 44.3906C198.992 45.3555 199.178 46.3034 199.432 47.2344C199.686 48.1823 200.016 49.0879 200.422 49.9512C200.828 50.8145 201.336 51.5677 201.945 52.2109C202.555 52.8711 203.274 53.3958 204.104 53.7852C204.933 54.1745 205.898 54.3691 206.998 54.3691C208.098 54.3691 209.063 54.1745 209.893 53.7852C210.739 53.3958 211.467 52.8711 212.076 52.2109C212.669 51.5677 213.16 50.8229 213.549 49.9766C213.955 49.1133 214.285 48.2077 214.539 47.2598C214.776 46.3288 214.937 45.3809 215.021 44.416C215.123 43.4512 215.182 42.5286 215.199 41.6484V37.3828ZM244.373 21.0312H249.172V46.752C249.138 48.4616 248.808 50.0358 248.182 51.4746C247.572 52.9134 246.734 54.1491 245.668 55.1816C244.602 56.2311 243.34 57.0521 241.885 57.6445C240.446 58.2201 238.872 58.5078 237.162 58.5078C235.436 58.5078 233.861 58.2454 232.439 57.7207C231.035 57.196 229.816 56.4427 228.783 55.4609C227.734 54.4961 226.896 53.3281 226.27 51.957C225.643 50.569 225.254 49.0202 225.102 47.3105H229.875C229.926 48.3431 230.129 49.2995 230.484 50.1797C230.857 51.0599 231.356 51.8216 231.982 52.4648C232.609 53.125 233.354 53.6328 234.217 53.9883C235.097 54.3438 236.079 54.5215 237.162 54.5215C238.279 54.5215 239.278 54.3184 240.158 53.9121C241.038 53.4889 241.792 52.9219 242.418 52.2109C243.027 51.5 243.493 50.679 243.814 49.748C244.153 48.8001 244.339 47.8014 244.373 46.752V21.0312ZM278.6 40.9121H263.162V54.0137H281.164V58H258.465V21.0312H280.936V25.043H263.162V36.9258H278.6V40.9121ZM314.426 25.043H303V58H298.43V25.043H287.004V21.0312H314.426V25.043ZM340.07 48.6562C340.07 47.5221 339.808 46.5658 339.283 45.7871C338.775 45.0085 338.115 44.3483 337.303 43.8066C336.49 43.2819 335.593 42.8418 334.611 42.4863C333.646 42.1309 332.715 41.8092 331.818 41.5215C330.515 41.0983 329.186 40.5905 327.832 39.998C326.495 39.3887 325.276 38.6608 324.176 37.8145C323.059 36.9512 322.145 35.9355 321.434 34.7676C320.74 33.5827 320.393 32.1947 320.393 30.6035C320.393 29.0124 320.74 27.5905 321.434 26.3379C322.145 25.0853 323.067 24.0273 324.201 23.1641C325.335 22.3008 326.622 21.6491 328.061 21.209C329.499 20.752 330.947 20.5234 332.402 20.5234C334.01 20.5234 335.559 20.7943 337.049 21.3359C338.538 21.8607 339.859 22.6055 341.01 23.5703C342.161 24.5352 343.083 25.7031 343.777 27.0742C344.471 28.4453 344.835 29.9772 344.869 31.6699H340.045C339.91 30.6035 339.647 29.6387 339.258 28.7754C338.868 27.8952 338.352 27.1419 337.709 26.5156C337.066 25.8893 336.296 25.4069 335.398 25.0684C334.518 24.7129 333.52 24.5352 332.402 24.5352C331.505 24.5352 330.625 24.6621 329.762 24.916C328.915 25.1699 328.162 25.5508 327.502 26.0586C326.825 26.5664 326.283 27.1927 325.877 27.9375C325.488 28.6823 325.293 29.5456 325.293 30.5273C325.31 31.5938 325.581 32.4993 326.105 33.2441C326.63 33.972 327.299 34.5898 328.111 35.0977C328.907 35.6055 329.77 36.0286 330.701 36.3672C331.649 36.7057 332.538 37.002 333.367 37.2559C334.738 37.679 336.109 38.1953 337.48 38.8047C338.852 39.3971 340.104 40.1589 341.238 41.0898C342.355 41.9531 343.253 43.0111 343.93 44.2637C344.624 45.5163 344.971 46.9635 344.971 48.6055C344.971 50.2643 344.598 51.7116 343.854 52.9473C343.126 54.1829 342.178 55.207 341.01 56.0195C339.842 56.849 338.521 57.4753 337.049 57.8984C335.576 58.3047 334.104 58.5078 332.631 58.5078C330.87 58.5078 329.135 58.2116 327.426 57.6191C325.733 57.0267 324.26 56.1719 323.008 55.0547C321.891 54.0898 321.002 52.9642 320.342 51.6777C319.699 50.3743 319.352 48.9271 319.301 47.3359H324.1C324.252 48.487 324.565 49.5111 325.039 50.4082C325.513 51.2884 326.122 52.0332 326.867 52.6426C327.612 53.2689 328.467 53.7428 329.432 54.0645C330.413 54.3691 331.48 54.5215 332.631 54.5215C333.545 54.5215 334.442 54.4115 335.322 54.1914C336.219 53.9544 337.015 53.5905 337.709 53.0996C338.403 52.6257 338.97 52.0247 339.41 51.2969C339.85 50.5521 340.07 49.6719 340.07 48.6562ZM373.383 53.0234L351.852 43.4004V39.6934L373.383 30.0957V35.0723L357.844 41.166L356.498 41.5977L357.844 42.0547L373.383 48.0469V53.0234ZM389.379 61.1738H385.164L400.602 21.0312H404.791L389.379 61.1738ZM419.111 34.6152C419.484 34.0566 419.898 33.5488 420.355 33.0918C420.812 32.6178 421.295 32.2031 421.803 31.8477C422.615 31.2552 423.504 30.8066 424.469 30.502C425.451 30.1973 426.492 30.0365 427.592 30.0195C429.031 30.0195 430.334 30.2311 431.502 30.6543C432.687 31.0605 433.694 31.7038 434.523 32.584C435.353 33.4642 435.988 34.5814 436.428 35.9355C436.885 37.2728 437.113 38.8639 437.113 40.709V58H432.416V40.6582C432.416 39.5749 432.289 38.627 432.035 37.8145C431.781 36.985 431.409 36.2995 430.918 35.7578C430.393 35.1654 429.733 34.7253 428.938 34.4375C428.142 34.1328 427.228 33.9889 426.195 34.0059C425.349 34.0059 424.545 34.1243 423.783 34.3613C423.021 34.5983 422.319 34.9368 421.676 35.377C421.168 35.7155 420.694 36.1133 420.254 36.5703C419.831 37.0104 419.45 37.5013 419.111 38.043V58H414.414V19H419.111V34.6152ZM460.879 58H456.182V27.0234L446.508 30.7051V26.4141L460.498 21.0312H460.879V58ZM476.977 52.998V48.123L493.404 41.9277L494.928 41.4961L493.404 41.0137L476.977 34.9199V30.0703L499.396 39.668V43.375L476.977 52.998Z"/>
</mask>
<path d="M29.8477 53.0234L29.4396 53.9364L30.8477 54.5657V53.0234H29.8477ZM8.31641 43.4004H7.31641V44.0488L7.90837 44.3134L8.31641 43.4004ZM8.31641 39.6934L7.90927 38.78L7.31641 39.0443V39.6934H8.31641ZM29.8477 30.0957H30.8477V28.5551L29.4405 29.1823L29.8477 30.0957ZM29.8477 35.0723L30.2127 36.0032L30.8477 35.7543V35.0723H29.8477ZM14.3086 41.166L14.614 42.1182L14.6442 42.1086L14.6737 42.097L14.3086 41.166ZM12.9629 41.5977L12.6575 40.6454L9.77338 41.5705L12.6413 42.5445L12.9629 41.5977ZM14.3086 42.0547L14.6684 41.1217L14.6494 41.1143L14.6302 41.1078L14.3086 42.0547ZM29.8477 48.0469H30.8477V47.3607L30.2075 47.1138L29.8477 48.0469ZM30.2557 52.1105L8.72444 42.4874L7.90837 44.3134L29.4396 53.9364L30.2557 52.1105ZM9.31641 43.4004V39.6934H7.31641V43.4004H9.31641ZM8.72354 40.6067L30.2548 31.0091L29.4405 29.1823L7.90927 38.78L8.72354 40.6067ZM28.8477 30.0957V35.0723H30.8477V30.0957H28.8477ZM29.4826 34.1413L13.9435 40.235L14.6737 42.097L30.2127 36.0032L29.4826 34.1413ZM14.0032 40.2138L12.6575 40.6454L13.2683 42.5499L14.614 42.1182L14.0032 40.2138ZM12.6413 42.5445L13.987 43.0016L14.6302 41.1078L13.2845 40.6508L12.6413 42.5445ZM13.9488 42.9877L29.4879 48.9799L30.2075 47.1138L14.6684 41.1217L13.9488 42.9877ZM28.8477 48.0469V53.0234H30.8477V48.0469H28.8477ZM44.3457 34.6152H43.3457V37.918L45.1778 35.1699L44.3457 34.6152ZM45.5898 33.0918L46.297 33.7989L46.3034 33.7925L46.3097 33.7859L45.5898 33.0918ZM47.0371 31.8477L47.6106 32.6669L47.6185 32.6614L47.6263 32.6557L47.0371 31.8477ZM49.7031 30.502L49.4067 29.5469L49.402 29.5484L49.7031 30.502ZM52.8262 30.0195V29.0195H52.8185L52.8108 29.0196L52.8262 30.0195ZM56.7363 30.6543L56.3957 31.5945L56.4038 31.5974L56.412 31.6002L56.7363 30.6543ZM59.7578 32.584L59.03 33.2698L59.7578 32.584ZM61.6621 35.9355L60.7111 36.2446L60.7134 36.2518L60.7158 36.259L61.6621 35.9355ZM62.3477 58V59H63.3477V58H62.3477ZM57.6504 58H56.6504V59H57.6504V58ZM57.2695 37.8145L56.3133 38.1072L56.3151 38.1127L57.2695 37.8145ZM56.1523 35.7578L55.4037 36.4209L55.4114 36.4293L56.1523 35.7578ZM54.1719 34.4375L53.8142 35.3714L53.823 35.3747L53.8317 35.3779L54.1719 34.4375ZM51.4297 34.0059V35.0059H51.4379L51.4461 35.0057L51.4297 34.0059ZM46.9102 35.377L47.4649 36.2091L47.4748 36.2023L46.9102 35.377ZM45.4883 36.5703L44.768 35.8767L44.7674 35.8772L45.4883 36.5703ZM44.3457 38.043L43.4977 37.513L43.3457 37.7562V38.043H44.3457ZM44.3457 58V59H45.3457V58H44.3457ZM39.6484 58H38.6484V59H39.6484V58ZM39.6484 19V18H38.6484V19H39.6484ZM44.3457 19H45.3457V18H44.3457V19ZM45.1778 35.1699C45.515 34.664 45.8882 34.2076 46.297 33.7989L44.8827 32.3847C44.3774 32.89 43.9212 33.4493 43.5137 34.0605L45.1778 35.1699ZM46.3097 33.7859C46.7248 33.3554 47.1586 32.9833 47.6106 32.6669L46.4636 31.0284C45.9 31.423 45.3689 31.8802 44.87 32.3977L46.3097 33.7859ZM47.6263 32.6557C48.3507 32.1274 49.142 31.7278 50.0043 31.4555L49.402 29.5484C48.3345 29.8855 47.3485 30.383 46.4479 31.0396L47.6263 32.6557ZM49.9995 31.457C50.8841 31.1825 51.8299 31.035 52.8416 31.0194L52.8108 29.0196C51.6219 29.0379 50.4857 29.212 49.4067 29.5469L49.9995 31.457ZM52.8262 31.0195C54.1669 31.0195 55.3527 31.2166 56.3957 31.5945L57.077 29.7141C55.784 29.2456 54.3631 29.0195 52.8262 29.0195V31.0195ZM56.412 31.6002C57.449 31.9558 58.316 32.5121 59.03 33.2698L60.4856 31.8982C59.5408 30.8955 58.3935 30.1653 57.0607 29.7084L56.412 31.6002ZM59.03 33.2698C59.7417 34.025 60.3086 35.0063 60.7111 36.2446L62.6131 35.6265C62.1354 34.1565 61.4328 32.9034 60.4856 31.8982L59.03 33.2698ZM60.7158 36.259C61.1283 37.4658 61.3477 38.9422 61.3477 40.709H63.3477C63.3477 38.7856 63.11 37.0798 62.6084 35.6121L60.7158 36.259ZM61.3477 40.709V58H63.3477V40.709H61.3477ZM62.3477 57H57.6504V59H62.3477V57ZM58.6504 58V40.6582H56.6504V58H58.6504ZM58.6504 40.6582C58.6504 39.4999 58.515 38.4474 58.224 37.5162L56.3151 38.1127C56.5319 38.8065 56.6504 39.6499 56.6504 40.6582H58.6504ZM58.2257 37.5217C57.9367 36.5777 57.4996 35.7553 56.8933 35.0863L55.4114 36.4293C55.7868 36.8436 56.0945 37.3924 56.3133 38.1072L58.2257 37.5217ZM56.9009 35.0948C56.2577 34.3686 55.4536 33.8377 54.512 33.4971L53.8317 35.3779C54.4813 35.6128 54.9975 35.9621 55.4038 36.4208L56.9009 35.0948ZM54.5295 33.5036C53.5922 33.1447 52.5472 32.9874 51.4133 33.006L51.4461 35.0057C52.3773 34.9905 53.1604 35.1209 53.8142 35.3714L54.5295 33.5036ZM51.4297 33.0059C50.4888 33.0059 49.5841 33.1378 48.7205 33.4065L49.3146 35.3162C49.9745 35.1109 50.6779 35.0059 51.4297 35.0059V33.0059ZM48.7205 33.4065C47.8659 33.6724 47.0729 34.0539 46.3455 34.5516L47.4748 36.2023C48.0339 35.8198 48.6458 35.5243 49.3146 35.3162L48.7205 33.4065ZM46.3555 34.5449C45.7853 34.925 45.2561 35.3697 44.768 35.8767L46.2086 37.264C46.6006 36.8568 47.0194 36.506 47.4649 36.209L46.3555 34.5449ZM44.7674 35.8772C44.2942 36.3694 43.8712 36.9154 43.4977 37.513L45.1937 38.573C45.4973 38.0872 45.836 37.6515 46.2091 37.2634L44.7674 35.8772ZM43.3457 38.043V58H45.3457V38.043H43.3457ZM44.3457 57H39.6484V59H44.3457V57ZM40.6484 58V19H38.6484V58H40.6484ZM39.6484 20H44.3457V18H39.6484V20ZM43.3457 19V34.6152H45.3457V19H43.3457ZM86.1133 58V59H87.1133V58H86.1133ZM81.416 58H80.416V59H81.416V58ZM81.416 27.0234H82.416V25.5729L81.0603 26.0888L81.416 27.0234ZM71.7422 30.7051H70.7422V32.1556L72.0979 31.6397L71.7422 30.7051ZM71.7422 26.4141L71.3831 25.4808L70.7422 25.7274V26.4141H71.7422ZM85.7324 21.0312V20.0312H85.5467L85.3733 20.0979L85.7324 21.0312ZM86.1133 21.0312H87.1133V20.0312H86.1133V21.0312ZM86.1133 57H81.416V59H86.1133V57ZM82.416 58V27.0234H80.416V58H82.416ZM81.0603 26.0888L71.3865 29.7705L72.0979 31.6397L81.7717 27.958L81.0603 26.0888ZM72.7422 30.7051V26.4141H70.7422V30.7051H72.7422ZM72.1013 27.3474L86.0915 21.9646L85.3733 20.0979L71.3831 25.4808L72.1013 27.3474ZM85.7324 22.0312H86.1133V20.0312H85.7324V22.0312ZM85.1133 21.0312V58H87.1133V21.0312H85.1133ZM102.211 52.998H101.211V54.5155L102.605 53.917L102.211 52.998ZM102.211 48.123L101.858 47.1874L101.211 47.4314V48.123H102.211ZM118.639 41.9277L118.366 40.9656L118.325 40.9771L118.286 40.9921L118.639 41.9277ZM120.162 41.4961L120.435 42.4582L123.643 41.5493L120.464 40.5428L120.162 41.4961ZM118.639 41.0137L118.291 41.9512L118.314 41.9597L118.337 41.967L118.639 41.0137ZM102.211 34.9199H101.211V35.6156L101.863 35.8575L102.211 34.9199ZM102.211 30.0703L102.604 29.151L101.211 28.5544V30.0703H102.211ZM124.631 39.668H125.631V39.0083L125.024 38.7487L124.631 39.668ZM124.631 43.375L125.025 44.2939L125.631 44.034V43.375H124.631ZM103.211 52.998V48.123H101.211V52.998H103.211ZM102.564 49.0587L118.992 42.8634L118.286 40.9921L101.858 47.1874L102.564 49.0587ZM118.911 42.8899L120.435 42.4582L119.89 40.534L118.366 40.9656L118.911 42.8899ZM120.464 40.5428L118.941 40.0603L118.337 41.967L119.86 42.4494L120.464 40.5428ZM118.986 40.0761L102.559 33.9823L101.863 35.8575L118.291 41.9512L118.986 40.0761ZM103.211 34.9199V30.0703H101.211V34.9199H103.211ZM101.817 30.9896L124.237 40.5873L125.024 38.7487L102.604 29.151L101.817 30.9896ZM123.631 39.668V43.375H125.631V39.668H123.631ZM124.236 42.4561L101.817 52.0791L102.605 53.917L125.025 44.2939L124.236 42.4561ZM138.469 43.1719V42.1719H137.469V43.1719H138.469ZM138.469 58V59H139.469V58H138.469ZM133.771 58H132.771V59H133.771V58ZM133.771 21.0312V20.0312H132.771V21.0312H133.771ZM145.756 21.0312L145.776 20.0315L145.766 20.0312H145.756V21.0312ZM150.453 21.8184L150.137 22.767L150.14 22.7681L150.453 21.8184ZM157.004 27.4043L156.099 27.829L156.103 27.8381L157.004 27.4043ZM157.004 36.8496L156.103 36.4158L156.101 36.4206L157.004 36.8496ZM150.453 42.4102L150.14 41.4604L150.137 41.4615L150.453 42.4102ZM145.756 43.1719L145.756 44.1719L145.766 44.1718L145.756 43.1719ZM138.469 39.3125H137.469V40.3125H138.469V39.3125ZM145.756 39.3125V40.3125H145.764L145.771 40.3124L145.756 39.3125ZM148.752 38.8047L149.084 39.748L149.092 39.7453L149.099 39.7424L148.752 38.8047ZM152.713 35.1738L151.798 34.7693L151.795 34.7777L152.713 35.1738ZM152.713 29.1562L151.789 29.5396L151.792 29.547L151.796 29.5543L152.713 29.1562ZM151.164 26.8711L151.852 26.1456L151.843 26.137L151.164 26.8711ZM148.752 25.4238L148.405 26.3616L148.41 26.3636L148.752 25.4238ZM145.756 24.8906L145.771 23.8907L145.764 23.8906H145.756V24.8906ZM138.469 24.8906V23.8906H137.469V24.8906H138.469ZM137.469 43.1719V58H139.469V43.1719H137.469ZM138.469 57H133.771V59H138.469V57ZM134.771 58V21.0312H132.771V58H134.771ZM133.771 22.0312H145.756V20.0312H133.771V22.0312ZM145.735 22.031C147.301 22.063 148.766 22.3101 150.137 22.767L150.769 20.8697C149.195 20.3448 147.529 20.0672 145.776 20.0315L145.735 22.031ZM150.14 22.7681C151.52 23.2227 152.71 23.8751 153.723 24.7194L155.003 23.183C153.782 22.1653 152.366 21.3958 150.766 20.8686L150.14 22.7681ZM153.723 24.7194C154.723 25.5528 155.515 26.5848 156.099 27.829L157.909 26.9796C157.206 25.4816 156.238 24.2116 155.003 23.183L153.723 24.7194ZM156.103 27.8381C156.688 29.0529 156.994 30.4747 156.994 32.127H158.994C158.994 30.2245 158.64 28.4978 157.905 26.9705L156.103 27.8381ZM156.994 32.127C156.994 33.7792 156.688 35.201 156.103 36.4158L157.905 37.2834C158.64 35.7561 158.994 34.0294 158.994 32.127H156.994ZM156.101 36.4206C155.518 37.6481 154.726 38.6737 153.723 39.5091L155.003 41.0456C156.235 40.019 157.204 38.7594 157.907 37.2787L156.101 36.4206ZM153.723 39.5091C152.71 40.3534 151.52 41.0058 150.14 41.4604L150.766 43.3599C152.366 42.8328 153.782 42.0632 155.003 41.0456L153.723 39.5091ZM150.137 41.4615C148.77 41.9173 147.308 42.156 145.746 42.1719L145.766 44.1718C147.522 44.1539 149.191 43.8848 150.769 43.3588L150.137 41.4615ZM145.756 42.1719H138.469V44.1719H145.756V42.1719ZM138.469 40.3125H145.756V38.3125H138.469V40.3125ZM145.771 40.3124C146.95 40.294 148.057 40.1094 149.084 39.748L148.42 37.8614C147.619 38.1433 146.728 38.2972 145.74 38.3126L145.771 40.3124ZM149.099 39.7424C150.123 39.3631 151.03 38.8258 151.808 38.1261L150.47 36.6395C149.893 37.1585 149.209 37.5692 148.405 37.8669L149.099 39.7424ZM151.808 38.1261C152.595 37.4172 153.204 36.5612 153.631 35.5699L151.795 34.7777C151.477 35.513 151.036 36.1297 150.47 36.6395L151.808 38.1261ZM153.627 35.5783C154.081 34.5519 154.297 33.412 154.297 32.1777H152.297C152.297 33.1778 152.123 34.0354 151.798 34.7693L153.627 35.5783ZM154.297 32.1777C154.297 30.943 154.081 29.7976 153.63 28.7582L151.796 29.5543C152.123 30.3092 152.297 31.1781 152.297 32.1777H154.297ZM153.636 28.7729C153.214 27.7554 152.621 26.8746 151.852 26.1456L150.476 27.5966C151.028 28.1202 151.467 28.7629 151.789 29.5396L153.636 28.7729ZM151.843 26.137C151.061 25.4139 150.14 24.8646 149.094 24.484L148.41 26.3636C149.226 26.6601 149.913 27.0757 150.485 27.6052L151.843 26.137ZM149.099 24.4861C148.068 24.1041 146.956 23.9092 145.771 23.8907L145.74 25.8905C146.723 25.9059 147.608 26.0665 148.405 26.3616L149.099 24.4861ZM145.756 23.8906H138.469V25.8906H145.756V23.8906ZM137.469 24.8906V39.3125H139.469V24.8906H137.469ZM176.809 42.918L177.71 42.4842L177.437 41.918H176.809V42.918ZM169.42 42.918V41.918H168.42V42.918H169.42ZM169.42 58V59H170.42V58H169.42ZM164.748 58H163.748V59H164.748V58ZM164.748 21.0312V20.0312H163.748V21.0312H164.748ZM175.59 21.0312L175.609 20.0314L175.6 20.0312H175.59V21.0312ZM184.477 23.8242L185.104 23.0456L185.098 23.0411L184.477 23.8242ZM187.143 27.2773L186.235 27.6978L186.238 27.7045L186.242 27.7112L187.143 27.2773ZM187.6 35.4277L186.658 35.0924L186.655 35.0995L186.653 35.1067L187.6 35.4277ZM181.201 41.9023L180.804 40.9848L179.837 41.4037L180.306 42.3473L181.201 41.9023ZM189.047 57.6953L190.043 57.7784L190.067 57.5003L189.942 57.2504L189.047 57.6953ZM189.021 58V59H189.942L190.018 58.083L189.021 58ZM184.07 58L183.169 58.4338L183.442 59H184.07V58ZM169.42 39.0586H168.42V40.0586H169.42V39.0586ZM175.717 39.0586V40.0586H175.725L175.733 40.0585L175.717 39.0586ZM178.688 38.5762L178.999 39.5266L179.006 39.524L179.014 39.5214L178.688 38.5762ZM181.15 37.2051L181.791 37.9734L181.8 37.9656L181.15 37.2051ZM182.801 35.0469L183.702 35.4796L183.706 35.4727L182.801 35.0469ZM182.826 28.9785L181.909 29.3766L181.912 29.383L182.826 28.9785ZM181.201 26.7188L181.861 25.9672L181.85 25.9582L181.201 26.7188ZM178.713 25.373L178.407 26.3251L178.412 26.3266L178.713 25.373ZM175.59 24.8906L175.605 23.8907L175.597 23.8906H175.59V24.8906ZM169.42 24.8906V23.8906H168.42V24.8906H169.42ZM176.809 41.918H169.42V43.918H176.809V41.918ZM168.42 42.918V58H170.42V42.918H168.42ZM169.42 57H164.748V59H169.42V57ZM165.748 58V21.0312H163.748V58H165.748ZM164.748 22.0312H175.59V20.0312H164.748V22.0312ZM175.57 22.0311C177.214 22.0633 178.748 22.2966 180.177 22.7254L180.752 20.8098C179.135 20.3245 177.419 20.0669 175.609 20.0314L175.57 22.0311ZM180.177 22.7254C181.589 23.149 182.811 23.7785 183.855 24.6073L185.098 23.0411C183.84 22.0418 182.387 21.3002 180.752 20.8098L180.177 22.7254ZM183.849 24.6028C184.858 25.4157 185.653 26.4419 186.235 27.6978L188.05 26.8569C187.345 25.3368 186.364 24.0609 185.104 23.0456L183.849 24.6028ZM186.242 27.7112C186.824 28.9201 187.133 30.3822 187.133 32.127H189.133C189.133 30.1477 188.782 28.3768 188.044 26.8435L186.242 27.7112ZM187.133 32.127C187.133 33.2296 186.97 34.2147 186.658 35.0924L188.542 35.7631C188.94 34.6434 189.133 33.4279 189.133 32.127H187.133ZM186.653 35.1067C186.347 36.0091 185.921 36.8199 185.378 37.5445L186.978 38.7445C187.653 37.8442 188.175 36.8438 188.547 35.7488L186.653 35.1067ZM185.378 37.5445C184.829 38.2767 184.171 38.9281 183.399 39.4989L184.589 41.1066C185.51 40.4248 186.308 39.6374 186.978 38.7445L185.378 37.5445ZM183.399 39.4989C182.617 40.0776 181.753 40.5734 180.804 40.9848L181.599 42.8199C182.681 42.3511 183.678 41.7804 184.589 41.1066L183.399 39.4989ZM180.306 42.3473L188.151 58.1402L189.942 57.2504L182.097 41.4574L180.306 42.3473ZM188.05 57.6123L188.025 57.917L190.018 58.083L190.043 57.7784L188.05 57.6123ZM189.021 57H184.07V59H189.021V57ZM184.971 57.5662L177.71 42.4842L175.908 43.3518L183.169 58.4338L184.971 57.5662ZM169.42 40.0586H175.717V38.0586H169.42V40.0586ZM175.733 40.0585C176.875 40.04 177.966 39.8646 178.999 39.5266L178.376 37.6258C177.547 37.8971 176.657 38.0433 175.701 38.0587L175.733 40.0585ZM179.014 39.5214C180.052 39.1628 180.981 38.6481 181.791 37.9733L180.51 36.4369C179.898 36.9469 179.185 37.3463 178.361 37.631L179.014 39.5214ZM181.8 37.9656C182.603 37.2801 183.238 36.4479 183.702 35.4796L181.899 34.6141C181.552 35.3386 181.086 35.9452 180.501 36.4445L181.8 37.9656ZM183.706 35.4727C184.184 34.4553 184.41 33.3156 184.41 32.0762H182.41C182.41 33.0711 182.23 33.9119 181.896 34.6211L183.706 35.4727ZM184.41 32.0762C184.41 30.7833 184.198 29.6075 183.741 28.574L181.912 29.383C182.233 30.11 182.41 30.9992 182.41 32.0762H184.41ZM183.744 28.5804C183.299 27.5561 182.672 26.6797 181.861 25.9673L180.541 27.4702C181.118 27.9765 181.575 28.6067 181.909 29.3766L183.744 28.5804ZM181.85 25.9582C181.044 25.2697 180.093 24.7601 179.014 24.4195L178.412 26.3266C179.263 26.5954 179.97 26.9829 180.552 27.4793L181.85 25.9582ZM179.019 24.421C177.965 24.0822 176.824 23.9089 175.605 23.8907L175.575 25.8905C176.624 25.9062 177.565 26.0545 178.407 26.3251L179.019 24.421ZM175.59 23.8906H169.42V25.8906H175.59V23.8906ZM168.42 24.8906V39.0586H170.42V24.8906H168.42ZM219.846 41.6484L220.846 41.6613V41.6484H219.846ZM219.49 45.6602L218.503 45.4998L218.502 45.51L219.49 45.6602ZM216.824 53.0488L215.982 52.5094L215.976 52.5188L216.824 53.0488ZM211.111 57.8223L211.462 58.7586L211.469 58.7559L211.111 57.8223ZM202.859 57.8223L202.497 58.7543L202.505 58.7573L202.512 58.7602L202.859 57.8223ZM197.146 53.0488L196.301 53.5823L196.304 53.5883L197.146 53.0488ZM195.445 49.5195L196.389 49.188L196.385 49.1768L195.445 49.5195ZM194.074 41.6484H193.074L193.074 41.6613L194.074 41.6484ZM194.074 37.4336L193.074 37.4208V37.4336H194.074ZM194.404 33.4473L193.417 33.2869L193.416 33.2971L194.404 33.4473ZM195.42 29.5371L196.359 29.8799L196.363 29.8686L195.42 29.5371ZM197.096 26.0332L196.25 25.4997L196.248 25.5032L197.096 26.0332ZM199.559 23.1387L198.908 22.3794L198.9 22.3861L199.559 23.1387ZM202.809 21.2344L203.16 22.1707L203.167 22.168L202.809 21.2344ZM211.086 21.2344L210.728 22.1681L210.739 22.1723L211.086 21.2344ZM216.799 26.0078L215.947 26.5319L215.952 26.5396L215.957 26.5472L216.799 26.0078ZM218.525 29.5117L219.469 29.1802L219.465 29.169L218.525 29.5117ZM219.49 33.4219L218.501 33.5702L218.503 33.5823L219.49 33.4219ZM219.846 37.4336H220.846L220.846 37.4208L219.846 37.4336ZM215.199 37.3828H216.199V37.3732L216.199 37.3636L215.199 37.3828ZM215.021 34.6406L214.027 34.7453L214.027 34.7472L215.021 34.6406ZM214.514 31.7715L215.484 31.5289L215.481 31.5186L215.478 31.5084L214.514 31.7715ZM213.523 29.1055L212.619 29.5313L212.622 29.5382L213.523 29.1055ZM212 26.8203L212.735 26.142L212.726 26.1326L212 26.8203ZM209.842 25.2969L209.417 26.2021L209.425 26.2057L209.432 26.2091L209.842 25.2969ZM204.078 25.2969L204.503 26.2021L204.078 25.2969ZM201.92 26.8457L201.194 26.1579L201.185 26.1674L201.92 26.8457ZM200.396 29.1309L201.298 29.5636L201.301 29.5567L200.396 29.1309ZM199.432 31.7969L200.398 32.0556L200.401 32.0436L199.432 31.7969ZM198.873 34.666L197.881 34.5441L197.88 34.5518L197.879 34.5595L198.873 34.666ZM198.695 37.3828L197.696 37.3632L197.695 37.373V37.3828H198.695ZM198.695 41.6484H197.695V41.6582L197.696 41.668L198.695 41.6484ZM198.873 44.3906L197.879 44.4953L197.879 44.5039L197.881 44.5125L198.873 44.3906ZM199.432 47.2344L200.398 46.9756L200.396 46.9713L199.432 47.2344ZM201.945 52.2109L202.68 51.5326L202.671 51.5232L201.945 52.2109ZM204.104 53.7852L204.528 52.8799L204.104 53.7852ZM209.893 53.7852L209.475 52.8766L209.468 52.8799L209.893 53.7852ZM212.076 52.2109L212.811 52.8892L212.812 52.8884L212.076 52.2109ZM213.549 49.9766L212.644 49.5507L212.64 49.5587L213.549 49.9766ZM214.539 47.2598L215.505 47.5185L215.508 47.5064L214.539 47.2598ZM215.021 44.416L214.027 44.3113L214.026 44.32L214.025 44.3286L215.021 44.416ZM215.199 41.6484L216.199 41.6677L216.199 41.6581V41.6484H215.199ZM218.846 41.6356C218.83 42.9046 218.716 44.1925 218.503 45.4998L220.477 45.8206C220.705 44.4195 220.828 43.0329 220.846 41.6613L218.846 41.6356ZM218.502 45.51C218.308 46.7867 218.001 48.0208 217.582 49.2134L219.469 49.8764C219.93 48.5638 220.267 47.2081 220.479 45.8103L218.502 45.51ZM217.582 49.2134C217.167 50.3954 216.633 51.4933 215.982 52.5094L217.666 53.5883C218.403 52.4377 219.004 51.1997 219.469 49.8764L217.582 49.2134ZM215.976 52.5188C215.352 53.5182 214.605 54.3883 213.736 55.1333L215.038 56.6518C216.064 55.7718 216.943 54.7461 217.672 53.5788L215.976 52.5188ZM213.736 55.1333C212.88 55.867 211.889 56.4531 210.753 56.8886L211.469 58.7559C212.805 58.2435 213.998 57.5432 215.038 56.6518L213.736 55.1333ZM210.76 56.8859C209.671 57.2944 208.422 57.5078 206.998 57.5078V59.5078C208.621 59.5078 210.114 59.2642 211.462 58.7586L210.76 56.8859ZM206.998 57.5078C205.575 57.5078 204.315 57.2944 203.206 56.8844L202.512 58.7602C203.875 59.2641 205.374 59.5078 206.998 59.5078V57.5078ZM203.222 56.8903C202.103 56.4552 201.118 55.8689 200.26 55.1333L198.959 56.6518C199.996 57.5412 201.178 58.2414 202.497 58.7543L203.222 56.8903ZM200.26 55.1333C199.389 54.3863 198.631 53.513 197.989 52.5094L196.304 53.5883C197.05 54.7513 197.934 55.7739 198.959 56.6518L200.26 55.1333ZM197.992 52.5153C197.339 51.4798 196.805 50.3713 196.389 49.188L194.502 49.851C194.966 51.1729 195.566 52.4173 196.301 53.5823L197.992 52.5153ZM196.385 49.1768C195.949 47.9836 195.627 46.7492 195.416 45.4724L193.443 45.7971C193.673 47.1948 194.027 48.5502 194.506 49.8623L196.385 49.1768ZM195.416 45.4724C195.204 44.1833 195.09 42.9045 195.074 41.6356L193.074 41.6613C193.092 43.033 193.215 44.4117 193.443 45.7971L195.416 45.4724ZM195.074 41.6484V37.4336H193.074V41.6484H195.074ZM195.074 37.4464C195.09 36.1732 195.197 34.8903 195.393 33.5974L193.416 33.2971C193.206 34.6787 193.092 36.0534 193.074 37.4208L195.074 37.4464ZM195.391 33.6077C195.602 32.3139 195.925 31.0716 196.359 29.8799L194.48 29.1943C194.001 30.5078 193.647 31.8723 193.417 33.2869L195.391 33.6077ZM196.363 29.8686C196.78 28.6827 197.307 27.5817 197.944 26.5632L196.248 25.5032C195.53 26.6514 194.94 27.8863 194.476 29.2056L196.363 29.8686ZM197.942 26.5667C198.586 25.5454 199.344 24.655 200.217 23.8912L198.9 22.3861C197.877 23.2812 196.994 24.3205 196.25 25.4997L197.942 26.5667ZM200.209 23.8979C201.065 23.1647 202.046 22.5885 203.16 22.1707L202.457 20.298C201.134 20.7944 199.948 21.4876 198.908 22.3794L200.209 23.8979ZM203.167 22.168C204.272 21.744 205.528 21.5234 206.947 21.5234V19.5234C205.32 19.5234 203.816 19.7768 202.45 20.3007L203.167 22.168ZM206.947 21.5234C208.367 21.5234 209.622 21.744 210.728 22.168L211.444 20.3007C210.078 19.7768 208.575 19.5234 206.947 19.5234V21.5234ZM210.739 22.1723C211.87 22.5905 212.857 23.1667 213.711 23.8979L215.012 22.3794C213.969 21.4857 212.773 20.7923 211.433 20.2965L210.739 22.1723ZM213.711 23.8979C214.577 24.6406 215.323 25.5169 215.947 26.5319L217.65 25.4837C216.921 24.2982 216.041 23.2617 215.012 22.3794L213.711 23.8979ZM215.957 26.5472C216.61 27.5666 217.153 28.6683 217.586 29.8545L219.465 29.169C218.984 27.8499 218.376 26.6157 217.641 25.4684L215.957 26.5472ZM217.582 29.8432C218 31.0345 218.307 32.2764 218.501 33.5702L220.479 33.2735C220.267 31.859 219.93 30.4942 219.469 29.1802L217.582 29.8432ZM218.503 33.5823C218.716 34.8895 218.83 36.1774 218.846 37.4464L220.846 37.4208C220.828 36.0491 220.705 34.6626 220.477 33.2615L218.503 33.5823ZM218.846 37.4336V41.6484H220.846V37.4336H218.846ZM216.199 37.3636C216.182 36.4519 216.12 35.5087 216.016 34.5341L214.027 34.7472C214.126 35.6684 214.183 36.5533 214.199 37.402L216.199 37.3636ZM216.016 34.5359C215.91 33.5243 215.732 32.5219 215.484 31.5289L213.544 32.014C213.769 32.9169 213.93 33.8273 214.027 34.7453L216.016 34.5359ZM215.478 31.5084C215.209 30.5207 214.858 29.5751 214.425 28.6727L212.622 29.5382C213.001 30.3285 213.31 31.1603 213.549 32.0346L215.478 31.5084ZM214.428 28.6797C213.981 27.7298 213.418 26.8817 212.735 26.142L211.265 27.4986C211.801 28.0792 212.253 28.7546 212.619 29.5313L214.428 28.6797ZM212.726 26.1326C212.024 25.3921 211.197 24.809 210.251 24.3846L209.432 26.2091C210.146 26.5295 210.757 26.9621 211.274 27.5081L212.726 26.1326ZM210.267 24.3916C209.28 23.9286 208.165 23.7129 206.947 23.7129V25.7129C207.93 25.7129 208.744 25.8865 209.417 26.2021L210.267 24.3916ZM206.947 23.7129C205.744 23.7129 204.638 23.9295 203.653 24.3916L204.503 26.2021C205.177 25.8856 205.984 25.7129 206.947 25.7129V23.7129ZM203.653 24.3916C202.715 24.8322 201.892 25.421 201.194 26.158L202.646 27.5334C203.166 26.984 203.783 26.5402 204.503 26.2021L203.653 24.3916ZM201.185 26.1674C200.502 26.9071 199.939 27.7552 199.492 28.7051L201.301 29.5567C201.667 28.78 202.119 28.1046 202.655 27.524L201.185 26.1674ZM199.495 28.6981C199.059 29.6055 198.715 30.5566 198.463 31.5502L200.401 32.0436C200.622 31.1752 200.921 30.3489 201.298 29.5636L199.495 28.6981ZM198.466 31.5381C198.2 32.5306 198.005 33.5327 197.881 34.5441L199.866 34.7879C199.978 33.8697 200.156 32.959 200.398 32.0556L198.466 31.5381ZM197.879 34.5595C197.774 35.5333 197.713 36.4681 197.696 37.3632L199.695 37.4024C199.711 36.571 199.769 35.6945 199.867 34.7725L197.879 34.5595ZM197.695 37.3828V41.6484H199.695V37.3828H197.695ZM197.696 41.668C197.713 42.563 197.774 43.5056 197.879 44.4953L199.868 44.2859C199.769 43.346 199.711 42.4605 199.695 41.6288L197.696 41.668ZM197.881 44.5125C198.005 45.5247 198.2 46.5198 198.467 47.4975L200.396 46.9713C200.155 46.087 199.978 45.1862 199.866 44.2687L197.881 44.5125ZM198.466 47.4931C198.735 48.4968 199.085 49.4584 199.517 50.377L201.327 49.5254C200.946 48.7174 200.637 47.8678 200.398 46.9756L198.466 47.4931ZM199.517 50.377C199.965 51.3291 200.531 52.1725 201.219 52.8987L202.671 51.5232C202.14 50.9629 201.691 50.2998 201.327 49.5254L199.517 50.377ZM201.211 52.8892C201.909 53.6463 202.735 54.2473 203.679 54.6904L204.528 52.8799C203.814 52.5444 203.2 52.0959 202.68 51.5327L201.211 52.8892ZM203.679 54.6904C204.665 55.1534 205.78 55.3691 206.998 55.3691V53.3691C206.016 53.3691 205.201 53.1956 204.528 52.8799L203.679 54.6904ZM206.998 55.3691C208.216 55.3691 209.331 55.1534 210.317 54.6904L209.468 52.8799C208.795 53.1956 207.98 53.3691 206.998 53.3691V55.3691ZM210.31 54.6936C211.272 54.2513 212.109 53.6498 212.811 52.8892L211.341 51.5327C210.825 52.0924 210.206 52.5404 209.475 52.8767L210.31 54.6936ZM212.812 52.8884C213.48 52.1634 214.027 51.3296 214.457 50.3945L212.64 49.5587C212.292 50.3162 211.858 50.9721 211.341 51.5335L212.812 52.8884ZM214.454 50.4024C214.886 49.4838 215.236 48.5222 215.505 47.5185L213.573 47.001C213.334 47.8932 213.024 48.7428 212.644 49.5508L214.454 50.4024ZM215.508 47.5064C215.759 46.5227 215.928 45.5215 216.018 44.5034L214.025 44.3286C213.945 45.2402 213.794 46.1348 213.57 47.0131L215.508 47.5064ZM216.016 44.5207C216.12 43.5303 216.182 42.5791 216.199 41.6677L214.199 41.6292C214.183 42.4782 214.126 43.3721 214.027 44.3113L216.016 44.5207ZM216.199 41.6484V37.3828H214.199V41.6484H216.199ZM244.373 21.0312V20.0312H243.373V21.0312H244.373ZM249.172 21.0312H250.172V20.0312H249.172V21.0312ZM249.172 46.752L250.172 46.7718L250.172 46.7619V46.752H249.172ZM248.182 51.4746L247.265 51.0755L247.261 51.0846L248.182 51.4746ZM245.668 55.1816L244.972 54.4632L244.967 54.4689L245.668 55.1816ZM241.885 57.6445L242.256 58.573L242.262 58.5708L241.885 57.6445ZM232.439 57.7207L232.09 58.6575L232.093 58.6589L232.439 57.7207ZM228.783 55.4609L229.472 54.7362L229.466 54.7305L229.46 54.7248L228.783 55.4609ZM226.27 51.957L225.358 52.3683L225.36 52.3725L226.27 51.957ZM225.102 47.3105V46.3105H224.008L224.106 47.3993L225.102 47.3105ZM229.875 47.3105L230.874 47.2614L230.827 46.3105H229.875V47.3105ZM230.484 50.1797L229.557 50.5542L229.56 50.5618L229.563 50.5693L230.484 50.1797ZM231.982 52.4648L232.708 51.7765L232.699 51.7672L231.982 52.4648ZM234.217 53.9883L233.836 54.913L233.842 54.9155L234.217 53.9883ZM240.158 53.9121L240.577 54.8201L240.584 54.8168L240.591 54.8134L240.158 53.9121ZM242.418 52.2109L243.168 52.872L243.177 52.8617L242.418 52.2109ZM243.814 49.748L242.873 49.4117L242.869 49.4215L243.814 49.748ZM244.373 46.752L245.373 46.7842L245.373 46.7681V46.752H244.373ZM244.373 22.0312H249.172V20.0312H244.373V22.0312ZM248.172 21.0312V46.752H250.172V21.0312H248.172ZM248.172 46.7322C248.141 48.3229 247.834 49.7669 247.265 51.0755L249.099 51.8737C249.782 50.3048 250.135 48.6002 250.172 46.7718L248.172 46.7322ZM247.261 51.0846C246.701 52.4066 245.937 53.5288 244.972 54.4632L246.364 55.9001C247.531 54.7694 248.444 53.4203 249.102 51.8646L247.261 51.0846ZM244.967 54.4689C243.998 55.4221 242.849 56.1726 241.508 56.7183L242.262 58.5708C243.832 57.9316 245.205 57.0401 246.369 55.8944L244.967 54.4689ZM241.513 56.7161C240.204 57.2397 238.758 57.5078 237.162 57.5078V59.5078C238.986 59.5078 240.688 59.2004 242.256 58.573L241.513 56.7161ZM237.162 57.5078C235.537 57.5078 234.082 57.2611 232.786 56.7826L232.093 58.6589C233.64 59.2298 235.334 59.5078 237.162 59.5078V57.5078ZM232.789 56.7839C231.504 56.3038 230.402 55.6203 229.472 54.7362L228.094 56.1856C229.229 57.2651 230.565 58.0881 232.09 58.6575L232.789 56.7839ZM229.46 54.7248C228.514 53.8553 227.753 52.7984 227.179 51.5415L225.36 52.3725C226.038 53.8579 226.953 55.1369 228.106 56.1971L229.46 54.7248ZM227.181 51.5457C226.606 50.2718 226.241 48.834 226.098 47.2218L224.106 47.3993C224.267 49.2064 224.68 50.8662 225.358 52.3683L227.181 51.5457ZM225.102 48.3105H229.875V46.3105H225.102V48.3105ZM228.876 47.3597C228.932 48.494 229.156 49.5614 229.557 50.5542L231.412 49.8052C231.102 49.0375 230.92 48.1922 230.874 47.2614L228.876 47.3597ZM229.563 50.5693C229.981 51.5565 230.547 52.4245 231.266 53.1625L232.699 51.7672C232.165 51.2187 231.732 50.5632 231.405 49.79L229.563 50.5693ZM231.257 53.1531C231.983 53.9182 232.846 54.5053 233.836 54.913L234.598 53.0636C233.861 52.7603 233.235 52.3318 232.708 51.7766L231.257 53.1531ZM233.842 54.9155C234.857 55.3254 235.968 55.5215 237.162 55.5215V53.5215C236.189 53.5215 235.337 53.3621 234.591 53.061L233.842 54.9155ZM237.162 55.5215C238.402 55.5215 239.547 55.2955 240.577 54.8201L239.739 53.0041C239.009 53.3412 238.157 53.5215 237.162 53.5215V55.5215ZM240.591 54.8134C241.589 54.334 242.451 53.6865 243.168 52.872L241.668 51.5499C241.133 52.1572 240.488 52.6439 239.725 53.0109L240.591 54.8134ZM243.177 52.8617C243.873 52.0505 244.399 51.1181 244.76 50.0746L242.869 49.4215C242.587 50.24 242.182 50.9495 241.659 51.5601L243.177 52.8617ZM244.756 50.0844C245.131 49.0345 245.335 47.9329 245.373 46.7842L243.374 46.7197C243.343 47.67 243.175 48.5657 242.873 49.4117L244.756 50.0844ZM245.373 46.752V21.0312H243.373V46.752H245.373ZM278.6 40.9121V41.9121H279.6V40.9121H278.6ZM263.162 40.9121V39.9121H262.162V40.9121H263.162ZM263.162 54.0137H262.162V55.0137H263.162V54.0137ZM281.164 54.0137H282.164V53.0137H281.164V54.0137ZM281.164 58V59H282.164V58H281.164ZM258.465 58H257.465V59H258.465V58ZM258.465 21.0312V20.0312H257.465V21.0312H258.465ZM280.936 21.0312H281.936V20.0312H280.936V21.0312ZM280.936 25.043V26.043H281.936V25.043H280.936ZM263.162 25.043V24.043H262.162V25.043H263.162ZM263.162 36.9258H262.162V37.9258H263.162V36.9258ZM278.6 36.9258H279.6V35.9258H278.6V36.9258ZM278.6 39.9121H263.162V41.9121H278.6V39.9121ZM262.162 40.9121V54.0137H264.162V40.9121H262.162ZM263.162 55.0137H281.164V53.0137H263.162V55.0137ZM280.164 54.0137V58H282.164V54.0137H280.164ZM281.164 57H258.465V59H281.164V57ZM259.465 58V21.0312H257.465V58H259.465ZM258.465 22.0312H280.936V20.0312H258.465V22.0312ZM279.936 21.0312V25.043H281.936V21.0312H279.936ZM280.936 24.043H263.162V26.043H280.936V24.043ZM262.162 25.043V36.9258H264.162V25.043H262.162ZM263.162 37.9258H278.6V35.9258H263.162V37.9258ZM277.6 36.9258V40.9121H279.6V36.9258H277.6ZM314.426 25.043V26.043H315.426V25.043H314.426ZM303 25.043V24.043H302V25.043H303ZM303 58V59H304V58H303ZM298.43 58H297.43V59H298.43V58ZM298.43 25.043H299.43V24.043H298.43V25.043ZM287.004 25.043H286.004V26.043H287.004V25.043ZM287.004 21.0312V20.0312H286.004V21.0312H287.004ZM314.426 21.0312H315.426V20.0312H314.426V21.0312ZM314.426 24.043H303V26.043H314.426V24.043ZM302 25.043V58H304V25.043H302ZM303 57H298.43V59H303V57ZM299.43 58V25.043H297.43V58H299.43ZM298.43 24.043H287.004V26.043H298.43V24.043ZM288.004 25.043V21.0312H286.004V25.043H288.004ZM287.004 22.0312H314.426V20.0312H287.004V22.0312ZM313.426 21.0312V25.043H315.426V21.0312H313.426ZM339.283 45.7871L338.446 46.3334L338.45 46.3397L338.454 46.346L339.283 45.7871ZM337.303 43.8066L337.857 42.9746L337.851 42.9706L337.845 42.9666L337.303 43.8066ZM334.611 42.4863L334.266 43.4247L334.271 43.4266L334.611 42.4863ZM331.818 41.5215L331.51 42.4726L331.513 42.4737L331.818 41.5215ZM327.832 39.998L327.417 40.908L327.424 40.9112L327.431 40.9142L327.832 39.998ZM324.176 37.8145L323.564 38.6057L323.566 38.6071L324.176 37.8145ZM321.434 34.7676L320.571 35.273L320.575 35.2803L320.579 35.2875L321.434 34.7676ZM321.434 26.3379L320.564 25.8443L320.559 25.8533L321.434 26.3379ZM328.061 21.209L328.353 22.1653L328.363 22.1621L328.061 21.209ZM337.049 21.3359L336.707 22.2758L336.717 22.2791L337.049 21.3359ZM344.869 31.6699V32.6699H345.889L345.869 31.6499L344.869 31.6699ZM340.045 31.6699L339.053 31.7959L339.164 32.6699H340.045V31.6699ZM339.258 28.7754L338.343 29.1799L338.346 29.1865L339.258 28.7754ZM335.398 25.0684L335.024 25.9956L335.035 25.9999L335.045 26.004L335.398 25.0684ZM329.762 24.916L329.48 23.9566L329.474 23.9582L329.762 24.916ZM327.502 26.0586L328.102 26.8587L328.112 26.8512L327.502 26.0586ZM325.877 27.9375L324.999 27.4586L324.995 27.4664L324.991 27.4742L325.877 27.9375ZM325.293 30.5273H324.293V30.5353L324.293 30.5432L325.293 30.5273ZM326.105 33.2441L325.288 33.8201L325.294 33.8289L326.105 33.2441ZM328.111 35.0977L328.649 34.2547L328.641 34.2497L328.111 35.0977ZM330.701 36.3672L330.359 37.307L330.365 37.3089L330.701 36.3672ZM333.367 37.2559L333.662 36.3003L333.66 36.2997L333.367 37.2559ZM337.48 38.8047L337.074 39.7185L337.084 39.7227L337.48 38.8047ZM341.238 41.0898L340.604 41.8628L340.615 41.8721L340.627 41.8811L341.238 41.0898ZM343.93 44.2637L343.05 44.7392L343.055 44.7483L343.93 44.2637ZM343.854 52.9473L342.997 52.431L342.992 52.4397L343.854 52.9473ZM341.01 56.0195L340.439 55.1986L340.431 55.2042L341.01 56.0195ZM337.049 57.8984L337.315 58.8625L337.325 58.8595L337.049 57.8984ZM327.426 57.6191L327.095 58.563L327.098 58.564L327.426 57.6191ZM323.008 55.0547L323.673 54.3084L323.667 54.3031L323.661 54.2979L323.008 55.0547ZM320.342 51.6777L319.445 52.1203L319.449 52.1273L319.452 52.1343L320.342 51.6777ZM319.301 47.3359V46.3359H318.268L318.301 47.3678L319.301 47.3359ZM324.1 47.3359L325.091 47.2047L324.976 46.3359H324.1V47.3359ZM325.039 50.4082L324.155 50.8753L324.159 50.8823L325.039 50.4082ZM326.867 52.6426L327.511 51.8771L327.5 51.8686L326.867 52.6426ZM329.432 54.0645L329.115 55.0131L329.125 55.0164L329.135 55.0195L329.432 54.0645ZM335.322 54.1914L335.565 55.1616L335.578 55.1582L335.322 54.1914ZM337.709 53.0996L337.145 52.2738L337.138 52.2784L337.132 52.2832L337.709 53.0996ZM339.41 51.2969L340.266 51.8143L340.271 51.8056L339.41 51.2969ZM341.07 48.6562C341.07 47.365 340.77 46.2037 340.112 45.2283L338.454 46.346C338.846 46.9278 339.07 47.6793 339.07 48.6562H341.07ZM340.121 45.2408C339.535 44.3431 338.777 43.5875 337.857 42.9746L336.748 44.6387C337.454 45.1091 338.015 45.6739 338.446 46.3334L340.121 45.2408ZM337.845 42.9666C336.965 42.3978 335.999 41.9252 334.952 41.5461L334.271 43.4266C335.187 43.7584 336.016 44.166 336.76 44.6467L337.845 42.9666ZM334.957 41.548C333.98 41.188 333.036 40.8617 332.124 40.5693L331.513 42.4737C332.395 42.7568 333.313 43.0737 334.266 43.4247L334.957 41.548ZM332.127 40.5704C330.857 40.1581 329.559 39.6622 328.233 39.0819L327.431 40.9142C328.813 41.5188 330.173 42.0385 331.51 42.4726L332.127 40.5704ZM328.247 39.0881C326.975 38.5084 325.822 37.8191 324.785 37.0218L323.566 38.6071C324.73 39.5025 326.015 40.2689 327.417 40.908L328.247 39.0881ZM324.787 37.0232C323.764 36.2322 322.933 35.3077 322.288 34.2476L320.579 35.2875C321.356 36.5634 322.354 37.6701 323.564 38.6057L324.787 37.0232ZM322.296 34.2622C321.706 33.2535 321.393 32.0456 321.393 30.6035H319.393C319.393 32.3438 319.773 33.9119 320.571 35.273L322.296 34.2622ZM321.393 30.6035C321.393 29.1627 321.705 27.9109 322.308 26.8225L320.559 25.8533C319.774 27.2701 319.393 28.862 319.393 30.6035H321.393ZM322.303 26.8315C322.948 25.6951 323.781 24.7403 324.807 23.9598L323.595 22.3684C322.353 23.3144 321.341 24.4755 320.564 25.8443L322.303 26.8315ZM324.807 23.9598C325.842 23.172 327.021 22.5727 328.353 22.1652L327.768 20.2527C326.223 20.7255 324.829 21.4295 323.595 22.3684L324.807 23.9598ZM328.363 22.1621C329.708 21.735 331.053 21.5234 332.402 21.5234V19.5234C330.84 19.5234 329.291 19.7689 327.758 20.2559L328.363 22.1621ZM332.402 21.5234C333.896 21.5234 335.329 21.7745 336.707 22.2757L337.391 20.3961C335.79 19.8141 334.125 19.5234 332.402 19.5234V21.5234ZM336.717 22.2791C338.099 22.7661 339.313 23.4528 340.367 24.3367L341.652 22.8039C340.405 21.7581 338.978 20.9553 337.381 20.3927L336.717 22.2791ZM340.367 24.3367C341.412 25.2126 342.251 26.2726 342.885 27.5258L344.67 26.6226C343.916 25.1336 342.909 23.8578 341.652 22.8039L340.367 24.3367ZM342.885 27.5258C343.505 28.7498 343.838 30.1319 343.869 31.6899L345.869 31.6499C345.832 29.8226 345.438 28.1408 344.67 26.6226L342.885 27.5258ZM344.869 30.6699H340.045V32.6699H344.869V30.6699ZM341.037 31.5439C340.891 30.3921 340.605 29.3294 340.169 28.3643L338.346 29.1865C338.69 29.948 338.928 30.8149 339.053 31.7959L341.037 31.5439ZM340.172 28.3709C339.735 27.3823 339.148 26.5209 338.407 25.7992L337.011 27.2321C337.557 27.763 338.002 28.4081 338.343 29.1799L340.172 28.3709ZM338.407 25.7992C337.658 25.0705 336.768 24.5165 335.751 24.1328L335.045 26.004C335.823 26.2973 336.473 26.7082 337.011 27.2321L338.407 25.7992ZM335.773 24.1411C334.755 23.7299 333.626 23.5352 332.402 23.5352V25.5352C333.414 25.5352 334.282 25.6959 335.024 25.9956L335.773 24.1411ZM332.402 23.5352C331.409 23.5352 330.434 23.6759 329.48 23.9567L330.044 25.8754C330.816 25.6483 331.601 25.5352 332.402 25.5352V23.5352ZM329.474 23.9582C328.519 24.2449 327.655 24.6795 326.892 25.266L328.112 26.8512C328.67 26.4221 329.312 26.0949 330.049 25.8738L329.474 23.9582ZM326.902 25.2586C326.11 25.8525 325.474 26.5885 324.999 27.4586L326.755 28.4164C327.093 27.797 327.54 27.2803 328.102 26.8586L326.902 25.2586ZM324.991 27.4742C324.515 28.3843 324.293 29.4114 324.293 30.5273H326.293C326.293 29.6797 326.46 28.9803 326.763 28.4008L324.991 27.4742ZM324.293 30.5432C324.313 31.7753 324.629 32.8846 325.288 33.8201L326.923 32.6682C326.533 32.1141 326.307 31.4122 326.293 30.5115L324.293 30.5432ZM325.294 33.8289C325.9 34.6689 326.666 35.3739 327.581 35.9457L328.641 34.2497C327.931 33.8058 327.361 33.2751 326.917 32.6593L325.294 33.8289ZM327.573 35.9406C328.434 36.4897 329.363 36.9447 330.359 37.307L331.043 35.4274C330.177 35.1126 329.38 34.7213 328.649 34.2547L327.573 35.9406ZM330.365 37.3089C331.325 37.6518 332.228 37.953 333.074 38.2121L333.66 36.2997C332.847 36.0509 331.973 35.7596 331.038 35.4254L330.365 37.3089ZM333.072 38.2114C334.404 38.6224 335.738 39.1245 337.074 39.7185L337.887 37.8909C336.481 37.2661 335.073 36.7357 333.662 36.3003L333.072 38.2114ZM337.084 39.7227C338.371 40.2788 339.543 40.9921 340.604 41.8628L341.873 40.3169C340.665 39.3257 339.332 38.5155 337.877 37.8867L337.084 39.7227ZM340.627 41.8811C341.633 42.6583 342.439 43.6083 343.05 44.7392L344.809 43.7882C344.066 42.4138 343.078 41.248 341.85 40.2986L340.627 41.8811ZM343.055 44.7483C343.655 45.8321 343.971 47.108 343.971 48.6055H345.971C345.971 46.8191 345.592 45.2005 344.804 43.779L343.055 44.7483ZM343.971 48.6055C343.971 50.1101 343.635 51.3733 342.997 52.431L344.71 53.4635C345.562 52.0498 345.971 50.4185 345.971 48.6055H343.971ZM342.992 52.4397C342.337 53.5523 341.487 54.4691 340.439 55.1986L341.581 56.8404C342.868 55.945 343.915 54.8136 344.715 53.4548L342.992 52.4397ZM340.431 55.2042C339.361 55.9639 338.144 56.5431 336.773 56.9373L337.325 58.8595C338.899 58.4074 340.323 57.734 341.589 56.8349L340.431 55.2042ZM336.783 56.9344C335.394 57.3177 334.01 57.5078 332.631 57.5078V59.5078C334.197 59.5078 335.759 59.2917 337.315 58.8624L336.783 56.9344ZM332.631 57.5078C330.985 57.5078 329.361 57.2312 327.753 56.6743L327.098 58.564C328.91 59.1919 330.756 59.5078 332.631 59.5078V57.5078ZM327.756 56.6753C326.178 56.1231 324.822 55.3326 323.673 54.3084L322.342 55.801C323.699 57.0112 325.288 57.9303 327.095 58.563L327.756 56.6753ZM323.661 54.2979C322.639 53.4152 321.832 52.3909 321.231 51.2212L319.452 52.1343C320.172 53.5375 321.142 54.7645 322.354 55.8115L323.661 54.2979ZM321.239 51.2352C320.664 50.0716 320.347 48.7663 320.3 47.304L318.301 47.3678C318.356 49.0879 318.733 50.6771 319.445 52.1203L321.239 51.2352ZM319.301 48.3359H324.1V46.3359H319.301V48.3359ZM323.108 47.4671C323.274 48.7189 323.618 49.8595 324.155 50.8753L325.923 49.9411C325.512 49.1626 325.23 48.2551 325.091 47.2047L323.108 47.4671ZM324.159 50.8823C324.692 51.8731 325.384 52.7211 326.234 53.4165L327.5 51.8686C326.861 51.3453 326.334 50.7037 325.92 49.9341L324.159 50.8823ZM326.224 53.4079C327.069 54.1191 328.036 54.6534 329.115 55.0131L329.748 53.1158C328.897 52.8322 328.155 52.4187 327.511 51.8772L326.224 53.4079ZM329.135 55.0195C330.224 55.3573 331.391 55.5215 332.631 55.5215V53.5215C331.568 53.5215 330.603 53.381 329.728 53.1094L329.135 55.0195ZM332.631 55.5215C333.626 55.5215 334.605 55.4016 335.565 55.1615L335.08 53.2213C334.279 53.4213 333.464 53.5215 332.631 53.5215V55.5215ZM335.578 55.1582C336.58 54.8936 337.486 54.4819 338.286 53.916L337.132 52.2832C336.544 52.6991 335.859 53.0153 335.067 53.2246L335.578 55.1582ZM338.273 53.9254C339.087 53.3697 339.753 52.6631 340.266 51.8143L338.554 50.7795C338.187 51.3864 337.719 51.8816 337.145 52.2738L338.273 53.9254ZM340.271 51.8056C340.817 50.8817 341.07 49.8194 341.07 48.6562H339.07C339.07 49.5244 338.884 50.2224 338.549 50.7881L340.271 51.8056ZM373.383 53.0234L372.975 53.9364L374.383 54.5657V53.0234H373.383ZM351.852 43.4004H350.852V44.0488L351.444 44.3134L351.852 43.4004ZM351.852 39.6934L351.444 38.78L350.852 39.0443V39.6934H351.852ZM373.383 30.0957H374.383V28.5551L372.976 29.1823L373.383 30.0957ZM373.383 35.0723L373.748 36.0032L374.383 35.7543V35.0723H373.383ZM357.844 41.166L358.149 42.1182L358.179 42.1086L358.209 42.097L357.844 41.166ZM356.498 41.5977L356.193 40.6454L353.309 41.5705L356.176 42.5445L356.498 41.5977ZM357.844 42.0547L358.204 41.1217L358.185 41.1143L358.165 41.1078L357.844 42.0547ZM373.383 48.0469H374.383V47.3607L373.743 47.1138L373.383 48.0469ZM373.791 52.1105L352.26 42.4874L351.444 44.3134L372.975 53.9364L373.791 52.1105ZM352.852 43.4004V39.6934H350.852V43.4004H352.852ZM352.259 40.6067L373.79 31.0091L372.976 29.1823L351.444 38.78L352.259 40.6067ZM372.383 30.0957V35.0723H374.383V30.0957H372.383ZM373.018 34.1413L357.479 40.235L358.209 42.097L373.748 36.0032L373.018 34.1413ZM357.538 40.2138L356.193 40.6454L356.803 42.5499L358.149 42.1182L357.538 40.2138ZM356.176 42.5445L357.522 43.0016L358.165 41.1078L356.82 40.6508L356.176 42.5445ZM357.484 42.9877L373.023 48.9799L373.743 47.1138L358.204 41.1217L357.484 42.9877ZM372.383 48.0469V53.0234H374.383V48.0469H372.383ZM389.379 61.1738V62.1738H390.066L390.312 61.5323L389.379 61.1738ZM385.164 61.1738L384.231 60.8149L383.708 62.1738H385.164V61.1738ZM400.602 21.0312V20.0312H399.915L399.668 20.6723L400.602 21.0312ZM404.791 21.0312L405.725 21.3897L406.246 20.0312H404.791V21.0312ZM389.379 60.1738H385.164V62.1738H389.379V60.1738ZM386.097 61.5328L401.535 21.3902L399.668 20.6723L384.231 60.8149L386.097 61.5328ZM400.602 22.0312H404.791V20.0312H400.602V22.0312ZM403.857 20.6728L388.445 60.8154L390.312 61.5323L405.725 21.3897L403.857 20.6728ZM419.111 34.6152H418.111V37.918L419.943 35.1699L419.111 34.6152ZM420.355 33.0918L421.063 33.7989L421.069 33.7925L421.075 33.7859L420.355 33.0918ZM421.803 31.8477L422.376 32.6669L422.384 32.6614L422.392 32.6557L421.803 31.8477ZM424.469 30.502L424.172 29.5469L424.168 29.5484L424.469 30.502ZM427.592 30.0195V29.0195H427.584L427.576 29.0196L427.592 30.0195ZM431.502 30.6543L431.161 31.5945L431.169 31.5974L431.178 31.6002L431.502 30.6543ZM434.523 32.584L433.796 33.2698L434.523 32.584ZM436.428 35.9355L435.477 36.2446L435.479 36.2518L435.481 36.259L436.428 35.9355ZM437.113 58V59H438.113V58H437.113ZM432.416 58H431.416V59H432.416V58ZM432.035 37.8145L431.079 38.1072L431.081 38.1127L432.035 37.8145ZM430.918 35.7578L430.169 36.4209L430.177 36.4293L430.918 35.7578ZM428.938 34.4375L428.58 35.3714L428.589 35.3747L428.597 35.3779L428.938 34.4375ZM426.195 34.0059V35.0059H426.204L426.212 35.0057L426.195 34.0059ZM421.676 35.377L422.231 36.2091L422.24 36.2023L421.676 35.377ZM420.254 36.5703L419.534 35.8767L419.533 35.8772L420.254 36.5703ZM419.111 38.043L418.263 37.513L418.111 37.7562V38.043H419.111ZM419.111 58V59H420.111V58H419.111ZM414.414 58H413.414V59H414.414V58ZM414.414 19V18H413.414V19H414.414ZM419.111 19H420.111V18H419.111V19ZM419.943 35.1699C420.281 34.664 420.654 34.2076 421.063 33.7989L419.648 32.3847C419.143 32.89 418.687 33.4493 418.279 34.0605L419.943 35.1699ZM421.075 33.7859C421.49 33.3554 421.924 32.9833 422.376 32.6669L421.229 31.0284C420.666 31.423 420.135 31.8802 419.636 32.3977L421.075 33.7859ZM422.392 32.6557C423.116 32.1274 423.908 31.7278 424.77 31.4555L424.168 29.5484C423.1 29.8855 422.114 30.383 421.214 31.0396L422.392 32.6557ZM424.765 31.457C425.65 31.1825 426.596 31.035 427.607 31.0194L427.576 29.0196C426.388 29.0379 425.251 29.212 424.172 29.5469L424.765 31.457ZM427.592 31.0195C428.932 31.0195 430.118 31.2166 431.161 31.5945L431.843 29.7141C430.55 29.2456 429.129 29.0195 427.592 29.0195V31.0195ZM431.178 31.6002C432.215 31.9558 433.082 32.5121 433.796 33.2698L435.251 31.8982C434.306 30.8955 433.159 30.1653 431.826 29.7084L431.178 31.6002ZM433.796 33.2698C434.507 34.025 435.074 35.0063 435.477 36.2446L437.379 35.6265C436.901 34.1565 436.198 32.9034 435.251 31.8982L433.796 33.2698ZM435.481 36.259C435.894 37.4658 436.113 38.9422 436.113 40.709H438.113C438.113 38.7856 437.876 37.0798 437.374 35.6121L435.481 36.259ZM436.113 40.709V58H438.113V40.709H436.113ZM437.113 57H432.416V59H437.113V57ZM433.416 58V40.6582H431.416V58H433.416ZM433.416 40.6582C433.416 39.4999 433.281 38.4474 432.99 37.5162L431.081 38.1127C431.297 38.8065 431.416 39.6499 431.416 40.6582H433.416ZM432.991 37.5217C432.702 36.5777 432.265 35.7553 431.659 35.0863L430.177 36.4293C430.552 36.8436 430.86 37.3924 431.079 38.1072L432.991 37.5217ZM431.667 35.0948C431.023 34.3686 430.219 33.8377 429.278 33.4971L428.597 35.3779C429.247 35.6128 429.763 35.9621 430.169 36.4208L431.667 35.0948ZM429.295 33.5036C428.358 33.1447 427.313 32.9874 426.179 33.006L426.212 35.0057C427.143 34.9905 427.926 35.1209 428.58 35.3714L429.295 33.5036ZM426.195 33.0059C425.254 33.0059 424.35 33.1378 423.486 33.4065L424.08 35.3162C424.74 35.1109 425.444 35.0059 426.195 35.0059V33.0059ZM423.486 33.4065C422.632 33.6724 421.839 34.0539 421.111 34.5516L422.24 36.2023C422.8 35.8198 423.411 35.5243 424.08 35.3162L423.486 33.4065ZM421.121 34.5449C420.551 34.925 420.022 35.3697 419.534 35.8767L420.974 37.264C421.366 36.8568 421.785 36.506 422.23 36.209L421.121 34.5449ZM419.533 35.8772C419.06 36.3694 418.637 36.9154 418.263 37.513L419.959 38.573C420.263 38.0872 420.602 37.6515 420.975 37.2634L419.533 35.8772ZM418.111 38.043V58H420.111V38.043H418.111ZM419.111 57H414.414V59H419.111V57ZM415.414 58V19H413.414V58H415.414ZM414.414 20H419.111V18H414.414V20ZM418.111 19V34.6152H420.111V19H418.111ZM460.879 58V59H461.879V58H460.879ZM456.182 58H455.182V59H456.182V58ZM456.182 27.0234H457.182V25.5729L455.826 26.0888L456.182 27.0234ZM446.508 30.7051H445.508V32.1556L446.864 31.6397L446.508 30.7051ZM446.508 26.4141L446.149 25.4808L445.508 25.7274V26.4141H446.508ZM460.498 21.0312V20.0312H460.312L460.139 20.0979L460.498 21.0312ZM460.879 21.0312H461.879V20.0312H460.879V21.0312ZM460.879 57H456.182V59H460.879V57ZM457.182 58V27.0234H455.182V58H457.182ZM455.826 26.0888L446.152 29.7705L446.864 31.6397L456.537 27.958L455.826 26.0888ZM447.508 30.7051V26.4141H445.508V30.7051H447.508ZM446.867 27.3474L460.857 21.9646L460.139 20.0979L446.149 25.4808L446.867 27.3474ZM460.498 22.0312H460.879V20.0312H460.498V22.0312ZM459.879 21.0312V58H461.879V21.0312H459.879ZM476.977 52.998H475.977V54.5155L477.371 53.917L476.977 52.998ZM476.977 48.123L476.624 47.1874L475.977 47.4314V48.123H476.977ZM493.404 41.9277L493.132 40.9656L493.091 40.9771L493.051 40.9921L493.404 41.9277ZM494.928 41.4961L495.2 42.4582L498.408 41.5493L495.23 40.5428L494.928 41.4961ZM493.404 41.0137L493.057 41.9512L493.079 41.9597L493.102 41.967L493.404 41.0137ZM476.977 34.9199H475.977V35.6156L476.629 35.8575L476.977 34.9199ZM476.977 30.0703L477.37 29.151L475.977 28.5544V30.0703H476.977ZM499.396 39.668H500.396V39.0083L499.79 38.7487L499.396 39.668ZM499.396 43.375L499.791 44.2939L500.396 44.034V43.375H499.396ZM477.977 52.998V48.123H475.977V52.998H477.977ZM477.329 49.0587L493.757 42.8634L493.051 40.9921L476.624 47.1874L477.329 49.0587ZM493.677 42.8899L495.2 42.4582L494.655 40.534L493.132 40.9656L493.677 42.8899ZM495.23 40.5428L493.706 40.0603L493.102 41.967L494.626 42.4494L495.23 40.5428ZM493.752 40.0761L477.324 33.9823L476.629 35.8575L493.057 41.9512L493.752 40.0761ZM477.977 34.9199V30.0703H475.977V34.9199H477.977ZM476.583 30.9896L499.003 40.5873L499.79 38.7487L477.37 29.151L476.583 30.9896ZM498.396 39.668V43.375H500.396V39.668H498.396ZM499.002 42.4561L476.582 52.0791L477.371 53.917L499.791 44.2939L499.002 42.4561Z" fill="#0CF25D" mask="url(#path-2-outside-1_187_103)"/>
</svg>