<svg width="505" height="72" viewBox="0 0 505 72" fill="none" xmlns="http://www.w3.org/2000/svg">
<path d="M134.547 40.1719V55H129.85V18.0312H141.834C143.493 18.0651 145.059 18.3275 146.531 18.8184C148.021 19.3092 149.324 20.0202 150.441 20.9512C151.559 21.8822 152.439 23.0332 153.082 24.4043C153.742 25.7754 154.072 27.3496 154.072 29.127C154.072 30.9043 153.742 32.4785 153.082 33.8496C152.439 35.2038 151.559 36.3464 150.441 37.2773C149.324 38.2083 148.021 38.9193 146.531 39.4102C145.059 39.901 143.493 40.1549 141.834 40.1719H134.547ZM134.547 36.3125H141.834C142.917 36.2956 143.916 36.1263 144.83 35.8047C145.744 35.4661 146.54 34.9922 147.217 34.3828C147.894 33.7734 148.419 33.0371 148.791 32.1738C149.18 31.2936 149.375 30.2949 149.375 29.1777C149.375 28.0605 149.18 27.0534 148.791 26.1562C148.419 25.2591 147.902 24.4974 147.242 23.8711C146.565 23.2448 145.761 22.7624 144.83 22.4238C143.916 22.0853 142.917 21.9076 141.834 21.8906H134.547V36.3125ZM172.887 39.918H165.498V55H160.826V18.0312H171.668C173.395 18.0651 175.02 18.3105 176.543 18.7676C178.066 19.2246 179.404 19.9102 180.555 20.8242C181.689 21.7383 182.577 22.8893 183.221 24.2773C183.881 25.6484 184.211 27.265 184.211 29.127C184.211 30.3288 184.033 31.429 183.678 32.4277C183.339 33.4264 182.865 34.332 182.256 35.1445C181.646 35.957 180.919 36.6764 180.072 37.3027C179.226 37.929 178.295 38.4622 177.279 38.9023L185.125 54.6953L185.1 55H180.148L172.887 39.918ZM165.498 36.0586H171.795C172.844 36.0417 173.835 35.8809 174.766 35.5762C175.697 35.2546 176.518 34.7975 177.229 34.2051C177.923 33.6126 178.473 32.8932 178.879 32.0469C179.285 31.1836 179.488 30.1934 179.488 29.0762C179.488 27.8913 179.294 26.8587 178.904 25.9785C178.515 25.0814 177.973 24.3281 177.279 23.7188C176.585 23.1263 175.756 22.6777 174.791 22.373C173.843 22.0684 172.802 21.9076 171.668 21.8906H165.498V36.0586ZM215.924 38.6484C215.907 39.9688 215.788 41.306 215.568 42.6602C215.365 43.9974 215.044 45.2923 214.604 46.5449C214.163 47.7975 213.596 48.9655 212.902 50.0488C212.225 51.1322 211.413 52.0801 210.465 52.8926C209.517 53.7051 208.425 54.3483 207.189 54.8223C205.971 55.2793 204.6 55.5078 203.076 55.5078C201.553 55.5078 200.173 55.2793 198.938 54.8223C197.719 54.3483 196.635 53.7051 195.688 52.8926C194.74 52.0801 193.919 51.1322 193.225 50.0488C192.531 48.9486 191.964 47.7721 191.523 46.5195C191.066 45.2669 190.728 43.972 190.508 42.6348C190.288 41.2975 190.169 39.9688 190.152 38.6484V34.4336C190.169 33.1133 190.279 31.7845 190.482 30.4473C190.702 29.0931 191.041 27.7897 191.498 26.5371C191.938 25.2845 192.497 24.1165 193.174 23.0332C193.868 21.9329 194.689 20.9681 195.637 20.1387C196.585 19.3262 197.668 18.6914 198.887 18.2344C200.122 17.7604 201.502 17.5234 203.025 17.5234C204.549 17.5234 205.928 17.7604 207.164 18.2344C208.4 18.6914 209.492 19.3262 210.439 20.1387C211.387 20.9512 212.2 21.9076 212.877 23.0078C213.571 24.0911 214.146 25.2591 214.604 26.5117C215.044 27.7643 215.365 29.0677 215.568 30.4219C215.788 31.776 215.907 33.1133 215.924 34.4336V38.6484ZM211.277 34.3828C211.26 33.5026 211.201 32.5885 211.1 31.6406C210.998 30.6758 210.829 29.7194 210.592 28.7715C210.338 27.8405 210.008 26.9518 209.602 26.1055C209.195 25.2422 208.688 24.4805 208.078 23.8203C207.469 23.1771 206.749 22.6693 205.92 22.2969C205.09 21.9076 204.126 21.7129 203.025 21.7129C201.942 21.7129 200.986 21.9076 200.156 22.2969C199.327 22.6862 198.607 23.2025 197.998 23.8457C197.389 24.5059 196.881 25.2676 196.475 26.1309C196.068 26.9772 195.747 27.8659 195.51 28.7969C195.256 29.7448 195.07 30.7012 194.951 31.666C194.85 32.6139 194.79 33.5195 194.773 34.3828V38.6484C194.79 39.5117 194.85 40.4258 194.951 41.3906C195.07 42.3555 195.256 43.3034 195.51 44.2344C195.764 45.1823 196.094 46.0879 196.5 46.9512C196.906 47.8145 197.414 48.5677 198.023 49.2109C198.633 49.8711 199.352 50.3958 200.182 50.7852C201.011 51.1745 201.976 51.3691 203.076 51.3691C204.176 51.3691 205.141 51.1745 205.971 50.7852C206.817 50.3958 207.545 49.8711 208.154 49.2109C208.747 48.5677 209.238 47.8229 209.627 46.9766C210.033 46.1133 210.363 45.2077 210.617 44.2598C210.854 43.3288 211.015 42.3809 211.1 41.416C211.201 40.4512 211.26 39.5286 211.277 38.6484V34.3828ZM240.451 18.0312H245.25V43.752C245.216 45.4616 244.886 47.0358 244.26 48.4746C243.65 49.9134 242.812 51.1491 241.746 52.1816C240.68 53.2311 239.419 54.0521 237.963 54.6445C236.524 55.2201 234.95 55.5078 233.24 55.5078C231.514 55.5078 229.939 55.2454 228.518 54.7207C227.113 54.196 225.894 53.4427 224.861 52.4609C223.812 51.4961 222.974 50.3281 222.348 48.957C221.721 47.569 221.332 46.0202 221.18 44.3105H225.953C226.004 45.3431 226.207 46.2995 226.562 47.1797C226.935 48.0599 227.434 48.8216 228.061 49.4648C228.687 50.125 229.432 50.6328 230.295 50.9883C231.175 51.3438 232.157 51.5215 233.24 51.5215C234.357 51.5215 235.356 51.3184 236.236 50.9121C237.117 50.4889 237.87 49.9219 238.496 49.2109C239.105 48.5 239.571 47.679 239.893 46.748C240.231 45.8001 240.417 44.8014 240.451 43.752V18.0312ZM274.678 37.9121H259.24V51.0137H277.242V55H254.543V18.0312H277.014V22.043H259.24V33.9258H274.678V37.9121ZM310.504 22.043H299.078V55H294.508V22.043H283.082V18.0312H310.504V22.043ZM336.148 45.6562C336.148 44.5221 335.886 43.5658 335.361 42.7871C334.854 42.0085 334.193 41.3483 333.381 40.8066C332.568 40.2819 331.671 39.8418 330.689 39.4863C329.725 39.1309 328.794 38.8092 327.896 38.5215C326.593 38.0983 325.264 37.5905 323.91 36.998C322.573 36.3887 321.354 35.6608 320.254 34.8145C319.137 33.9512 318.223 32.9355 317.512 31.7676C316.818 30.5827 316.471 29.1947 316.471 27.6035C316.471 26.0124 316.818 24.5905 317.512 23.3379C318.223 22.0853 319.145 21.0273 320.279 20.1641C321.413 19.3008 322.7 18.6491 324.139 18.209C325.577 17.752 327.025 17.5234 328.48 17.5234C330.089 17.5234 331.637 17.7943 333.127 18.3359C334.617 18.8607 335.937 19.6055 337.088 20.5703C338.239 21.5352 339.161 22.7031 339.855 24.0742C340.549 25.4453 340.913 26.9772 340.947 28.6699H336.123C335.988 27.6035 335.725 26.6387 335.336 25.7754C334.947 24.8952 334.43 24.1419 333.787 23.5156C333.144 22.8893 332.374 22.4069 331.477 22.0684C330.596 21.7129 329.598 21.5352 328.48 21.5352C327.583 21.5352 326.703 21.6621 325.84 21.916C324.993 22.1699 324.24 22.5508 323.58 23.0586C322.903 23.5664 322.361 24.1927 321.955 24.9375C321.566 25.6823 321.371 26.5456 321.371 27.5273C321.388 28.5938 321.659 29.4993 322.184 30.2441C322.708 30.972 323.377 31.5898 324.189 32.0977C324.985 32.6055 325.848 33.0286 326.779 33.3672C327.727 33.7057 328.616 34.002 329.445 34.2559C330.816 34.679 332.188 35.1953 333.559 35.8047C334.93 36.3971 336.182 37.1589 337.316 38.0898C338.434 38.9531 339.331 40.0111 340.008 41.2637C340.702 42.5163 341.049 43.9635 341.049 45.6055C341.049 47.2643 340.676 48.7116 339.932 49.9473C339.204 51.1829 338.256 52.207 337.088 53.0195C335.92 53.849 334.6 54.4753 333.127 54.8984C331.654 55.3047 330.182 55.5078 328.709 55.5078C326.949 55.5078 325.214 55.2116 323.504 54.6191C321.811 54.0267 320.339 53.1719 319.086 52.0547C317.969 51.0898 317.08 49.9642 316.42 48.6777C315.777 47.3743 315.43 45.9271 315.379 44.3359H320.178C320.33 45.487 320.643 46.5111 321.117 47.4082C321.591 48.2884 322.201 49.0332 322.945 49.6426C323.69 50.2689 324.545 50.7428 325.51 51.0645C326.492 51.3691 327.558 51.5215 328.709 51.5215C329.623 51.5215 330.52 51.4115 331.4 51.1914C332.298 50.9544 333.093 50.5905 333.787 50.0996C334.481 49.6257 335.048 49.0247 335.488 48.2969C335.928 47.5521 336.148 46.6719 336.148 45.6562Z" fill="#0CF25D"/>
<path d="M25.8477 50.0234L4.31641 40.4004V36.6934L25.8477 27.0957V32.0723L10.3086 38.166L8.96289 38.5977L10.3086 39.0547L25.8477 45.0469V50.0234ZM40.3457 31.6152C40.7181 31.0566 41.1328 30.5488 41.5898 30.0918C42.0469 29.6178 42.5293 29.2031 43.0371 28.8477C43.8496 28.2552 44.7383 27.8066 45.7031 27.502C46.6849 27.1973 47.7259 27.0365 48.8262 27.0195C50.265 27.0195 51.5684 27.2311 52.7363 27.6543C53.9212 28.0605 54.9284 28.7038 55.7578 29.584C56.5872 30.4642 57.222 31.5814 57.6621 32.9355C58.1191 34.2728 58.3477 35.8639 58.3477 37.709V55H53.6504V37.6582C53.6504 36.5749 53.5234 35.627 53.2695 34.8145C53.0156 33.985 52.6432 33.2995 52.1523 32.7578C51.6276 32.1654 50.9674 31.7253 50.1719 31.4375C49.3763 31.1328 48.4622 30.9889 47.4297 31.0059C46.5833 31.0059 45.7793 31.1243 45.0176 31.3613C44.2559 31.5983 43.5534 31.9368 42.9102 32.377C42.4023 32.7155 41.9284 33.1133 41.4883 33.5703C41.0651 34.0104 40.6842 34.5013 40.3457 35.043V55H35.6484V16H40.3457V31.6152ZM82.1133 55H77.416V24.0234L67.7422 27.7051V23.4141L81.7324 18.0312H82.1133V55ZM98.2109 49.998V45.123L114.639 38.9277L116.162 38.4961L114.639 38.0137L98.2109 31.9199V27.0703L120.631 36.668V40.375L98.2109 49.998Z" fill="#444444"/>
<path d="M369.848 50.0234L348.316 40.4004V36.6934L369.848 27.0957V32.0723L354.309 38.166L352.963 38.5977L354.309 39.0547L369.848 45.0469V50.0234ZM385.844 58.1738H381.629L397.066 18.0312H401.256L385.844 58.1738ZM415.576 31.6152C415.949 31.0566 416.363 30.5488 416.82 30.0918C417.277 29.6178 417.76 29.2031 418.268 28.8477C419.08 28.2552 419.969 27.8066 420.934 27.502C421.915 27.1973 422.956 27.0365 424.057 27.0195C425.495 27.0195 426.799 27.2311 427.967 27.6543C429.152 28.0605 430.159 28.7038 430.988 29.584C431.818 30.4642 432.452 31.5814 432.893 32.9355C433.35 34.2728 433.578 35.8639 433.578 37.709V55H428.881V37.6582C428.881 36.5749 428.754 35.627 428.5 34.8145C428.246 33.985 427.874 33.2995 427.383 32.7578C426.858 32.1654 426.198 31.7253 425.402 31.4375C424.607 31.1328 423.693 30.9889 422.66 31.0059C421.814 31.0059 421.01 31.1243 420.248 31.3613C419.486 31.5983 418.784 31.9368 418.141 32.377C417.633 32.7155 417.159 33.1133 416.719 33.5703C416.296 34.0104 415.915 34.5013 415.576 35.043V55H410.879V16H415.576V31.6152ZM457.344 55H452.646V24.0234L442.973 27.7051V23.4141L456.963 18.0312H457.344V55ZM473.441 49.998V45.123L489.869 38.9277L491.393 38.4961L489.869 38.0137L473.441 31.9199V27.0703L495.861 36.668V40.375L473.441 49.998Z" fill="#444444"/>
<mask id="path-4-outside-1_252_7" maskUnits="userSpaceOnUse" x="132" y="19" width="215" height="41" fill="black">
<rect fill="white" x="132" y="19" width="215" height="41"/>
<path d="M138.547 43.1719V58H133.85V21.0312H145.834C147.493 21.0651 149.059 21.3275 150.531 21.8184C152.021 22.3092 153.324 23.0202 154.441 23.9512C155.559 24.8822 156.439 26.0332 157.082 27.4043C157.742 28.7754 158.072 30.3496 158.072 32.127C158.072 33.9043 157.742 35.4785 157.082 36.8496C156.439 38.2038 155.559 39.3464 154.441 40.2773C153.324 41.2083 152.021 41.9193 150.531 42.4102C149.059 42.901 147.493 43.1549 145.834 43.1719H138.547ZM138.547 39.3125H145.834C146.917 39.2956 147.916 39.1263 148.83 38.8047C149.744 38.4661 150.54 37.9922 151.217 37.3828C151.894 36.7734 152.419 36.0371 152.791 35.1738C153.18 34.2936 153.375 33.2949 153.375 32.1777C153.375 31.0605 153.18 30.0534 152.791 29.1562C152.419 28.2591 151.902 27.4974 151.242 26.8711C150.565 26.2448 149.761 25.7624 148.83 25.4238C147.916 25.0853 146.917 24.9076 145.834 24.8906H138.547V39.3125ZM176.887 42.918H169.498V58H164.826V21.0312H175.668C177.395 21.0651 179.02 21.3105 180.543 21.7676C182.066 22.2246 183.404 22.9102 184.555 23.8242C185.689 24.7383 186.577 25.8893 187.221 27.2773C187.881 28.6484 188.211 30.265 188.211 32.127C188.211 33.3288 188.033 34.429 187.678 35.4277C187.339 36.4264 186.865 37.332 186.256 38.1445C185.646 38.957 184.919 39.6764 184.072 40.3027C183.226 40.929 182.295 41.4622 181.279 41.9023L189.125 57.6953L189.1 58H184.148L176.887 42.918ZM169.498 39.0586H175.795C176.844 39.0417 177.835 38.8809 178.766 38.5762C179.697 38.2546 180.518 37.7975 181.229 37.2051C181.923 36.6126 182.473 35.8932 182.879 35.0469C183.285 34.1836 183.488 33.1934 183.488 32.0762C183.488 30.8913 183.294 29.8587 182.904 28.9785C182.515 28.0814 181.973 27.3281 181.279 26.7188C180.585 26.1263 179.756 25.6777 178.791 25.373C177.843 25.0684 176.802 24.9076 175.668 24.8906H169.498V39.0586ZM219.924 41.6484C219.907 42.9688 219.788 44.306 219.568 45.6602C219.365 46.9974 219.044 48.2923 218.604 49.5449C218.163 50.7975 217.596 51.9655 216.902 53.0488C216.225 54.1322 215.413 55.0801 214.465 55.8926C213.517 56.7051 212.425 57.3483 211.189 57.8223C209.971 58.2793 208.6 58.5078 207.076 58.5078C205.553 58.5078 204.173 58.2793 202.938 57.8223C201.719 57.3483 200.635 56.7051 199.688 55.8926C198.74 55.0801 197.919 54.1322 197.225 53.0488C196.531 51.9486 195.964 50.7721 195.523 49.5195C195.066 48.2669 194.728 46.972 194.508 45.6348C194.288 44.2975 194.169 42.9688 194.152 41.6484V37.4336C194.169 36.1133 194.279 34.7845 194.482 33.4473C194.702 32.0931 195.041 30.7897 195.498 29.5371C195.938 28.2845 196.497 27.1165 197.174 26.0332C197.868 24.9329 198.689 23.9681 199.637 23.1387C200.585 22.3262 201.668 21.6914 202.887 21.2344C204.122 20.7604 205.502 20.5234 207.025 20.5234C208.549 20.5234 209.928 20.7604 211.164 21.2344C212.4 21.6914 213.492 22.3262 214.439 23.1387C215.387 23.9512 216.2 24.9076 216.877 26.0078C217.571 27.0911 218.146 28.2591 218.604 29.5117C219.044 30.7643 219.365 32.0677 219.568 33.4219C219.788 34.776 219.907 36.1133 219.924 37.4336V41.6484ZM215.277 37.3828C215.26 36.5026 215.201 35.5885 215.1 34.6406C214.998 33.6758 214.829 32.7194 214.592 31.7715C214.338 30.8405 214.008 29.9518 213.602 29.1055C213.195 28.2422 212.688 27.4805 212.078 26.8203C211.469 26.1771 210.749 25.6693 209.92 25.2969C209.09 24.9076 208.126 24.7129 207.025 24.7129C205.942 24.7129 204.986 24.9076 204.156 25.2969C203.327 25.6862 202.607 26.2025 201.998 26.8457C201.389 27.5059 200.881 28.2676 200.475 29.1309C200.068 29.9772 199.747 30.8659 199.51 31.7969C199.256 32.7448 199.07 33.7012 198.951 34.666C198.85 35.6139 198.79 36.5195 198.773 37.3828V41.6484C198.79 42.5117 198.85 43.4258 198.951 44.3906C199.07 45.3555 199.256 46.3034 199.51 47.2344C199.764 48.1823 200.094 49.0879 200.5 49.9512C200.906 50.8145 201.414 51.5677 202.023 52.2109C202.633 52.8711 203.352 53.3958 204.182 53.7852C205.011 54.1745 205.976 54.3691 207.076 54.3691C208.176 54.3691 209.141 54.1745 209.971 53.7852C210.817 53.3958 211.545 52.8711 212.154 52.2109C212.747 51.5677 213.238 50.8229 213.627 49.9766C214.033 49.1133 214.363 48.2077 214.617 47.2598C214.854 46.3288 215.015 45.3809 215.1 44.416C215.201 43.4512 215.26 42.5286 215.277 41.6484V37.3828ZM244.451 21.0312H249.25V46.752C249.216 48.4616 248.886 50.0358 248.26 51.4746C247.65 52.9134 246.812 54.1491 245.746 55.1816C244.68 56.2311 243.419 57.0521 241.963 57.6445C240.524 58.2201 238.95 58.5078 237.24 58.5078C235.514 58.5078 233.939 58.2454 232.518 57.7207C231.113 57.196 229.894 56.4427 228.861 55.4609C227.812 54.4961 226.974 53.3281 226.348 51.957C225.721 50.569 225.332 49.0202 225.18 47.3105H229.953C230.004 48.3431 230.207 49.2995 230.562 50.1797C230.935 51.0599 231.434 51.8216 232.061 52.4648C232.687 53.125 233.432 53.6328 234.295 53.9883C235.175 54.3438 236.157 54.5215 237.24 54.5215C238.357 54.5215 239.356 54.3184 240.236 53.9121C241.117 53.4889 241.87 52.9219 242.496 52.2109C243.105 51.5 243.571 50.679 243.893 49.748C244.231 48.8001 244.417 47.8014 244.451 46.752V21.0312ZM278.678 40.9121H263.24V54.0137H281.242V58H258.543V21.0312H281.014V25.043H263.24V36.9258H278.678V40.9121ZM314.504 25.043H303.078V58H298.508V25.043H287.082V21.0312H314.504V25.043ZM340.148 48.6562C340.148 47.5221 339.886 46.5658 339.361 45.7871C338.854 45.0085 338.193 44.3483 337.381 43.8066C336.568 43.2819 335.671 42.8418 334.689 42.4863C333.725 42.1309 332.794 41.8092 331.896 41.5215C330.593 41.0983 329.264 40.5905 327.91 39.998C326.573 39.3887 325.354 38.6608 324.254 37.8145C323.137 36.9512 322.223 35.9355 321.512 34.7676C320.818 33.5827 320.471 32.1947 320.471 30.6035C320.471 29.0124 320.818 27.5905 321.512 26.3379C322.223 25.0853 323.145 24.0273 324.279 23.1641C325.413 22.3008 326.7 21.6491 328.139 21.209C329.577 20.752 331.025 20.5234 332.48 20.5234C334.089 20.5234 335.637 20.7943 337.127 21.3359C338.617 21.8607 339.937 22.6055 341.088 23.5703C342.239 24.5352 343.161 25.7031 343.855 27.0742C344.549 28.4453 344.913 29.9772 344.947 31.6699H340.123C339.988 30.6035 339.725 29.6387 339.336 28.7754C338.947 27.8952 338.43 27.1419 337.787 26.5156C337.144 25.8893 336.374 25.4069 335.477 25.0684C334.596 24.7129 333.598 24.5352 332.48 24.5352C331.583 24.5352 330.703 24.6621 329.84 24.916C328.993 25.1699 328.24 25.5508 327.58 26.0586C326.903 26.5664 326.361 27.1927 325.955 27.9375C325.566 28.6823 325.371 29.5456 325.371 30.5273C325.388 31.5938 325.659 32.4993 326.184 33.2441C326.708 33.972 327.377 34.5898 328.189 35.0977C328.985 35.6055 329.848 36.0286 330.779 36.3672C331.727 36.7057 332.616 37.002 333.445 37.2559C334.816 37.679 336.188 38.1953 337.559 38.8047C338.93 39.3971 340.182 40.1589 341.316 41.0898C342.434 41.9531 343.331 43.0111 344.008 44.2637C344.702 45.5163 345.049 46.9635 345.049 48.6055C345.049 50.2643 344.676 51.7116 343.932 52.9473C343.204 54.1829 342.256 55.207 341.088 56.0195C339.92 56.849 338.6 57.4753 337.127 57.8984C335.654 58.3047 334.182 58.5078 332.709 58.5078C330.949 58.5078 329.214 58.2116 327.504 57.6191C325.811 57.0267 324.339 56.1719 323.086 55.0547C321.969 54.0898 321.08 52.9642 320.42 51.6777C319.777 50.3743 319.43 48.9271 319.379 47.3359H324.178C324.33 48.487 324.643 49.5111 325.117 50.4082C325.591 51.2884 326.201 52.0332 326.945 52.6426C327.69 53.2689 328.545 53.7428 329.51 54.0645C330.492 54.3691 331.558 54.5215 332.709 54.5215C333.623 54.5215 334.52 54.4115 335.4 54.1914C336.298 53.9544 337.093 53.5905 337.787 53.0996C338.481 52.6257 339.048 52.0247 339.488 51.2969C339.928 50.5521 340.148 49.6719 340.148 48.6562Z"/>
</mask>
<path d="M138.547 43.1719V42.1719H137.547V43.1719H138.547ZM138.547 58V59H139.547V58H138.547ZM133.85 58H132.85V59H133.85V58ZM133.85 21.0312V20.0312H132.85V21.0312H133.85ZM145.834 21.0312L145.854 20.0315L145.844 20.0312H145.834V21.0312ZM150.531 21.8184L150.215 22.767L150.218 22.7681L150.531 21.8184ZM157.082 27.4043L156.177 27.829L156.181 27.8381L157.082 27.4043ZM157.082 36.8496L156.181 36.4158L156.179 36.4206L157.082 36.8496ZM150.531 42.4102L150.218 41.4604L150.215 41.4615L150.531 42.4102ZM145.834 43.1719L145.834 44.1719L145.844 44.1718L145.834 43.1719ZM138.547 39.3125H137.547V40.3125H138.547V39.3125ZM145.834 39.3125V40.3125H145.842L145.85 40.3124L145.834 39.3125ZM148.83 38.8047L149.162 39.748L149.17 39.7453L149.177 39.7424L148.83 38.8047ZM152.791 35.1738L151.876 34.7693L151.873 34.7777L152.791 35.1738ZM152.791 29.1562L151.867 29.5396L151.87 29.547L151.874 29.5543L152.791 29.1562ZM151.242 26.8711L151.931 26.1456L151.921 26.137L151.242 26.8711ZM148.83 25.4238L148.483 26.3616L148.488 26.3636L148.83 25.4238ZM145.834 24.8906L145.85 23.8907L145.842 23.8906H145.834V24.8906ZM138.547 24.8906V23.8906H137.547V24.8906H138.547ZM137.547 43.1719V58H139.547V43.1719H137.547ZM138.547 57H133.85V59H138.547V57ZM134.85 58V21.0312H132.85V58H134.85ZM133.85 22.0312H145.834V20.0312H133.85V22.0312ZM145.814 22.031C147.379 22.063 148.844 22.3101 150.215 22.767L150.847 20.8697C149.273 20.3448 147.607 20.0672 145.854 20.0315L145.814 22.031ZM150.218 22.7681C151.598 23.2227 152.788 23.8751 153.801 24.7194L155.082 23.183C153.86 22.1653 152.444 21.3958 150.844 20.8686L150.218 22.7681ZM153.801 24.7194C154.801 25.5528 155.593 26.5848 156.177 27.829L157.987 26.9796C157.285 25.4816 156.316 24.2116 155.082 23.183L153.801 24.7194ZM156.181 27.8381C156.766 29.0529 157.072 30.4747 157.072 32.127H159.072C159.072 30.2245 158.718 28.4978 157.983 26.9705L156.181 27.8381ZM157.072 32.127C157.072 33.7792 156.766 35.201 156.181 36.4158L157.983 37.2834C158.718 35.7561 159.072 34.0294 159.072 32.127H157.072ZM156.179 36.4206C155.596 37.6481 154.804 38.6737 153.801 39.5091L155.082 41.0456C156.313 40.019 157.282 38.7594 157.985 37.2787L156.179 36.4206ZM153.801 39.5091C152.788 40.3534 151.598 41.0058 150.218 41.4604L150.844 43.3599C152.444 42.8328 153.86 42.0632 155.082 41.0456L153.801 39.5091ZM150.215 41.4615C148.848 41.9173 147.386 42.156 145.824 42.1719L145.844 44.1718C147.6 44.1539 149.27 43.8848 150.847 43.3588L150.215 41.4615ZM145.834 42.1719H138.547V44.1719H145.834V42.1719ZM138.547 40.3125H145.834V38.3125H138.547V40.3125ZM145.85 40.3124C147.028 40.294 148.135 40.1094 149.162 39.748L148.498 37.8614C147.697 38.1433 146.807 38.2972 145.818 38.3126L145.85 40.3124ZM149.177 39.7424C150.202 39.3631 151.108 38.8258 151.886 38.1261L150.548 36.6395C149.971 37.1585 149.287 37.5692 148.483 37.8669L149.177 39.7424ZM151.886 38.1261C152.673 37.4172 153.282 36.5612 153.709 35.5699L151.873 34.7777C151.556 35.513 151.114 36.1297 150.548 36.6395L151.886 38.1261ZM153.706 35.5783C154.16 34.5519 154.375 33.412 154.375 32.1777H152.375C152.375 33.1778 152.201 34.0354 151.876 34.7693L153.706 35.5783ZM154.375 32.1777C154.375 30.943 154.159 29.7976 153.708 28.7582L151.874 29.5543C152.201 30.3092 152.375 31.1781 152.375 32.1777H154.375ZM153.715 28.7729C153.292 27.7554 152.699 26.8746 151.93 26.1456L150.554 27.5966C151.106 28.1202 151.545 28.7629 151.867 29.5396L153.715 28.7729ZM151.921 26.137C151.139 25.4139 150.218 24.8646 149.172 24.484L148.488 26.3636C149.304 26.6601 149.991 27.0757 150.563 27.6052L151.921 26.137ZM149.177 24.4861C148.146 24.1041 147.034 23.9092 145.85 23.8907L145.818 25.8905C146.801 25.9059 147.686 26.0665 148.483 26.3616L149.177 24.4861ZM145.834 23.8906H138.547V25.8906H145.834V23.8906ZM137.547 24.8906V39.3125H139.547V24.8906H137.547ZM176.887 42.918L177.788 42.4842L177.515 41.918H176.887V42.918ZM169.498 42.918V41.918H168.498V42.918H169.498ZM169.498 58V59H170.498V58H169.498ZM164.826 58H163.826V59H164.826V58ZM164.826 21.0312V20.0312H163.826V21.0312H164.826ZM175.668 21.0312L175.688 20.0314L175.678 20.0312H175.668V21.0312ZM184.555 23.8242L185.182 23.0456L185.177 23.0411L184.555 23.8242ZM187.221 27.2773L186.313 27.6978L186.316 27.7045L186.32 27.7112L187.221 27.2773ZM187.678 35.4277L186.736 35.0924L186.733 35.0995L186.731 35.1067L187.678 35.4277ZM181.279 41.9023L180.882 40.9848L179.915 41.4037L180.384 42.3473L181.279 41.9023ZM189.125 57.6953L190.122 57.7784L190.145 57.5003L190.021 57.2504L189.125 57.6953ZM189.1 58V59H190.02L190.096 58.083L189.1 58ZM184.148 58L183.247 58.4338L183.52 59H184.148V58ZM169.498 39.0586H168.498V40.0586H169.498V39.0586ZM175.795 39.0586V40.0586H175.803L175.811 40.0585L175.795 39.0586ZM178.766 38.5762L179.077 39.5266L179.084 39.524L179.092 39.5214L178.766 38.5762ZM181.229 37.2051L181.869 37.9734L181.878 37.9656L181.229 37.2051ZM182.879 35.0469L183.78 35.4796L183.784 35.4727L182.879 35.0469ZM182.904 28.9785L181.987 29.3766L181.99 29.383L182.904 28.9785ZM181.279 26.7188L181.939 25.9672L181.929 25.9582L181.279 26.7188ZM178.791 25.373L178.485 26.3251L178.49 26.3266L178.791 25.373ZM175.668 24.8906L175.683 23.8907L175.675 23.8906H175.668V24.8906ZM169.498 24.8906V23.8906H168.498V24.8906H169.498ZM176.887 41.918H169.498V43.918H176.887V41.918ZM168.498 42.918V58H170.498V42.918H168.498ZM169.498 57H164.826V59H169.498V57ZM165.826 58V21.0312H163.826V58H165.826ZM164.826 22.0312H175.668V20.0312H164.826V22.0312ZM175.648 22.0311C177.292 22.0633 178.826 22.2966 180.256 22.7254L180.83 20.8098C179.213 20.3245 177.497 20.0669 175.688 20.0314L175.648 22.0311ZM180.256 22.7254C181.668 23.149 182.889 23.7785 183.933 24.6073L185.177 23.0411C183.918 22.0418 182.465 21.3002 180.83 20.8098L180.256 22.7254ZM183.927 24.6028C184.936 25.4157 185.731 26.4419 186.313 27.6978L188.128 26.8569C187.424 25.3368 186.442 24.0609 185.182 23.0456L183.927 24.6028ZM186.32 27.7112C186.902 28.9201 187.211 30.3822 187.211 32.127H189.211C189.211 30.1477 188.86 28.3768 188.122 26.8435L186.32 27.7112ZM187.211 32.127C187.211 33.2296 187.048 34.2147 186.736 35.0924L188.62 35.7631C189.018 34.6434 189.211 33.4279 189.211 32.127H187.211ZM186.731 35.1067C186.425 36.0091 185.999 36.8199 185.456 37.5445L187.056 38.7445C187.731 37.8442 188.254 36.8438 188.625 35.7488L186.731 35.1067ZM185.456 37.5445C184.907 38.2767 184.249 38.9281 183.477 39.4989L184.667 41.1066C185.588 40.4248 186.386 39.6374 187.056 38.7445L185.456 37.5445ZM183.477 39.4989C182.695 40.0776 181.831 40.5734 180.882 40.9848L181.677 42.8199C182.759 42.3511 183.757 41.7804 184.667 41.1066L183.477 39.4989ZM180.384 42.3473L188.229 58.1402L190.021 57.2504L182.175 41.4574L180.384 42.3473ZM188.128 57.6123L188.103 57.917L190.096 58.083L190.122 57.7784L188.128 57.6123ZM189.1 57H184.148V59H189.1V57ZM185.049 57.5662L177.788 42.4842L175.986 43.3518L183.247 58.4338L185.049 57.5662ZM169.498 40.0586H175.795V38.0586H169.498V40.0586ZM175.811 40.0585C176.954 40.04 178.044 39.8646 179.077 39.5266L178.455 37.6258C177.625 37.8971 176.735 38.0433 175.779 38.0587L175.811 40.0585ZM179.092 39.5214C180.13 39.1628 181.059 38.6481 181.869 37.9733L180.588 36.4369C179.976 36.9469 179.263 37.3463 178.439 37.631L179.092 39.5214ZM181.878 37.9656C182.681 37.2801 183.316 36.4479 183.78 35.4796L181.977 34.6141C181.63 35.3386 181.164 35.9452 180.579 36.4445L181.878 37.9656ZM183.784 35.4727C184.262 34.4553 184.488 33.3156 184.488 32.0762H182.488C182.488 33.0711 182.308 33.9119 181.974 34.6211L183.784 35.4727ZM184.488 32.0762C184.488 30.7833 184.276 29.6075 183.819 28.574L181.99 29.383C182.311 30.11 182.488 30.9992 182.488 32.0762H184.488ZM183.822 28.5804C183.377 27.5561 182.75 26.6797 181.939 25.9673L180.619 27.4702C181.196 27.9765 181.653 28.6067 181.987 29.3766L183.822 28.5804ZM181.929 25.9582C181.122 25.2697 180.171 24.7601 179.092 24.4195L178.49 26.3266C179.341 26.5954 180.049 26.9829 180.63 27.4793L181.929 25.9582ZM179.097 24.421C178.043 24.0822 176.902 23.9089 175.683 23.8907L175.653 25.8905C176.702 25.9062 177.643 26.0545 178.485 26.3251L179.097 24.421ZM175.668 23.8906H169.498V25.8906H175.668V23.8906ZM168.498 24.8906V39.0586H170.498V24.8906H168.498ZM219.924 41.6484L220.924 41.6613V41.6484H219.924ZM219.568 45.6602L218.581 45.4998L218.58 45.51L219.568 45.6602ZM216.902 53.0488L216.06 52.5094L216.054 52.5188L216.902 53.0488ZM211.189 57.8223L211.541 58.7586L211.548 58.7559L211.189 57.8223ZM202.938 57.8223L202.575 58.7543L202.583 58.7573L202.591 58.7602L202.938 57.8223ZM197.225 53.0488L196.379 53.5823L196.383 53.5883L197.225 53.0488ZM195.523 49.5195L196.467 49.188L196.463 49.1768L195.523 49.5195ZM194.152 41.6484H193.152L193.152 41.6613L194.152 41.6484ZM194.152 37.4336L193.152 37.4208V37.4336H194.152ZM194.482 33.4473L193.495 33.2869L193.494 33.2971L194.482 33.4473ZM195.498 29.5371L196.438 29.8799L196.442 29.8686L195.498 29.5371ZM197.174 26.0332L196.328 25.4997L196.326 25.5032L197.174 26.0332ZM199.637 23.1387L198.986 22.3794L198.978 22.3861L199.637 23.1387ZM202.887 21.2344L203.238 22.1707L203.245 22.168L202.887 21.2344ZM211.164 21.2344L210.806 22.1681L210.817 22.1723L211.164 21.2344ZM216.877 26.0078L216.025 26.5319L216.03 26.5396L216.035 26.5472L216.877 26.0078ZM218.604 29.5117L219.547 29.1802L219.543 29.169L218.604 29.5117ZM219.568 33.4219L218.579 33.5702L218.581 33.5823L219.568 33.4219ZM219.924 37.4336H220.924L220.924 37.4208L219.924 37.4336ZM215.277 37.3828H216.277V37.3732L216.277 37.3636L215.277 37.3828ZM215.1 34.6406L214.105 34.7453L214.105 34.7472L215.1 34.6406ZM214.592 31.7715L215.562 31.5289L215.559 31.5186L215.557 31.5084L214.592 31.7715ZM213.602 29.1055L212.697 29.5313L212.7 29.5382L213.602 29.1055ZM212.078 26.8203L212.813 26.142L212.804 26.1326L212.078 26.8203ZM209.92 25.2969L209.495 26.2021L209.503 26.2057L209.51 26.2091L209.92 25.2969ZM204.156 25.2969L204.581 26.2021L204.156 25.2969ZM201.998 26.8457L201.272 26.1579L201.263 26.1674L201.998 26.8457ZM200.475 29.1309L201.376 29.5636L201.379 29.5567L200.475 29.1309ZM199.51 31.7969L200.476 32.0556L200.479 32.0436L199.51 31.7969ZM198.951 34.666L197.959 34.5441L197.958 34.5518L197.957 34.5595L198.951 34.666ZM198.773 37.3828L197.774 37.3632L197.773 37.373V37.3828H198.773ZM198.773 41.6484H197.773V41.6582L197.774 41.668L198.773 41.6484ZM198.951 44.3906L197.957 44.4953L197.958 44.5039L197.959 44.5125L198.951 44.3906ZM199.51 47.2344L200.476 46.9756L200.475 46.9713L199.51 47.2344ZM202.023 52.2109L202.758 51.5326L202.749 51.5232L202.023 52.2109ZM204.182 53.7852L204.607 52.8799L204.182 53.7852ZM209.971 53.7852L209.553 52.8766L209.546 52.8799L209.971 53.7852ZM212.154 52.2109L212.889 52.8892L212.89 52.8884L212.154 52.2109ZM213.627 49.9766L212.722 49.5507L212.718 49.5587L213.627 49.9766ZM214.617 47.2598L215.583 47.5185L215.586 47.5064L214.617 47.2598ZM215.1 44.416L214.105 44.3113L214.104 44.32L214.103 44.3286L215.1 44.416ZM215.277 41.6484L216.277 41.6677L216.277 41.6581V41.6484H215.277ZM218.924 41.6356C218.908 42.9046 218.794 44.1925 218.581 45.4998L220.555 45.8206C220.783 44.4195 220.906 43.0329 220.924 41.6613L218.924 41.6356ZM218.58 45.51C218.386 46.7867 218.079 48.0208 217.66 49.2134L219.547 49.8764C220.008 48.5638 220.345 47.2081 220.557 45.8103L218.58 45.51ZM217.66 49.2134C217.245 50.3954 216.711 51.4933 216.06 52.5094L217.744 53.5883C218.481 52.4377 219.082 51.1997 219.547 49.8764L217.66 49.2134ZM216.054 52.5188C215.43 53.5182 214.683 54.3883 213.814 55.1333L215.116 56.6518C216.142 55.7718 217.021 54.7461 217.75 53.5788L216.054 52.5188ZM213.814 55.1333C212.958 55.867 211.967 56.4531 210.831 56.8886L211.548 58.7559C212.884 58.2435 214.076 57.5432 215.116 56.6518L213.814 55.1333ZM210.838 56.8859C209.749 57.2944 208.5 57.5078 207.076 57.5078V59.5078C208.699 59.5078 210.192 59.2642 211.541 58.7586L210.838 56.8859ZM207.076 57.5078C205.653 57.5078 204.393 57.2944 203.284 56.8844L202.591 58.7602C203.953 59.2641 205.453 59.5078 207.076 59.5078V57.5078ZM203.3 56.8903C202.181 56.4552 201.197 55.8689 200.338 55.1333L199.037 56.6518C200.074 57.5412 201.256 58.2414 202.575 58.7543L203.3 56.8903ZM200.338 55.1333C199.467 54.3863 198.71 53.513 198.067 52.5094L196.383 53.5883C197.128 54.7513 198.012 55.7739 199.037 56.6518L200.338 55.1333ZM198.07 52.5153C197.417 51.4798 196.883 50.3713 196.467 49.188L194.58 49.851C195.044 51.1729 195.644 52.4173 196.379 53.5823L198.07 52.5153ZM196.463 49.1768C196.028 47.9836 195.705 46.7492 195.495 45.4724L193.521 45.7971C193.751 47.1948 194.105 48.5502 194.584 49.8623L196.463 49.1768ZM195.495 45.4724C195.282 44.1833 195.169 42.9045 195.152 41.6356L193.152 41.6613C193.17 43.033 193.293 44.4117 193.521 45.7971L195.495 45.4724ZM195.152 41.6484V37.4336H193.152V41.6484H195.152ZM195.152 37.4464C195.169 36.1732 195.275 34.8903 195.471 33.5974L193.494 33.2971C193.284 34.6787 193.17 36.0534 193.152 37.4208L195.152 37.4464ZM195.469 33.6077C195.68 32.3139 196.003 31.0716 196.437 29.8799L194.559 29.1943C194.079 30.5078 193.725 31.8723 193.495 33.2869L195.469 33.6077ZM196.442 29.8686C196.858 28.6827 197.385 27.5817 198.022 26.5632L196.326 25.5032C195.608 26.6514 195.018 27.8863 194.555 29.2056L196.442 29.8686ZM198.02 26.5667C198.664 25.5454 199.422 24.655 200.295 23.8912L198.978 22.3861C197.955 23.2812 197.072 24.3205 196.328 25.4997L198.02 26.5667ZM200.288 23.8979C201.143 23.1647 202.124 22.5885 203.238 22.1707L202.536 20.298C201.212 20.7944 200.026 21.4876 198.986 22.3794L200.288 23.8979ZM203.245 22.168C204.35 21.744 205.606 21.5234 207.025 21.5234V19.5234C205.398 19.5234 203.894 19.7768 202.529 20.3007L203.245 22.168ZM207.025 21.5234C208.445 21.5234 209.7 21.744 210.806 22.168L211.522 20.3007C210.156 19.7768 208.653 19.5234 207.025 19.5234V21.5234ZM210.817 22.1723C211.948 22.5905 212.936 23.1667 213.789 23.8979L215.09 22.3794C214.048 21.4857 212.852 20.7923 211.511 20.2965L210.817 22.1723ZM213.789 23.8979C214.655 24.6406 215.401 25.5169 216.025 26.5319L217.729 25.4837C216.999 24.2982 216.12 23.2617 215.09 22.3794L213.789 23.8979ZM216.035 26.5472C216.688 27.5666 217.231 28.6683 217.664 29.8545L219.543 29.169C219.062 27.8499 218.454 26.6157 217.719 25.4684L216.035 26.5472ZM217.66 29.8432C218.079 31.0345 218.385 32.2764 218.579 33.5702L220.557 33.2735C220.345 31.859 220.009 30.4942 219.547 29.1802L217.66 29.8432ZM218.581 33.5823C218.794 34.8895 218.908 36.1774 218.924 37.4464L220.924 37.4208C220.906 36.0491 220.783 34.6626 220.555 33.2615L218.581 33.5823ZM218.924 37.4336V41.6484H220.924V37.4336H218.924ZM216.277 37.3636C216.26 36.4519 216.198 35.5087 216.094 34.5341L214.105 34.7472C214.204 35.6684 214.261 36.5533 214.278 37.402L216.277 37.3636ZM216.094 34.5359C215.988 33.5243 215.81 32.5219 215.562 31.5289L213.622 32.014C213.847 32.9169 214.008 33.8273 214.105 34.7453L216.094 34.5359ZM215.557 31.5084C215.287 30.5207 214.936 29.5751 214.503 28.6727L212.7 29.5382C213.079 30.3285 213.389 31.1603 213.627 32.0346L215.557 31.5084ZM214.506 28.6797C214.059 27.7298 213.496 26.8817 212.813 26.142L211.343 27.4986C211.879 28.0792 212.331 28.7546 212.697 29.5313L214.506 28.6797ZM212.804 26.1326C212.103 25.3921 211.275 24.809 210.33 24.3846L209.51 26.2091C210.224 26.5295 210.835 26.9621 211.352 27.5081L212.804 26.1326ZM210.345 24.3916C209.358 23.9286 208.243 23.7129 207.025 23.7129V25.7129C208.008 25.7129 208.823 25.8865 209.495 26.2021L210.345 24.3916ZM207.025 23.7129C205.822 23.7129 204.716 23.9295 203.731 24.3916L204.581 26.2021C205.256 25.8856 206.062 25.7129 207.025 25.7129V23.7129ZM203.731 24.3916C202.793 24.8322 201.97 25.421 201.272 26.158L202.724 27.5334C203.245 26.984 203.861 26.5402 204.581 26.2021L203.731 24.3916ZM201.263 26.1674C200.58 26.9071 200.017 27.7552 199.57 28.7051L201.379 29.5567C201.745 28.78 202.197 28.1046 202.733 27.524L201.263 26.1674ZM199.573 28.6981C199.138 29.6055 198.794 30.5566 198.541 31.5502L200.479 32.0436C200.7 31.1752 200.999 30.3489 201.376 29.5636L199.573 28.6981ZM198.544 31.5381C198.278 32.5306 198.083 33.5327 197.959 34.5441L199.944 34.7879C200.056 33.8697 200.234 32.959 200.476 32.0556L198.544 31.5381ZM197.957 34.5595C197.853 35.5333 197.791 36.4681 197.774 37.3632L199.773 37.4024C199.79 36.571 199.847 35.6945 199.945 34.7725L197.957 34.5595ZM197.773 37.3828V41.6484H199.773V37.3828H197.773ZM197.774 41.668C197.791 42.563 197.852 43.5056 197.957 44.4953L199.946 44.2859C199.847 43.346 199.79 42.4605 199.773 41.6288L197.774 41.668ZM197.959 44.5125C198.083 45.5247 198.278 46.5198 198.545 47.4975L200.475 46.9713C200.233 46.087 200.056 45.1862 199.944 44.2687L197.959 44.5125ZM198.544 47.4931C198.813 48.4968 199.163 49.4584 199.595 50.377L201.405 49.5254C201.025 48.7174 200.715 47.8678 200.476 46.9756L198.544 47.4931ZM199.595 50.377C200.043 51.3291 200.61 52.1725 201.297 52.8987L202.749 51.5232C202.219 50.9629 201.769 50.2998 201.405 49.5254L199.595 50.377ZM201.289 52.8892C201.987 53.6463 202.813 54.2473 203.757 54.6904L204.607 52.8799C203.892 52.5444 203.278 52.0959 202.758 51.5327L201.289 52.8892ZM203.757 54.6904C204.743 55.1534 205.858 55.3691 207.076 55.3691V53.3691C206.094 53.3691 205.279 53.1956 204.607 52.8799L203.757 54.6904ZM207.076 55.3691C208.294 55.3691 209.409 55.1534 210.396 54.6904L209.546 52.8799C208.873 53.1956 208.059 53.3691 207.076 53.3691V55.3691ZM210.389 54.6936C211.35 54.2513 212.187 53.6498 212.889 52.8892L211.419 51.5327C210.903 52.0924 210.284 52.5404 209.553 52.8767L210.389 54.6936ZM212.89 52.8884C213.558 52.1634 214.105 51.3296 214.535 50.3945L212.718 49.5587C212.37 50.3162 211.936 50.9721 211.419 51.5335L212.89 52.8884ZM214.532 50.4024C214.964 49.4838 215.314 48.5222 215.583 47.5185L213.651 47.001C213.412 47.8932 213.102 48.7428 212.722 49.5508L214.532 50.4024ZM215.586 47.5064C215.837 46.5227 216.006 45.5215 216.096 44.5034L214.103 44.3286C214.023 45.2402 213.872 46.1348 213.648 47.0131L215.586 47.5064ZM216.094 44.5207C216.198 43.5303 216.26 42.5791 216.277 41.6677L214.278 41.6292C214.261 42.4782 214.204 43.3721 214.105 44.3113L216.094 44.5207ZM216.277 41.6484V37.3828H214.277V41.6484H216.277ZM244.451 21.0312V20.0312H243.451V21.0312H244.451ZM249.25 21.0312H250.25V20.0312H249.25V21.0312ZM249.25 46.752L250.25 46.7718L250.25 46.7619V46.752H249.25ZM248.26 51.4746L247.343 51.0755L247.339 51.0846L248.26 51.4746ZM245.746 55.1816L245.05 54.4632L245.045 54.4689L245.746 55.1816ZM241.963 57.6445L242.334 58.573L242.34 58.5708L241.963 57.6445ZM232.518 57.7207L232.168 58.6575L232.171 58.6589L232.518 57.7207ZM228.861 55.4609L229.55 54.7362L229.544 54.7305L229.538 54.7248L228.861 55.4609ZM226.348 51.957L225.436 52.3683L225.438 52.3725L226.348 51.957ZM225.18 47.3105V46.3105H224.087L224.184 47.3993L225.18 47.3105ZM229.953 47.3105L230.952 47.2614L230.905 46.3105H229.953V47.3105ZM230.562 50.1797L229.635 50.5542L229.638 50.5618L229.642 50.5693L230.562 50.1797ZM232.061 52.4648L232.786 51.7765L232.777 51.7672L232.061 52.4648ZM234.295 53.9883L233.914 54.913L233.92 54.9155L234.295 53.9883ZM240.236 53.9121L240.655 54.8201L240.663 54.8168L240.67 54.8134L240.236 53.9121ZM242.496 52.2109L243.247 52.872L243.255 52.8617L242.496 52.2109ZM243.893 49.748L242.951 49.4117L242.947 49.4215L243.893 49.748ZM244.451 46.752L245.451 46.7842L245.451 46.7681V46.752H244.451ZM244.451 22.0312H249.25V20.0312H244.451V22.0312ZM248.25 21.0312V46.752H250.25V21.0312H248.25ZM248.25 46.7322C248.219 48.3229 247.913 49.7669 247.343 51.0755L249.177 51.8737C249.86 50.3048 250.214 48.6002 250.25 46.7718L248.25 46.7322ZM247.339 51.0846C246.779 52.4066 246.016 53.5288 245.05 54.4632L246.442 55.9001C247.609 54.7694 248.522 53.4203 249.181 51.8646L247.339 51.0846ZM245.045 54.4689C244.076 55.4221 242.927 56.1726 241.586 56.7183L242.34 58.5708C243.91 57.9316 245.283 57.0401 246.448 55.8944L245.045 54.4689ZM241.591 56.7161C240.282 57.2397 238.836 57.5078 237.24 57.5078V59.5078C239.064 59.5078 240.766 59.2004 242.334 58.573L241.591 56.7161ZM237.24 57.5078C235.616 57.5078 234.161 57.2611 232.864 56.7826L232.171 58.6589C233.718 59.2298 235.412 59.5078 237.24 59.5078V57.5078ZM232.867 56.7839C231.582 56.3038 230.48 55.6203 229.55 54.7362L228.172 56.1856C229.308 57.2651 230.643 58.0881 232.168 58.6575L232.867 56.7839ZM229.538 54.7248C228.592 53.8553 227.831 52.7984 227.257 51.5415L225.438 52.3725C226.117 53.8579 227.031 55.1369 228.185 56.1971L229.538 54.7248ZM227.259 51.5457C226.684 50.2718 226.319 48.834 226.176 47.2218L224.184 47.3993C224.345 49.2064 224.758 50.8662 225.436 52.3683L227.259 51.5457ZM225.18 48.3105H229.953V46.3105H225.18V48.3105ZM228.954 47.3597C229.01 48.494 229.234 49.5614 229.635 50.5542L231.49 49.8052C231.18 49.0375 230.998 48.1922 230.952 47.2614L228.954 47.3597ZM229.642 50.5693C230.059 51.5565 230.626 52.4245 231.344 53.1625L232.777 51.7672C232.243 51.2187 231.811 50.5632 231.483 49.79L229.642 50.5693ZM231.335 53.1531C232.061 53.9182 232.924 54.5053 233.914 54.913L234.676 53.0636C233.939 52.7603 233.313 52.3318 232.786 51.7766L231.335 53.1531ZM233.92 54.9155C234.935 55.3254 236.047 55.5215 237.24 55.5215V53.5215C236.267 53.5215 235.415 53.3621 234.669 53.061L233.92 54.9155ZM237.24 55.5215C238.48 55.5215 239.625 55.2955 240.655 54.8201L239.817 53.0041C239.087 53.3412 238.235 53.5215 237.24 53.5215V55.5215ZM240.67 54.8134C241.667 54.334 242.529 53.6865 243.246 52.872L241.746 51.5499C241.211 52.1572 240.566 52.6439 239.803 53.0109L240.67 54.8134ZM243.255 52.8617C243.951 52.0505 244.477 51.1181 244.838 50.0746L242.947 49.4215C242.665 50.24 242.26 50.9495 241.737 51.5601L243.255 52.8617ZM244.834 50.0844C245.209 49.0345 245.414 47.9329 245.451 46.7842L243.452 46.7197C243.421 47.67 243.253 48.5657 242.951 49.4117L244.834 50.0844ZM245.451 46.752V21.0312H243.451V46.752H245.451ZM278.678 40.9121V41.9121H279.678V40.9121H278.678ZM263.24 40.9121V39.9121H262.24V40.9121H263.24ZM263.24 54.0137H262.24V55.0137H263.24V54.0137ZM281.242 54.0137H282.242V53.0137H281.242V54.0137ZM281.242 58V59H282.242V58H281.242ZM258.543 58H257.543V59H258.543V58ZM258.543 21.0312V20.0312H257.543V21.0312H258.543ZM281.014 21.0312H282.014V20.0312H281.014V21.0312ZM281.014 25.043V26.043H282.014V25.043H281.014ZM263.24 25.043V24.043H262.24V25.043H263.24ZM263.24 36.9258H262.24V37.9258H263.24V36.9258ZM278.678 36.9258H279.678V35.9258H278.678V36.9258ZM278.678 39.9121H263.24V41.9121H278.678V39.9121ZM262.24 40.9121V54.0137H264.24V40.9121H262.24ZM263.24 55.0137H281.242V53.0137H263.24V55.0137ZM280.242 54.0137V58H282.242V54.0137H280.242ZM281.242 57H258.543V59H281.242V57ZM259.543 58V21.0312H257.543V58H259.543ZM258.543 22.0312H281.014V20.0312H258.543V22.0312ZM280.014 21.0312V25.043H282.014V21.0312H280.014ZM281.014 24.043H263.24V26.043H281.014V24.043ZM262.24 25.043V36.9258H264.24V25.043H262.24ZM263.24 37.9258H278.678V35.9258H263.24V37.9258ZM277.678 36.9258V40.9121H279.678V36.9258H277.678ZM314.504 25.043V26.043H315.504V25.043H314.504ZM303.078 25.043V24.043H302.078V25.043H303.078ZM303.078 58V59H304.078V58H303.078ZM298.508 58H297.508V59H298.508V58ZM298.508 25.043H299.508V24.043H298.508V25.043ZM287.082 25.043H286.082V26.043H287.082V25.043ZM287.082 21.0312V20.0312H286.082V21.0312H287.082ZM314.504 21.0312H315.504V20.0312H314.504V21.0312ZM314.504 24.043H303.078V26.043H314.504V24.043ZM302.078 25.043V58H304.078V25.043H302.078ZM303.078 57H298.508V59H303.078V57ZM299.508 58V25.043H297.508V58H299.508ZM298.508 24.043H287.082V26.043H298.508V24.043ZM288.082 25.043V21.0312H286.082V25.043H288.082ZM287.082 22.0312H314.504V20.0312H287.082V22.0312ZM313.504 21.0312V25.043H315.504V21.0312H313.504ZM339.361 45.7871L338.524 46.3334L338.528 46.3397L338.532 46.346L339.361 45.7871ZM337.381 43.8066L337.936 42.9746L337.93 42.9706L337.923 42.9666L337.381 43.8066ZM334.689 42.4863L334.344 43.4247L334.349 43.4266L334.689 42.4863ZM331.896 41.5215L331.588 42.4726L331.591 42.4737L331.896 41.5215ZM327.91 39.998L327.495 40.908L327.502 40.9112L327.509 40.9142L327.91 39.998ZM324.254 37.8145L323.642 38.6057L323.644 38.6071L324.254 37.8145ZM321.512 34.7676L320.649 35.273L320.653 35.2803L320.658 35.2875L321.512 34.7676ZM321.512 26.3379L320.642 25.8443L320.637 25.8533L321.512 26.3379ZM328.139 21.209L328.431 22.1653L328.441 22.1621L328.139 21.209ZM337.127 21.3359L336.785 22.2758L336.795 22.2791L337.127 21.3359ZM344.947 31.6699V32.6699H345.967L345.947 31.6499L344.947 31.6699ZM340.123 31.6699L339.131 31.7959L339.242 32.6699H340.123V31.6699ZM339.336 28.7754L338.421 29.1799L338.424 29.1865L339.336 28.7754ZM335.477 25.0684L335.102 25.9956L335.113 25.9999L335.124 26.004L335.477 25.0684ZM329.84 24.916L329.558 23.9566L329.552 23.9582L329.84 24.916ZM327.58 26.0586L328.18 26.8587L328.19 26.8512L327.58 26.0586ZM325.955 27.9375L325.077 27.4586L325.073 27.4664L325.069 27.4742L325.955 27.9375ZM325.371 30.5273H324.371V30.5353L324.371 30.5432L325.371 30.5273ZM326.184 33.2441L325.366 33.8201L325.372 33.8289L326.184 33.2441ZM328.189 35.0977L328.728 34.2547L328.719 34.2497L328.189 35.0977ZM330.779 36.3672L330.438 37.307L330.443 37.3089L330.779 36.3672ZM333.445 37.2559L333.74 36.3003L333.738 36.2997L333.445 37.2559ZM337.559 38.8047L337.152 39.7185L337.162 39.7227L337.559 38.8047ZM341.316 41.0898L340.682 41.8628L340.693 41.8721L340.705 41.8811L341.316 41.0898ZM344.008 44.2637L343.128 44.7392L343.133 44.7483L344.008 44.2637ZM343.932 52.9473L343.075 52.431L343.07 52.4397L343.932 52.9473ZM341.088 56.0195L340.517 55.1986L340.509 55.2042L341.088 56.0195ZM337.127 57.8984L337.393 58.8625L337.403 58.8595L337.127 57.8984ZM327.504 57.6191L327.174 58.563L327.176 58.564L327.504 57.6191ZM323.086 55.0547L323.752 54.3084L323.746 54.3031L323.74 54.2979L323.086 55.0547ZM320.42 51.6777L319.523 52.1203L319.527 52.1273L319.53 52.1343L320.42 51.6777ZM319.379 47.3359V46.3359H318.346L318.379 47.3678L319.379 47.3359ZM324.178 47.3359L325.169 47.2047L325.054 46.3359H324.178V47.3359ZM325.117 50.4082L324.233 50.8753L324.237 50.8823L325.117 50.4082ZM326.945 52.6426L327.589 51.8771L327.579 51.8686L326.945 52.6426ZM329.51 54.0645L329.194 55.0131L329.203 55.0164L329.213 55.0195L329.51 54.0645ZM335.4 54.1914L335.643 55.1616L335.656 55.1582L335.4 54.1914ZM337.787 53.0996L337.223 52.2738L337.216 52.2784L337.21 52.2832L337.787 53.0996ZM339.488 51.2969L340.344 51.8143L340.349 51.8056L339.488 51.2969ZM341.148 48.6562C341.148 47.365 340.848 46.2037 340.191 45.2283L338.532 46.346C338.924 46.9278 339.148 47.6793 339.148 48.6562H341.148ZM340.199 45.2408C339.613 44.3431 338.855 43.5875 337.936 42.9746L336.826 44.6387C337.532 45.1091 338.094 45.6739 338.524 46.3334L340.199 45.2408ZM337.923 42.9666C337.043 42.3978 336.077 41.9252 335.03 41.5461L334.349 43.4266C335.265 43.7584 336.094 44.166 336.838 44.6467L337.923 42.9666ZM335.035 41.548C334.058 41.188 333.114 40.8617 332.202 40.5693L331.591 42.4737C332.474 42.7568 333.391 43.0737 334.344 43.4247L335.035 41.548ZM332.205 40.5704C330.935 40.1581 329.637 39.6622 328.311 39.0819L327.509 40.9142C328.891 41.5188 330.251 42.0385 331.588 42.4726L332.205 40.5704ZM328.325 39.0881C327.053 38.5084 325.9 37.8191 324.864 37.0218L323.644 38.6071C324.808 39.5025 326.093 40.2689 327.495 40.908L328.325 39.0881ZM324.865 37.0232C323.842 36.2322 323.011 35.3077 322.366 34.2476L320.658 35.2875C321.434 36.5634 322.432 37.6701 323.642 38.6057L324.865 37.0232ZM322.375 34.2622C321.784 33.2535 321.471 32.0456 321.471 30.6035H319.471C319.471 32.3438 319.852 33.9119 320.649 35.273L322.375 34.2622ZM321.471 30.6035C321.471 29.1627 321.783 27.9109 322.386 26.8225L320.637 25.8533C319.852 27.2701 319.471 28.862 319.471 30.6035H321.471ZM322.381 26.8315C323.026 25.6951 323.86 24.7403 324.885 23.9598L323.674 22.3684C322.431 23.3144 321.419 24.4755 320.642 25.8443L322.381 26.8315ZM324.885 23.9598C325.92 23.172 327.099 22.5727 328.431 22.1652L327.846 20.2527C326.301 20.7255 324.907 21.4295 323.674 22.3684L324.885 23.9598ZM328.441 22.1621C329.786 21.735 331.131 21.5234 332.48 21.5234V19.5234C330.918 19.5234 329.369 19.7689 327.836 20.2559L328.441 22.1621ZM332.48 21.5234C333.974 21.5234 335.407 21.7745 336.785 22.2757L337.469 20.3961C335.868 19.8141 334.203 19.5234 332.48 19.5234V21.5234ZM336.795 22.2791C338.177 22.7661 339.391 23.4528 340.445 24.3367L341.73 22.8039C340.483 21.7581 339.056 20.9553 337.459 20.3927L336.795 22.2791ZM340.445 24.3367C341.49 25.2126 342.329 26.2726 342.963 27.5258L344.748 26.6226C343.994 25.1336 342.987 23.8578 341.73 22.8039L340.445 24.3367ZM342.963 27.5258C343.583 28.7498 343.916 30.1319 343.947 31.6899L345.947 31.6499C345.911 29.8226 345.516 28.1408 344.748 26.6226L342.963 27.5258ZM344.947 30.6699H340.123V32.6699H344.947V30.6699ZM341.115 31.5439C340.969 30.3921 340.683 29.3294 340.248 28.3643L338.424 29.1865C338.768 29.948 339.006 30.8149 339.131 31.7959L341.115 31.5439ZM340.25 28.3709C339.813 27.3823 339.226 26.5209 338.485 25.7992L337.089 27.2321C337.635 27.763 338.08 28.4081 338.421 29.1799L340.25 28.3709ZM338.485 25.7992C337.736 25.0705 336.847 24.5165 335.83 24.1328L335.124 26.004C335.901 26.2973 336.551 26.7082 337.089 27.2321L338.485 25.7992ZM335.851 24.1411C334.833 23.7299 333.704 23.5352 332.48 23.5352V25.5352C333.492 25.5352 334.36 25.6959 335.102 25.9956L335.851 24.1411ZM332.48 23.5352C331.488 23.5352 330.512 23.6759 329.558 23.9567L330.122 25.8754C330.894 25.6483 331.679 25.5352 332.48 25.5352V23.5352ZM329.552 23.9582C328.597 24.2449 327.733 24.6795 326.97 25.266L328.19 26.8512C328.748 26.4221 329.39 26.0949 330.127 25.8738L329.552 23.9582ZM326.98 25.2586C326.188 25.8525 325.552 26.5885 325.077 27.4586L326.833 28.4164C327.171 27.797 327.618 27.2803 328.18 26.8586L326.98 25.2586ZM325.069 27.4742C324.593 28.3843 324.371 29.4114 324.371 30.5273H326.371C326.371 29.6797 326.538 28.9803 326.841 28.4008L325.069 27.4742ZM324.371 30.5432C324.391 31.7753 324.707 32.8846 325.366 33.8201L327.001 32.6682C326.611 32.1141 326.385 31.4122 326.371 30.5115L324.371 30.5432ZM325.372 33.8289C325.978 34.6689 326.745 35.3739 327.659 35.9457L328.719 34.2497C328.009 33.8058 327.439 33.2751 326.995 32.6593L325.372 33.8289ZM327.651 35.9406C328.512 36.4897 329.441 36.9447 330.438 37.307L331.121 35.4274C330.255 35.1126 329.458 34.7213 328.727 34.2547L327.651 35.9406ZM330.443 37.3089C331.403 37.6518 332.306 37.953 333.153 38.2121L333.738 36.2997C332.925 36.0509 332.051 35.7596 331.116 35.4254L330.443 37.3089ZM333.15 38.2114C334.482 38.6224 335.816 39.1245 337.152 39.7185L337.965 37.8909C336.559 37.2661 335.151 36.7357 333.74 36.3003L333.15 38.2114ZM337.162 39.7227C338.449 40.2788 339.621 40.9921 340.682 41.8628L341.951 40.3169C340.743 39.3257 339.41 38.5155 337.955 37.8867L337.162 39.7227ZM340.705 41.8811C341.711 42.6583 342.517 43.6083 343.128 44.7392L344.888 43.7882C344.145 42.4138 343.156 41.248 341.928 40.2986L340.705 41.8811ZM343.133 44.7483C343.734 45.8321 344.049 47.108 344.049 48.6055H346.049C346.049 46.8191 345.67 45.2005 344.883 43.779L343.133 44.7483ZM344.049 48.6055C344.049 50.1101 343.713 51.3733 343.075 52.431L344.788 53.4635C345.64 52.0498 346.049 50.4185 346.049 48.6055H344.049ZM343.07 52.4397C342.415 53.5523 341.566 54.4691 340.517 55.1986L341.659 56.8404C342.946 55.945 343.993 54.8136 344.793 53.4548L343.07 52.4397ZM340.509 55.2042C339.439 55.9639 338.223 56.5431 336.851 56.9373L337.403 58.8595C338.977 58.4074 340.401 57.734 341.667 56.8349L340.509 55.2042ZM336.861 56.9344C335.472 57.3177 334.088 57.5078 332.709 57.5078V59.5078C334.275 59.5078 335.837 59.2917 337.393 58.8624L336.861 56.9344ZM332.709 57.5078C331.063 57.5078 329.439 57.2312 327.831 56.6743L327.176 58.564C328.988 59.1919 330.834 59.5078 332.709 59.5078V57.5078ZM327.834 56.6753C326.257 56.1231 324.9 55.3326 323.752 54.3084L322.42 55.801C323.777 57.0112 325.366 57.9303 327.174 58.563L327.834 56.6753ZM323.74 54.2979C322.718 53.4152 321.91 52.3909 321.31 51.2212L319.53 52.1343C320.25 53.5375 321.22 54.7645 322.432 55.8115L323.74 54.2979ZM321.317 51.2352C320.742 50.0716 320.425 48.7663 320.378 47.304L318.379 47.3678C318.434 49.0879 318.811 50.6771 319.523 52.1203L321.317 51.2352ZM319.379 48.3359H324.178V46.3359H319.379V48.3359ZM323.186 47.4671C323.352 48.7189 323.696 49.8595 324.233 50.8753L326.001 49.9411C325.59 49.1626 325.308 48.2551 325.169 47.2047L323.186 47.4671ZM324.237 50.8823C324.77 51.8731 325.462 52.7211 326.312 53.4165L327.579 51.8686C326.939 51.3453 326.412 50.7037 325.998 49.9341L324.237 50.8823ZM326.302 53.4079C327.147 54.1191 328.114 54.6534 329.194 55.0131L329.826 53.1158C328.975 52.8322 328.233 52.4187 327.589 51.8772L326.302 53.4079ZM329.213 55.0195C330.302 55.3573 331.469 55.5215 332.709 55.5215V53.5215C331.647 53.5215 330.681 53.381 329.806 53.1094L329.213 55.0195ZM332.709 55.5215C333.704 55.5215 334.683 55.4016 335.643 55.1615L335.158 53.2213C334.358 53.4213 333.542 53.5215 332.709 53.5215V55.5215ZM335.656 55.1582C336.658 54.8936 337.564 54.4819 338.365 53.916L337.21 52.2832C336.622 52.6991 335.937 53.0153 335.145 53.2246L335.656 55.1582ZM338.351 53.9254C339.165 53.3697 339.831 52.6631 340.344 51.8143L338.633 50.7795C338.266 51.3864 337.797 51.8816 337.223 52.2738L338.351 53.9254ZM340.349 51.8056C340.895 50.8817 341.148 49.8194 341.148 48.6562H339.148C339.148 49.5244 338.962 50.2224 338.627 50.7881L340.349 51.8056Z" fill="#0CF25D" mask="url(#path-4-outside-1_252_7)"/>
<mask id="path-6-outside-2_252_7" maskUnits="userSpaceOnUse" x="351" y="18" width="150" height="45" fill="black">
<rect fill="white" x="351" y="18" width="150" height="45"/>
<path d="M373.848 53.0234L352.316 43.4004V39.6934L373.848 30.0957V35.0723L358.309 41.166L356.963 41.5977L358.309 42.0547L373.848 48.0469V53.0234ZM389.844 61.1738H385.629L401.066 21.0312H405.256L389.844 61.1738ZM419.576 34.6152C419.949 34.0566 420.363 33.5488 420.82 33.0918C421.277 32.6178 421.76 32.2031 422.268 31.8477C423.08 31.2552 423.969 30.8066 424.934 30.502C425.915 30.1973 426.956 30.0365 428.057 30.0195C429.495 30.0195 430.799 30.2311 431.967 30.6543C433.152 31.0605 434.159 31.7038 434.988 32.584C435.818 33.4642 436.452 34.5814 436.893 35.9355C437.35 37.2728 437.578 38.8639 437.578 40.709V58H432.881V40.6582C432.881 39.5749 432.754 38.627 432.5 37.8145C432.246 36.985 431.874 36.2995 431.383 35.7578C430.858 35.1654 430.198 34.7253 429.402 34.4375C428.607 34.1328 427.693 33.9889 426.66 34.0059C425.814 34.0059 425.01 34.1243 424.248 34.3613C423.486 34.5983 422.784 34.9368 422.141 35.377C421.633 35.7155 421.159 36.1133 420.719 36.5703C420.296 37.0104 419.915 37.5013 419.576 38.043V58H414.879V19H419.576V34.6152ZM461.344 58H456.646V27.0234L446.973 30.7051V26.4141L460.963 21.0312H461.344V58ZM477.441 52.998V48.123L493.869 41.9277L495.393 41.4961L493.869 41.0137L477.441 34.9199V30.0703L499.861 39.668V43.375L477.441 52.998Z"/>
</mask>
<path d="M373.848 53.0234L373.44 53.9364L374.848 54.5657V53.0234H373.848ZM352.316 43.4004H351.316V44.0488L351.908 44.3134L352.316 43.4004ZM352.316 39.6934L351.909 38.78L351.316 39.0443V39.6934H352.316ZM373.848 30.0957H374.848V28.5551L373.441 29.1823L373.848 30.0957ZM373.848 35.0723L374.213 36.0032L374.848 35.7543V35.0723H373.848ZM358.309 41.166L358.614 42.1182L358.644 42.1086L358.674 42.097L358.309 41.166ZM356.963 41.5977L356.657 40.6454L353.773 41.5705L356.641 42.5445L356.963 41.5977ZM358.309 42.0547L358.668 41.1217L358.649 41.1143L358.63 41.1078L358.309 42.0547ZM373.848 48.0469H374.848V47.3607L374.207 47.1138L373.848 48.0469ZM374.256 52.1105L352.724 42.4874L351.908 44.3134L373.44 53.9364L374.256 52.1105ZM353.316 43.4004V39.6934H351.316V43.4004H353.316ZM352.724 40.6067L374.255 31.0091L373.441 29.1823L351.909 38.78L352.724 40.6067ZM372.848 30.0957V35.0723H374.848V30.0957H372.848ZM373.483 34.1413L357.944 40.235L358.674 42.097L374.213 36.0032L373.483 34.1413ZM358.003 40.2138L356.657 40.6454L357.268 42.5499L358.614 42.1182L358.003 40.2138ZM356.641 42.5445L357.987 43.0016L358.63 41.1078L357.284 40.6508L356.641 42.5445ZM357.949 42.9877L373.488 48.9799L374.207 47.1138L358.668 41.1217L357.949 42.9877ZM372.848 48.0469V53.0234H374.848V48.0469H372.848ZM389.844 61.1738V62.1738H390.531L390.777 61.5323L389.844 61.1738ZM385.629 61.1738L384.696 60.8149L384.173 62.1738H385.629V61.1738ZM401.066 21.0312V20.0312H400.38L400.133 20.6723L401.066 21.0312ZM405.256 21.0312L406.189 21.3897L406.711 20.0312H405.256V21.0312ZM389.844 60.1738H385.629V62.1738H389.844V60.1738ZM386.562 61.5328L402 21.3902L400.133 20.6723L384.696 60.8149L386.562 61.5328ZM401.066 22.0312H405.256V20.0312H401.066V22.0312ZM404.322 20.6728L388.91 60.8154L390.777 61.5323L406.189 21.3897L404.322 20.6728ZM419.576 34.6152H418.576V37.918L420.408 35.1699L419.576 34.6152ZM420.82 33.0918L421.527 33.7989L421.534 33.7925L421.54 33.7859L420.82 33.0918ZM422.268 31.8477L422.841 32.6669L422.849 32.6614L422.857 32.6557L422.268 31.8477ZM424.934 30.502L424.637 29.5469L424.632 29.5484L424.934 30.502ZM428.057 30.0195V29.0195H428.049L428.041 29.0196L428.057 30.0195ZM431.967 30.6543L431.626 31.5945L431.634 31.5974L431.642 31.6002L431.967 30.6543ZM434.988 32.584L434.26 33.2698L434.988 32.584ZM436.893 35.9355L435.942 36.2446L435.944 36.2518L435.946 36.259L436.893 35.9355ZM437.578 58V59H438.578V58H437.578ZM432.881 58H431.881V59H432.881V58ZM432.5 37.8145L431.544 38.1072L431.546 38.1127L432.5 37.8145ZM431.383 35.7578L430.634 36.4209L430.642 36.4293L431.383 35.7578ZM429.402 34.4375L429.045 35.3714L429.053 35.3747L429.062 35.3779L429.402 34.4375ZM426.66 34.0059V35.0059H426.668L426.677 35.0057L426.66 34.0059ZM422.141 35.377L422.695 36.2091L422.705 36.2023L422.141 35.377ZM420.719 36.5703L419.998 35.8767L419.998 35.8772L420.719 36.5703ZM419.576 38.043L418.728 37.513L418.576 37.7562V38.043H419.576ZM419.576 58V59H420.576V58H419.576ZM414.879 58H413.879V59H414.879V58ZM414.879 19V18H413.879V19H414.879ZM419.576 19H420.576V18H419.576V19ZM420.408 35.1699C420.745 34.664 421.119 34.2076 421.527 33.7989L420.113 32.3847C419.608 32.89 419.152 33.4493 418.744 34.0605L420.408 35.1699ZM421.54 33.7859C421.955 33.3554 422.389 32.9833 422.841 32.6669L421.694 31.0284C421.13 31.423 420.599 31.8802 420.1 32.3977L421.54 33.7859ZM422.857 32.6557C423.581 32.1274 424.372 31.7278 425.235 31.4555L424.632 29.5484C423.565 29.8855 422.579 30.383 421.678 31.0396L422.857 32.6557ZM425.23 31.457C426.115 31.1825 427.06 31.035 428.072 31.0194L428.041 29.0196C426.852 29.0379 425.716 29.212 424.637 29.5469L425.23 31.457ZM428.057 31.0195C429.397 31.0195 430.583 31.2166 431.626 31.5945L432.307 29.7141C431.014 29.2456 429.594 29.0195 428.057 29.0195V31.0195ZM431.642 31.6002C432.679 31.9558 433.546 32.5121 434.26 33.2698L435.716 31.8982C434.771 30.8955 433.624 30.1653 432.291 29.7084L431.642 31.6002ZM434.26 33.2698C434.972 34.025 435.539 35.0063 435.942 36.2446L437.844 35.6265C437.366 34.1565 436.663 32.9034 435.716 31.8982L434.26 33.2698ZM435.946 36.259C436.359 37.4658 436.578 38.9422 436.578 40.709H438.578C438.578 38.7856 438.34 37.0798 437.839 35.6121L435.946 36.259ZM436.578 40.709V58H438.578V40.709H436.578ZM437.578 57H432.881V59H437.578V57ZM433.881 58V40.6582H431.881V58H433.881ZM433.881 40.6582C433.881 39.4999 433.745 38.4474 433.454 37.5162L431.546 38.1127C431.762 38.8065 431.881 39.6499 431.881 40.6582H433.881ZM433.456 37.5217C433.167 36.5777 432.73 35.7553 432.124 35.0863L430.642 36.4293C431.017 36.8436 431.325 37.3924 431.544 38.1072L433.456 37.5217ZM432.131 35.0948C431.488 34.3686 430.684 33.8377 429.742 33.4971L429.062 35.3779C429.712 35.6128 430.228 35.9621 430.634 36.4208L432.131 35.0948ZM429.76 33.5036C428.823 33.1447 427.778 32.9874 426.644 33.006L426.677 35.0057C427.608 34.9905 428.391 35.1209 429.045 35.3714L429.76 33.5036ZM426.66 33.0059C425.719 33.0059 424.815 33.1378 423.951 33.4065L424.545 35.3162C425.205 35.1109 425.908 35.0059 426.66 35.0059V33.0059ZM423.951 33.4065C423.096 33.6724 422.303 34.0539 421.576 34.5516L422.705 36.2023C423.264 35.8198 423.876 35.5243 424.545 35.3162L423.951 33.4065ZM421.586 34.5449C421.016 34.925 420.487 35.3697 419.998 35.8767L421.439 37.264C421.831 36.8568 422.25 36.506 422.695 36.209L421.586 34.5449ZM419.998 35.8772C419.525 36.3694 419.102 36.9154 418.728 37.513L420.424 38.573C420.728 38.0872 421.066 37.6515 421.44 37.2634L419.998 35.8772ZM418.576 38.043V58H420.576V38.043H418.576ZM419.576 57H414.879V59H419.576V57ZM415.879 58V19H413.879V58H415.879ZM414.879 20H419.576V18H414.879V20ZM418.576 19V34.6152H420.576V19H418.576ZM461.344 58V59H462.344V58H461.344ZM456.646 58H455.646V59H456.646V58ZM456.646 27.0234H457.646V25.5729L456.291 26.0888L456.646 27.0234ZM446.973 30.7051H445.973V32.1556L447.328 31.6397L446.973 30.7051ZM446.973 26.4141L446.614 25.4808L445.973 25.7274V26.4141H446.973ZM460.963 21.0312V20.0312H460.777L460.604 20.0979L460.963 21.0312ZM461.344 21.0312H462.344V20.0312H461.344V21.0312ZM461.344 57H456.646V59H461.344V57ZM457.646 58V27.0234H455.646V58H457.646ZM456.291 26.0888L446.617 29.7705L447.328 31.6397L457.002 27.958L456.291 26.0888ZM447.973 30.7051V26.4141H445.973V30.7051H447.973ZM447.332 27.3474L461.322 21.9646L460.604 20.0979L446.614 25.4808L447.332 27.3474ZM460.963 22.0312H461.344V20.0312H460.963V22.0312ZM460.344 21.0312V58H462.344V21.0312H460.344ZM477.441 52.998H476.441V54.5155L477.836 53.917L477.441 52.998ZM477.441 48.123L477.089 47.1874L476.441 47.4314V48.123H477.441ZM493.869 41.9277L493.597 40.9656L493.556 40.9771L493.516 40.9921L493.869 41.9277ZM495.393 41.4961L495.665 42.4582L498.873 41.5493L495.694 40.5428L495.393 41.4961ZM493.869 41.0137L493.521 41.9512L493.544 41.9597L493.567 41.967L493.869 41.0137ZM477.441 34.9199H476.441V35.6156L477.094 35.8575L477.441 34.9199ZM477.441 30.0703L477.835 29.151L476.441 28.5544V30.0703H477.441ZM499.861 39.668H500.861V39.0083L500.255 38.7487L499.861 39.668ZM499.861 43.375L500.256 44.2939L500.861 44.034V43.375H499.861ZM478.441 52.998V48.123H476.441V52.998H478.441ZM477.794 49.0587L494.222 42.8634L493.516 40.9921L477.089 47.1874L477.794 49.0587ZM494.142 42.8899L495.665 42.4582L495.12 40.534L493.597 40.9656L494.142 42.8899ZM495.694 40.5428L494.171 40.0603L493.567 41.967L495.091 42.4494L495.694 40.5428ZM494.217 40.0761L477.789 33.9823L477.094 35.8575L493.521 41.9512L494.217 40.0761ZM478.441 34.9199V30.0703H476.441V34.9199H478.441ZM477.048 30.9896L499.468 40.5873L500.255 38.7487L477.835 29.151L477.048 30.9896ZM498.861 39.668V43.375H500.861V39.668H498.861ZM499.467 42.4561L477.047 52.0791L477.836 53.917L500.256 44.2939L499.467 42.4561Z" fill="#444444" mask="url(#path-6-outside-2_252_7)"/>
<mask id="path-8-outside-3_252_7" maskUnits="userSpaceOnUse" x="7" y="18" width="119" height="41" fill="black">
<rect fill="white" x="7" y="18" width="119" height="41"/>
<path d="M29.8477 53.0234L8.31641 43.4004V39.6934L29.8477 30.0957V35.0723L14.3086 41.166L12.9629 41.5977L14.3086 42.0547L29.8477 48.0469V53.0234ZM44.3457 34.6152C44.7181 34.0566 45.1328 33.5488 45.5898 33.0918C46.0469 32.6178 46.5293 32.2031 47.0371 31.8477C47.8496 31.2552 48.7383 30.8066 49.7031 30.502C50.6849 30.1973 51.7259 30.0365 52.8262 30.0195C54.265 30.0195 55.5684 30.2311 56.7363 30.6543C57.9212 31.0605 58.9284 31.7038 59.7578 32.584C60.5872 33.4642 61.222 34.5814 61.6621 35.9355C62.1191 37.2728 62.3477 38.8639 62.3477 40.709V58H57.6504V40.6582C57.6504 39.5749 57.5234 38.627 57.2695 37.8145C57.0156 36.985 56.6432 36.2995 56.1523 35.7578C55.6276 35.1654 54.9674 34.7253 54.1719 34.4375C53.3763 34.1328 52.4622 33.9889 51.4297 34.0059C50.5833 34.0059 49.7793 34.1243 49.0176 34.3613C48.2559 34.5983 47.5534 34.9368 46.9102 35.377C46.4023 35.7155 45.9284 36.1133 45.4883 36.5703C45.0651 37.0104 44.6842 37.5013 44.3457 38.043V58H39.6484V19H44.3457V34.6152ZM86.1133 58H81.416V27.0234L71.7422 30.7051V26.4141L85.7324 21.0312H86.1133V58ZM102.211 52.998V48.123L118.639 41.9277L120.162 41.4961L118.639 41.0137L102.211 34.9199V30.0703L124.631 39.668V43.375L102.211 52.998Z"/>
</mask>
<path d="M29.8477 53.0234L29.4396 53.9364L30.8477 54.5657V53.0234H29.8477ZM8.31641 43.4004H7.31641V44.0488L7.90837 44.3134L8.31641 43.4004ZM8.31641 39.6934L7.90927 38.78L7.31641 39.0443V39.6934H8.31641ZM29.8477 30.0957H30.8477V28.5551L29.4405 29.1823L29.8477 30.0957ZM29.8477 35.0723L30.2127 36.0032L30.8477 35.7543V35.0723H29.8477ZM14.3086 41.166L14.614 42.1182L14.6442 42.1086L14.6737 42.097L14.3086 41.166ZM12.9629 41.5977L12.6575 40.6454L9.77338 41.5705L12.6413 42.5445L12.9629 41.5977ZM14.3086 42.0547L14.6684 41.1217L14.6494 41.1143L14.6302 41.1078L14.3086 42.0547ZM29.8477 48.0469H30.8477V47.3607L30.2075 47.1138L29.8477 48.0469ZM30.2557 52.1105L8.72444 42.4874L7.90837 44.3134L29.4396 53.9364L30.2557 52.1105ZM9.31641 43.4004V39.6934H7.31641V43.4004H9.31641ZM8.72354 40.6067L30.2548 31.0091L29.4405 29.1823L7.90927 38.78L8.72354 40.6067ZM28.8477 30.0957V35.0723H30.8477V30.0957H28.8477ZM29.4826 34.1413L13.9435 40.235L14.6737 42.097L30.2127 36.0032L29.4826 34.1413ZM14.0032 40.2138L12.6575 40.6454L13.2683 42.5499L14.614 42.1182L14.0032 40.2138ZM12.6413 42.5445L13.987 43.0016L14.6302 41.1078L13.2845 40.6508L12.6413 42.5445ZM13.9488 42.9877L29.4879 48.9799L30.2075 47.1138L14.6684 41.1217L13.9488 42.9877ZM28.8477 48.0469V53.0234H30.8477V48.0469H28.8477ZM44.3457 34.6152H43.3457V37.918L45.1778 35.1699L44.3457 34.6152ZM45.5898 33.0918L46.297 33.7989L46.3034 33.7925L46.3097 33.7859L45.5898 33.0918ZM47.0371 31.8477L47.6106 32.6669L47.6185 32.6614L47.6263 32.6557L47.0371 31.8477ZM49.7031 30.502L49.4067 29.5469L49.402 29.5484L49.7031 30.502ZM52.8262 30.0195V29.0195H52.8185L52.8108 29.0196L52.8262 30.0195ZM56.7363 30.6543L56.3957 31.5945L56.4038 31.5974L56.412 31.6002L56.7363 30.6543ZM59.7578 32.584L59.03 33.2698L59.7578 32.584ZM61.6621 35.9355L60.7111 36.2446L60.7134 36.2518L60.7158 36.259L61.6621 35.9355ZM62.3477 58V59H63.3477V58H62.3477ZM57.6504 58H56.6504V59H57.6504V58ZM57.2695 37.8145L56.3133 38.1072L56.3151 38.1127L57.2695 37.8145ZM56.1523 35.7578L55.4037 36.4209L55.4114 36.4293L56.1523 35.7578ZM54.1719 34.4375L53.8142 35.3714L53.823 35.3747L53.8317 35.3779L54.1719 34.4375ZM51.4297 34.0059V35.0059H51.4379L51.4461 35.0057L51.4297 34.0059ZM46.9102 35.377L47.4649 36.2091L47.4748 36.2023L46.9102 35.377ZM45.4883 36.5703L44.768 35.8767L44.7674 35.8772L45.4883 36.5703ZM44.3457 38.043L43.4977 37.513L43.3457 37.7562V38.043H44.3457ZM44.3457 58V59H45.3457V58H44.3457ZM39.6484 58H38.6484V59H39.6484V58ZM39.6484 19V18H38.6484V19H39.6484ZM44.3457 19H45.3457V18H44.3457V19ZM45.1778 35.1699C45.515 34.664 45.8882 34.2076 46.297 33.7989L44.8827 32.3847C44.3774 32.89 43.9212 33.4493 43.5137 34.0605L45.1778 35.1699ZM46.3097 33.7859C46.7248 33.3554 47.1586 32.9833 47.6106 32.6669L46.4636 31.0284C45.9 31.423 45.3689 31.8802 44.87 32.3977L46.3097 33.7859ZM47.6263 32.6557C48.3507 32.1274 49.142 31.7278 50.0043 31.4555L49.402 29.5484C48.3345 29.8855 47.3485 30.383 46.4479 31.0396L47.6263 32.6557ZM49.9995 31.457C50.8841 31.1825 51.8299 31.035 52.8416 31.0194L52.8108 29.0196C51.6219 29.0379 50.4857 29.212 49.4067 29.5469L49.9995 31.457ZM52.8262 31.0195C54.1669 31.0195 55.3527 31.2166 56.3957 31.5945L57.077 29.7141C55.784 29.2456 54.3631 29.0195 52.8262 29.0195V31.0195ZM56.412 31.6002C57.449 31.9558 58.316 32.5121 59.03 33.2698L60.4856 31.8982C59.5408 30.8955 58.3935 30.1653 57.0607 29.7084L56.412 31.6002ZM59.03 33.2698C59.7417 34.025 60.3086 35.0063 60.7111 36.2446L62.6131 35.6265C62.1354 34.1565 61.4328 32.9034 60.4856 31.8982L59.03 33.2698ZM60.7158 36.259C61.1283 37.4658 61.3477 38.9422 61.3477 40.709H63.3477C63.3477 38.7856 63.11 37.0798 62.6084 35.6121L60.7158 36.259ZM61.3477 40.709V58H63.3477V40.709H61.3477ZM62.3477 57H57.6504V59H62.3477V57ZM58.6504 58V40.6582H56.6504V58H58.6504ZM58.6504 40.6582C58.6504 39.4999 58.515 38.4474 58.224 37.5162L56.3151 38.1127C56.5319 38.8065 56.6504 39.6499 56.6504 40.6582H58.6504ZM58.2257 37.5217C57.9367 36.5777 57.4996 35.7553 56.8933 35.0863L55.4114 36.4293C55.7868 36.8436 56.0945 37.3924 56.3133 38.1072L58.2257 37.5217ZM56.9009 35.0948C56.2577 34.3686 55.4536 33.8377 54.512 33.4971L53.8317 35.3779C54.4813 35.6128 54.9975 35.9621 55.4038 36.4208L56.9009 35.0948ZM54.5295 33.5036C53.5922 33.1447 52.5472 32.9874 51.4133 33.006L51.4461 35.0057C52.3773 34.9905 53.1604 35.1209 53.8142 35.3714L54.5295 33.5036ZM51.4297 33.0059C50.4888 33.0059 49.5841 33.1378 48.7205 33.4065L49.3146 35.3162C49.9745 35.1109 50.6779 35.0059 51.4297 35.0059V33.0059ZM48.7205 33.4065C47.8659 33.6724 47.0729 34.0539 46.3455 34.5516L47.4748 36.2023C48.0339 35.8198 48.6458 35.5243 49.3146 35.3162L48.7205 33.4065ZM46.3555 34.5449C45.7853 34.925 45.2561 35.3697 44.768 35.8767L46.2086 37.264C46.6006 36.8568 47.0194 36.506 47.4649 36.209L46.3555 34.5449ZM44.7674 35.8772C44.2942 36.3694 43.8712 36.9154 43.4977 37.513L45.1937 38.573C45.4973 38.0872 45.836 37.6515 46.2091 37.2634L44.7674 35.8772ZM43.3457 38.043V58H45.3457V38.043H43.3457ZM44.3457 57H39.6484V59H44.3457V57ZM40.6484 58V19H38.6484V58H40.6484ZM39.6484 20H44.3457V18H39.6484V20ZM43.3457 19V34.6152H45.3457V19H43.3457ZM86.1133 58V59H87.1133V58H86.1133ZM81.416 58H80.416V59H81.416V58ZM81.416 27.0234H82.416V25.5729L81.0603 26.0888L81.416 27.0234ZM71.7422 30.7051H70.7422V32.1556L72.0979 31.6397L71.7422 30.7051ZM71.7422 26.4141L71.3831 25.4808L70.7422 25.7274V26.4141H71.7422ZM85.7324 21.0312V20.0312H85.5467L85.3733 20.0979L85.7324 21.0312ZM86.1133 21.0312H87.1133V20.0312H86.1133V21.0312ZM86.1133 57H81.416V59H86.1133V57ZM82.416 58V27.0234H80.416V58H82.416ZM81.0603 26.0888L71.3865 29.7705L72.0979 31.6397L81.7717 27.958L81.0603 26.0888ZM72.7422 30.7051V26.4141H70.7422V30.7051H72.7422ZM72.1013 27.3474L86.0915 21.9646L85.3733 20.0979L71.3831 25.4808L72.1013 27.3474ZM85.7324 22.0312H86.1133V20.0312H85.7324V22.0312ZM85.1133 21.0312V58H87.1133V21.0312H85.1133ZM102.211 52.998H101.211V54.5155L102.605 53.917L102.211 52.998ZM102.211 48.123L101.858 47.1874L101.211 47.4314V48.123H102.211ZM118.639 41.9277L118.366 40.9656L118.325 40.9771L118.286 40.9921L118.639 41.9277ZM120.162 41.4961L120.435 42.4582L123.643 41.5493L120.464 40.5428L120.162 41.4961ZM118.639 41.0137L118.291 41.9512L118.314 41.9597L118.337 41.967L118.639 41.0137ZM102.211 34.9199H101.211V35.6156L101.863 35.8575L102.211 34.9199ZM102.211 30.0703L102.604 29.151L101.211 28.5544V30.0703H102.211ZM124.631 39.668H125.631V39.0083L125.024 38.7487L124.631 39.668ZM124.631 43.375L125.025 44.2939L125.631 44.034V43.375H124.631ZM103.211 52.998V48.123H101.211V52.998H103.211ZM102.564 49.0587L118.992 42.8634L118.286 40.9921L101.858 47.1874L102.564 49.0587ZM118.911 42.8899L120.435 42.4582L119.89 40.534L118.366 40.9656L118.911 42.8899ZM120.464 40.5428L118.941 40.0603L118.337 41.967L119.86 42.4494L120.464 40.5428ZM118.986 40.0761L102.559 33.9823L101.863 35.8575L118.291 41.9512L118.986 40.0761ZM103.211 34.9199V30.0703H101.211V34.9199H103.211ZM101.817 30.9896L124.237 40.5873L125.024 38.7487L102.604 29.151L101.817 30.9896ZM123.631 39.668V43.375H125.631V39.668H123.631ZM124.236 42.4561L101.817 52.0791L102.605 53.917L125.025 44.2939L124.236 42.4561Z" fill="#444444" mask="url(#path-8-outside-3_252_7)"/>
</svg>
