<svg width="30" height="20" viewBox="0 0 30 20" fill="none" xmlns="http://www.w3.org/2000/svg">
<path d="M26.3356 0H3.66444C1.64396 0 0 1.61437 0 3.59848V16.4015C0 18.3856 1.64396 20 3.66444 20H26.3356C28.356 20 30 18.3856 30 16.4015V3.59887C30.0004 1.61437 28.3564 0 26.3356 0ZM24.545 2.3476L15 8.38641L5.45502 2.3476H24.545ZM26.3356 17.6528H3.66444C2.96199 17.6528 2.39063 17.0913 2.39063 16.4019V3.66539L14.2625 11.1621C14.2784 11.1718 14.2956 11.1785 14.3119 11.1875C14.329 11.1969 14.3466 11.2059 14.3641 11.2145C14.4561 11.2611 14.551 11.2986 14.6478 11.3233C14.6577 11.326 14.6677 11.3272 14.6777 11.3295C14.784 11.3542 14.8916 11.3694 14.9992 11.3694H15C15.0008 11.3694 15.0016 11.3694 15.0016 11.3694C15.1092 11.3694 15.2168 11.3546 15.3231 11.3295C15.3331 11.3272 15.3431 11.326 15.353 11.3233C15.4498 11.2986 15.5443 11.2611 15.6367 11.2145C15.6542 11.2059 15.6718 11.1969 15.6889 11.1875C15.7052 11.1785 15.7224 11.1718 15.7383 11.1621L27.6102 3.66539V16.4015C27.6098 17.0913 27.038 17.6528 26.3356 17.6528Z" fill="black"/>
</svg>
