<svg width="25" height="30" viewBox="0 0 25 30" fill="none" xmlns="http://www.w3.org/2000/svg">
<path d="M22.3853 2.74529C18.9016 -0.915096 13.2286 -0.915096 9.74854 2.74529L0.0961881 12.8793C0.0333184 12.9454 3.41896e-05 13.0348 3.41896e-05 13.128C3.41896e-05 13.2213 0.0333184 13.3107 0.0961881 13.3767L1.46083 14.8106C1.52321 14.8758 1.60765 14.9125 1.69567 14.9125C1.78369 14.9125 1.86813 14.8758 1.9305 14.8106L11.5829 4.67651C12.7811 3.41752 14.375 2.72586 16.0688 2.72586C17.7626 2.72586 19.3565 3.41752 20.551 4.67651C21.7493 5.9355 22.4075 7.61026 22.4075 9.38605C22.4075 11.1657 21.7493 12.8366 20.551 14.0956L10.7138 24.4278L9.11984 26.1026C7.62946 27.6685 5.20713 27.6685 3.71674 26.1026C2.99559 25.3449 2.59988 24.3384 2.59988 23.266C2.59988 22.1935 2.99559 21.1871 3.71674 20.4294L13.4763 10.1787C13.7241 9.92228 14.0496 9.77851 14.3972 9.77851H14.4009C14.7485 9.77851 15.0703 9.92228 15.3144 10.1787C15.5621 10.4391 15.6953 10.781 15.6953 11.1463C15.6953 11.5077 15.5584 11.8496 15.3144 12.1061L7.3373 20.4799C7.27443 20.5459 7.24115 20.6353 7.24115 20.7286C7.24115 20.8218 7.27443 20.9112 7.3373 20.9773L8.70194 22.4111C8.76432 22.4764 8.84876 22.513 8.93678 22.513C9.0248 22.513 9.10924 22.4764 9.17162 22.4111L17.145 14.0334C17.8809 13.2602 18.284 12.2343 18.284 11.1424C18.284 10.0505 17.8772 9.02079 17.145 8.25141C15.625 6.65436 13.1546 6.65825 11.6346 8.25141L10.6879 9.25005L1.87873 18.502C1.28084 19.1266 0.806906 19.8696 0.48441 20.688C0.161913 21.5065 -0.00272807 22.3841 3.41896e-05 23.2699C3.41896e-05 25.069 0.669412 26.7593 1.87873 28.0299C3.13243 29.3433 4.77443 30 6.41644 30C8.05845 30 9.70046 29.3433 10.9505 28.0299L22.3853 16.0229C24.068 14.251 25 11.8924 25 9.38605C25.0037 6.87585 24.0717 4.51719 22.3853 2.74529Z" fill="black"/>
</svg>
