<svg width="24" height="28" viewBox="0 0 24 28" fill="none" xmlns="http://www.w3.org/2000/svg">
<path d="M21.4899 2.56227C18.1456 -0.85409 12.6994 -0.85409 9.3586 2.56227L0.0923406 12.0207C0.0319856 12.0824 3.2822e-05 12.1658 3.2822e-05 12.2528C3.2822e-05 12.3399 0.0319856 12.4233 0.0923406 12.4849L1.4024 13.8232C1.46228 13.8841 1.54334 13.9183 1.62784 13.9183C1.71234 13.9183 1.7934 13.8841 1.85328 13.8232L11.1195 4.36474C12.2698 3.18969 13.8 2.54414 15.426 2.54414C17.0521 2.54414 18.5822 3.18969 19.729 4.36474C20.8793 5.5398 21.5112 7.10291 21.5112 8.76031C21.5112 10.4213 20.8793 11.9808 19.729 13.1559L10.2852 22.7993L8.75505 24.3624C7.32428 25.824 4.99884 25.824 3.56807 24.3624C2.87577 23.6552 2.49589 22.7159 2.49589 21.7149C2.49589 20.7139 2.87577 19.7746 3.56807 19.0674L12.9373 9.50016C13.1752 9.2608 13.4876 9.12661 13.8213 9.12661H13.8249C14.1586 9.12661 14.4675 9.2608 14.7018 9.50016C14.9397 9.74315 15.0675 10.0623 15.0675 10.4032C15.0675 10.7405 14.9361 11.0596 14.7018 11.299L7.04381 19.1146C6.98345 19.1762 6.9515 19.2596 6.9515 19.3467C6.9515 19.4337 6.98345 19.5171 7.04381 19.5788L8.35386 20.917C8.41375 20.9779 8.49481 21.0121 8.57931 21.0121C8.66381 21.0121 8.74487 20.9779 8.80475 20.917L16.4592 13.0979C17.1657 12.3761 17.5527 11.4187 17.5527 10.3996C17.5527 9.38048 17.1621 8.4194 16.4592 7.70131C15 6.21074 12.6284 6.21436 11.1692 7.70131L10.2604 8.63338L1.80358 17.2686C1.22961 17.8515 0.77463 18.545 0.465033 19.3088C0.155436 20.0727 -0.00261895 20.8918 3.2822e-05 21.7185C3.2822e-05 23.3977 0.642635 24.9753 1.80358 26.1613C3.00713 27.3871 4.58346 28 6.15979 28C7.73611 28 9.31244 27.3871 10.5124 26.1613L21.4899 14.9547C23.1053 13.301 24 11.0995 24 8.76031C24.0035 6.41746 23.1089 4.21605 21.4899 2.56227Z" fill="black"/>
</svg>
